<?xml version="1.0" encoding="utf-8" standalone="no"?>
<!DOCTYPE svg PUBLIC "-//W3C//DTD SVG 1.1//EN"
  "http://www.w3.org/Graphics/SVG/1.1/DTD/svg11.dtd">
<svg xmlns:xlink="http://www.w3.org/1999/xlink" width="796.889062pt" height="599.55625pt" viewBox="0 0 796.889062 599.55625" xmlns="http://www.w3.org/2000/svg" version="1.1">
 <metadata>
  <rdf:RDF xmlns:dc="http://purl.org/dc/elements/1.1/" xmlns:cc="http://creativecommons.org/ns#" xmlns:rdf="http://www.w3.org/1999/02/22-rdf-syntax-ns#">
   <cc:Work>
    <dc:type rdf:resource="http://purl.org/dc/dcmitype/StillImage"/>
    <dc:date>2026-05-14T21:14:59.447284</dc:date>
    <dc:format>image/svg+xml</dc:format>
    <dc:creator>
     <cc:Agent>
      <dc:title>Matplotlib v3.10.9, https://matplotlib.org/</dc:title>
     </cc:Agent>
    </dc:creator>
   </cc:Work>
  </rdf:RDF>
 </metadata>
 <defs>
  <style type="text/css">*{stroke-linejoin: round; stroke-linecap: butt}</style>
 </defs>
 <g id="figure_1">
  <g id="patch_1">
   <path d="M 0 599.55625 
L 796.889062 599.55625 
L 796.889062 0 
L 0 0 
z
" style="fill: #ffffff"/>
  </g>
  <g id="axes_1">
   <g id="patch_2">
    <path d="M 120.089063 561.6 
L 789.689062 561.6 
L 789.689062 7.2 
L 120.089063 7.2 
z
" style="fill: #ffffff"/>
   </g>
   <g id="matplotlib.axis_1">
    <g id="xtick_1">
     <g id="line2d_1">
      <path d="M 120.089063 561.6 
L 120.089063 7.2 
" clip-path="url(#p8b6e5e9a4e)" style="fill: none; stroke: #b0b0b0; stroke-opacity: 0.3; stroke-width: 0.5; stroke-linecap: square"/>
     </g>
     <g id="line2d_2">
      <defs>
       <path id="mae9f31c82a" d="M 0 0 
L 0 3.5 
" style="stroke: #000000; stroke-width: 0.8"/>
      </defs>
      <g>
       <use xlink:href="#mae9f31c82a" x="120.089063" y="561.6" style="stroke: #000000; stroke-width: 0.8"/>
      </g>
     </g>
     <g id="text_1">
      <!-- 0 -->
      <g transform="translate(116.907813 576.198437) scale(0.1 -0.1)">
       <defs>
        <path id="DejaVuSans-30" d="M 2034 4250 
Q 1547 4250 1301 3770 
Q 1056 3291 1056 2328 
Q 1056 1369 1301 889 
Q 1547 409 2034 409 
Q 2525 409 2770 889 
Q 3016 1369 3016 2328 
Q 3016 3291 2770 3770 
Q 2525 4250 2034 4250 
z
M 2034 4750 
Q 2819 4750 3233 4129 
Q 3647 3509 3647 2328 
Q 3647 1150 3233 529 
Q 2819 -91 2034 -91 
Q 1250 -91 836 529 
Q 422 1150 422 2328 
Q 422 3509 836 4129 
Q 1250 4750 2034 4750 
z
" transform="scale(0.015625)"/>
       </defs>
       <use xlink:href="#DejaVuSans-30"/>
      </g>
     </g>
    </g>
    <g id="xtick_2">
     <g id="line2d_3">
      <path d="M 239.182416 561.6 
L 239.182416 7.2 
" clip-path="url(#p8b6e5e9a4e)" style="fill: none; stroke: #b0b0b0; stroke-opacity: 0.3; stroke-width: 0.5; stroke-linecap: square"/>
     </g>
     <g id="line2d_4">
      <g>
       <use xlink:href="#mae9f31c82a" x="239.182416" y="561.6" style="stroke: #000000; stroke-width: 0.8"/>
      </g>
     </g>
     <g id="text_2">
      <!-- 5 -->
      <g transform="translate(236.001166 576.198437) scale(0.1 -0.1)">
       <defs>
        <path id="DejaVuSans-35" d="M 691 4666 
L 3169 4666 
L 3169 4134 
L 1269 4134 
L 1269 2991 
Q 1406 3038 1543 3061 
Q 1681 3084 1819 3084 
Q 2600 3084 3056 2656 
Q 3513 2228 3513 1497 
Q 3513 744 3044 326 
Q 2575 -91 1722 -91 
Q 1428 -91 1123 -41 
Q 819 9 494 109 
L 494 744 
Q 775 591 1075 516 
Q 1375 441 1709 441 
Q 2250 441 2565 725 
Q 2881 1009 2881 1497 
Q 2881 1984 2565 2268 
Q 2250 2553 1709 2553 
Q 1456 2553 1204 2497 
Q 953 2441 691 2322 
L 691 4666 
z
" transform="scale(0.015625)"/>
       </defs>
       <use xlink:href="#DejaVuSans-35"/>
      </g>
     </g>
    </g>
    <g id="xtick_3">
     <g id="line2d_5">
      <path d="M 358.27577 561.6 
L 358.27577 7.2 
" clip-path="url(#p8b6e5e9a4e)" style="fill: none; stroke: #b0b0b0; stroke-opacity: 0.3; stroke-width: 0.5; stroke-linecap: square"/>
     </g>
     <g id="line2d_6">
      <g>
       <use xlink:href="#mae9f31c82a" x="358.27577" y="561.6" style="stroke: #000000; stroke-width: 0.8"/>
      </g>
     </g>
     <g id="text_3">
      <!-- 10 -->
      <g transform="translate(351.91327 576.198437) scale(0.1 -0.1)">
       <defs>
        <path id="DejaVuSans-31" d="M 794 531 
L 1825 531 
L 1825 4091 
L 703 3866 
L 703 4441 
L 1819 4666 
L 2450 4666 
L 2450 531 
L 3481 531 
L 3481 0 
L 794 0 
L 794 531 
z
" transform="scale(0.015625)"/>
       </defs>
       <use xlink:href="#DejaVuSans-31"/>
       <use xlink:href="#DejaVuSans-30" transform="translate(63.623047 0)"/>
      </g>
     </g>
    </g>
    <g id="xtick_4">
     <g id="line2d_7">
      <path d="M 477.369124 561.6 
L 477.369124 7.2 
" clip-path="url(#p8b6e5e9a4e)" style="fill: none; stroke: #b0b0b0; stroke-opacity: 0.3; stroke-width: 0.5; stroke-linecap: square"/>
     </g>
     <g id="line2d_8">
      <g>
       <use xlink:href="#mae9f31c82a" x="477.369124" y="561.6" style="stroke: #000000; stroke-width: 0.8"/>
      </g>
     </g>
     <g id="text_4">
      <!-- 15 -->
      <g transform="translate(471.006624 576.198437) scale(0.1 -0.1)">
       <use xlink:href="#DejaVuSans-31"/>
       <use xlink:href="#DejaVuSans-35" transform="translate(63.623047 0)"/>
      </g>
     </g>
    </g>
    <g id="xtick_5">
     <g id="line2d_9">
      <path d="M 596.462478 561.6 
L 596.462478 7.2 
" clip-path="url(#p8b6e5e9a4e)" style="fill: none; stroke: #b0b0b0; stroke-opacity: 0.3; stroke-width: 0.5; stroke-linecap: square"/>
     </g>
     <g id="line2d_10">
      <g>
       <use xlink:href="#mae9f31c82a" x="596.462478" y="561.6" style="stroke: #000000; stroke-width: 0.8"/>
      </g>
     </g>
     <g id="text_5">
      <!-- 20 -->
      <g transform="translate(590.099978 576.198437) scale(0.1 -0.1)">
       <defs>
        <path id="DejaVuSans-32" d="M 1228 531 
L 3431 531 
L 3431 0 
L 469 0 
L 469 531 
Q 828 903 1448 1529 
Q 2069 2156 2228 2338 
Q 2531 2678 2651 2914 
Q 2772 3150 2772 3378 
Q 2772 3750 2511 3984 
Q 2250 4219 1831 4219 
Q 1534 4219 1204 4116 
Q 875 4013 500 3803 
L 500 4441 
Q 881 4594 1212 4672 
Q 1544 4750 1819 4750 
Q 2544 4750 2975 4387 
Q 3406 4025 3406 3419 
Q 3406 3131 3298 2873 
Q 3191 2616 2906 2266 
Q 2828 2175 2409 1742 
Q 1991 1309 1228 531 
z
" transform="scale(0.015625)"/>
       </defs>
       <use xlink:href="#DejaVuSans-32"/>
       <use xlink:href="#DejaVuSans-30" transform="translate(63.623047 0)"/>
      </g>
     </g>
    </g>
    <g id="xtick_6">
     <g id="line2d_11">
      <path d="M 715.555832 561.6 
L 715.555832 7.2 
" clip-path="url(#p8b6e5e9a4e)" style="fill: none; stroke: #b0b0b0; stroke-opacity: 0.3; stroke-width: 0.5; stroke-linecap: square"/>
     </g>
     <g id="line2d_12">
      <g>
       <use xlink:href="#mae9f31c82a" x="715.555832" y="561.6" style="stroke: #000000; stroke-width: 0.8"/>
      </g>
     </g>
     <g id="text_6">
      <!-- 25 -->
      <g transform="translate(709.193332 576.198437) scale(0.1 -0.1)">
       <use xlink:href="#DejaVuSans-32"/>
       <use xlink:href="#DejaVuSans-35" transform="translate(63.623047 0)"/>
      </g>
     </g>
    </g>
    <g id="text_7">
     <!-- Frequência por 10.000 palavras -->
     <g transform="translate(375.639062 590.276562) scale(0.1 -0.1)">
      <defs>
       <path id="DejaVuSans-46" d="M 628 4666 
L 3309 4666 
L 3309 4134 
L 1259 4134 
L 1259 2759 
L 3109 2759 
L 3109 2228 
L 1259 2228 
L 1259 0 
L 628 0 
L 628 4666 
z
" transform="scale(0.015625)"/>
       <path id="DejaVuSans-72" d="M 2631 2963 
Q 2534 3019 2420 3045 
Q 2306 3072 2169 3072 
Q 1681 3072 1420 2755 
Q 1159 2438 1159 1844 
L 1159 0 
L 581 0 
L 581 3500 
L 1159 3500 
L 1159 2956 
Q 1341 3275 1631 3429 
Q 1922 3584 2338 3584 
Q 2397 3584 2469 3576 
Q 2541 3569 2628 3553 
L 2631 2963 
z
" transform="scale(0.015625)"/>
       <path id="DejaVuSans-65" d="M 3597 1894 
L 3597 1613 
L 953 1613 
Q 991 1019 1311 708 
Q 1631 397 2203 397 
Q 2534 397 2845 478 
Q 3156 559 3463 722 
L 3463 178 
Q 3153 47 2828 -22 
Q 2503 -91 2169 -91 
Q 1331 -91 842 396 
Q 353 884 353 1716 
Q 353 2575 817 3079 
Q 1281 3584 2069 3584 
Q 2775 3584 3186 3129 
Q 3597 2675 3597 1894 
z
M 3022 2063 
Q 3016 2534 2758 2815 
Q 2500 3097 2075 3097 
Q 1594 3097 1305 2825 
Q 1016 2553 972 2059 
L 3022 2063 
z
" transform="scale(0.015625)"/>
       <path id="DejaVuSans-71" d="M 947 1747 
Q 947 1113 1208 752 
Q 1469 391 1925 391 
Q 2381 391 2643 752 
Q 2906 1113 2906 1747 
Q 2906 2381 2643 2742 
Q 2381 3103 1925 3103 
Q 1469 3103 1208 2742 
Q 947 2381 947 1747 
z
M 2906 525 
Q 2725 213 2448 61 
Q 2172 -91 1784 -91 
Q 1150 -91 751 415 
Q 353 922 353 1747 
Q 353 2572 751 3078 
Q 1150 3584 1784 3584 
Q 2172 3584 2448 3432 
Q 2725 3281 2906 2969 
L 2906 3500 
L 3481 3500 
L 3481 -1331 
L 2906 -1331 
L 2906 525 
z
" transform="scale(0.015625)"/>
       <path id="DejaVuSans-75" d="M 544 1381 
L 544 3500 
L 1119 3500 
L 1119 1403 
Q 1119 906 1312 657 
Q 1506 409 1894 409 
Q 2359 409 2629 706 
Q 2900 1003 2900 1516 
L 2900 3500 
L 3475 3500 
L 3475 0 
L 2900 0 
L 2900 538 
Q 2691 219 2414 64 
Q 2138 -91 1772 -91 
Q 1169 -91 856 284 
Q 544 659 544 1381 
z
M 1991 3584 
L 1991 3584 
z
" transform="scale(0.015625)"/>
       <path id="DejaVuSans-ea" d="M 3597 1894 
L 3597 1613 
L 953 1613 
Q 991 1019 1311 708 
Q 1631 397 2203 397 
Q 2534 397 2845 478 
Q 3156 559 3463 722 
L 3463 178 
Q 3153 47 2828 -22 
Q 2503 -91 2169 -91 
Q 1331 -91 842 396 
Q 353 884 353 1716 
Q 353 2575 817 3079 
Q 1281 3584 2069 3584 
Q 2775 3584 3186 3129 
Q 3597 2675 3597 1894 
z
M 3022 2063 
Q 3016 2534 2758 2815 
Q 2500 3097 2075 3097 
Q 1594 3097 1305 2825 
Q 1016 2553 972 2059 
L 3022 2063 
z
M 1801 5119 
L 2263 5119 
L 3029 3944 
L 2595 3944 
L 2032 4709 
L 1470 3944 
L 1035 3944 
L 1801 5119 
z
" transform="scale(0.015625)"/>
       <path id="DejaVuSans-6e" d="M 3513 2113 
L 3513 0 
L 2938 0 
L 2938 2094 
Q 2938 2591 2744 2837 
Q 2550 3084 2163 3084 
Q 1697 3084 1428 2787 
Q 1159 2491 1159 1978 
L 1159 0 
L 581 0 
L 581 3500 
L 1159 3500 
L 1159 2956 
Q 1366 3272 1645 3428 
Q 1925 3584 2291 3584 
Q 2894 3584 3203 3211 
Q 3513 2838 3513 2113 
z
" transform="scale(0.015625)"/>
       <path id="DejaVuSans-63" d="M 3122 3366 
L 3122 2828 
Q 2878 2963 2633 3030 
Q 2388 3097 2138 3097 
Q 1578 3097 1268 2742 
Q 959 2388 959 1747 
Q 959 1106 1268 751 
Q 1578 397 2138 397 
Q 2388 397 2633 464 
Q 2878 531 3122 666 
L 3122 134 
Q 2881 22 2623 -34 
Q 2366 -91 2075 -91 
Q 1284 -91 818 406 
Q 353 903 353 1747 
Q 353 2603 823 3093 
Q 1294 3584 2113 3584 
Q 2378 3584 2631 3529 
Q 2884 3475 3122 3366 
z
" transform="scale(0.015625)"/>
       <path id="DejaVuSans-69" d="M 603 3500 
L 1178 3500 
L 1178 0 
L 603 0 
L 603 3500 
z
M 603 4863 
L 1178 4863 
L 1178 4134 
L 603 4134 
L 603 4863 
z
" transform="scale(0.015625)"/>
       <path id="DejaVuSans-61" d="M 2194 1759 
Q 1497 1759 1228 1600 
Q 959 1441 959 1056 
Q 959 750 1161 570 
Q 1363 391 1709 391 
Q 2188 391 2477 730 
Q 2766 1069 2766 1631 
L 2766 1759 
L 2194 1759 
z
M 3341 1997 
L 3341 0 
L 2766 0 
L 2766 531 
Q 2569 213 2275 61 
Q 1981 -91 1556 -91 
Q 1019 -91 701 211 
Q 384 513 384 1019 
Q 384 1609 779 1909 
Q 1175 2209 1959 2209 
L 2766 2209 
L 2766 2266 
Q 2766 2663 2505 2880 
Q 2244 3097 1772 3097 
Q 1472 3097 1187 3025 
Q 903 2953 641 2809 
L 641 3341 
Q 956 3463 1253 3523 
Q 1550 3584 1831 3584 
Q 2591 3584 2966 3190 
Q 3341 2797 3341 1997 
z
" transform="scale(0.015625)"/>
       <path id="DejaVuSans-20" transform="scale(0.015625)"/>
       <path id="DejaVuSans-70" d="M 1159 525 
L 1159 -1331 
L 581 -1331 
L 581 3500 
L 1159 3500 
L 1159 2969 
Q 1341 3281 1617 3432 
Q 1894 3584 2278 3584 
Q 2916 3584 3314 3078 
Q 3713 2572 3713 1747 
Q 3713 922 3314 415 
Q 2916 -91 2278 -91 
Q 1894 -91 1617 61 
Q 1341 213 1159 525 
z
M 3116 1747 
Q 3116 2381 2855 2742 
Q 2594 3103 2138 3103 
Q 1681 3103 1420 2742 
Q 1159 2381 1159 1747 
Q 1159 1113 1420 752 
Q 1681 391 2138 391 
Q 2594 391 2855 752 
Q 3116 1113 3116 1747 
z
" transform="scale(0.015625)"/>
       <path id="DejaVuSans-6f" d="M 1959 3097 
Q 1497 3097 1228 2736 
Q 959 2375 959 1747 
Q 959 1119 1226 758 
Q 1494 397 1959 397 
Q 2419 397 2687 759 
Q 2956 1122 2956 1747 
Q 2956 2369 2687 2733 
Q 2419 3097 1959 3097 
z
M 1959 3584 
Q 2709 3584 3137 3096 
Q 3566 2609 3566 1747 
Q 3566 888 3137 398 
Q 2709 -91 1959 -91 
Q 1206 -91 779 398 
Q 353 888 353 1747 
Q 353 2609 779 3096 
Q 1206 3584 1959 3584 
z
" transform="scale(0.015625)"/>
       <path id="DejaVuSans-2e" d="M 684 794 
L 1344 794 
L 1344 0 
L 684 0 
L 684 794 
z
" transform="scale(0.015625)"/>
       <path id="DejaVuSans-6c" d="M 603 4863 
L 1178 4863 
L 1178 0 
L 603 0 
L 603 4863 
z
" transform="scale(0.015625)"/>
       <path id="DejaVuSans-76" d="M 191 3500 
L 800 3500 
L 1894 563 
L 2988 3500 
L 3597 3500 
L 2284 0 
L 1503 0 
L 191 3500 
z
" transform="scale(0.015625)"/>
       <path id="DejaVuSans-73" d="M 2834 3397 
L 2834 2853 
Q 2591 2978 2328 3040 
Q 2066 3103 1784 3103 
Q 1356 3103 1142 2972 
Q 928 2841 928 2578 
Q 928 2378 1081 2264 
Q 1234 2150 1697 2047 
L 1894 2003 
Q 2506 1872 2764 1633 
Q 3022 1394 3022 966 
Q 3022 478 2636 193 
Q 2250 -91 1575 -91 
Q 1294 -91 989 -36 
Q 684 19 347 128 
L 347 722 
Q 666 556 975 473 
Q 1284 391 1588 391 
Q 1994 391 2212 530 
Q 2431 669 2431 922 
Q 2431 1156 2273 1281 
Q 2116 1406 1581 1522 
L 1381 1569 
Q 847 1681 609 1914 
Q 372 2147 372 2553 
Q 372 3047 722 3315 
Q 1072 3584 1716 3584 
Q 2034 3584 2315 3537 
Q 2597 3491 2834 3397 
z
" transform="scale(0.015625)"/>
      </defs>
      <use xlink:href="#DejaVuSans-46"/>
      <use xlink:href="#DejaVuSans-72" transform="translate(50.269531 0)"/>
      <use xlink:href="#DejaVuSans-65" transform="translate(89.132812 0)"/>
      <use xlink:href="#DejaVuSans-71" transform="translate(150.65625 0)"/>
      <use xlink:href="#DejaVuSans-75" transform="translate(214.132812 0)"/>
      <use xlink:href="#DejaVuSans-ea" transform="translate(277.511719 0)"/>
      <use xlink:href="#DejaVuSans-6e" transform="translate(339.035156 0)"/>
      <use xlink:href="#DejaVuSans-63" transform="translate(402.414062 0)"/>
      <use xlink:href="#DejaVuSans-69" transform="translate(457.394531 0)"/>
      <use xlink:href="#DejaVuSans-61" transform="translate(485.177734 0)"/>
      <use xlink:href="#DejaVuSans-20" transform="translate(546.457031 0)"/>
      <use xlink:href="#DejaVuSans-70" transform="translate(578.244141 0)"/>
      <use xlink:href="#DejaVuSans-6f" transform="translate(641.720703 0)"/>
      <use xlink:href="#DejaVuSans-72" transform="translate(702.902344 0)"/>
      <use xlink:href="#DejaVuSans-20" transform="translate(744.015625 0)"/>
      <use xlink:href="#DejaVuSans-31" transform="translate(775.802734 0)"/>
      <use xlink:href="#DejaVuSans-30" transform="translate(839.425781 0)"/>
      <use xlink:href="#DejaVuSans-2e" transform="translate(903.048828 0)"/>
      <use xlink:href="#DejaVuSans-30" transform="translate(934.835938 0)"/>
      <use xlink:href="#DejaVuSans-30" transform="translate(998.458984 0)"/>
      <use xlink:href="#DejaVuSans-30" transform="translate(1062.082031 0)"/>
      <use xlink:href="#DejaVuSans-20" transform="translate(1125.705078 0)"/>
      <use xlink:href="#DejaVuSans-70" transform="translate(1157.492188 0)"/>
      <use xlink:href="#DejaVuSans-61" transform="translate(1220.96875 0)"/>
      <use xlink:href="#DejaVuSans-6c" transform="translate(1282.248047 0)"/>
      <use xlink:href="#DejaVuSans-61" transform="translate(1310.03125 0)"/>
      <use xlink:href="#DejaVuSans-76" transform="translate(1371.310547 0)"/>
      <use xlink:href="#DejaVuSans-72" transform="translate(1430.490234 0)"/>
      <use xlink:href="#DejaVuSans-61" transform="translate(1471.603516 0)"/>
      <use xlink:href="#DejaVuSans-73" transform="translate(1532.882812 0)"/>
     </g>
    </g>
   </g>
   <g id="matplotlib.axis_2">
    <g id="ytick_1">
     <g id="line2d_13">
      <defs>
       <path id="mde8b278952" d="M 0 0 
L -3.5 0 
" style="stroke: #000000; stroke-width: 0.8"/>
      </defs>
      <g>
       <use xlink:href="#mde8b278952" x="120.089063" y="44.542772" style="stroke: #000000; stroke-width: 0.8"/>
      </g>
     </g>
     <g id="text_8">
      <!-- militar -->
      <g transform="translate(80.854688 48.341991) scale(0.1 -0.1)">
       <defs>
        <path id="DejaVuSans-6d" d="M 3328 2828 
Q 3544 3216 3844 3400 
Q 4144 3584 4550 3584 
Q 5097 3584 5394 3201 
Q 5691 2819 5691 2113 
L 5691 0 
L 5113 0 
L 5113 2094 
Q 5113 2597 4934 2840 
Q 4756 3084 4391 3084 
Q 3944 3084 3684 2787 
Q 3425 2491 3425 1978 
L 3425 0 
L 2847 0 
L 2847 2094 
Q 2847 2600 2669 2842 
Q 2491 3084 2119 3084 
Q 1678 3084 1418 2786 
Q 1159 2488 1159 1978 
L 1159 0 
L 581 0 
L 581 3500 
L 1159 3500 
L 1159 2956 
Q 1356 3278 1631 3431 
Q 1906 3584 2284 3584 
Q 2666 3584 2933 3390 
Q 3200 3197 3328 2828 
z
" transform="scale(0.015625)"/>
        <path id="DejaVuSans-74" d="M 1172 4494 
L 1172 3500 
L 2356 3500 
L 2356 3053 
L 1172 3053 
L 1172 1153 
Q 1172 725 1289 603 
Q 1406 481 1766 481 
L 2356 481 
L 2356 0 
L 1766 0 
Q 1100 0 847 248 
Q 594 497 594 1153 
L 594 3053 
L 172 3053 
L 172 3500 
L 594 3500 
L 594 4494 
L 1172 4494 
z
" transform="scale(0.015625)"/>
       </defs>
       <use xlink:href="#DejaVuSans-6d"/>
       <use xlink:href="#DejaVuSans-69" transform="translate(97.412109 0)"/>
       <use xlink:href="#DejaVuSans-6c" transform="translate(125.195312 0)"/>
       <use xlink:href="#DejaVuSans-69" transform="translate(152.978516 0)"/>
       <use xlink:href="#DejaVuSans-74" transform="translate(180.761719 0)"/>
       <use xlink:href="#DejaVuSans-61" transform="translate(219.970703 0)"/>
       <use xlink:href="#DejaVuSans-72" transform="translate(281.25 0)"/>
      </g>
     </g>
    </g>
    <g id="ytick_2">
     <g id="line2d_14">
      <g>
       <use xlink:href="#mde8b278952" x="120.089063" y="74.524926" style="stroke: #000000; stroke-width: 0.8"/>
      </g>
     </g>
     <g id="text_9">
      <!-- black_box -->
      <g transform="translate(63.471875 78.324144) scale(0.1 -0.1)">
       <defs>
        <path id="DejaVuSans-62" d="M 3116 1747 
Q 3116 2381 2855 2742 
Q 2594 3103 2138 3103 
Q 1681 3103 1420 2742 
Q 1159 2381 1159 1747 
Q 1159 1113 1420 752 
Q 1681 391 2138 391 
Q 2594 391 2855 752 
Q 3116 1113 3116 1747 
z
M 1159 2969 
Q 1341 3281 1617 3432 
Q 1894 3584 2278 3584 
Q 2916 3584 3314 3078 
Q 3713 2572 3713 1747 
Q 3713 922 3314 415 
Q 2916 -91 2278 -91 
Q 1894 -91 1617 61 
Q 1341 213 1159 525 
L 1159 0 
L 581 0 
L 581 4863 
L 1159 4863 
L 1159 2969 
z
" transform="scale(0.015625)"/>
        <path id="DejaVuSans-6b" d="M 581 4863 
L 1159 4863 
L 1159 1991 
L 2875 3500 
L 3609 3500 
L 1753 1863 
L 3688 0 
L 2938 0 
L 1159 1709 
L 1159 0 
L 581 0 
L 581 4863 
z
" transform="scale(0.015625)"/>
        <path id="DejaVuSans-5f" d="M 3263 -1063 
L 3263 -1509 
L -63 -1509 
L -63 -1063 
L 3263 -1063 
z
" transform="scale(0.015625)"/>
        <path id="DejaVuSans-78" d="M 3513 3500 
L 2247 1797 
L 3578 0 
L 2900 0 
L 1881 1375 
L 863 0 
L 184 0 
L 1544 1831 
L 300 3500 
L 978 3500 
L 1906 2253 
L 2834 3500 
L 3513 3500 
z
" transform="scale(0.015625)"/>
       </defs>
       <use xlink:href="#DejaVuSans-62"/>
       <use xlink:href="#DejaVuSans-6c" transform="translate(63.476562 0)"/>
       <use xlink:href="#DejaVuSans-61" transform="translate(91.259766 0)"/>
       <use xlink:href="#DejaVuSans-63" transform="translate(152.539062 0)"/>
       <use xlink:href="#DejaVuSans-6b" transform="translate(207.519531 0)"/>
       <use xlink:href="#DejaVuSans-5f" transform="translate(265.429688 0)"/>
       <use xlink:href="#DejaVuSans-62" transform="translate(315.429688 0)"/>
       <use xlink:href="#DejaVuSans-6f" transform="translate(378.90625 0)"/>
       <use xlink:href="#DejaVuSans-78" transform="translate(436.962891 0)"/>
      </g>
     </g>
    </g>
    <g id="ytick_3">
     <g id="line2d_15">
      <g>
       <use xlink:href="#mde8b278952" x="120.089063" y="104.507079" style="stroke: #000000; stroke-width: 0.8"/>
      </g>
     </g>
     <g id="text_10">
      <!-- network -->
      <g transform="translate(72.479688 108.306298) scale(0.1 -0.1)">
       <defs>
        <path id="DejaVuSans-77" d="M 269 3500 
L 844 3500 
L 1563 769 
L 2278 3500 
L 2956 3500 
L 3675 769 
L 4391 3500 
L 4966 3500 
L 4050 0 
L 3372 0 
L 2619 2869 
L 1863 0 
L 1184 0 
L 269 3500 
z
" transform="scale(0.015625)"/>
       </defs>
       <use xlink:href="#DejaVuSans-6e"/>
       <use xlink:href="#DejaVuSans-65" transform="translate(63.378906 0)"/>
       <use xlink:href="#DejaVuSans-74" transform="translate(124.902344 0)"/>
       <use xlink:href="#DejaVuSans-77" transform="translate(164.111328 0)"/>
       <use xlink:href="#DejaVuSans-6f" transform="translate(245.898438 0)"/>
       <use xlink:href="#DejaVuSans-72" transform="translate(307.080078 0)"/>
       <use xlink:href="#DejaVuSans-6b" transform="translate(348.193359 0)"/>
      </g>
     </g>
    </g>
    <g id="ytick_4">
     <g id="line2d_16">
      <g>
       <use xlink:href="#mde8b278952" x="120.089063" y="134.489233" style="stroke: #000000; stroke-width: 0.8"/>
      </g>
     </g>
     <g id="text_11">
      <!-- translation -->
      <g transform="translate(59.321875 138.288451) scale(0.1 -0.1)">
       <use xlink:href="#DejaVuSans-74"/>
       <use xlink:href="#DejaVuSans-72" transform="translate(39.208984 0)"/>
       <use xlink:href="#DejaVuSans-61" transform="translate(80.322266 0)"/>
       <use xlink:href="#DejaVuSans-6e" transform="translate(141.601562 0)"/>
       <use xlink:href="#DejaVuSans-73" transform="translate(204.980469 0)"/>
       <use xlink:href="#DejaVuSans-6c" transform="translate(257.080078 0)"/>
       <use xlink:href="#DejaVuSans-61" transform="translate(284.863281 0)"/>
       <use xlink:href="#DejaVuSans-74" transform="translate(346.142578 0)"/>
       <use xlink:href="#DejaVuSans-69" transform="translate(385.351562 0)"/>
       <use xlink:href="#DejaVuSans-6f" transform="translate(413.134766 0)"/>
       <use xlink:href="#DejaVuSans-6e" transform="translate(474.316406 0)"/>
      </g>
     </g>
    </g>
    <g id="ytick_5">
     <g id="line2d_17">
      <g>
       <use xlink:href="#mde8b278952" x="120.089063" y="164.471386" style="stroke: #000000; stroke-width: 0.8"/>
      </g>
     </g>
     <g id="text_12">
      <!-- inscription -->
      <g transform="translate(60.873438 168.270605) scale(0.1 -0.1)">
       <use xlink:href="#DejaVuSans-69"/>
       <use xlink:href="#DejaVuSans-6e" transform="translate(27.783203 0)"/>
       <use xlink:href="#DejaVuSans-73" transform="translate(91.162109 0)"/>
       <use xlink:href="#DejaVuSans-63" transform="translate(143.261719 0)"/>
       <use xlink:href="#DejaVuSans-72" transform="translate(198.242188 0)"/>
       <use xlink:href="#DejaVuSans-69" transform="translate(239.355469 0)"/>
       <use xlink:href="#DejaVuSans-70" transform="translate(267.138672 0)"/>
       <use xlink:href="#DejaVuSans-74" transform="translate(330.615234 0)"/>
       <use xlink:href="#DejaVuSans-69" transform="translate(369.824219 0)"/>
       <use xlink:href="#DejaVuSans-6f" transform="translate(397.607422 0)"/>
       <use xlink:href="#DejaVuSans-6e" transform="translate(458.789062 0)"/>
      </g>
     </g>
    </g>
    <g id="ytick_6">
     <g id="line2d_18">
      <g>
       <use xlink:href="#mde8b278952" x="120.089063" y="194.45354" style="stroke: #000000; stroke-width: 0.8"/>
      </g>
     </g>
     <g id="text_13">
      <!-- construction -->
      <g transform="translate(50.903125 198.252758) scale(0.1 -0.1)">
       <use xlink:href="#DejaVuSans-63"/>
       <use xlink:href="#DejaVuSans-6f" transform="translate(54.980469 0)"/>
       <use xlink:href="#DejaVuSans-6e" transform="translate(116.162109 0)"/>
       <use xlink:href="#DejaVuSans-73" transform="translate(179.541016 0)"/>
       <use xlink:href="#DejaVuSans-74" transform="translate(231.640625 0)"/>
       <use xlink:href="#DejaVuSans-72" transform="translate(270.849609 0)"/>
       <use xlink:href="#DejaVuSans-75" transform="translate(311.962891 0)"/>
       <use xlink:href="#DejaVuSans-63" transform="translate(375.341797 0)"/>
       <use xlink:href="#DejaVuSans-74" transform="translate(430.322266 0)"/>
       <use xlink:href="#DejaVuSans-69" transform="translate(469.53125 0)"/>
       <use xlink:href="#DejaVuSans-6f" transform="translate(497.314453 0)"/>
       <use xlink:href="#DejaVuSans-6e" transform="translate(558.496094 0)"/>
      </g>
     </g>
    </g>
    <g id="ytick_7">
     <g id="line2d_19">
      <g>
       <use xlink:href="#mde8b278952" x="120.089063" y="224.435693" style="stroke: #000000; stroke-width: 0.8"/>
      </g>
     </g>
     <g id="text_14">
      <!-- spokesperson -->
      <g transform="translate(44.34375 228.234912) scale(0.1 -0.1)">
       <use xlink:href="#DejaVuSans-73"/>
       <use xlink:href="#DejaVuSans-70" transform="translate(52.099609 0)"/>
       <use xlink:href="#DejaVuSans-6f" transform="translate(115.576172 0)"/>
       <use xlink:href="#DejaVuSans-6b" transform="translate(176.757812 0)"/>
       <use xlink:href="#DejaVuSans-65" transform="translate(231.042969 0)"/>
       <use xlink:href="#DejaVuSans-73" transform="translate(292.566406 0)"/>
       <use xlink:href="#DejaVuSans-70" transform="translate(344.666016 0)"/>
       <use xlink:href="#DejaVuSans-65" transform="translate(408.142578 0)"/>
       <use xlink:href="#DejaVuSans-72" transform="translate(469.666016 0)"/>
       <use xlink:href="#DejaVuSans-73" transform="translate(510.779297 0)"/>
       <use xlink:href="#DejaVuSans-6f" transform="translate(562.878906 0)"/>
       <use xlink:href="#DejaVuSans-6e" transform="translate(624.060547 0)"/>
      </g>
     </g>
    </g>
    <g id="ytick_8">
     <g id="line2d_20">
      <g>
       <use xlink:href="#mde8b278952" x="120.089063" y="254.417847" style="stroke: #000000; stroke-width: 0.8"/>
      </g>
     </g>
     <g id="text_15">
      <!-- enrollment -->
      <g transform="translate(58.885938 258.217065) scale(0.1 -0.1)">
       <use xlink:href="#DejaVuSans-65"/>
       <use xlink:href="#DejaVuSans-6e" transform="translate(61.523438 0)"/>
       <use xlink:href="#DejaVuSans-72" transform="translate(124.902344 0)"/>
       <use xlink:href="#DejaVuSans-6f" transform="translate(163.765625 0)"/>
       <use xlink:href="#DejaVuSans-6c" transform="translate(224.947266 0)"/>
       <use xlink:href="#DejaVuSans-6c" transform="translate(252.730469 0)"/>
       <use xlink:href="#DejaVuSans-6d" transform="translate(280.513672 0)"/>
       <use xlink:href="#DejaVuSans-65" transform="translate(377.925781 0)"/>
       <use xlink:href="#DejaVuSans-6e" transform="translate(439.449219 0)"/>
       <use xlink:href="#DejaVuSans-74" transform="translate(502.828125 0)"/>
      </g>
     </g>
    </g>
    <g id="ytick_9">
     <g id="line2d_21">
      <g>
       <use xlink:href="#mde8b278952" x="120.089063" y="284.4" style="stroke: #000000; stroke-width: 0.8"/>
      </g>
     </g>
     <g id="text_16">
      <!-- trial_of_strength -->
      <g transform="translate(31.621875 288.199219) scale(0.1 -0.1)">
       <defs>
        <path id="DejaVuSans-66" d="M 2375 4863 
L 2375 4384 
L 1825 4384 
Q 1516 4384 1395 4259 
Q 1275 4134 1275 3809 
L 1275 3500 
L 2222 3500 
L 2222 3053 
L 1275 3053 
L 1275 0 
L 697 0 
L 697 3053 
L 147 3053 
L 147 3500 
L 697 3500 
L 697 3744 
Q 697 4328 969 4595 
Q 1241 4863 1831 4863 
L 2375 4863 
z
" transform="scale(0.015625)"/>
        <path id="DejaVuSans-67" d="M 2906 1791 
Q 2906 2416 2648 2759 
Q 2391 3103 1925 3103 
Q 1463 3103 1205 2759 
Q 947 2416 947 1791 
Q 947 1169 1205 825 
Q 1463 481 1925 481 
Q 2391 481 2648 825 
Q 2906 1169 2906 1791 
z
M 3481 434 
Q 3481 -459 3084 -895 
Q 2688 -1331 1869 -1331 
Q 1566 -1331 1297 -1286 
Q 1028 -1241 775 -1147 
L 775 -588 
Q 1028 -725 1275 -790 
Q 1522 -856 1778 -856 
Q 2344 -856 2625 -561 
Q 2906 -266 2906 331 
L 2906 616 
Q 2728 306 2450 153 
Q 2172 0 1784 0 
Q 1141 0 747 490 
Q 353 981 353 1791 
Q 353 2603 747 3093 
Q 1141 3584 1784 3584 
Q 2172 3584 2450 3431 
Q 2728 3278 2906 2969 
L 2906 3500 
L 3481 3500 
L 3481 434 
z
" transform="scale(0.015625)"/>
        <path id="DejaVuSans-68" d="M 3513 2113 
L 3513 0 
L 2938 0 
L 2938 2094 
Q 2938 2591 2744 2837 
Q 2550 3084 2163 3084 
Q 1697 3084 1428 2787 
Q 1159 2491 1159 1978 
L 1159 0 
L 581 0 
L 581 4863 
L 1159 4863 
L 1159 2956 
Q 1366 3272 1645 3428 
Q 1925 3584 2291 3584 
Q 2894 3584 3203 3211 
Q 3513 2838 3513 2113 
z
" transform="scale(0.015625)"/>
       </defs>
       <use xlink:href="#DejaVuSans-74"/>
       <use xlink:href="#DejaVuSans-72" transform="translate(39.208984 0)"/>
       <use xlink:href="#DejaVuSans-69" transform="translate(80.322266 0)"/>
       <use xlink:href="#DejaVuSans-61" transform="translate(108.105469 0)"/>
       <use xlink:href="#DejaVuSans-6c" transform="translate(169.384766 0)"/>
       <use xlink:href="#DejaVuSans-5f" transform="translate(197.167969 0)"/>
       <use xlink:href="#DejaVuSans-6f" transform="translate(247.167969 0)"/>
       <use xlink:href="#DejaVuSans-66" transform="translate(308.349609 0)"/>
       <use xlink:href="#DejaVuSans-5f" transform="translate(343.554688 0)"/>
       <use xlink:href="#DejaVuSans-73" transform="translate(393.554688 0)"/>
       <use xlink:href="#DejaVuSans-74" transform="translate(445.654297 0)"/>
       <use xlink:href="#DejaVuSans-72" transform="translate(484.863281 0)"/>
       <use xlink:href="#DejaVuSans-65" transform="translate(523.726562 0)"/>
       <use xlink:href="#DejaVuSans-6e" transform="translate(585.25 0)"/>
       <use xlink:href="#DejaVuSans-67" transform="translate(648.628906 0)"/>
       <use xlink:href="#DejaVuSans-74" transform="translate(712.105469 0)"/>
       <use xlink:href="#DejaVuSans-68" transform="translate(751.314453 0)"/>
      </g>
     </g>
    </g>
    <g id="ytick_10">
     <g id="line2d_22">
      <g>
       <use xlink:href="#mde8b278952" x="120.089063" y="314.382153" style="stroke: #000000; stroke-width: 0.8"/>
      </g>
     </g>
     <g id="text_17">
      <!-- centre_of_calculation -->
      <g transform="translate(7.2 318.181372) scale(0.1 -0.1)">
       <use xlink:href="#DejaVuSans-63"/>
       <use xlink:href="#DejaVuSans-65" transform="translate(54.980469 0)"/>
       <use xlink:href="#DejaVuSans-6e" transform="translate(116.503906 0)"/>
       <use xlink:href="#DejaVuSans-74" transform="translate(179.882812 0)"/>
       <use xlink:href="#DejaVuSans-72" transform="translate(219.091797 0)"/>
       <use xlink:href="#DejaVuSans-65" transform="translate(257.955078 0)"/>
       <use xlink:href="#DejaVuSans-5f" transform="translate(319.478516 0)"/>
       <use xlink:href="#DejaVuSans-6f" transform="translate(369.478516 0)"/>
       <use xlink:href="#DejaVuSans-66" transform="translate(430.660156 0)"/>
       <use xlink:href="#DejaVuSans-5f" transform="translate(465.865234 0)"/>
       <use xlink:href="#DejaVuSans-63" transform="translate(515.865234 0)"/>
       <use xlink:href="#DejaVuSans-61" transform="translate(570.845703 0)"/>
       <use xlink:href="#DejaVuSans-6c" transform="translate(632.125 0)"/>
       <use xlink:href="#DejaVuSans-63" transform="translate(659.908203 0)"/>
       <use xlink:href="#DejaVuSans-75" transform="translate(714.888672 0)"/>
       <use xlink:href="#DejaVuSans-6c" transform="translate(778.267578 0)"/>
       <use xlink:href="#DejaVuSans-61" transform="translate(806.050781 0)"/>
       <use xlink:href="#DejaVuSans-74" transform="translate(867.330078 0)"/>
       <use xlink:href="#DejaVuSans-69" transform="translate(906.539062 0)"/>
       <use xlink:href="#DejaVuSans-6f" transform="translate(934.322266 0)"/>
       <use xlink:href="#DejaVuSans-6e" transform="translate(995.503906 0)"/>
      </g>
     </g>
    </g>
    <g id="ytick_11">
     <g id="line2d_23">
      <g>
       <use xlink:href="#mde8b278952" x="120.089063" y="344.364307" style="stroke: #000000; stroke-width: 0.8"/>
      </g>
     </g>
     <g id="text_18">
      <!-- actor_network -->
      <g transform="translate(41.703125 348.163526) scale(0.1 -0.1)">
       <use xlink:href="#DejaVuSans-61"/>
       <use xlink:href="#DejaVuSans-63" transform="translate(61.279297 0)"/>
       <use xlink:href="#DejaVuSans-74" transform="translate(116.259766 0)"/>
       <use xlink:href="#DejaVuSans-6f" transform="translate(155.46875 0)"/>
       <use xlink:href="#DejaVuSans-72" transform="translate(216.650391 0)"/>
       <use xlink:href="#DejaVuSans-5f" transform="translate(257.763672 0)"/>
       <use xlink:href="#DejaVuSans-6e" transform="translate(307.763672 0)"/>
       <use xlink:href="#DejaVuSans-65" transform="translate(371.142578 0)"/>
       <use xlink:href="#DejaVuSans-74" transform="translate(432.666016 0)"/>
       <use xlink:href="#DejaVuSans-77" transform="translate(471.875 0)"/>
       <use xlink:href="#DejaVuSans-6f" transform="translate(553.662109 0)"/>
       <use xlink:href="#DejaVuSans-72" transform="translate(614.84375 0)"/>
       <use xlink:href="#DejaVuSans-6b" transform="translate(655.957031 0)"/>
      </g>
     </g>
    </g>
    <g id="ytick_12">
     <g id="line2d_24">
      <g>
       <use xlink:href="#mde8b278952" x="120.089063" y="374.34646" style="stroke: #000000; stroke-width: 0.8"/>
      </g>
     </g>
     <g id="text_19">
      <!-- proposition -->
      <g transform="translate(57.126563 378.145679) scale(0.1 -0.1)">
       <use xlink:href="#DejaVuSans-70"/>
       <use xlink:href="#DejaVuSans-72" transform="translate(63.476562 0)"/>
       <use xlink:href="#DejaVuSans-6f" transform="translate(102.339844 0)"/>
       <use xlink:href="#DejaVuSans-70" transform="translate(163.521484 0)"/>
       <use xlink:href="#DejaVuSans-6f" transform="translate(226.998047 0)"/>
       <use xlink:href="#DejaVuSans-73" transform="translate(288.179688 0)"/>
       <use xlink:href="#DejaVuSans-69" transform="translate(340.279297 0)"/>
       <use xlink:href="#DejaVuSans-74" transform="translate(368.0625 0)"/>
       <use xlink:href="#DejaVuSans-69" transform="translate(407.271484 0)"/>
       <use xlink:href="#DejaVuSans-6f" transform="translate(435.054688 0)"/>
       <use xlink:href="#DejaVuSans-6e" transform="translate(496.236328 0)"/>
      </g>
     </g>
    </g>
    <g id="ytick_13">
     <g id="line2d_25">
      <g>
       <use xlink:href="#mde8b278952" x="120.089063" y="404.328614" style="stroke: #000000; stroke-width: 0.8"/>
      </g>
     </g>
     <g id="text_20">
      <!-- immutable_mobile -->
      <g transform="translate(20.246875 408.127833) scale(0.1 -0.1)">
       <use xlink:href="#DejaVuSans-69"/>
       <use xlink:href="#DejaVuSans-6d" transform="translate(27.783203 0)"/>
       <use xlink:href="#DejaVuSans-6d" transform="translate(125.195312 0)"/>
       <use xlink:href="#DejaVuSans-75" transform="translate(222.607422 0)"/>
       <use xlink:href="#DejaVuSans-74" transform="translate(285.986328 0)"/>
       <use xlink:href="#DejaVuSans-61" transform="translate(325.195312 0)"/>
       <use xlink:href="#DejaVuSans-62" transform="translate(386.474609 0)"/>
       <use xlink:href="#DejaVuSans-6c" transform="translate(449.951172 0)"/>
       <use xlink:href="#DejaVuSans-65" transform="translate(477.734375 0)"/>
       <use xlink:href="#DejaVuSans-5f" transform="translate(539.257812 0)"/>
       <use xlink:href="#DejaVuSans-6d" transform="translate(589.257812 0)"/>
       <use xlink:href="#DejaVuSans-6f" transform="translate(686.669922 0)"/>
       <use xlink:href="#DejaVuSans-62" transform="translate(747.851562 0)"/>
       <use xlink:href="#DejaVuSans-69" transform="translate(811.328125 0)"/>
       <use xlink:href="#DejaVuSans-6c" transform="translate(839.111328 0)"/>
       <use xlink:href="#DejaVuSans-65" transform="translate(866.894531 0)"/>
      </g>
     </g>
    </g>
    <g id="ytick_14">
     <g id="line2d_26">
      <g>
       <use xlink:href="#mde8b278952" x="120.089063" y="434.310767" style="stroke: #000000; stroke-width: 0.8"/>
      </g>
     </g>
     <g id="text_21">
      <!-- articulation -->
      <g transform="translate(56.254688 438.109986) scale(0.1 -0.1)">
       <use xlink:href="#DejaVuSans-61"/>
       <use xlink:href="#DejaVuSans-72" transform="translate(61.279297 0)"/>
       <use xlink:href="#DejaVuSans-74" transform="translate(102.392578 0)"/>
       <use xlink:href="#DejaVuSans-69" transform="translate(141.601562 0)"/>
       <use xlink:href="#DejaVuSans-63" transform="translate(169.384766 0)"/>
       <use xlink:href="#DejaVuSans-75" transform="translate(224.365234 0)"/>
       <use xlink:href="#DejaVuSans-6c" transform="translate(287.744141 0)"/>
       <use xlink:href="#DejaVuSans-61" transform="translate(315.527344 0)"/>
       <use xlink:href="#DejaVuSans-74" transform="translate(376.806641 0)"/>
       <use xlink:href="#DejaVuSans-69" transform="translate(416.015625 0)"/>
       <use xlink:href="#DejaVuSans-6f" transform="translate(443.798828 0)"/>
       <use xlink:href="#DejaVuSans-6e" transform="translate(504.980469 0)"/>
      </g>
     </g>
    </g>
    <g id="ytick_15">
     <g id="line2d_27">
      <g>
       <use xlink:href="#mde8b278952" x="120.089063" y="464.292921" style="stroke: #000000; stroke-width: 0.8"/>
      </g>
     </g>
     <g id="text_22">
      <!-- factish -->
      <g transform="translate(79.696875 468.09214) scale(0.1 -0.1)">
       <use xlink:href="#DejaVuSans-66"/>
       <use xlink:href="#DejaVuSans-61" transform="translate(35.205078 0)"/>
       <use xlink:href="#DejaVuSans-63" transform="translate(96.484375 0)"/>
       <use xlink:href="#DejaVuSans-74" transform="translate(151.464844 0)"/>
       <use xlink:href="#DejaVuSans-69" transform="translate(190.673828 0)"/>
       <use xlink:href="#DejaVuSans-73" transform="translate(218.457031 0)"/>
       <use xlink:href="#DejaVuSans-68" transform="translate(270.556641 0)"/>
      </g>
     </g>
    </g>
    <g id="ytick_16">
     <g id="line2d_28">
      <g>
       <use xlink:href="#mde8b278952" x="120.089063" y="494.275074" style="stroke: #000000; stroke-width: 0.8"/>
      </g>
     </g>
     <g id="text_23">
      <!-- circulating_reference -->
      <g transform="translate(8.059375 498.074293) scale(0.1 -0.1)">
       <use xlink:href="#DejaVuSans-63"/>
       <use xlink:href="#DejaVuSans-69" transform="translate(54.980469 0)"/>
       <use xlink:href="#DejaVuSans-72" transform="translate(82.763672 0)"/>
       <use xlink:href="#DejaVuSans-63" transform="translate(121.626953 0)"/>
       <use xlink:href="#DejaVuSans-75" transform="translate(176.607422 0)"/>
       <use xlink:href="#DejaVuSans-6c" transform="translate(239.986328 0)"/>
       <use xlink:href="#DejaVuSans-61" transform="translate(267.769531 0)"/>
       <use xlink:href="#DejaVuSans-74" transform="translate(329.048828 0)"/>
       <use xlink:href="#DejaVuSans-69" transform="translate(368.257812 0)"/>
       <use xlink:href="#DejaVuSans-6e" transform="translate(396.041016 0)"/>
       <use xlink:href="#DejaVuSans-67" transform="translate(459.419922 0)"/>
       <use xlink:href="#DejaVuSans-5f" transform="translate(522.896484 0)"/>
       <use xlink:href="#DejaVuSans-72" transform="translate(572.896484 0)"/>
       <use xlink:href="#DejaVuSans-65" transform="translate(611.759766 0)"/>
       <use xlink:href="#DejaVuSans-66" transform="translate(673.283203 0)"/>
       <use xlink:href="#DejaVuSans-65" transform="translate(708.488281 0)"/>
       <use xlink:href="#DejaVuSans-72" transform="translate(770.011719 0)"/>
       <use xlink:href="#DejaVuSans-65" transform="translate(808.875 0)"/>
       <use xlink:href="#DejaVuSans-6e" transform="translate(870.398438 0)"/>
       <use xlink:href="#DejaVuSans-63" transform="translate(933.777344 0)"/>
       <use xlink:href="#DejaVuSans-65" transform="translate(988.757812 0)"/>
      </g>
     </g>
    </g>
    <g id="ytick_17">
     <g id="line2d_29">
      <g>
       <use xlink:href="#mde8b278952" x="120.089063" y="524.257228" style="stroke: #000000; stroke-width: 0.8"/>
      </g>
     </g>
     <g id="text_24">
      <!-- agonistic -->
      <g transform="translate(67.971875 528.056447) scale(0.1 -0.1)">
       <use xlink:href="#DejaVuSans-61"/>
       <use xlink:href="#DejaVuSans-67" transform="translate(61.279297 0)"/>
       <use xlink:href="#DejaVuSans-6f" transform="translate(124.755859 0)"/>
       <use xlink:href="#DejaVuSans-6e" transform="translate(185.9375 0)"/>
       <use xlink:href="#DejaVuSans-69" transform="translate(249.316406 0)"/>
       <use xlink:href="#DejaVuSans-73" transform="translate(277.099609 0)"/>
       <use xlink:href="#DejaVuSans-74" transform="translate(329.199219 0)"/>
       <use xlink:href="#DejaVuSans-69" transform="translate(368.408203 0)"/>
       <use xlink:href="#DejaVuSans-63" transform="translate(396.191406 0)"/>
      </g>
     </g>
    </g>
   </g>
   <g id="patch_3">
    <path d="M 120.089063 32.4 
L 203.45441 32.4 
L 203.45441 40.495181 
L 120.089063 40.495181 
z
" clip-path="url(#p8b6e5e9a4e)" style="fill: #e08570; stroke: #ffffff; stroke-width: 0.3; stroke-linejoin: miter"/>
   </g>
   <g id="patch_4">
    <path d="M 120.089063 62.382153 
L 142.7168 62.382153 
L 142.7168 70.477335 
L 120.089063 70.477335 
z
" clip-path="url(#p8b6e5e9a4e)" style="fill: #d4d4d4; stroke: #ffffff; stroke-width: 0.3; stroke-linejoin: miter"/>
   </g>
   <g id="patch_5">
    <path d="M 120.089063 92.364307 
L 221.5566 92.364307 
L 221.5566 100.459488 
L 120.089063 100.459488 
z
" clip-path="url(#p8b6e5e9a4e)" style="fill: #d4d4d4; stroke: #ffffff; stroke-width: 0.3; stroke-linejoin: miter"/>
   </g>
   <g id="patch_6">
    <path d="M 120.089063 122.34646 
L 126.75829 122.34646 
L 126.75829 130.441642 
L 120.089063 130.441642 
z
" clip-path="url(#p8b6e5e9a4e)" style="fill: #d4d4d4; stroke: #ffffff; stroke-width: 0.3; stroke-linejoin: miter"/>
   </g>
   <g id="patch_7">
    <path d="M 120.089063 152.328614 
L 401.625751 152.328614 
L 401.625751 160.423795 
L 120.089063 160.423795 
z
" clip-path="url(#p8b6e5e9a4e)" style="fill: #d4d4d4; stroke: #ffffff; stroke-width: 0.3; stroke-linejoin: miter"/>
   </g>
   <g id="patch_8">
    <path d="M 120.089063 182.310767 
L 579.551222 182.310767 
L 579.551222 190.405949 
L 120.089063 190.405949 
z
" clip-path="url(#p8b6e5e9a4e)" style="fill: #d4d4d4; stroke: #ffffff; stroke-width: 0.3; stroke-linejoin: miter"/>
   </g>
   <g id="patch_9">
    <path d="M 120.089063 212.292921 
L 122.232743 212.292921 
L 122.232743 220.388102 
L 120.089063 220.388102 
z
" clip-path="url(#p8b6e5e9a4e)" style="fill: #d4d4d4; stroke: #ffffff; stroke-width: 0.3; stroke-linejoin: miter"/>
   </g>
   <g id="patch_10">
    <path d="M 120.089063 242.275074 
L 122.232743 242.275074 
L 122.232743 250.370256 
L 120.089063 250.370256 
z
" clip-path="url(#p8b6e5e9a4e)" style="fill: #d4d4d4; stroke: #ffffff; stroke-width: 0.3; stroke-linejoin: miter"/>
   </g>
   <g id="patch_11">
    <path d="M 120.089063 272.257228 
L 120.089063 272.257228 
L 120.089063 280.352409 
L 120.089063 280.352409 
z
" clip-path="url(#p8b6e5e9a4e)" style="fill: #d4d4d4; stroke: #ffffff; stroke-width: 0.3; stroke-linejoin: miter"/>
   </g>
   <g id="patch_12">
    <path d="M 120.089063 302.239381 
L 120.089063 302.239381 
L 120.089063 310.334563 
L 120.089063 310.334563 
z
" clip-path="url(#p8b6e5e9a4e)" style="fill: #d4d4d4; stroke: #ffffff; stroke-width: 0.3; stroke-linejoin: miter"/>
   </g>
   <g id="patch_13">
    <path d="M 120.089063 332.221535 
L 120.089063 332.221535 
L 120.089063 340.316716 
L 120.089063 340.316716 
z
" clip-path="url(#p8b6e5e9a4e)" style="fill: #d4d4d4; stroke: #ffffff; stroke-width: 0.3; stroke-linejoin: miter"/>
   </g>
   <g id="patch_14">
    <path d="M 120.089063 362.203688 
L 131.283838 362.203688 
L 131.283838 370.29887 
L 120.089063 370.29887 
z
" clip-path="url(#p8b6e5e9a4e)" style="fill: #d4d4d4; stroke: #ffffff; stroke-width: 0.3; stroke-linejoin: miter"/>
   </g>
   <g id="patch_15">
    <path d="M 120.089063 392.185842 
L 120.089063 392.185842 
L 120.089063 400.281023 
L 120.089063 400.281023 
z
" clip-path="url(#p8b6e5e9a4e)" style="fill: #d4d4d4; stroke: #ffffff; stroke-width: 0.3; stroke-linejoin: miter"/>
   </g>
   <g id="patch_16">
    <path d="M 120.089063 422.167995 
L 120.089063 422.167995 
L 120.089063 430.263177 
L 120.089063 430.263177 
z
" clip-path="url(#p8b6e5e9a4e)" style="fill: #d4d4d4; stroke: #ffffff; stroke-width: 0.3; stroke-linejoin: miter"/>
   </g>
   <g id="patch_17">
    <path d="M 120.089063 452.150149 
L 120.089063 452.150149 
L 120.089063 460.24533 
L 120.089063 460.24533 
z
" clip-path="url(#p8b6e5e9a4e)" style="fill: #d4d4d4; stroke: #ffffff; stroke-width: 0.3; stroke-linejoin: miter"/>
   </g>
   <g id="patch_18">
    <path d="M 120.089063 482.132302 
L 120.089063 482.132302 
L 120.089063 490.227484 
L 120.089063 490.227484 
z
" clip-path="url(#p8b6e5e9a4e)" style="fill: #d4d4d4; stroke: #ffffff; stroke-width: 0.3; stroke-linejoin: miter"/>
   </g>
   <g id="patch_19">
    <path d="M 120.089063 512.114456 
L 192.259635 512.114456 
L 192.259635 520.209637 
L 120.089063 520.209637 
z
" clip-path="url(#p8b6e5e9a4e)" style="fill: #d4d4d4; stroke: #ffffff; stroke-width: 0.3; stroke-linejoin: miter"/>
   </g>
   <g id="patch_20">
    <path d="M 120.089063 40.495181 
L 740.089062 40.495181 
L 740.089062 48.590363 
L 120.089063 48.590363 
z
" clip-path="url(#p8b6e5e9a4e)" style="fill: #b22222; stroke: #ffffff; stroke-width: 0.3; stroke-linejoin: miter"/>
   </g>
   <g id="patch_21">
    <path d="M 120.089063 70.477335 
L 348.271928 70.477335 
L 348.271928 78.572516 
L 120.089063 78.572516 
z
" clip-path="url(#p8b6e5e9a4e)" style="fill: #808080; stroke: #ffffff; stroke-width: 0.3; stroke-linejoin: miter"/>
   </g>
   <g id="patch_22">
    <path d="M 120.089063 100.459488 
L 336.362593 100.459488 
L 336.362593 108.55467 
L 120.089063 108.55467 
z
" clip-path="url(#p8b6e5e9a4e)" style="fill: #808080; stroke: #ffffff; stroke-width: 0.3; stroke-linejoin: miter"/>
   </g>
   <g id="patch_23">
    <path d="M 120.089063 130.441642 
L 252.997245 130.441642 
L 252.997245 138.536823 
L 120.089063 138.536823 
z
" clip-path="url(#p8b6e5e9a4e)" style="fill: #808080; stroke: #ffffff; stroke-width: 0.3; stroke-linejoin: miter"/>
   </g>
   <g id="patch_24">
    <path d="M 120.089063 160.423795 
L 225.605774 160.423795 
L 225.605774 168.518977 
L 120.089063 168.518977 
z
" clip-path="url(#p8b6e5e9a4e)" style="fill: #808080; stroke: #ffffff; stroke-width: 0.3; stroke-linejoin: miter"/>
   </g>
   <g id="patch_25">
    <path d="M 120.089063 190.405949 
L 210.361825 190.405949 
L 210.361825 198.50113 
L 120.089063 198.50113 
z
" clip-path="url(#p8b6e5e9a4e)" style="fill: #808080; stroke: #ffffff; stroke-width: 0.3; stroke-linejoin: miter"/>
   </g>
   <g id="patch_26">
    <path d="M 120.089063 220.388102 
L 198.452489 220.388102 
L 198.452489 228.483284 
L 120.089063 228.483284 
z
" clip-path="url(#p8b6e5e9a4e)" style="fill: #808080; stroke: #ffffff; stroke-width: 0.3; stroke-linejoin: miter"/>
   </g>
   <g id="patch_27">
    <path d="M 120.089063 250.370256 
L 195.117875 250.370256 
L 195.117875 258.465437 
L 120.089063 258.465437 
z
" clip-path="url(#p8b6e5e9a4e)" style="fill: #808080; stroke: #ffffff; stroke-width: 0.3; stroke-linejoin: miter"/>
   </g>
   <g id="patch_28">
    <path d="M 120.089063 280.352409 
L 154.149762 280.352409 
L 154.149762 288.447591 
L 120.089063 288.447591 
z
" clip-path="url(#p8b6e5e9a4e)" style="fill: #808080; stroke: #ffffff; stroke-width: 0.3; stroke-linejoin: miter"/>
   </g>
   <g id="patch_29">
    <path d="M 120.089063 310.334563 
L 152.482455 310.334563 
L 152.482455 318.429744 
L 120.089063 318.429744 
z
" clip-path="url(#p8b6e5e9a4e)" style="fill: #808080; stroke: #ffffff; stroke-width: 0.3; stroke-linejoin: miter"/>
   </g>
   <g id="patch_30">
    <path d="M 120.089063 340.316716 
L 149.147841 340.316716 
L 149.147841 348.411898 
L 120.089063 348.411898 
z
" clip-path="url(#p8b6e5e9a4e)" style="fill: #808080; stroke: #ffffff; stroke-width: 0.3; stroke-linejoin: miter"/>
   </g>
   <g id="patch_31">
    <path d="M 120.089063 370.29887 
L 128.663784 370.29887 
L 128.663784 378.394051 
L 120.089063 378.394051 
z
" clip-path="url(#p8b6e5e9a4e)" style="fill: #808080; stroke: #ffffff; stroke-width: 0.3; stroke-linejoin: miter"/>
   </g>
   <g id="patch_32">
    <path d="M 120.089063 400.281023 
L 126.996477 400.281023 
L 126.996477 408.376205 
L 120.089063 408.376205 
z
" clip-path="url(#p8b6e5e9a4e)" style="fill: #808080; stroke: #ffffff; stroke-width: 0.3; stroke-linejoin: miter"/>
   </g>
   <g id="patch_33">
    <path d="M 120.089063 430.263177 
L 126.996477 430.263177 
L 126.996477 438.358358 
L 120.089063 438.358358 
z
" clip-path="url(#p8b6e5e9a4e)" style="fill: #808080; stroke: #ffffff; stroke-width: 0.3; stroke-linejoin: miter"/>
   </g>
   <g id="patch_34">
    <path d="M 120.089063 460.24533 
L 120.089063 460.24533 
L 120.089063 468.340512 
L 120.089063 468.340512 
z
" clip-path="url(#p8b6e5e9a4e)" style="fill: #808080; stroke: #ffffff; stroke-width: 0.3; stroke-linejoin: miter"/>
   </g>
   <g id="patch_35">
    <path d="M 120.089063 490.227484 
L 120.089063 490.227484 
L 120.089063 498.322665 
L 120.089063 498.322665 
z
" clip-path="url(#p8b6e5e9a4e)" style="fill: #808080; stroke: #ffffff; stroke-width: 0.3; stroke-linejoin: miter"/>
   </g>
   <g id="patch_36">
    <path d="M 120.089063 520.209637 
L 120.089063 520.209637 
L 120.089063 528.304819 
L 120.089063 528.304819 
z
" clip-path="url(#p8b6e5e9a4e)" style="fill: #808080; stroke: #ffffff; stroke-width: 0.3; stroke-linejoin: miter"/>
   </g>
   <g id="patch_37">
    <path d="M 120.089063 48.590363 
L 410.438659 48.590363 
L 410.438659 56.685544 
L 120.089063 56.685544 
z
" clip-path="url(#p8b6e5e9a4e)" style="fill: #7a1a1a; stroke: #ffffff; stroke-width: 0.3; stroke-linejoin: miter"/>
   </g>
   <g id="patch_38">
    <path d="M 120.089063 78.572516 
L 151.767895 78.572516 
L 151.767895 86.667698 
L 120.089063 86.667698 
z
" clip-path="url(#p8b6e5e9a4e)" style="fill: #404040; stroke: #ffffff; stroke-width: 0.3; stroke-linejoin: miter"/>
   </g>
   <g id="patch_39">
    <path d="M 120.089063 108.55467 
L 185.114034 108.55467 
L 185.114034 116.649851 
L 120.089063 116.649851 
z
" clip-path="url(#p8b6e5e9a4e)" style="fill: #404040; stroke: #ffffff; stroke-width: 0.3; stroke-linejoin: miter"/>
   </g>
   <g id="patch_40">
    <path d="M 120.089063 138.536823 
L 250.377192 138.536823 
L 250.377192 146.632005 
L 120.089063 146.632005 
z
" clip-path="url(#p8b6e5e9a4e)" style="fill: #404040; stroke: #ffffff; stroke-width: 0.3; stroke-linejoin: miter"/>
   </g>
   <g id="patch_41">
    <path d="M 120.089063 168.518977 
L 146.051414 168.518977 
L 146.051414 176.614158 
L 120.089063 176.614158 
z
" clip-path="url(#p8b6e5e9a4e)" style="fill: #404040; stroke: #ffffff; stroke-width: 0.3; stroke-linejoin: miter"/>
   </g>
   <g id="patch_42">
    <path d="M 120.089063 198.50113 
L 235.371429 198.50113 
L 235.371429 206.596312 
L 120.089063 206.596312 
z
" clip-path="url(#p8b6e5e9a4e)" style="fill: #404040; stroke: #ffffff; stroke-width: 0.3; stroke-linejoin: miter"/>
   </g>
   <g id="patch_43">
    <path d="M 120.089063 228.483284 
L 120.089063 228.483284 
L 120.089063 236.578465 
L 120.089063 236.578465 
z
" clip-path="url(#p8b6e5e9a4e)" style="fill: #404040; stroke: #ffffff; stroke-width: 0.3; stroke-linejoin: miter"/>
   </g>
   <g id="patch_44">
    <path d="M 120.089063 258.465437 
L 142.478613 258.465437 
L 142.478613 266.560619 
L 120.089063 266.560619 
z
" clip-path="url(#p8b6e5e9a4e)" style="fill: #404040; stroke: #ffffff; stroke-width: 0.3; stroke-linejoin: miter"/>
   </g>
   <g id="patch_45">
    <path d="M 120.089063 288.447591 
L 120.089063 288.447591 
L 120.089063 296.542772 
L 120.089063 296.542772 
z
" clip-path="url(#p8b6e5e9a4e)" style="fill: #404040; stroke: #ffffff; stroke-width: 0.3; stroke-linejoin: miter"/>
   </g>
   <g id="patch_46">
    <path d="M 120.089063 318.429744 
L 127.47285 318.429744 
L 127.47285 326.524926 
L 120.089063 326.524926 
z
" clip-path="url(#p8b6e5e9a4e)" style="fill: #404040; stroke: #ffffff; stroke-width: 0.3; stroke-linejoin: miter"/>
   </g>
   <g id="patch_47">
    <path d="M 120.089063 348.411898 
L 177.730246 348.411898 
L 177.730246 356.507079 
L 120.089063 356.507079 
z
" clip-path="url(#p8b6e5e9a4e)" style="fill: #404040; stroke: #ffffff; stroke-width: 0.3; stroke-linejoin: miter"/>
   </g>
   <g id="patch_48">
    <path d="M 120.089063 378.394051 
L 196.308809 378.394051 
L 196.308809 386.489233 
L 120.089063 386.489233 
z
" clip-path="url(#p8b6e5e9a4e)" style="fill: #404040; stroke: #ffffff; stroke-width: 0.3; stroke-linejoin: miter"/>
   </g>
   <g id="patch_49">
    <path d="M 120.089063 408.376205 
L 125.567357 408.376205 
L 125.567357 416.471386 
L 120.089063 416.471386 
z
" clip-path="url(#p8b6e5e9a4e)" style="fill: #404040; stroke: #ffffff; stroke-width: 0.3; stroke-linejoin: miter"/>
   </g>
   <g id="patch_50">
    <path d="M 120.089063 438.358358 
L 218.698359 438.358358 
L 218.698359 446.45354 
L 120.089063 446.45354 
z
" clip-path="url(#p8b6e5e9a4e)" style="fill: #404040; stroke: #ffffff; stroke-width: 0.3; stroke-linejoin: miter"/>
   </g>
   <g id="patch_51">
    <path d="M 120.089063 468.340512 
L 218.698359 468.340512 
L 218.698359 476.435693 
L 120.089063 476.435693 
z
" clip-path="url(#p8b6e5e9a4e)" style="fill: #404040; stroke: #ffffff; stroke-width: 0.3; stroke-linejoin: miter"/>
   </g>
   <g id="patch_52">
    <path d="M 120.089063 498.322665 
L 153.673388 498.322665 
L 153.673388 506.417847 
L 120.089063 506.417847 
z
" clip-path="url(#p8b6e5e9a4e)" style="fill: #404040; stroke: #ffffff; stroke-width: 0.3; stroke-linejoin: miter"/>
   </g>
   <g id="patch_53">
    <path d="M 120.089063 528.304819 
L 120.089063 528.304819 
L 120.089063 536.4 
L 120.089063 536.4 
z
" clip-path="url(#p8b6e5e9a4e)" style="fill: #404040; stroke: #ffffff; stroke-width: 0.3; stroke-linejoin: miter"/>
   </g>
   <g id="patch_54">
    <path d="M 120.089063 561.6 
L 120.089063 7.2 
" style="fill: none; stroke: #000000; stroke-width: 0.8; stroke-linejoin: miter; stroke-linecap: square"/>
   </g>
   <g id="patch_55">
    <path d="M 120.089063 561.6 
L 789.689063 561.6 
" style="fill: none; stroke: #000000; stroke-width: 0.8; stroke-linejoin: miter; stroke-linecap: square"/>
   </g>
   <g id="text_25">
    <!-- 3,50 -->
    <g style="fill: #303030" transform="translate(212.981878 38.655091) scale(0.08 -0.08)">
     <defs>
      <path id="DejaVuSans-33" d="M 2597 2516 
Q 3050 2419 3304 2112 
Q 3559 1806 3559 1356 
Q 3559 666 3084 287 
Q 2609 -91 1734 -91 
Q 1441 -91 1130 -33 
Q 819 25 488 141 
L 488 750 
Q 750 597 1062 519 
Q 1375 441 1716 441 
Q 2309 441 2620 675 
Q 2931 909 2931 1356 
Q 2931 1769 2642 2001 
Q 2353 2234 1838 2234 
L 1294 2234 
L 1294 2753 
L 1863 2753 
Q 2328 2753 2575 2939 
Q 2822 3125 2822 3475 
Q 2822 3834 2567 4026 
Q 2313 4219 1838 4219 
Q 1578 4219 1281 4162 
Q 984 4106 628 3988 
L 628 4550 
Q 988 4650 1302 4700 
Q 1616 4750 1894 4750 
Q 2613 4750 3031 4423 
Q 3450 4097 3450 3541 
Q 3450 3153 3228 2886 
Q 3006 2619 2597 2516 
z
" transform="scale(0.015625)"/>
      <path id="DejaVuSans-2c" d="M 750 794 
L 1409 794 
L 1409 256 
L 897 -744 
L 494 -744 
L 750 256 
L 750 794 
z
" transform="scale(0.015625)"/>
     </defs>
     <use xlink:href="#DejaVuSans-33"/>
     <use xlink:href="#DejaVuSans-2c" transform="translate(63.623047 0)"/>
     <use xlink:href="#DejaVuSans-35" transform="translate(95.410156 0)"/>
     <use xlink:href="#DejaVuSans-30" transform="translate(159.033203 0)"/>
    </g>
   </g>
   <g id="text_26">
    <!-- 26,03 -->
    <g style="fill: #303030" transform="translate(749.616531 46.750272) scale(0.08 -0.08)">
     <defs>
      <path id="DejaVuSans-Bold-32" d="M 1844 884 
L 3897 884 
L 3897 0 
L 506 0 
L 506 884 
L 2209 2388 
Q 2438 2594 2547 2791 
Q 2656 2988 2656 3200 
Q 2656 3528 2436 3728 
Q 2216 3928 1850 3928 
Q 1569 3928 1234 3808 
Q 900 3688 519 3450 
L 519 4475 
Q 925 4609 1322 4679 
Q 1719 4750 2100 4750 
Q 2938 4750 3402 4381 
Q 3866 4013 3866 3353 
Q 3866 2972 3669 2642 
Q 3472 2313 2841 1759 
L 1844 884 
z
" transform="scale(0.015625)"/>
      <path id="DejaVuSans-Bold-36" d="M 2316 2303 
Q 2000 2303 1842 2098 
Q 1684 1894 1684 1484 
Q 1684 1075 1842 870 
Q 2000 666 2316 666 
Q 2634 666 2792 870 
Q 2950 1075 2950 1484 
Q 2950 1894 2792 2098 
Q 2634 2303 2316 2303 
z
M 3803 4544 
L 3803 3681 
Q 3506 3822 3243 3889 
Q 2981 3956 2731 3956 
Q 2194 3956 1894 3657 
Q 1594 3359 1544 2772 
Q 1750 2925 1990 3001 
Q 2231 3078 2516 3078 
Q 3231 3078 3670 2659 
Q 4109 2241 4109 1563 
Q 4109 813 3618 361 
Q 3128 -91 2303 -91 
Q 1394 -91 895 523 
Q 397 1138 397 2266 
Q 397 3422 980 4083 
Q 1563 4744 2578 4744 
Q 2900 4744 3203 4694 
Q 3506 4644 3803 4544 
z
" transform="scale(0.015625)"/>
      <path id="DejaVuSans-Bold-2c" d="M 653 1209 
L 1778 1209 
L 1778 256 
L 1006 -909 
L 341 -909 
L 653 256 
L 653 1209 
z
" transform="scale(0.015625)"/>
      <path id="DejaVuSans-Bold-30" d="M 2944 2338 
Q 2944 3213 2780 3570 
Q 2616 3928 2228 3928 
Q 1841 3928 1675 3570 
Q 1509 3213 1509 2338 
Q 1509 1453 1675 1090 
Q 1841 728 2228 728 
Q 2613 728 2778 1090 
Q 2944 1453 2944 2338 
z
M 4147 2328 
Q 4147 1169 3647 539 
Q 3147 -91 2228 -91 
Q 1306 -91 806 539 
Q 306 1169 306 2328 
Q 306 3491 806 4120 
Q 1306 4750 2228 4750 
Q 3147 4750 3647 4120 
Q 4147 3491 4147 2328 
z
" transform="scale(0.015625)"/>
      <path id="DejaVuSans-Bold-33" d="M 2981 2516 
Q 3453 2394 3698 2092 
Q 3944 1791 3944 1325 
Q 3944 631 3412 270 
Q 2881 -91 1863 -91 
Q 1503 -91 1142 -33 
Q 781 25 428 141 
L 428 1069 
Q 766 900 1098 814 
Q 1431 728 1753 728 
Q 2231 728 2486 893 
Q 2741 1059 2741 1369 
Q 2741 1688 2480 1852 
Q 2219 2016 1709 2016 
L 1228 2016 
L 1228 2791 
L 1734 2791 
Q 2188 2791 2409 2933 
Q 2631 3075 2631 3366 
Q 2631 3634 2415 3781 
Q 2200 3928 1806 3928 
Q 1516 3928 1219 3862 
Q 922 3797 628 3669 
L 628 4550 
Q 984 4650 1334 4700 
Q 1684 4750 2022 4750 
Q 2931 4750 3382 4451 
Q 3834 4153 3834 3553 
Q 3834 3144 3618 2883 
Q 3403 2622 2981 2516 
z
" transform="scale(0.015625)"/>
     </defs>
     <use xlink:href="#DejaVuSans-Bold-32"/>
     <use xlink:href="#DejaVuSans-Bold-36" transform="translate(69.580078 0)"/>
     <use xlink:href="#DejaVuSans-Bold-2c" transform="translate(139.160156 0)"/>
     <use xlink:href="#DejaVuSans-Bold-30" transform="translate(177.148438 0)"/>
     <use xlink:href="#DejaVuSans-Bold-33" transform="translate(246.728516 0)"/>
    </g>
   </g>
   <g id="text_27">
    <!-- 12,19 -->
    <g style="fill: #303030" transform="translate(419.966127 54.845454) scale(0.08 -0.08)">
     <defs>
      <path id="DejaVuSans-39" d="M 703 97 
L 703 672 
Q 941 559 1184 500 
Q 1428 441 1663 441 
Q 2288 441 2617 861 
Q 2947 1281 2994 2138 
Q 2813 1869 2534 1725 
Q 2256 1581 1919 1581 
Q 1219 1581 811 2004 
Q 403 2428 403 3163 
Q 403 3881 828 4315 
Q 1253 4750 1959 4750 
Q 2769 4750 3195 4129 
Q 3622 3509 3622 2328 
Q 3622 1225 3098 567 
Q 2575 -91 1691 -91 
Q 1453 -91 1209 -44 
Q 966 3 703 97 
z
M 1959 2075 
Q 2384 2075 2632 2365 
Q 2881 2656 2881 3163 
Q 2881 3666 2632 3958 
Q 2384 4250 1959 4250 
Q 1534 4250 1286 3958 
Q 1038 3666 1038 3163 
Q 1038 2656 1286 2365 
Q 1534 2075 1959 2075 
z
" transform="scale(0.015625)"/>
     </defs>
     <use xlink:href="#DejaVuSans-31"/>
     <use xlink:href="#DejaVuSans-32" transform="translate(63.623047 0)"/>
     <use xlink:href="#DejaVuSans-2c" transform="translate(127.246094 0)"/>
     <use xlink:href="#DejaVuSans-31" transform="translate(159.033203 0)"/>
     <use xlink:href="#DejaVuSans-39" transform="translate(222.65625 0)"/>
    </g>
   </g>
   <g id="legend_1">
    <g id="patch_56">
     <path d="M 727.239062 521.164062 
L 747.239062 521.164062 
L 747.239062 514.164062 
L 727.239062 514.164062 
z
" style="fill: #e08570; stroke: #ffffff; stroke-linejoin: miter"/>
    </g>
    <g id="text_28">
     <!-- 1986 -->
     <g transform="translate(755.239062 521.164062) scale(0.1 -0.1)">
      <defs>
       <path id="DejaVuSans-38" d="M 2034 2216 
Q 1584 2216 1326 1975 
Q 1069 1734 1069 1313 
Q 1069 891 1326 650 
Q 1584 409 2034 409 
Q 2484 409 2743 651 
Q 3003 894 3003 1313 
Q 3003 1734 2745 1975 
Q 2488 2216 2034 2216 
z
M 1403 2484 
Q 997 2584 770 2862 
Q 544 3141 544 3541 
Q 544 4100 942 4425 
Q 1341 4750 2034 4750 
Q 2731 4750 3128 4425 
Q 3525 4100 3525 3541 
Q 3525 3141 3298 2862 
Q 3072 2584 2669 2484 
Q 3125 2378 3379 2068 
Q 3634 1759 3634 1313 
Q 3634 634 3220 271 
Q 2806 -91 2034 -91 
Q 1263 -91 848 271 
Q 434 634 434 1313 
Q 434 1759 690 2068 
Q 947 2378 1403 2484 
z
M 1172 3481 
Q 1172 3119 1398 2916 
Q 1625 2713 2034 2713 
Q 2441 2713 2670 2916 
Q 2900 3119 2900 3481 
Q 2900 3844 2670 4047 
Q 2441 4250 2034 4250 
Q 1625 4250 1398 4047 
Q 1172 3844 1172 3481 
z
" transform="scale(0.015625)"/>
       <path id="DejaVuSans-36" d="M 2113 2584 
Q 1688 2584 1439 2293 
Q 1191 2003 1191 1497 
Q 1191 994 1439 701 
Q 1688 409 2113 409 
Q 2538 409 2786 701 
Q 3034 994 3034 1497 
Q 3034 2003 2786 2293 
Q 2538 2584 2113 2584 
z
M 3366 4563 
L 3366 3988 
Q 3128 4100 2886 4159 
Q 2644 4219 2406 4219 
Q 1781 4219 1451 3797 
Q 1122 3375 1075 2522 
Q 1259 2794 1537 2939 
Q 1816 3084 2150 3084 
Q 2853 3084 3261 2657 
Q 3669 2231 3669 1497 
Q 3669 778 3244 343 
Q 2819 -91 2113 -91 
Q 1303 -91 875 529 
Q 447 1150 447 2328 
Q 447 3434 972 4092 
Q 1497 4750 2381 4750 
Q 2619 4750 2861 4703 
Q 3103 4656 3366 4563 
z
" transform="scale(0.015625)"/>
      </defs>
      <use xlink:href="#DejaVuSans-31"/>
      <use xlink:href="#DejaVuSans-39" transform="translate(63.623047 0)"/>
      <use xlink:href="#DejaVuSans-38" transform="translate(127.246094 0)"/>
      <use xlink:href="#DejaVuSans-36" transform="translate(190.869141 0)"/>
     </g>
    </g>
    <g id="patch_57">
     <path d="M 727.239062 535.842188 
L 747.239062 535.842188 
L 747.239062 528.842188 
L 727.239062 528.842188 
z
" style="fill: #b22222; stroke: #ffffff; stroke-linejoin: miter"/>
    </g>
    <g id="text_29">
     <!-- 1987 -->
     <g transform="translate(755.239062 535.842188) scale(0.1 -0.1)">
      <defs>
       <path id="DejaVuSans-37" d="M 525 4666 
L 3525 4666 
L 3525 4397 
L 1831 0 
L 1172 0 
L 2766 4134 
L 525 4134 
L 525 4666 
z
" transform="scale(0.015625)"/>
      </defs>
      <use xlink:href="#DejaVuSans-31"/>
      <use xlink:href="#DejaVuSans-39" transform="translate(63.623047 0)"/>
      <use xlink:href="#DejaVuSans-38" transform="translate(127.246094 0)"/>
      <use xlink:href="#DejaVuSans-37" transform="translate(190.869141 0)"/>
     </g>
    </g>
    <g id="patch_58">
     <path d="M 727.239062 550.520312 
L 747.239062 550.520312 
L 747.239062 543.520312 
L 727.239062 543.520312 
z
" style="fill: #7a1a1a; stroke: #ffffff; stroke-linejoin: miter"/>
    </g>
    <g id="text_30">
     <!-- 1999 -->
     <g transform="translate(755.239062 550.520312) scale(0.1 -0.1)">
      <use xlink:href="#DejaVuSans-31"/>
      <use xlink:href="#DejaVuSans-39" transform="translate(63.623047 0)"/>
      <use xlink:href="#DejaVuSans-39" transform="translate(127.246094 0)"/>
      <use xlink:href="#DejaVuSans-39" transform="translate(190.869141 0)"/>
     </g>
    </g>
   </g>
  </g>
 </g>
 <defs>
  <clipPath id="p8b6e5e9a4e">
   <rect x="120.089063" y="7.2" width="669.6" height="554.4"/>
  </clipPath>
 </defs>
</svg>
