<?xml version="1.0" encoding="utf-8" standalone="no"?>
<!DOCTYPE svg PUBLIC "-//W3C//DTD SVG 1.1//EN"
  "http://www.w3.org/Graphics/SVG/1.1/DTD/svg11.dtd">
<svg xmlns:xlink="http://www.w3.org/1999/xlink" width="684pt" height="568.8pt" viewBox="0 0 684 568.8" xmlns="http://www.w3.org/2000/svg" version="1.1">
 <metadata>
  <rdf:RDF xmlns:dc="http://purl.org/dc/elements/1.1/" xmlns:cc="http://creativecommons.org/ns#" xmlns:rdf="http://www.w3.org/1999/02/22-rdf-syntax-ns#">
   <cc:Work>
    <dc:type rdf:resource="http://purl.org/dc/dcmitype/StillImage"/>
    <dc:date>2026-05-14T21:15:00.913678</dc:date>
    <dc:format>image/svg+xml</dc:format>
    <dc:creator>
     <cc:Agent>
      <dc:title>Matplotlib v3.10.9, https://matplotlib.org/</dc:title>
     </cc:Agent>
    </dc:creator>
   </cc:Work>
  </rdf:RDF>
 </metadata>
 <defs>
  <style type="text/css">*{stroke-linejoin: round; stroke-linecap: butt}</style>
 </defs>
 <g id="figure_1">
  <g id="patch_1">
   <path d="M 0 568.8 
L 684 568.8 
L 684 0 
L 0 0 
z
" style="fill: #ffffff"/>
  </g>
  <g id="axes_1">
   <g id="LineCollection_1">
    <path d="M 392.652926 260.585726 
L 502.594418 141.341514 
" clip-path="url(#pb6308c6cb4)" style="fill: none; stroke: #767676; stroke-opacity: 0.85; stroke-width: 2.511111"/>
    <path d="M 392.652926 260.585726 
L 311.935466 108.833421 
" clip-path="url(#pb6308c6cb4)" style="fill: none; stroke: #707070; stroke-opacity: 0.85; stroke-width: 2.677778"/>
    <path d="M 392.652926 260.585726 
L 65.305785 56.631493 
" clip-path="url(#pb6308c6cb4)" style="fill: none; stroke: #b5b5b5; stroke-opacity: 0.85; stroke-width: 0.788889"/>
    <path d="M 392.652926 260.585726 
L 435.755389 55.309091 
" clip-path="url(#pb6308c6cb4)" style="fill: none; stroke: #828282; stroke-opacity: 0.85; stroke-width: 2.177778"/>
    <path d="M 392.652926 260.585726 
L 517.52742 262.14766 
" clip-path="url(#pb6308c6cb4)" style="fill: none; stroke: #2e2e2e; stroke-opacity: 0.85; stroke-width: 4.4"/>
    <path d="M 392.652926 260.585726 
L 240.57048 246.935009 
" clip-path="url(#pb6308c6cb4)" style="fill: none; stroke: #6c6c6c; stroke-opacity: 0.85; stroke-width: 2.788889"/>
    <path d="M 392.652926 260.585726 
L 205.956214 471.815184 
" clip-path="url(#pb6308c6cb4)" style="fill: none; stroke: #959595; stroke-opacity: 0.85; stroke-width: 1.622222"/>
    <path d="M 392.652926 260.585726 
L 367.610965 469.585202 
" clip-path="url(#pb6308c6cb4)" style="fill: none; stroke: #878787; stroke-opacity: 0.85; stroke-width: 2.011111"/>
    <path d="M 392.652926 260.585726 
L 566.132968 513.490909 
" clip-path="url(#pb6308c6cb4)" style="fill: none; stroke: #a0a0a0; stroke-opacity: 0.85; stroke-width: 1.344444"/>
    <path d="M 392.652926 260.585726 
L 618.694215 91.277968 
" clip-path="url(#pb6308c6cb4)" style="fill: none; stroke: #a0a0a0; stroke-opacity: 0.85; stroke-width: 1.344444"/>
    <path d="M 502.594418 141.341514 
L 311.935466 108.833421 
" clip-path="url(#pb6308c6cb4)" style="fill: none; stroke: #b2b2b2; stroke-opacity: 0.85; stroke-width: 0.9"/>
    <path d="M 502.594418 141.341514 
L 618.694215 91.277968 
" clip-path="url(#pb6308c6cb4)" style="fill: none; stroke: #9e9e9e; stroke-opacity: 0.85; stroke-width: 1.4"/>
    <path d="M 502.594418 141.341514 
L 435.755389 55.309091 
" clip-path="url(#pb6308c6cb4)" style="fill: none; stroke: #afafaf; stroke-opacity: 0.85; stroke-width: 0.955556"/>
    <path d="M 502.594418 141.341514 
L 517.52742 262.14766 
" clip-path="url(#pb6308c6cb4)" style="fill: none; stroke: #a7a7a7; stroke-opacity: 0.85; stroke-width: 1.177778"/>
    <path d="M 502.594418 141.341514 
L 240.57048 246.935009 
" clip-path="url(#pb6308c6cb4)" style="fill: none; stroke: #b8b8b8; stroke-opacity: 0.85; stroke-width: 0.733333"/>
    <path d="M 311.935466 108.833421 
L 65.305785 56.631493 
" clip-path="url(#pb6308c6cb4)" style="fill: none; stroke: #b2b2b2; stroke-opacity: 0.85; stroke-width: 0.9"/>
    <path d="M 311.935466 108.833421 
L 517.52742 262.14766 
" clip-path="url(#pb6308c6cb4)" style="fill: none; stroke: #b4b4b4; stroke-opacity: 0.85; stroke-width: 0.844444"/>
    <path d="M 311.935466 108.833421 
L 435.755389 55.309091 
" clip-path="url(#pb6308c6cb4)" style="fill: none; stroke: #a9a9a9; stroke-opacity: 0.85; stroke-width: 1.122222"/>
    <path d="M 311.935466 108.833421 
L 618.694215 91.277968 
" clip-path="url(#pb6308c6cb4)" style="fill: none; stroke: #bababa; stroke-opacity: 0.85; stroke-width: 0.677778"/>
    <path d="M 311.935466 108.833421 
L 240.57048 246.935009 
" clip-path="url(#pb6308c6cb4)" style="fill: none; stroke: #a2a2a2; stroke-opacity: 0.85; stroke-width: 1.288889"/>
    <path d="M 65.305785 56.631493 
L 240.57048 246.935009 
" clip-path="url(#pb6308c6cb4)" style="fill: none; stroke: #b8b8b8; stroke-opacity: 0.85; stroke-width: 0.733333"/>
    <path d="M 517.52742 262.14766 
L 435.755389 55.309091 
" clip-path="url(#pb6308c6cb4)" style="fill: none; stroke: #a4a4a4; stroke-opacity: 0.85; stroke-width: 1.233333"/>
    <path d="M 517.52742 262.14766 
L 367.610965 469.585202 
" clip-path="url(#pb6308c6cb4)" style="fill: none; stroke: #bababa; stroke-opacity: 0.85; stroke-width: 0.677778"/>
    <path d="M 517.52742 262.14766 
L 566.132968 513.490909 
" clip-path="url(#pb6308c6cb4)" style="fill: none; stroke: #bababa; stroke-opacity: 0.85; stroke-width: 0.677778"/>
    <path d="M 517.52742 262.14766 
L 618.694215 91.277968 
" clip-path="url(#pb6308c6cb4)" style="fill: none; stroke: #ababab; stroke-opacity: 0.85; stroke-width: 1.066667"/>
    <path d="M 435.755389 55.309091 
L 240.57048 246.935009 
" clip-path="url(#pb6308c6cb4)" style="fill: none; stroke: #bababa; stroke-opacity: 0.85; stroke-width: 0.677778"/>
    <path d="M 435.755389 55.309091 
L 618.694215 91.277968 
" clip-path="url(#pb6308c6cb4)" style="fill: none; stroke: #b2b2b2; stroke-opacity: 0.85; stroke-width: 0.9"/>
    <path d="M 240.57048 246.935009 
L 367.610965 469.585202 
" clip-path="url(#pb6308c6cb4)" style="fill: none; stroke: #b4b4b4; stroke-opacity: 0.85; stroke-width: 0.844444"/>
    <path d="M 240.57048 246.935009 
L 205.956214 471.815184 
" clip-path="url(#pb6308c6cb4)" style="fill: none; stroke: #bababa; stroke-opacity: 0.85; stroke-width: 0.677778"/>
    <path d="M 367.610965 469.585202 
L 205.956214 471.815184 
" clip-path="url(#pb6308c6cb4)" style="fill: none; stroke: #a9a9a9; stroke-opacity: 0.85; stroke-width: 1.122222"/>
    <path d="M 367.610965 469.585202 
L 566.132968 513.490909 
" clip-path="url(#pb6308c6cb4)" style="fill: none; stroke: #b4b4b4; stroke-opacity: 0.85; stroke-width: 0.844444"/>
   </g>
   <g id="PathCollection_1">
    <path d="M 392.652926 278.083776 
C 397.293463 278.083776 401.74456 276.240071 405.025916 272.958716 
C 408.307271 269.677361 410.150976 265.226263 410.150976 260.585726 
C 410.150976 255.945189 408.307271 251.494091 405.025916 248.212736 
C 401.74456 244.931381 397.293463 243.087676 392.652926 243.087676 
C 388.012388 243.087676 383.561291 244.931381 380.279936 248.212736 
C 376.99858 251.494091 375.154875 255.945189 375.154875 260.585726 
C 375.154875 265.226263 376.99858 269.677361 380.279936 272.958716 
C 383.561291 276.240071 388.012388 278.083776 392.652926 278.083776 
z
" clip-path="url(#pb6308c6cb4)" style="fill: #b22222; stroke: #303030; stroke-width: 0.8"/>
    <path d="M 502.594418 153.689648 
C 505.869182 153.689648 509.01026 152.38857 511.325868 150.072963 
C 513.641475 147.757355 514.942552 144.616277 514.942552 141.341514 
C 514.942552 138.06675 513.641475 134.925672 511.325868 132.610064 
C 509.01026 130.294457 505.869182 128.99338 502.594418 128.99338 
C 499.319655 128.99338 496.178577 130.294457 493.862969 132.610064 
C 491.547362 134.925672 490.246284 138.06675 490.246284 141.341514 
C 490.246284 144.616277 491.547362 147.757355 493.862969 150.072963 
C 496.178577 152.38857 499.319655 153.689648 502.594418 153.689648 
z
" clip-path="url(#pb6308c6cb4)" style="fill: #808080; stroke: #303030; stroke-width: 0.8"/>
    <path d="M 311.935466 122.582654 
C 315.581805 122.582654 319.07929 121.133948 321.657642 118.555597 
C 324.235993 115.977246 325.684699 112.47976 325.684699 108.833421 
C 325.684699 105.187082 324.235993 101.689596 321.657642 99.111245 
C 319.07929 96.532894 315.581805 95.084188 311.935466 95.084188 
C 308.289126 95.084188 304.791641 96.532894 302.213289 99.111245 
C 299.634938 101.689596 298.186232 105.187082 298.186232 108.833421 
C 298.186232 112.47976 299.634938 115.977246 302.213289 118.555597 
C 304.791641 121.133948 308.289126 122.582654 311.935466 122.582654 
z
" clip-path="url(#pb6308c6cb4)" style="fill: #808080; stroke: #303030; stroke-width: 0.8"/>
    <path d="M 65.305785 65.871812 
C 67.756346 65.871812 70.106869 64.898194 71.839677 63.165385 
C 73.572485 61.432577 74.546104 59.082055 74.546104 56.631493 
C 74.546104 54.180932 73.572485 51.83041 71.839677 50.097602 
C 70.106869 48.364793 67.756346 47.391175 65.305785 47.391175 
C 62.855224 47.391175 60.504702 48.364793 58.771893 50.097602 
C 57.039085 51.83041 56.065467 54.180932 56.065467 56.631493 
C 56.065467 59.082055 57.039085 61.432577 58.771893 63.165385 
C 60.504702 64.898194 62.855224 65.871812 65.305785 65.871812 
z
" clip-path="url(#pb6308c6cb4)" style="fill: #808080; stroke: #303030; stroke-width: 0.8"/>
    <path d="M 517.52742 276.063032 
C 521.21782 276.063032 524.757567 274.59682 527.367073 271.987314 
C 529.97658 269.377807 531.442791 265.83806 531.442791 262.14766 
C 531.442791 258.457261 529.97658 254.917514 527.367073 252.308007 
C 524.757567 249.698501 521.21782 248.232289 517.52742 248.232289 
C 513.837021 248.232289 510.297273 249.698501 507.687767 252.308007 
C 505.07826 254.917514 503.612049 258.457261 503.612049 262.14766 
C 503.612049 265.83806 505.07826 269.377807 507.687767 271.987314 
C 510.297273 274.59682 513.837021 276.063032 517.52742 276.063032 
z
" clip-path="url(#pb6308c6cb4)" style="fill: #808080; stroke: #303030; stroke-width: 0.8"/>
    <path d="M 435.755389 66.675781 
C 438.769871 66.675781 441.661293 65.478115 443.792853 63.346555 
C 445.924414 61.214994 447.12208 58.323572 447.12208 55.309091 
C 447.12208 52.294609 445.924414 49.403187 443.792853 47.271627 
C 441.661293 45.140067 438.769871 43.942401 435.755389 43.942401 
C 432.740908 43.942401 429.849486 45.140067 427.717926 47.271627 
C 425.586365 49.403187 424.388699 52.294609 424.388699 55.309091 
C 424.388699 58.323572 425.586365 61.214994 427.717926 63.346555 
C 429.849486 65.478115 432.740908 66.675781 435.755389 66.675781 
z
" clip-path="url(#pb6308c6cb4)" style="fill: #808080; stroke: #303030; stroke-width: 0.8"/>
    <path d="M 240.57048 258.687035 
C 243.687154 258.687035 246.676596 257.448768 248.880417 255.244946 
C 251.084239 253.041125 252.322506 250.051683 252.322506 246.935009 
C 252.322506 243.818335 251.084239 240.828893 248.880417 238.625072 
C 246.676596 236.421251 243.687154 235.182983 240.57048 235.182983 
C 237.453806 235.182983 234.464364 236.421251 232.260543 238.625072 
C 230.056722 240.828893 228.818454 243.818335 228.818454 246.935009 
C 228.818454 250.051683 230.056722 253.041125 232.260543 255.244946 
C 234.464364 257.448768 237.453806 258.687035 240.57048 258.687035 
z
" clip-path="url(#pb6308c6cb4)" style="fill: #808080; stroke: #303030; stroke-width: 0.8"/>
    <path d="M 367.610965 480.618558 
C 370.537046 480.618558 373.343675 479.456014 375.412726 477.386963 
C 377.481778 475.317911 378.644322 472.511282 378.644322 469.585202 
C 378.644322 466.659121 377.481778 463.852492 375.412726 461.783441 
C 373.343675 459.714389 370.537046 458.551845 367.610965 458.551845 
C 364.684885 458.551845 361.878256 459.714389 359.809204 461.783441 
C 357.740153 463.852492 356.577609 466.659121 356.577609 469.585202 
C 356.577609 472.511282 357.740153 475.317911 359.809204 477.386963 
C 361.878256 479.456014 364.684885 480.618558 367.610965 480.618558 
z
" clip-path="url(#pb6308c6cb4)" style="fill: #808080; stroke: #303030; stroke-width: 0.8"/>
    <path d="M 205.956214 481.14696 
C 208.43103 481.14696 210.804817 480.163705 212.554776 478.413746 
C 214.304735 476.663787 215.28799 474.29 215.28799 471.815184 
C 215.28799 469.340368 214.304735 466.966581 212.554776 465.216622 
C 210.804817 463.466663 208.43103 462.483408 205.956214 462.483408 
C 203.481398 462.483408 201.107611 463.466663 199.357652 465.216622 
C 197.607693 466.966581 196.624438 469.340368 196.624438 471.815184 
C 196.624438 474.29 197.607693 476.663787 199.357652 478.413746 
C 201.107611 480.163705 203.481398 481.14696 205.956214 481.14696 
z
" clip-path="url(#pb6308c6cb4)" style="fill: #808080; stroke: #303030; stroke-width: 0.8"/>
    <path d="M 566.132968 522.537819 
C 568.532237 522.537819 570.833561 521.58458 572.5301 519.888041 
C 574.226639 518.191502 575.179879 515.890178 575.179879 513.490909 
C 575.179879 511.09164 574.226639 508.790317 572.5301 507.093778 
C 570.833561 505.397238 568.532237 504.443999 566.132968 504.443999 
C 563.7337 504.443999 561.432376 505.397238 559.735837 507.093778 
C 558.039298 508.790317 557.086058 511.09164 557.086058 513.490909 
C 557.086058 515.890178 558.039298 518.191502 559.735837 519.888041 
C 561.432376 521.58458 563.7337 522.537819 566.132968 522.537819 
z
" clip-path="url(#pb6308c6cb4)" style="fill: #808080; stroke: #303030; stroke-width: 0.8"/>
    <path d="M 618.694215 102.209516 
C 621.593295 102.209516 624.374027 101.057699 626.423987 99.00774 
C 628.473946 96.95778 629.625763 94.177048 629.625763 91.277968 
C 629.625763 88.378887 628.473946 85.598156 626.423987 83.548196 
C 624.374027 81.498237 621.593295 80.34642 618.694215 80.34642 
C 615.795134 80.34642 613.014403 81.498237 610.964443 83.548196 
C 608.914484 85.598156 607.762667 88.378887 607.762667 91.277968 
C 607.762667 94.177048 608.914484 96.95778 610.964443 99.00774 
C 613.014403 101.057699 615.795134 102.209516 618.694215 102.209516 
z
" clip-path="url(#pb6308c6cb4)" style="fill: #808080; stroke: #303030; stroke-width: 0.8"/>
   </g>
   <g id="text_1">
    <g id="patch_2">
     <path d="M 376.977457 266.110882 
L 408.328394 266.110882 
L 408.328394 255.06057 
L 376.977457 255.06057 
z
" clip-path="url(#pb6308c6cb4)" style="fill: #ffffff; opacity: 0.75"/>
    </g>
    <g clip-path="url(#pb6308c6cb4)">
     <!-- militar -->
     <g transform="translate(378.147457 263.069164) scale(0.09 -0.09)">
      <defs>
       <path id="DejaVuSans-6d" d="M 3328 2828 
Q 3544 3216 3844 3400 
Q 4144 3584 4550 3584 
Q 5097 3584 5394 3201 
Q 5691 2819 5691 2113 
L 5691 0 
L 5113 0 
L 5113 2094 
Q 5113 2597 4934 2840 
Q 4756 3084 4391 3084 
Q 3944 3084 3684 2787 
Q 3425 2491 3425 1978 
L 3425 0 
L 2847 0 
L 2847 2094 
Q 2847 2600 2669 2842 
Q 2491 3084 2119 3084 
Q 1678 3084 1418 2786 
Q 1159 2488 1159 1978 
L 1159 0 
L 581 0 
L 581 3500 
L 1159 3500 
L 1159 2956 
Q 1356 3278 1631 3431 
Q 1906 3584 2284 3584 
Q 2666 3584 2933 3390 
Q 3200 3197 3328 2828 
z
" transform="scale(0.015625)"/>
       <path id="DejaVuSans-69" d="M 603 3500 
L 1178 3500 
L 1178 0 
L 603 0 
L 603 3500 
z
M 603 4863 
L 1178 4863 
L 1178 4134 
L 603 4134 
L 603 4863 
z
" transform="scale(0.015625)"/>
       <path id="DejaVuSans-6c" d="M 603 4863 
L 1178 4863 
L 1178 0 
L 603 0 
L 603 4863 
z
" transform="scale(0.015625)"/>
       <path id="DejaVuSans-74" d="M 1172 4494 
L 1172 3500 
L 2356 3500 
L 2356 3053 
L 1172 3053 
L 1172 1153 
Q 1172 725 1289 603 
Q 1406 481 1766 481 
L 2356 481 
L 2356 0 
L 1766 0 
Q 1100 0 847 248 
Q 594 497 594 1153 
L 594 3053 
L 172 3053 
L 172 3500 
L 594 3500 
L 594 4494 
L 1172 4494 
z
" transform="scale(0.015625)"/>
       <path id="DejaVuSans-61" d="M 2194 1759 
Q 1497 1759 1228 1600 
Q 959 1441 959 1056 
Q 959 750 1161 570 
Q 1363 391 1709 391 
Q 2188 391 2477 730 
Q 2766 1069 2766 1631 
L 2766 1759 
L 2194 1759 
z
M 3341 1997 
L 3341 0 
L 2766 0 
L 2766 531 
Q 2569 213 2275 61 
Q 1981 -91 1556 -91 
Q 1019 -91 701 211 
Q 384 513 384 1019 
Q 384 1609 779 1909 
Q 1175 2209 1959 2209 
L 2766 2209 
L 2766 2266 
Q 2766 2663 2505 2880 
Q 2244 3097 1772 3097 
Q 1472 3097 1187 3025 
Q 903 2953 641 2809 
L 641 3341 
Q 956 3463 1253 3523 
Q 1550 3584 1831 3584 
Q 2591 3584 2966 3190 
Q 3341 2797 3341 1997 
z
" transform="scale(0.015625)"/>
       <path id="DejaVuSans-72" d="M 2631 2963 
Q 2534 3019 2420 3045 
Q 2306 3072 2169 3072 
Q 1681 3072 1420 2755 
Q 1159 2438 1159 1844 
L 1159 0 
L 581 0 
L 581 3500 
L 1159 3500 
L 1159 2956 
Q 1341 3275 1631 3429 
Q 1922 3584 2338 3584 
Q 2397 3584 2469 3576 
Q 2541 3569 2628 3553 
L 2631 2963 
z
" transform="scale(0.015625)"/>
      </defs>
      <use xlink:href="#DejaVuSans-6d"/>
      <use xlink:href="#DejaVuSans-69" transform="translate(97.412109 0)"/>
      <use xlink:href="#DejaVuSans-6c" transform="translate(125.195312 0)"/>
      <use xlink:href="#DejaVuSans-69" transform="translate(152.978516 0)"/>
      <use xlink:href="#DejaVuSans-74" transform="translate(180.761719 0)"/>
      <use xlink:href="#DejaVuSans-61" transform="translate(219.970703 0)"/>
      <use xlink:href="#DejaVuSans-72" transform="translate(281.25 0)"/>
     </g>
    </g>
   </g>
   <g id="text_2">
    <g id="patch_3">
     <path d="M 477.229184 146.86667 
L 527.959653 146.86667 
L 527.959653 135.816357 
L 477.229184 135.816357 
z
" clip-path="url(#pb6308c6cb4)" style="fill: #ffffff; opacity: 0.75"/>
    </g>
    <g clip-path="url(#pb6308c6cb4)">
     <!-- translation -->
     <g transform="translate(478.399184 143.824951) scale(0.09 -0.09)">
      <defs>
       <path id="DejaVuSans-6e" d="M 3513 2113 
L 3513 0 
L 2938 0 
L 2938 2094 
Q 2938 2591 2744 2837 
Q 2550 3084 2163 3084 
Q 1697 3084 1428 2787 
Q 1159 2491 1159 1978 
L 1159 0 
L 581 0 
L 581 3500 
L 1159 3500 
L 1159 2956 
Q 1366 3272 1645 3428 
Q 1925 3584 2291 3584 
Q 2894 3584 3203 3211 
Q 3513 2838 3513 2113 
z
" transform="scale(0.015625)"/>
       <path id="DejaVuSans-73" d="M 2834 3397 
L 2834 2853 
Q 2591 2978 2328 3040 
Q 2066 3103 1784 3103 
Q 1356 3103 1142 2972 
Q 928 2841 928 2578 
Q 928 2378 1081 2264 
Q 1234 2150 1697 2047 
L 1894 2003 
Q 2506 1872 2764 1633 
Q 3022 1394 3022 966 
Q 3022 478 2636 193 
Q 2250 -91 1575 -91 
Q 1294 -91 989 -36 
Q 684 19 347 128 
L 347 722 
Q 666 556 975 473 
Q 1284 391 1588 391 
Q 1994 391 2212 530 
Q 2431 669 2431 922 
Q 2431 1156 2273 1281 
Q 2116 1406 1581 1522 
L 1381 1569 
Q 847 1681 609 1914 
Q 372 2147 372 2553 
Q 372 3047 722 3315 
Q 1072 3584 1716 3584 
Q 2034 3584 2315 3537 
Q 2597 3491 2834 3397 
z
" transform="scale(0.015625)"/>
       <path id="DejaVuSans-6f" d="M 1959 3097 
Q 1497 3097 1228 2736 
Q 959 2375 959 1747 
Q 959 1119 1226 758 
Q 1494 397 1959 397 
Q 2419 397 2687 759 
Q 2956 1122 2956 1747 
Q 2956 2369 2687 2733 
Q 2419 3097 1959 3097 
z
M 1959 3584 
Q 2709 3584 3137 3096 
Q 3566 2609 3566 1747 
Q 3566 888 3137 398 
Q 2709 -91 1959 -91 
Q 1206 -91 779 398 
Q 353 888 353 1747 
Q 353 2609 779 3096 
Q 1206 3584 1959 3584 
z
" transform="scale(0.015625)"/>
      </defs>
      <use xlink:href="#DejaVuSans-74"/>
      <use xlink:href="#DejaVuSans-72" transform="translate(39.208984 0)"/>
      <use xlink:href="#DejaVuSans-61" transform="translate(80.322266 0)"/>
      <use xlink:href="#DejaVuSans-6e" transform="translate(141.601562 0)"/>
      <use xlink:href="#DejaVuSans-73" transform="translate(204.980469 0)"/>
      <use xlink:href="#DejaVuSans-6c" transform="translate(257.080078 0)"/>
      <use xlink:href="#DejaVuSans-61" transform="translate(284.863281 0)"/>
      <use xlink:href="#DejaVuSans-74" transform="translate(346.142578 0)"/>
      <use xlink:href="#DejaVuSans-69" transform="translate(385.351562 0)"/>
      <use xlink:href="#DejaVuSans-6f" transform="translate(413.134766 0)"/>
      <use xlink:href="#DejaVuSans-6e" transform="translate(474.316406 0)"/>
     </g>
    </g>
   </g>
   <g id="text_3">
    <g id="patch_4">
     <path d="M 292.491247 114.358577 
L 331.379684 114.358577 
L 331.379684 103.308265 
L 292.491247 103.308265 
z
" clip-path="url(#pb6308c6cb4)" style="fill: #ffffff; opacity: 0.75"/>
    </g>
    <g clip-path="url(#pb6308c6cb4)">
     <!-- network -->
     <g transform="translate(293.661247 111.316858) scale(0.09 -0.09)">
      <defs>
       <path id="DejaVuSans-65" d="M 3597 1894 
L 3597 1613 
L 953 1613 
Q 991 1019 1311 708 
Q 1631 397 2203 397 
Q 2534 397 2845 478 
Q 3156 559 3463 722 
L 3463 178 
Q 3153 47 2828 -22 
Q 2503 -91 2169 -91 
Q 1331 -91 842 396 
Q 353 884 353 1716 
Q 353 2575 817 3079 
Q 1281 3584 2069 3584 
Q 2775 3584 3186 3129 
Q 3597 2675 3597 1894 
z
M 3022 2063 
Q 3016 2534 2758 2815 
Q 2500 3097 2075 3097 
Q 1594 3097 1305 2825 
Q 1016 2553 972 2059 
L 3022 2063 
z
" transform="scale(0.015625)"/>
       <path id="DejaVuSans-77" d="M 269 3500 
L 844 3500 
L 1563 769 
L 2278 3500 
L 2956 3500 
L 3675 769 
L 4391 3500 
L 4966 3500 
L 4050 0 
L 3372 0 
L 2619 2869 
L 1863 0 
L 1184 0 
L 269 3500 
z
" transform="scale(0.015625)"/>
       <path id="DejaVuSans-6b" d="M 581 4863 
L 1159 4863 
L 1159 1991 
L 2875 3500 
L 3609 3500 
L 1753 1863 
L 3688 0 
L 2938 0 
L 1159 1709 
L 1159 0 
L 581 0 
L 581 4863 
z
" transform="scale(0.015625)"/>
      </defs>
      <use xlink:href="#DejaVuSans-6e"/>
      <use xlink:href="#DejaVuSans-65" transform="translate(63.378906 0)"/>
      <use xlink:href="#DejaVuSans-74" transform="translate(124.902344 0)"/>
      <use xlink:href="#DejaVuSans-77" transform="translate(164.111328 0)"/>
      <use xlink:href="#DejaVuSans-6f" transform="translate(245.898438 0)"/>
      <use xlink:href="#DejaVuSans-72" transform="translate(307.080078 0)"/>
      <use xlink:href="#DejaVuSans-6b" transform="translate(348.193359 0)"/>
     </g>
    </g>
   </g>
   <g id="text_4">
    <g id="patch_5">
     <path d="M 16.485707 62.281806 
L 114.125863 62.281806 
L 114.125863 50.981181 
L 16.485707 50.981181 
z
" clip-path="url(#pb6308c6cb4)" style="fill: #ffffff; opacity: 0.75"/>
    </g>
    <g clip-path="url(#pb6308c6cb4)">
     <!-- centre_of_calculation -->
     <g transform="translate(17.655707 58.989775) scale(0.09 -0.09)">
      <defs>
       <path id="DejaVuSans-63" d="M 3122 3366 
L 3122 2828 
Q 2878 2963 2633 3030 
Q 2388 3097 2138 3097 
Q 1578 3097 1268 2742 
Q 959 2388 959 1747 
Q 959 1106 1268 751 
Q 1578 397 2138 397 
Q 2388 397 2633 464 
Q 2878 531 3122 666 
L 3122 134 
Q 2881 22 2623 -34 
Q 2366 -91 2075 -91 
Q 1284 -91 818 406 
Q 353 903 353 1747 
Q 353 2603 823 3093 
Q 1294 3584 2113 3584 
Q 2378 3584 2631 3529 
Q 2884 3475 3122 3366 
z
" transform="scale(0.015625)"/>
       <path id="DejaVuSans-5f" d="M 3263 -1063 
L 3263 -1509 
L -63 -1509 
L -63 -1063 
L 3263 -1063 
z
" transform="scale(0.015625)"/>
       <path id="DejaVuSans-66" d="M 2375 4863 
L 2375 4384 
L 1825 4384 
Q 1516 4384 1395 4259 
Q 1275 4134 1275 3809 
L 1275 3500 
L 2222 3500 
L 2222 3053 
L 1275 3053 
L 1275 0 
L 697 0 
L 697 3053 
L 147 3053 
L 147 3500 
L 697 3500 
L 697 3744 
Q 697 4328 969 4595 
Q 1241 4863 1831 4863 
L 2375 4863 
z
" transform="scale(0.015625)"/>
       <path id="DejaVuSans-75" d="M 544 1381 
L 544 3500 
L 1119 3500 
L 1119 1403 
Q 1119 906 1312 657 
Q 1506 409 1894 409 
Q 2359 409 2629 706 
Q 2900 1003 2900 1516 
L 2900 3500 
L 3475 3500 
L 3475 0 
L 2900 0 
L 2900 538 
Q 2691 219 2414 64 
Q 2138 -91 1772 -91 
Q 1169 -91 856 284 
Q 544 659 544 1381 
z
M 1991 3584 
L 1991 3584 
z
" transform="scale(0.015625)"/>
      </defs>
      <use xlink:href="#DejaVuSans-63"/>
      <use xlink:href="#DejaVuSans-65" transform="translate(54.980469 0)"/>
      <use xlink:href="#DejaVuSans-6e" transform="translate(116.503906 0)"/>
      <use xlink:href="#DejaVuSans-74" transform="translate(179.882812 0)"/>
      <use xlink:href="#DejaVuSans-72" transform="translate(219.091797 0)"/>
      <use xlink:href="#DejaVuSans-65" transform="translate(257.955078 0)"/>
      <use xlink:href="#DejaVuSans-5f" transform="translate(319.478516 0)"/>
      <use xlink:href="#DejaVuSans-6f" transform="translate(369.478516 0)"/>
      <use xlink:href="#DejaVuSans-66" transform="translate(430.660156 0)"/>
      <use xlink:href="#DejaVuSans-5f" transform="translate(465.865234 0)"/>
      <use xlink:href="#DejaVuSans-63" transform="translate(515.865234 0)"/>
      <use xlink:href="#DejaVuSans-61" transform="translate(570.845703 0)"/>
      <use xlink:href="#DejaVuSans-6c" transform="translate(632.125 0)"/>
      <use xlink:href="#DejaVuSans-63" transform="translate(659.908203 0)"/>
      <use xlink:href="#DejaVuSans-75" transform="translate(714.888672 0)"/>
      <use xlink:href="#DejaVuSans-6c" transform="translate(778.267578 0)"/>
      <use xlink:href="#DejaVuSans-61" transform="translate(806.050781 0)"/>
      <use xlink:href="#DejaVuSans-74" transform="translate(867.330078 0)"/>
      <use xlink:href="#DejaVuSans-69" transform="translate(906.539062 0)"/>
      <use xlink:href="#DejaVuSans-6f" transform="translate(934.322266 0)"/>
      <use xlink:href="#DejaVuSans-6e" transform="translate(995.503906 0)"/>
     </g>
    </g>
   </g>
   <g id="text_5">
    <g id="patch_6">
     <path d="M 494.029686 267.797973 
L 541.025154 267.797973 
L 541.025154 256.497348 
L 494.029686 256.497348 
z
" clip-path="url(#pb6308c6cb4)" style="fill: #ffffff; opacity: 0.75"/>
    </g>
    <g clip-path="url(#pb6308c6cb4)">
     <!-- black_box -->
     <g transform="translate(495.199686 264.505942) scale(0.09 -0.09)">
      <defs>
       <path id="DejaVuSans-62" d="M 3116 1747 
Q 3116 2381 2855 2742 
Q 2594 3103 2138 3103 
Q 1681 3103 1420 2742 
Q 1159 2381 1159 1747 
Q 1159 1113 1420 752 
Q 1681 391 2138 391 
Q 2594 391 2855 752 
Q 3116 1113 3116 1747 
z
M 1159 2969 
Q 1341 3281 1617 3432 
Q 1894 3584 2278 3584 
Q 2916 3584 3314 3078 
Q 3713 2572 3713 1747 
Q 3713 922 3314 415 
Q 2916 -91 2278 -91 
Q 1894 -91 1617 61 
Q 1341 213 1159 525 
L 1159 0 
L 581 0 
L 581 4863 
L 1159 4863 
L 1159 2969 
z
" transform="scale(0.015625)"/>
       <path id="DejaVuSans-78" d="M 3513 3500 
L 2247 1797 
L 3578 0 
L 2900 0 
L 1881 1375 
L 863 0 
L 184 0 
L 1544 1831 
L 300 3500 
L 978 3500 
L 1906 2253 
L 2834 3500 
L 3513 3500 
z
" transform="scale(0.015625)"/>
      </defs>
      <use xlink:href="#DejaVuSans-62"/>
      <use xlink:href="#DejaVuSans-6c" transform="translate(63.476562 0)"/>
      <use xlink:href="#DejaVuSans-61" transform="translate(91.259766 0)"/>
      <use xlink:href="#DejaVuSans-63" transform="translate(152.539062 0)"/>
      <use xlink:href="#DejaVuSans-6b" transform="translate(207.519531 0)"/>
      <use xlink:href="#DejaVuSans-5f" transform="translate(265.429688 0)"/>
      <use xlink:href="#DejaVuSans-62" transform="translate(315.429688 0)"/>
      <use xlink:href="#DejaVuSans-6f" transform="translate(378.90625 0)"/>
      <use xlink:href="#DejaVuSans-78" transform="translate(436.962891 0)"/>
     </g>
    </g>
   </g>
   <g id="text_6">
    <g id="patch_7">
     <path d="M 406.601718 60.834247 
L 464.909061 60.834247 
L 464.909061 49.783935 
L 406.601718 49.783935 
z
" clip-path="url(#pb6308c6cb4)" style="fill: #ffffff; opacity: 0.75"/>
    </g>
    <g clip-path="url(#pb6308c6cb4)">
     <!-- construction -->
     <g transform="translate(407.771718 57.792528) scale(0.09 -0.09)">
      <use xlink:href="#DejaVuSans-63"/>
      <use xlink:href="#DejaVuSans-6f" transform="translate(54.980469 0)"/>
      <use xlink:href="#DejaVuSans-6e" transform="translate(116.162109 0)"/>
      <use xlink:href="#DejaVuSans-73" transform="translate(179.541016 0)"/>
      <use xlink:href="#DejaVuSans-74" transform="translate(231.640625 0)"/>
      <use xlink:href="#DejaVuSans-72" transform="translate(270.849609 0)"/>
      <use xlink:href="#DejaVuSans-75" transform="translate(311.962891 0)"/>
      <use xlink:href="#DejaVuSans-63" transform="translate(375.341797 0)"/>
      <use xlink:href="#DejaVuSans-74" transform="translate(430.322266 0)"/>
      <use xlink:href="#DejaVuSans-69" transform="translate(469.53125 0)"/>
      <use xlink:href="#DejaVuSans-6f" transform="translate(497.314453 0)"/>
      <use xlink:href="#DejaVuSans-6e" transform="translate(558.496094 0)"/>
     </g>
    </g>
   </g>
   <g id="text_7">
    <g id="patch_8">
     <path d="M 215.903449 252.460165 
L 265.237511 252.460165 
L 265.237511 241.409853 
L 215.903449 241.409853 
z
" clip-path="url(#pb6308c6cb4)" style="fill: #ffffff; opacity: 0.75"/>
    </g>
    <g clip-path="url(#pb6308c6cb4)">
     <!-- inscription -->
     <g transform="translate(217.073449 249.418447) scale(0.09 -0.09)">
      <defs>
       <path id="DejaVuSans-70" d="M 1159 525 
L 1159 -1331 
L 581 -1331 
L 581 3500 
L 1159 3500 
L 1159 2969 
Q 1341 3281 1617 3432 
Q 1894 3584 2278 3584 
Q 2916 3584 3314 3078 
Q 3713 2572 3713 1747 
Q 3713 922 3314 415 
Q 2916 -91 2278 -91 
Q 1894 -91 1617 61 
Q 1341 213 1159 525 
z
M 3116 1747 
Q 3116 2381 2855 2742 
Q 2594 3103 2138 3103 
Q 1681 3103 1420 2742 
Q 1159 2381 1159 1747 
Q 1159 1113 1420 752 
Q 1681 391 2138 391 
Q 2594 391 2855 752 
Q 3116 1113 3116 1747 
z
" transform="scale(0.015625)"/>
      </defs>
      <use xlink:href="#DejaVuSans-69"/>
      <use xlink:href="#DejaVuSans-6e" transform="translate(27.783203 0)"/>
      <use xlink:href="#DejaVuSans-73" transform="translate(91.162109 0)"/>
      <use xlink:href="#DejaVuSans-63" transform="translate(143.261719 0)"/>
      <use xlink:href="#DejaVuSans-72" transform="translate(198.242188 0)"/>
      <use xlink:href="#DejaVuSans-69" transform="translate(239.355469 0)"/>
      <use xlink:href="#DejaVuSans-70" transform="translate(267.138672 0)"/>
      <use xlink:href="#DejaVuSans-74" transform="translate(330.615234 0)"/>
      <use xlink:href="#DejaVuSans-69" transform="translate(369.824219 0)"/>
      <use xlink:href="#DejaVuSans-6f" transform="translate(397.607422 0)"/>
      <use xlink:href="#DejaVuSans-6e" transform="translate(458.789062 0)"/>
     </g>
    </g>
   </g>
   <g id="text_8">
    <g id="patch_9">
     <path d="M 335.505575 475.110358 
L 399.716356 475.110358 
L 399.716356 464.060045 
L 335.505575 464.060045 
z
" clip-path="url(#pb6308c6cb4)" style="fill: #ffffff; opacity: 0.75"/>
    </g>
    <g clip-path="url(#pb6308c6cb4)">
     <!-- spokesperson -->
     <g transform="translate(336.675575 472.068639) scale(0.09 -0.09)">
      <use xlink:href="#DejaVuSans-73"/>
      <use xlink:href="#DejaVuSans-70" transform="translate(52.099609 0)"/>
      <use xlink:href="#DejaVuSans-6f" transform="translate(115.576172 0)"/>
      <use xlink:href="#DejaVuSans-6b" transform="translate(176.757812 0)"/>
      <use xlink:href="#DejaVuSans-65" transform="translate(231.042969 0)"/>
      <use xlink:href="#DejaVuSans-73" transform="translate(292.566406 0)"/>
      <use xlink:href="#DejaVuSans-70" transform="translate(344.666016 0)"/>
      <use xlink:href="#DejaVuSans-65" transform="translate(408.142578 0)"/>
      <use xlink:href="#DejaVuSans-72" transform="translate(469.666016 0)"/>
      <use xlink:href="#DejaVuSans-73" transform="translate(510.779297 0)"/>
      <use xlink:href="#DejaVuSans-6f" transform="translate(562.878906 0)"/>
      <use xlink:href="#DejaVuSans-6e" transform="translate(624.060547 0)"/>
     </g>
    </g>
   </g>
   <g id="text_9">
    <g id="patch_10">
     <path d="M 168.125979 477.465497 
L 243.786448 477.465497 
L 243.786448 466.164872 
L 168.125979 466.164872 
z
" clip-path="url(#pb6308c6cb4)" style="fill: #ffffff; opacity: 0.75"/>
    </g>
    <g clip-path="url(#pb6308c6cb4)">
     <!-- trial_of_strength -->
     <g transform="translate(169.295979 474.173465) scale(0.09 -0.09)">
      <defs>
       <path id="DejaVuSans-67" d="M 2906 1791 
Q 2906 2416 2648 2759 
Q 2391 3103 1925 3103 
Q 1463 3103 1205 2759 
Q 947 2416 947 1791 
Q 947 1169 1205 825 
Q 1463 481 1925 481 
Q 2391 481 2648 825 
Q 2906 1169 2906 1791 
z
M 3481 434 
Q 3481 -459 3084 -895 
Q 2688 -1331 1869 -1331 
Q 1566 -1331 1297 -1286 
Q 1028 -1241 775 -1147 
L 775 -588 
Q 1028 -725 1275 -790 
Q 1522 -856 1778 -856 
Q 2344 -856 2625 -561 
Q 2906 -266 2906 331 
L 2906 616 
Q 2728 306 2450 153 
Q 2172 0 1784 0 
Q 1141 0 747 490 
Q 353 981 353 1791 
Q 353 2603 747 3093 
Q 1141 3584 1784 3584 
Q 2172 3584 2450 3431 
Q 2728 3278 2906 2969 
L 2906 3500 
L 3481 3500 
L 3481 434 
z
" transform="scale(0.015625)"/>
       <path id="DejaVuSans-68" d="M 3513 2113 
L 3513 0 
L 2938 0 
L 2938 2094 
Q 2938 2591 2744 2837 
Q 2550 3084 2163 3084 
Q 1697 3084 1428 2787 
Q 1159 2491 1159 1978 
L 1159 0 
L 581 0 
L 581 4863 
L 1159 4863 
L 1159 2956 
Q 1366 3272 1645 3428 
Q 1925 3584 2291 3584 
Q 2894 3584 3203 3211 
Q 3513 2838 3513 2113 
z
" transform="scale(0.015625)"/>
      </defs>
      <use xlink:href="#DejaVuSans-74"/>
      <use xlink:href="#DejaVuSans-72" transform="translate(39.208984 0)"/>
      <use xlink:href="#DejaVuSans-69" transform="translate(80.322266 0)"/>
      <use xlink:href="#DejaVuSans-61" transform="translate(108.105469 0)"/>
      <use xlink:href="#DejaVuSans-6c" transform="translate(169.384766 0)"/>
      <use xlink:href="#DejaVuSans-5f" transform="translate(197.167969 0)"/>
      <use xlink:href="#DejaVuSans-6f" transform="translate(247.167969 0)"/>
      <use xlink:href="#DejaVuSans-66" transform="translate(308.349609 0)"/>
      <use xlink:href="#DejaVuSans-5f" transform="translate(343.554688 0)"/>
      <use xlink:href="#DejaVuSans-73" transform="translate(393.554688 0)"/>
      <use xlink:href="#DejaVuSans-74" transform="translate(445.654297 0)"/>
      <use xlink:href="#DejaVuSans-72" transform="translate(484.863281 0)"/>
      <use xlink:href="#DejaVuSans-65" transform="translate(523.726562 0)"/>
      <use xlink:href="#DejaVuSans-6e" transform="translate(585.25 0)"/>
      <use xlink:href="#DejaVuSans-67" transform="translate(648.628906 0)"/>
      <use xlink:href="#DejaVuSans-74" transform="translate(712.105469 0)"/>
      <use xlink:href="#DejaVuSans-68" transform="translate(751.314453 0)"/>
     </g>
    </g>
   </g>
   <g id="text_10">
    <g id="patch_11">
     <path d="M 532.839297 519.141222 
L 599.42664 519.141222 
L 599.42664 507.840597 
L 532.839297 507.840597 
z
" clip-path="url(#pb6308c6cb4)" style="fill: #ffffff; opacity: 0.75"/>
    </g>
    <g clip-path="url(#pb6308c6cb4)">
     <!-- actor_network -->
     <g transform="translate(534.009297 515.84919) scale(0.09 -0.09)">
      <use xlink:href="#DejaVuSans-61"/>
      <use xlink:href="#DejaVuSans-63" transform="translate(61.279297 0)"/>
      <use xlink:href="#DejaVuSans-74" transform="translate(116.259766 0)"/>
      <use xlink:href="#DejaVuSans-6f" transform="translate(155.46875 0)"/>
      <use xlink:href="#DejaVuSans-72" transform="translate(216.650391 0)"/>
      <use xlink:href="#DejaVuSans-5f" transform="translate(257.763672 0)"/>
      <use xlink:href="#DejaVuSans-6e" transform="translate(307.763672 0)"/>
      <use xlink:href="#DejaVuSans-65" transform="translate(371.142578 0)"/>
      <use xlink:href="#DejaVuSans-74" transform="translate(432.666016 0)"/>
      <use xlink:href="#DejaVuSans-77" transform="translate(471.875 0)"/>
      <use xlink:href="#DejaVuSans-6f" transform="translate(553.662109 0)"/>
      <use xlink:href="#DejaVuSans-72" transform="translate(614.84375 0)"/>
      <use xlink:href="#DejaVuSans-6b" transform="translate(655.957031 0)"/>
     </g>
    </g>
   </g>
   <g id="text_11">
    <g id="patch_12">
     <path d="M 593.132809 96.803124 
L 644.255621 96.803124 
L 644.255621 85.752812 
L 593.132809 85.752812 
z
" clip-path="url(#pb6308c6cb4)" style="fill: #ffffff; opacity: 0.75"/>
    </g>
    <g clip-path="url(#pb6308c6cb4)">
     <!-- enrollment -->
     <g transform="translate(594.302809 93.761405) scale(0.09 -0.09)">
      <use xlink:href="#DejaVuSans-65"/>
      <use xlink:href="#DejaVuSans-6e" transform="translate(61.523438 0)"/>
      <use xlink:href="#DejaVuSans-72" transform="translate(124.902344 0)"/>
      <use xlink:href="#DejaVuSans-6f" transform="translate(163.765625 0)"/>
      <use xlink:href="#DejaVuSans-6c" transform="translate(224.947266 0)"/>
      <use xlink:href="#DejaVuSans-6c" transform="translate(252.730469 0)"/>
      <use xlink:href="#DejaVuSans-6d" transform="translate(280.513672 0)"/>
      <use xlink:href="#DejaVuSans-65" transform="translate(377.925781 0)"/>
      <use xlink:href="#DejaVuSans-6e" transform="translate(439.449219 0)"/>
      <use xlink:href="#DejaVuSans-74" transform="translate(502.828125 0)"/>
     </g>
    </g>
   </g>
   <g id="text_12">
    <!-- Arestas: limiar mínimo de 5 cocorrências. Janela: 100 palavras. -->
    <g style="fill: #505050" transform="translate(417.29525 554.39225) scale(0.08 -0.08)">
     <defs>
      <path id="DejaVuSans-41" d="M 2188 4044 
L 1331 1722 
L 3047 1722 
L 2188 4044 
z
M 1831 4666 
L 2547 4666 
L 4325 0 
L 3669 0 
L 3244 1197 
L 1141 1197 
L 716 0 
L 50 0 
L 1831 4666 
z
" transform="scale(0.015625)"/>
      <path id="DejaVuSans-3a" d="M 750 794 
L 1409 794 
L 1409 0 
L 750 0 
L 750 794 
z
M 750 3309 
L 1409 3309 
L 1409 2516 
L 750 2516 
L 750 3309 
z
" transform="scale(0.015625)"/>
      <path id="DejaVuSans-20" transform="scale(0.015625)"/>
      <path id="DejaVuSans-ed" d="M 1322 5119 
L 1944 5119 
L 926 3944 
L 447 3944 
L 1322 5119 
z
M 603 3500 
L 1178 3500 
L 1178 0 
L 603 0 
L 603 3500 
z
M 891 3584 
L 891 3584 
z
" transform="scale(0.015625)"/>
      <path id="DejaVuSans-64" d="M 2906 2969 
L 2906 4863 
L 3481 4863 
L 3481 0 
L 2906 0 
L 2906 525 
Q 2725 213 2448 61 
Q 2172 -91 1784 -91 
Q 1150 -91 751 415 
Q 353 922 353 1747 
Q 353 2572 751 3078 
Q 1150 3584 1784 3584 
Q 2172 3584 2448 3432 
Q 2725 3281 2906 2969 
z
M 947 1747 
Q 947 1113 1208 752 
Q 1469 391 1925 391 
Q 2381 391 2643 752 
Q 2906 1113 2906 1747 
Q 2906 2381 2643 2742 
Q 2381 3103 1925 3103 
Q 1469 3103 1208 2742 
Q 947 2381 947 1747 
z
" transform="scale(0.015625)"/>
      <path id="DejaVuSans-35" d="M 691 4666 
L 3169 4666 
L 3169 4134 
L 1269 4134 
L 1269 2991 
Q 1406 3038 1543 3061 
Q 1681 3084 1819 3084 
Q 2600 3084 3056 2656 
Q 3513 2228 3513 1497 
Q 3513 744 3044 326 
Q 2575 -91 1722 -91 
Q 1428 -91 1123 -41 
Q 819 9 494 109 
L 494 744 
Q 775 591 1075 516 
Q 1375 441 1709 441 
Q 2250 441 2565 725 
Q 2881 1009 2881 1497 
Q 2881 1984 2565 2268 
Q 2250 2553 1709 2553 
Q 1456 2553 1204 2497 
Q 953 2441 691 2322 
L 691 4666 
z
" transform="scale(0.015625)"/>
      <path id="DejaVuSans-ea" d="M 3597 1894 
L 3597 1613 
L 953 1613 
Q 991 1019 1311 708 
Q 1631 397 2203 397 
Q 2534 397 2845 478 
Q 3156 559 3463 722 
L 3463 178 
Q 3153 47 2828 -22 
Q 2503 -91 2169 -91 
Q 1331 -91 842 396 
Q 353 884 353 1716 
Q 353 2575 817 3079 
Q 1281 3584 2069 3584 
Q 2775 3584 3186 3129 
Q 3597 2675 3597 1894 
z
M 3022 2063 
Q 3016 2534 2758 2815 
Q 2500 3097 2075 3097 
Q 1594 3097 1305 2825 
Q 1016 2553 972 2059 
L 3022 2063 
z
M 1801 5119 
L 2263 5119 
L 3029 3944 
L 2595 3944 
L 2032 4709 
L 1470 3944 
L 1035 3944 
L 1801 5119 
z
" transform="scale(0.015625)"/>
      <path id="DejaVuSans-2e" d="M 684 794 
L 1344 794 
L 1344 0 
L 684 0 
L 684 794 
z
" transform="scale(0.015625)"/>
      <path id="DejaVuSans-4a" d="M 628 4666 
L 1259 4666 
L 1259 325 
Q 1259 -519 939 -900 
Q 619 -1281 -91 -1281 
L -331 -1281 
L -331 -750 
L -134 -750 
Q 284 -750 456 -515 
Q 628 -281 628 325 
L 628 4666 
z
" transform="scale(0.015625)"/>
      <path id="DejaVuSans-31" d="M 794 531 
L 1825 531 
L 1825 4091 
L 703 3866 
L 703 4441 
L 1819 4666 
L 2450 4666 
L 2450 531 
L 3481 531 
L 3481 0 
L 794 0 
L 794 531 
z
" transform="scale(0.015625)"/>
      <path id="DejaVuSans-30" d="M 2034 4250 
Q 1547 4250 1301 3770 
Q 1056 3291 1056 2328 
Q 1056 1369 1301 889 
Q 1547 409 2034 409 
Q 2525 409 2770 889 
Q 3016 1369 3016 2328 
Q 3016 3291 2770 3770 
Q 2525 4250 2034 4250 
z
M 2034 4750 
Q 2819 4750 3233 4129 
Q 3647 3509 3647 2328 
Q 3647 1150 3233 529 
Q 2819 -91 2034 -91 
Q 1250 -91 836 529 
Q 422 1150 422 2328 
Q 422 3509 836 4129 
Q 1250 4750 2034 4750 
z
" transform="scale(0.015625)"/>
      <path id="DejaVuSans-76" d="M 191 3500 
L 800 3500 
L 1894 563 
L 2988 3500 
L 3597 3500 
L 2284 0 
L 1503 0 
L 191 3500 
z
" transform="scale(0.015625)"/>
     </defs>
     <use xlink:href="#DejaVuSans-41"/>
     <use xlink:href="#DejaVuSans-72" transform="translate(68.408203 0)"/>
     <use xlink:href="#DejaVuSans-65" transform="translate(107.271484 0)"/>
     <use xlink:href="#DejaVuSans-73" transform="translate(168.794922 0)"/>
     <use xlink:href="#DejaVuSans-74" transform="translate(220.894531 0)"/>
     <use xlink:href="#DejaVuSans-61" transform="translate(260.103516 0)"/>
     <use xlink:href="#DejaVuSans-73" transform="translate(321.382812 0)"/>
     <use xlink:href="#DejaVuSans-3a" transform="translate(373.482422 0)"/>
     <use xlink:href="#DejaVuSans-20" transform="translate(407.173828 0)"/>
     <use xlink:href="#DejaVuSans-6c" transform="translate(438.960938 0)"/>
     <use xlink:href="#DejaVuSans-69" transform="translate(466.744141 0)"/>
     <use xlink:href="#DejaVuSans-6d" transform="translate(494.527344 0)"/>
     <use xlink:href="#DejaVuSans-69" transform="translate(591.939453 0)"/>
     <use xlink:href="#DejaVuSans-61" transform="translate(619.722656 0)"/>
     <use xlink:href="#DejaVuSans-72" transform="translate(681.001953 0)"/>
     <use xlink:href="#DejaVuSans-20" transform="translate(722.115234 0)"/>
     <use xlink:href="#DejaVuSans-6d" transform="translate(753.902344 0)"/>
     <use xlink:href="#DejaVuSans-ed" transform="translate(851.314453 0)"/>
     <use xlink:href="#DejaVuSans-6e" transform="translate(879.097656 0)"/>
     <use xlink:href="#DejaVuSans-69" transform="translate(942.476562 0)"/>
     <use xlink:href="#DejaVuSans-6d" transform="translate(970.259766 0)"/>
     <use xlink:href="#DejaVuSans-6f" transform="translate(1067.671875 0)"/>
     <use xlink:href="#DejaVuSans-20" transform="translate(1128.853516 0)"/>
     <use xlink:href="#DejaVuSans-64" transform="translate(1160.640625 0)"/>
     <use xlink:href="#DejaVuSans-65" transform="translate(1224.117188 0)"/>
     <use xlink:href="#DejaVuSans-20" transform="translate(1285.640625 0)"/>
     <use xlink:href="#DejaVuSans-35" transform="translate(1317.427734 0)"/>
     <use xlink:href="#DejaVuSans-20" transform="translate(1381.050781 0)"/>
     <use xlink:href="#DejaVuSans-63" transform="translate(1412.837891 0)"/>
     <use xlink:href="#DejaVuSans-6f" transform="translate(1467.818359 0)"/>
     <use xlink:href="#DejaVuSans-63" transform="translate(1529 0)"/>
     <use xlink:href="#DejaVuSans-6f" transform="translate(1583.980469 0)"/>
     <use xlink:href="#DejaVuSans-72" transform="translate(1645.162109 0)"/>
     <use xlink:href="#DejaVuSans-72" transform="translate(1684.525391 0)"/>
     <use xlink:href="#DejaVuSans-ea" transform="translate(1723.388672 0)"/>
     <use xlink:href="#DejaVuSans-6e" transform="translate(1784.912109 0)"/>
     <use xlink:href="#DejaVuSans-63" transform="translate(1848.291016 0)"/>
     <use xlink:href="#DejaVuSans-69" transform="translate(1903.271484 0)"/>
     <use xlink:href="#DejaVuSans-61" transform="translate(1931.054688 0)"/>
     <use xlink:href="#DejaVuSans-73" transform="translate(1992.333984 0)"/>
     <use xlink:href="#DejaVuSans-2e" transform="translate(2044.433594 0)"/>
     <use xlink:href="#DejaVuSans-20" transform="translate(2076.220703 0)"/>
     <use xlink:href="#DejaVuSans-4a" transform="translate(2108.007812 0)"/>
     <use xlink:href="#DejaVuSans-61" transform="translate(2137.5 0)"/>
     <use xlink:href="#DejaVuSans-6e" transform="translate(2198.779297 0)"/>
     <use xlink:href="#DejaVuSans-65" transform="translate(2262.158203 0)"/>
     <use xlink:href="#DejaVuSans-6c" transform="translate(2323.681641 0)"/>
     <use xlink:href="#DejaVuSans-61" transform="translate(2351.464844 0)"/>
     <use xlink:href="#DejaVuSans-3a" transform="translate(2412.744141 0)"/>
     <use xlink:href="#DejaVuSans-20" transform="translate(2446.435547 0)"/>
     <use xlink:href="#DejaVuSans-31" transform="translate(2478.222656 0)"/>
     <use xlink:href="#DejaVuSans-30" transform="translate(2541.845703 0)"/>
     <use xlink:href="#DejaVuSans-30" transform="translate(2605.46875 0)"/>
     <use xlink:href="#DejaVuSans-20" transform="translate(2669.091797 0)"/>
     <use xlink:href="#DejaVuSans-70" transform="translate(2700.878906 0)"/>
     <use xlink:href="#DejaVuSans-61" transform="translate(2764.355469 0)"/>
     <use xlink:href="#DejaVuSans-6c" transform="translate(2825.634766 0)"/>
     <use xlink:href="#DejaVuSans-61" transform="translate(2853.417969 0)"/>
     <use xlink:href="#DejaVuSans-76" transform="translate(2914.697266 0)"/>
     <use xlink:href="#DejaVuSans-72" transform="translate(2973.876953 0)"/>
     <use xlink:href="#DejaVuSans-61" transform="translate(3014.990234 0)"/>
     <use xlink:href="#DejaVuSans-73" transform="translate(3076.269531 0)"/>
     <use xlink:href="#DejaVuSans-2e" transform="translate(3128.369141 0)"/>
    </g>
   </g>
  </g>
 </g>
 <defs>
  <clipPath id="pb6308c6cb4">
   <rect x="7.2" y="7.2" width="669.6" height="554.4"/>
  </clipPath>
 </defs>
</svg>
