<?xml version="1.0" encoding="utf-8" standalone="no"?>
<!DOCTYPE svg PUBLIC "-//W3C//DTD SVG 1.1//EN"
  "http://www.w3.org/Graphics/SVG/1.1/DTD/svg11.dtd">
<svg xmlns:xlink="http://www.w3.org/1999/xlink" width="648pt" height="504pt" viewBox="0 0 648 504" xmlns="http://www.w3.org/2000/svg" version="1.1">
 <metadata>
  <rdf:RDF xmlns:dc="http://purl.org/dc/elements/1.1/" xmlns:cc="http://creativecommons.org/ns#" xmlns:rdf="http://www.w3.org/1999/02/22-rdf-syntax-ns#">
   <cc:Work>
    <dc:type rdf:resource="http://purl.org/dc/dcmitype/StillImage"/>
    <dc:date>2026-05-14T01:36:24.511272</dc:date>
    <dc:format>image/svg+xml</dc:format>
    <dc:creator>
     <cc:Agent>
      <dc:title>Matplotlib v3.10.9, https://matplotlib.org/</dc:title>
     </cc:Agent>
    </dc:creator>
   </cc:Work>
  </rdf:RDF>
 </metadata>
 <defs>
  <style type="text/css">*{stroke-linejoin: round; stroke-linecap: butt}</style>
 </defs>
 <g id="figure_1">
  <g id="patch_1">
   <path d="M 0 504 
L 648 504 
L 648 0 
L 0 0 
z
" style="fill: #ffffff"/>
  </g>
  <g id="axes_1">
   <g id="LineCollection_1">
    <path d="M 361.552696 67.674545 
L 394.064705 188.328905 
" clip-path="url(#pf12efd3b83)" style="fill: none; stroke: #000000; stroke-opacity: 0.45; stroke-width: 1.348683"/>
    <path d="M 361.552696 67.674545 
L 310.085708 209.781805 
" clip-path="url(#pf12efd3b83)" style="fill: none; stroke: #000000; stroke-opacity: 0.45; stroke-width: 1.958846"/>
    <path d="M 361.552696 67.674545 
L 298.035135 154.207449 
" clip-path="url(#pf12efd3b83)" style="fill: none; stroke: #000000; stroke-opacity: 0.45; stroke-width: 1.134847"/>
    <path d="M 361.552696 67.674545 
L 336.94079 185.456152 
" clip-path="url(#pf12efd3b83)" style="fill: none; stroke: #000000; stroke-opacity: 0.45; stroke-width: 1.193725"/>
    <path d="M 361.552696 67.674545 
L 331.138726 279.132044 
" clip-path="url(#pf12efd3b83)" style="fill: none; stroke: #000000; stroke-opacity: 0.45; stroke-width: 0.7"/>
    <path d="M 361.552696 67.674545 
L 276.912657 261.662484 
" clip-path="url(#pf12efd3b83)" style="fill: none; stroke: #000000; stroke-opacity: 0.45; stroke-width: 0.7"/>
    <path d="M 361.552696 67.674545 
L 258.47915 199.33431 
" clip-path="url(#pf12efd3b83)" style="fill: none; stroke: #000000; stroke-opacity: 0.45; stroke-width: 0.824264"/>
    <path d="M 582.842975 172.894222 
L 331.138726 279.132044 
" clip-path="url(#pf12efd3b83)" style="fill: none; stroke: #000000; stroke-opacity: 0.45; stroke-width: 0.7"/>
    <path d="M 582.842975 172.894222 
L 394.064705 188.328905 
" clip-path="url(#pf12efd3b83)" style="fill: none; stroke: #000000; stroke-opacity: 0.45; stroke-width: 1.134847"/>
    <path d="M 582.842975 172.894222 
L 310.085708 209.781805 
" clip-path="url(#pf12efd3b83)" style="fill: none; stroke: #000000; stroke-opacity: 0.45; stroke-width: 0.7"/>
    <path d="M 582.842975 172.894222 
L 276.912657 261.662484 
" clip-path="url(#pf12efd3b83)" style="fill: none; stroke: #000000; stroke-opacity: 0.45; stroke-width: 0.7"/>
    <path d="M 298.035135 154.207449 
L 258.47915 199.33431 
" clip-path="url(#pf12efd3b83)" style="fill: none; stroke: #000000; stroke-opacity: 0.45; stroke-width: 2.320937"/>
    <path d="M 298.035135 154.207449 
L 310.085708 209.781805 
" clip-path="url(#pf12efd3b83)" style="fill: none; stroke: #000000; stroke-opacity: 0.45; stroke-width: 4.098648"/>
    <path d="M 298.035135 154.207449 
L 276.912657 261.662484 
" clip-path="url(#pf12efd3b83)" style="fill: none; stroke: #000000; stroke-opacity: 0.45; stroke-width: 1.636932"/>
    <path d="M 298.035135 154.207449 
L 209.300349 289.251362 
" clip-path="url(#pf12efd3b83)" style="fill: none; stroke: #000000; stroke-opacity: 0.45; stroke-width: 1.134847"/>
    <path d="M 298.035135 154.207449 
L 336.94079 185.456152 
" clip-path="url(#pf12efd3b83)" style="fill: none; stroke: #000000; stroke-opacity: 0.45; stroke-width: 2.015549"/>
    <path d="M 298.035135 154.207449 
L 406.157819 268.674406 
" clip-path="url(#pf12efd3b83)" style="fill: none; stroke: #000000; stroke-opacity: 0.45; stroke-width: 1.134847"/>
    <path d="M 298.035135 154.207449 
L 394.064705 188.328905 
" clip-path="url(#pf12efd3b83)" style="fill: none; stroke: #000000; stroke-opacity: 0.45; stroke-width: 1.394987"/>
    <path d="M 298.035135 154.207449 
L 331.138726 279.132044 
" clip-path="url(#pf12efd3b83)" style="fill: none; stroke: #000000; stroke-opacity: 0.45; stroke-width: 1.07082"/>
    <path d="M 298.035135 154.207449 
L 238.63148 142.7786 
" clip-path="url(#pf12efd3b83)" style="fill: none; stroke: #000000; stroke-opacity: 0.45; stroke-width: 1.741641"/>
    <path d="M 298.035135 154.207449 
L 355.335922 452.765455 
" clip-path="url(#pf12efd3b83)" style="fill: none; stroke: #000000; stroke-opacity: 0.45; stroke-width: 0.7"/>
    <path d="M 209.300349 289.251362 
L 258.47915 199.33431 
" clip-path="url(#pf12efd3b83)" style="fill: none; stroke: #000000; stroke-opacity: 0.45; stroke-width: 1.07082"/>
    <path d="M 209.300349 289.251362 
L 310.085708 209.781805 
" clip-path="url(#pf12efd3b83)" style="fill: none; stroke: #000000; stroke-opacity: 0.45; stroke-width: 1.561895"/>
    <path d="M 209.300349 289.251362 
L 276.912657 261.662484 
" clip-path="url(#pf12efd3b83)" style="fill: none; stroke: #000000; stroke-opacity: 0.45; stroke-width: 1.774773"/>
    <path d="M 209.300349 289.251362 
L 331.138726 279.132044 
" clip-path="url(#pf12efd3b83)" style="fill: none; stroke: #000000; stroke-opacity: 0.45; stroke-width: 1.348683"/>
    <path d="M 209.300349 289.251362 
L 394.064705 188.328905 
" clip-path="url(#pf12efd3b83)" style="fill: none; stroke: #000000; stroke-opacity: 0.45; stroke-width: 0.7"/>
    <path d="M 209.300349 289.251362 
L 336.94079 185.456152 
" clip-path="url(#pf12efd3b83)" style="fill: none; stroke: #000000; stroke-opacity: 0.45"/>
    <path d="M 209.300349 289.251362 
L 238.63148 142.7786 
" clip-path="url(#pf12efd3b83)" style="fill: none; stroke: #000000; stroke-opacity: 0.45; stroke-width: 0.7"/>
    <path d="M 336.94079 185.456152 
L 310.085708 209.781805 
" clip-path="url(#pf12efd3b83)" style="fill: none; stroke: #000000; stroke-opacity: 0.45; stroke-width: 2.704344"/>
    <path d="M 336.94079 185.456152 
L 276.912657 261.662484 
" clip-path="url(#pf12efd3b83)" style="fill: none; stroke: #000000; stroke-opacity: 0.45; stroke-width: 1.774773"/>
    <path d="M 336.94079 185.456152 
L 331.138726 279.132044 
" clip-path="url(#pf12efd3b83)" style="fill: none; stroke: #000000; stroke-opacity: 0.45; stroke-width: 1.522497"/>
    <path d="M 336.94079 185.456152 
L 394.064705 188.328905 
" clip-path="url(#pf12efd3b83)" style="fill: none; stroke: #000000; stroke-opacity: 0.45; stroke-width: 0.919615"/>
    <path d="M 336.94079 185.456152 
L 406.157819 268.674406 
" clip-path="url(#pf12efd3b83)" style="fill: none; stroke: #000000; stroke-opacity: 0.45; stroke-width: 0.7"/>
    <path d="M 336.94079 185.456152 
L 238.63148 142.7786 
" clip-path="url(#pf12efd3b83)" style="fill: none; stroke: #000000; stroke-opacity: 0.45; stroke-width: 1.43923"/>
    <path d="M 336.94079 185.456152 
L 258.47915 199.33431 
" clip-path="url(#pf12efd3b83)" style="fill: none; stroke: #000000; stroke-opacity: 0.45; stroke-width: 1.807125"/>
    <path d="M 336.94079 185.456152 
L 355.335922 452.765455 
" clip-path="url(#pf12efd3b83)" style="fill: none; stroke: #000000; stroke-opacity: 0.45"/>
    <path d="M 238.63148 142.7786 
L 310.085708 209.781805 
" clip-path="url(#pf12efd3b83)" style="fill: none; stroke: #000000; stroke-opacity: 0.45; stroke-width: 2.563331"/>
    <path d="M 238.63148 142.7786 
L 258.47915 199.33431 
" clip-path="url(#pf12efd3b83)" style="fill: none; stroke: #000000; stroke-opacity: 0.45; stroke-width: 2.320937"/>
    <path d="M 238.63148 142.7786 
L 394.064705 188.328905 
" clip-path="url(#pf12efd3b83)" style="fill: none; stroke: #000000; stroke-opacity: 0.45; stroke-width: 0.824264"/>
    <path d="M 238.63148 142.7786 
L 276.912657 261.662484 
" clip-path="url(#pf12efd3b83)" style="fill: none; stroke: #000000; stroke-opacity: 0.45; stroke-width: 1.70767"/>
    <path d="M 238.63148 142.7786 
L 331.138726 279.132044 
" clip-path="url(#pf12efd3b83)" style="fill: none; stroke: #000000; stroke-opacity: 0.45; stroke-width: 0.824264"/>
    <path d="M 355.335922 452.765455 
L 276.912657 261.662484 
" clip-path="url(#pf12efd3b83)" style="fill: none; stroke: #000000; stroke-opacity: 0.45"/>
    <path d="M 355.335922 452.765455 
L 310.085708 209.781805 
" clip-path="url(#pf12efd3b83)" style="fill: none; stroke: #000000; stroke-opacity: 0.45; stroke-width: 0.824264"/>
    <path d="M 355.335922 452.765455 
L 331.138726 279.132044 
" clip-path="url(#pf12efd3b83)" style="fill: none; stroke: #000000; stroke-opacity: 0.45"/>
    <path d="M 355.335922 452.765455 
L 258.47915 199.33431 
" clip-path="url(#pf12efd3b83)" style="fill: none; stroke: #000000; stroke-opacity: 0.45; stroke-width: 0.7"/>
    <path d="M 331.138726 279.132044 
L 310.085708 209.781805 
" clip-path="url(#pf12efd3b83)" style="fill: none; stroke: #000000; stroke-opacity: 0.45; stroke-width: 2.945584"/>
    <path d="M 331.138726 279.132044 
L 394.064705 188.328905 
" clip-path="url(#pf12efd3b83)" style="fill: none; stroke: #000000; stroke-opacity: 0.45; stroke-width: 1.6"/>
    <path d="M 331.138726 279.132044 
L 406.157819 268.674406 
" clip-path="url(#pf12efd3b83)" style="fill: none; stroke: #000000; stroke-opacity: 0.45; stroke-width: 1.348683"/>
    <path d="M 331.138726 279.132044 
L 276.912657 261.662484 
" clip-path="url(#pf12efd3b83)" style="fill: none; stroke: #000000; stroke-opacity: 0.45; stroke-width: 2.097056"/>
    <path d="M 331.138726 279.132044 
L 258.47915 199.33431 
" clip-path="url(#pf12efd3b83)" style="fill: none; stroke: #000000; stroke-opacity: 0.45; stroke-width: 1.672792"/>
    <path d="M 310.085708 209.781805 
L 258.47915 199.33431 
" clip-path="url(#pf12efd3b83)" style="fill: none; stroke: #000000; stroke-opacity: 0.45; stroke-width: 2.927845"/>
    <path d="M 310.085708 209.781805 
L 276.912657 261.662484 
" clip-path="url(#pf12efd3b83)" style="fill: none; stroke: #000000; stroke-opacity: 0.45; stroke-width: 3.369848"/>
    <path d="M 310.085708 209.781805 
L 406.157819 268.674406 
" clip-path="url(#pf12efd3b83)" style="fill: none; stroke: #000000; stroke-opacity: 0.45; stroke-width: 2.273499"/>
    <path d="M 310.085708 209.781805 
L 394.064705 188.328905 
" clip-path="url(#pf12efd3b83)" style="fill: none; stroke: #000000; stroke-opacity: 0.45; stroke-width: 2.62486"/>
    <path d="M 310.085708 209.781805 
L 65.157025 412.842921 
" clip-path="url(#pf12efd3b83)" style="fill: none; stroke: #000000; stroke-opacity: 0.45; stroke-width: 0.919615"/>
    <path d="M 276.912657 261.662484 
L 258.47915 199.33431 
" clip-path="url(#pf12efd3b83)" style="fill: none; stroke: #000000; stroke-opacity: 0.45; stroke-width: 1.672792"/>
    <path d="M 276.912657 261.662484 
L 394.064705 188.328905 
" clip-path="url(#pf12efd3b83)" style="fill: none; stroke: #000000; stroke-opacity: 0.45; stroke-width: 1.3"/>
    <path d="M 276.912657 261.662484 
L 65.157025 412.842921 
" clip-path="url(#pf12efd3b83)" style="fill: none; stroke: #000000; stroke-opacity: 0.45; stroke-width: 0.919615"/>
    <path d="M 276.912657 261.662484 
L 406.157819 268.674406 
" clip-path="url(#pf12efd3b83)" style="fill: none; stroke: #000000; stroke-opacity: 0.45; stroke-width: 0.7"/>
    <path d="M 394.064705 188.328905 
L 406.157819 268.674406 
" clip-path="url(#pf12efd3b83)" style="fill: none; stroke: #000000; stroke-opacity: 0.45; stroke-width: 1.807125"/>
    <path d="M 394.064705 188.328905 
L 258.47915 199.33431 
" clip-path="url(#pf12efd3b83)" style="fill: none; stroke: #000000; stroke-opacity: 0.45; stroke-width: 0.919615"/>
    <path d="M 258.47915 199.33431 
L 406.157819 268.674406 
" clip-path="url(#pf12efd3b83)" style="fill: none; stroke: #000000; stroke-opacity: 0.45; stroke-width: 0.919615"/>
   </g>
   <g id="PathCollection_1">
    <path d="M 361.552696 79.183764 
C 364.604977 79.183764 367.532654 77.97108 369.690943 75.812792 
C 371.849231 73.654504 373.061915 70.726826 373.061915 67.674545 
C 373.061915 64.622265 371.849231 61.694587 369.690943 59.536299 
C 367.532654 57.378011 364.604977 56.165327 361.552696 56.165327 
C 358.500416 56.165327 355.572738 57.378011 353.41445 59.536299 
C 351.256161 61.694587 350.043478 64.622265 350.043478 67.674545 
C 350.043478 70.726826 351.256161 73.654504 353.41445 75.812792 
C 355.572738 77.97108 358.500416 79.183764 361.552696 79.183764 
z
" clip-path="url(#pf12efd3b83)" style="fill: #4c72b0; stroke: #ffffff; stroke-width: 1.5"/>
    <path d="M 582.842975 182.381055 
C 585.358913 182.381055 587.772143 181.381462 589.551179 179.602425 
C 591.330216 177.823389 592.329808 175.410159 592.329808 172.894222 
C 592.329808 170.378284 591.330216 167.965054 589.551179 166.186018 
C 587.772143 164.406981 585.358913 163.407389 582.842975 163.407389 
C 580.327038 163.407389 577.913808 164.406981 576.134771 166.186018 
C 574.355735 167.965054 573.356142 170.378284 573.356142 172.894222 
C 573.356142 175.410159 574.355735 177.823389 576.134771 179.602425 
C 577.913808 181.381462 580.327038 182.381055 582.842975 182.381055 
z
" clip-path="url(#pf12efd3b83)" style="fill: #4c72b0; stroke: #ffffff; stroke-width: 1.5"/>
    <path d="M 298.035135 170.98591 
C 302.484835 170.98591 306.752885 169.218025 309.899298 166.071612 
C 313.045711 162.925199 314.813596 158.657149 314.813596 154.207449 
C 314.813596 149.757749 313.045711 145.489699 309.899298 142.343286 
C 306.752885 139.196873 302.484835 137.428988 298.035135 137.428988 
C 293.585435 137.428988 289.317385 139.196873 286.170972 142.343286 
C 283.024559 145.489699 281.256674 149.757749 281.256674 154.207449 
C 281.256674 158.657149 283.024559 162.925199 286.170972 166.071612 
C 289.317385 169.218025 293.585435 170.98591 298.035135 170.98591 
z
" clip-path="url(#pf12efd3b83)" style="fill: #4c72b0; stroke: #ffffff; stroke-width: 1.5"/>
    <path d="M 209.300349 300.963662 
C 212.406487 300.963662 215.385824 299.72958 217.582195 297.533209 
C 219.778567 295.336837 221.012649 292.3575 221.012649 289.251362 
C 221.012649 286.145223 219.778567 283.165886 217.582195 280.969515 
C 215.385824 278.773143 212.406487 277.539061 209.300349 277.539061 
C 206.19421 277.539061 203.214873 278.773143 201.018502 280.969515 
C 198.82213 283.165886 197.588048 286.145223 197.588048 289.251362 
C 197.588048 292.3575 198.82213 295.336837 201.018502 297.533209 
C 203.214873 299.72958 206.19421 300.963662 209.300349 300.963662 
z
" clip-path="url(#pf12efd3b83)" style="fill: #4c72b0; stroke: #ffffff; stroke-width: 1.5"/>
    <path d="M 336.94079 199.441937 
C 340.649863 199.441937 344.207522 197.968307 346.830233 195.345596 
C 349.452944 192.722885 350.926575 189.165226 350.926575 185.456152 
C 350.926575 181.747078 349.452944 178.189419 346.830233 175.566708 
C 344.207522 172.943997 340.649863 171.470366 336.94079 171.470366 
C 333.231716 171.470366 329.674057 172.943997 327.051346 175.566708 
C 324.428635 178.189419 322.955004 181.747078 322.955004 185.456152 
C 322.955004 189.165226 324.428635 192.722885 327.051346 195.345596 
C 329.674057 197.968307 333.231716 199.441937 336.94079 199.441937 
z
" clip-path="url(#pf12efd3b83)" style="fill: #4c72b0; stroke: #ffffff; stroke-width: 1.5"/>
    <path d="M 238.63148 156.293962 
C 242.215796 156.293962 245.65379 154.869898 248.188284 152.335404 
C 250.722778 149.80091 252.146841 146.362916 252.146841 142.7786 
C 252.146841 139.194285 250.722778 135.756291 248.188284 133.221797 
C 245.65379 130.687303 242.215796 129.263239 238.63148 129.263239 
C 235.047164 129.263239 231.60917 130.687303 229.074676 133.221797 
C 226.540182 135.756291 225.116119 139.194285 225.116119 142.7786 
C 225.116119 146.362916 226.540182 149.80091 229.074676 152.335404 
C 231.60917 154.869898 235.047164 156.293962 238.63148 156.293962 
z
" clip-path="url(#pf12efd3b83)" style="fill: #4c72b0; stroke: #ffffff; stroke-width: 1.5"/>
    <path d="M 355.335922 462.252288 
C 357.85186 462.252288 360.26509 461.252695 362.044126 459.473658 
C 363.823163 457.694622 364.822755 455.281392 364.822755 452.765455 
C 364.822755 450.249517 363.823163 447.836287 362.044126 446.057251 
C 360.26509 444.278214 357.85186 443.278622 355.335922 443.278622 
C 352.819985 443.278622 350.406755 444.278214 348.627718 446.057251 
C 346.848682 447.836287 345.849089 450.249517 345.849089 452.765455 
C 345.849089 455.281392 346.848682 457.694622 348.627718 459.473658 
C 350.406755 461.252695 352.819985 462.252288 355.335922 462.252288 
z
" clip-path="url(#pf12efd3b83)" style="fill: #4c72b0; stroke: #ffffff; stroke-width: 1.5"/>
    <path d="M 331.138726 293.536216 
C 334.958757 293.536216 338.622844 292.018501 341.324014 289.317331 
C 344.025183 286.616162 345.542898 282.952075 345.542898 279.132044 
C 345.542898 275.312013 344.025183 271.647926 341.324014 268.946757 
C 338.622844 266.245587 334.958757 264.727873 331.138726 264.727873 
C 327.318695 264.727873 323.654609 266.245587 320.953439 268.946757 
C 318.252269 271.647926 316.734555 275.312013 316.734555 279.132044 
C 316.734555 282.952075 318.252269 286.616162 320.953439 289.317331 
C 323.654609 292.018501 327.318695 293.536216 331.138726 293.536216 
z
" clip-path="url(#pf12efd3b83)" style="fill: #4c72b0; stroke: #ffffff; stroke-width: 1.5"/>
    <path d="M 310.085708 230.681125 
C 315.628272 230.681125 320.944574 228.479041 324.863759 224.559856 
C 328.782944 220.640671 330.985028 215.324369 330.985028 209.781805 
C 330.985028 204.23924 328.782944 198.922939 324.863759 195.003754 
C 320.944574 191.084569 315.628272 188.882484 310.085708 188.882484 
C 304.543143 188.882484 299.226842 191.084569 295.307657 195.003754 
C 291.388472 198.922939 289.186387 204.23924 289.186387 209.781805 
C 289.186387 215.324369 291.388472 220.640671 295.307657 224.559856 
C 299.226842 228.479041 304.543143 230.681125 310.085708 230.681125 
z
" clip-path="url(#pf12efd3b83)" style="fill: #4c72b0; stroke: #ffffff; stroke-width: 1.5"/>
    <path d="M 276.912657 278.257319 
C 281.313659 278.257319 285.535 276.508782 288.646978 273.396804 
C 291.758956 270.284826 293.507492 266.063485 293.507492 261.662484 
C 293.507492 257.261482 291.758956 253.040141 288.646978 249.928163 
C 285.535 246.816185 281.313659 245.067648 276.912657 245.067648 
C 272.511656 245.067648 268.290315 246.816185 265.178337 249.928163 
C 262.066359 253.040141 260.317822 257.261482 260.317822 261.662484 
C 260.317822 266.063485 262.066359 270.284826 265.178337 273.396804 
C 268.290315 276.508782 272.511656 278.257319 276.912657 278.257319 
z
" clip-path="url(#pf12efd3b83)" style="fill: #4c72b0; stroke: #ffffff; stroke-width: 1.5"/>
    <path d="M 65.157025 422.575411 
C 67.738111 422.575411 70.213831 421.549934 72.038934 419.72483 
C 73.864038 417.899727 74.889515 415.424007 74.889515 412.842921 
C 74.889515 410.261834 73.864038 407.786115 72.038934 405.961011 
C 70.213831 404.135907 67.738111 403.110431 65.157025 403.110431 
C 62.575938 403.110431 60.100219 404.135907 58.275115 405.961011 
C 56.450011 407.786115 55.424535 410.261834 55.424535 412.842921 
C 55.424535 415.424007 56.450011 417.899727 58.275115 419.72483 
C 60.100219 421.549934 62.575938 422.575411 65.157025 422.575411 
z
" clip-path="url(#pf12efd3b83)" style="fill: #4c72b0; stroke: #ffffff; stroke-width: 1.5"/>
    <path d="M 394.064705 201.954124 
C 397.678155 201.954124 401.144094 200.518485 403.69919 197.96339 
C 406.254285 195.408294 407.689924 191.942355 407.689924 188.328905 
C 407.689924 184.715454 406.254285 181.249515 403.69919 178.69442 
C 401.144094 176.139324 397.678155 174.703685 394.064705 174.703685 
C 390.451254 174.703685 386.985315 176.139324 384.43022 178.69442 
C 381.875124 181.249515 380.439485 184.715454 380.439485 188.328905 
C 380.439485 191.942355 381.875124 195.408294 384.43022 197.96339 
C 386.985315 200.518485 390.451254 201.954124 394.064705 201.954124 
z
" clip-path="url(#pf12efd3b83)" style="fill: #4c72b0; stroke: #ffffff; stroke-width: 1.5"/>
    <path d="M 258.47915 214.388718 
C 262.471626 214.388718 266.301118 212.802491 269.124224 209.979384 
C 271.947331 207.156277 273.533558 203.326786 273.533558 199.33431 
C 273.533558 195.341834 271.947331 191.512342 269.124224 188.689235 
C 266.301118 185.866129 262.471626 184.279901 258.47915 184.279901 
C 254.486674 184.279901 250.657182 185.866129 247.834076 188.689235 
C 245.010969 191.512342 243.424741 195.341834 243.424741 199.33431 
C 243.424741 203.326786 245.010969 207.156277 247.834076 209.979384 
C 250.657182 212.802491 254.486674 214.388718 258.47915 214.388718 
z
" clip-path="url(#pf12efd3b83)" style="fill: #4c72b0; stroke: #ffffff; stroke-width: 1.5"/>
    <path d="M 406.157819 280.482992 
C 409.289493 280.482992 412.293323 279.238765 414.50775 277.024337 
C 416.722178 274.809909 417.966405 271.806079 417.966405 268.674406 
C 417.966405 265.542732 416.722178 262.538902 414.50775 260.324474 
C 412.293323 258.110046 409.289493 256.865819 406.157819 256.865819 
C 403.026145 256.865819 400.022315 258.110046 397.807887 260.324474 
C 395.593459 262.538902 394.349232 265.542732 394.349232 268.674406 
C 394.349232 271.806079 395.593459 274.809909 397.807887 277.024337 
C 400.022315 279.238765 403.026145 280.482992 406.157819 280.482992 
z
" clip-path="url(#pf12efd3b83)" style="fill: #4c72b0; stroke: #ffffff; stroke-width: 1.5"/>
   </g>
   <g id="text_1">
    <g clip-path="url(#pf12efd3b83)">
     <!-- actor_network -->
     <g transform="translate(332.998321 69.770795) scale(0.08 -0.08)">
      <defs>
       <path id="DejaVuSans-61" d="M 2194 1759 
Q 1497 1759 1228 1600 
Q 959 1441 959 1056 
Q 959 750 1161 570 
Q 1363 391 1709 391 
Q 2188 391 2477 730 
Q 2766 1069 2766 1631 
L 2766 1759 
L 2194 1759 
z
M 3341 1997 
L 3341 0 
L 2766 0 
L 2766 531 
Q 2569 213 2275 61 
Q 1981 -91 1556 -91 
Q 1019 -91 701 211 
Q 384 513 384 1019 
Q 384 1609 779 1909 
Q 1175 2209 1959 2209 
L 2766 2209 
L 2766 2266 
Q 2766 2663 2505 2880 
Q 2244 3097 1772 3097 
Q 1472 3097 1187 3025 
Q 903 2953 641 2809 
L 641 3341 
Q 956 3463 1253 3523 
Q 1550 3584 1831 3584 
Q 2591 3584 2966 3190 
Q 3341 2797 3341 1997 
z
" transform="scale(0.015625)"/>
       <path id="DejaVuSans-63" d="M 3122 3366 
L 3122 2828 
Q 2878 2963 2633 3030 
Q 2388 3097 2138 3097 
Q 1578 3097 1268 2742 
Q 959 2388 959 1747 
Q 959 1106 1268 751 
Q 1578 397 2138 397 
Q 2388 397 2633 464 
Q 2878 531 3122 666 
L 3122 134 
Q 2881 22 2623 -34 
Q 2366 -91 2075 -91 
Q 1284 -91 818 406 
Q 353 903 353 1747 
Q 353 2603 823 3093 
Q 1294 3584 2113 3584 
Q 2378 3584 2631 3529 
Q 2884 3475 3122 3366 
z
" transform="scale(0.015625)"/>
       <path id="DejaVuSans-74" d="M 1172 4494 
L 1172 3500 
L 2356 3500 
L 2356 3053 
L 1172 3053 
L 1172 1153 
Q 1172 725 1289 603 
Q 1406 481 1766 481 
L 2356 481 
L 2356 0 
L 1766 0 
Q 1100 0 847 248 
Q 594 497 594 1153 
L 594 3053 
L 172 3053 
L 172 3500 
L 594 3500 
L 594 4494 
L 1172 4494 
z
" transform="scale(0.015625)"/>
       <path id="DejaVuSans-6f" d="M 1959 3097 
Q 1497 3097 1228 2736 
Q 959 2375 959 1747 
Q 959 1119 1226 758 
Q 1494 397 1959 397 
Q 2419 397 2687 759 
Q 2956 1122 2956 1747 
Q 2956 2369 2687 2733 
Q 2419 3097 1959 3097 
z
M 1959 3584 
Q 2709 3584 3137 3096 
Q 3566 2609 3566 1747 
Q 3566 888 3137 398 
Q 2709 -91 1959 -91 
Q 1206 -91 779 398 
Q 353 888 353 1747 
Q 353 2609 779 3096 
Q 1206 3584 1959 3584 
z
" transform="scale(0.015625)"/>
       <path id="DejaVuSans-72" d="M 2631 2963 
Q 2534 3019 2420 3045 
Q 2306 3072 2169 3072 
Q 1681 3072 1420 2755 
Q 1159 2438 1159 1844 
L 1159 0 
L 581 0 
L 581 3500 
L 1159 3500 
L 1159 2956 
Q 1341 3275 1631 3429 
Q 1922 3584 2338 3584 
Q 2397 3584 2469 3576 
Q 2541 3569 2628 3553 
L 2631 2963 
z
" transform="scale(0.015625)"/>
       <path id="DejaVuSans-5f" d="M 3263 -1063 
L 3263 -1509 
L -63 -1509 
L -63 -1063 
L 3263 -1063 
z
" transform="scale(0.015625)"/>
       <path id="DejaVuSans-6e" d="M 3513 2113 
L 3513 0 
L 2938 0 
L 2938 2094 
Q 2938 2591 2744 2837 
Q 2550 3084 2163 3084 
Q 1697 3084 1428 2787 
Q 1159 2491 1159 1978 
L 1159 0 
L 581 0 
L 581 3500 
L 1159 3500 
L 1159 2956 
Q 1366 3272 1645 3428 
Q 1925 3584 2291 3584 
Q 2894 3584 3203 3211 
Q 3513 2838 3513 2113 
z
" transform="scale(0.015625)"/>
       <path id="DejaVuSans-65" d="M 3597 1894 
L 3597 1613 
L 953 1613 
Q 991 1019 1311 708 
Q 1631 397 2203 397 
Q 2534 397 2845 478 
Q 3156 559 3463 722 
L 3463 178 
Q 3153 47 2828 -22 
Q 2503 -91 2169 -91 
Q 1331 -91 842 396 
Q 353 884 353 1716 
Q 353 2575 817 3079 
Q 1281 3584 2069 3584 
Q 2775 3584 3186 3129 
Q 3597 2675 3597 1894 
z
M 3022 2063 
Q 3016 2534 2758 2815 
Q 2500 3097 2075 3097 
Q 1594 3097 1305 2825 
Q 1016 2553 972 2059 
L 3022 2063 
z
" transform="scale(0.015625)"/>
       <path id="DejaVuSans-77" d="M 269 3500 
L 844 3500 
L 1563 769 
L 2278 3500 
L 2956 3500 
L 3675 769 
L 4391 3500 
L 4966 3500 
L 4050 0 
L 3372 0 
L 2619 2869 
L 1863 0 
L 1184 0 
L 269 3500 
z
" transform="scale(0.015625)"/>
       <path id="DejaVuSans-6b" d="M 581 4863 
L 1159 4863 
L 1159 1991 
L 2875 3500 
L 3609 3500 
L 1753 1863 
L 3688 0 
L 2938 0 
L 1159 1709 
L 1159 0 
L 581 0 
L 581 4863 
z
" transform="scale(0.015625)"/>
      </defs>
      <use xlink:href="#DejaVuSans-61"/>
      <use xlink:href="#DejaVuSans-63" transform="translate(61.279297 0)"/>
      <use xlink:href="#DejaVuSans-74" transform="translate(116.259766 0)"/>
      <use xlink:href="#DejaVuSans-6f" transform="translate(155.46875 0)"/>
      <use xlink:href="#DejaVuSans-72" transform="translate(216.650391 0)"/>
      <use xlink:href="#DejaVuSans-5f" transform="translate(257.763672 0)"/>
      <use xlink:href="#DejaVuSans-6e" transform="translate(307.763672 0)"/>
      <use xlink:href="#DejaVuSans-65" transform="translate(371.142578 0)"/>
      <use xlink:href="#DejaVuSans-74" transform="translate(432.666016 0)"/>
      <use xlink:href="#DejaVuSans-77" transform="translate(471.875 0)"/>
      <use xlink:href="#DejaVuSans-6f" transform="translate(553.662109 0)"/>
      <use xlink:href="#DejaVuSans-72" transform="translate(614.84375 0)"/>
      <use xlink:href="#DejaVuSans-6b" transform="translate(655.957031 0)"/>
     </g>
    </g>
   </g>
   <g id="text_2">
    <g clip-path="url(#pf12efd3b83)">
     <!-- articulation -->
     <g transform="translate(560.109225 175.101722) scale(0.08 -0.08)">
      <defs>
       <path id="DejaVuSans-69" d="M 603 3500 
L 1178 3500 
L 1178 0 
L 603 0 
L 603 3500 
z
M 603 4863 
L 1178 4863 
L 1178 4134 
L 603 4134 
L 603 4863 
z
" transform="scale(0.015625)"/>
       <path id="DejaVuSans-75" d="M 544 1381 
L 544 3500 
L 1119 3500 
L 1119 1403 
Q 1119 906 1312 657 
Q 1506 409 1894 409 
Q 2359 409 2629 706 
Q 2900 1003 2900 1516 
L 2900 3500 
L 3475 3500 
L 3475 0 
L 2900 0 
L 2900 538 
Q 2691 219 2414 64 
Q 2138 -91 1772 -91 
Q 1169 -91 856 284 
Q 544 659 544 1381 
z
M 1991 3584 
L 1991 3584 
z
" transform="scale(0.015625)"/>
       <path id="DejaVuSans-6c" d="M 603 4863 
L 1178 4863 
L 1178 0 
L 603 0 
L 603 4863 
z
" transform="scale(0.015625)"/>
      </defs>
      <use xlink:href="#DejaVuSans-61"/>
      <use xlink:href="#DejaVuSans-72" transform="translate(61.279297 0)"/>
      <use xlink:href="#DejaVuSans-74" transform="translate(102.392578 0)"/>
      <use xlink:href="#DejaVuSans-69" transform="translate(141.601562 0)"/>
      <use xlink:href="#DejaVuSans-63" transform="translate(169.384766 0)"/>
      <use xlink:href="#DejaVuSans-75" transform="translate(224.365234 0)"/>
      <use xlink:href="#DejaVuSans-6c" transform="translate(287.744141 0)"/>
      <use xlink:href="#DejaVuSans-61" transform="translate(315.527344 0)"/>
      <use xlink:href="#DejaVuSans-74" transform="translate(376.806641 0)"/>
      <use xlink:href="#DejaVuSans-69" transform="translate(416.015625 0)"/>
      <use xlink:href="#DejaVuSans-6f" transform="translate(443.798828 0)"/>
      <use xlink:href="#DejaVuSans-6e" transform="translate(504.980469 0)"/>
     </g>
    </g>
   </g>
   <g id="text_3">
    <g clip-path="url(#pf12efd3b83)">
     <!-- black_box -->
     <g transform="translate(278.18826 156.303699) scale(0.08 -0.08)">
      <defs>
       <path id="DejaVuSans-62" d="M 3116 1747 
Q 3116 2381 2855 2742 
Q 2594 3103 2138 3103 
Q 1681 3103 1420 2742 
Q 1159 2381 1159 1747 
Q 1159 1113 1420 752 
Q 1681 391 2138 391 
Q 2594 391 2855 752 
Q 3116 1113 3116 1747 
z
M 1159 2969 
Q 1341 3281 1617 3432 
Q 1894 3584 2278 3584 
Q 2916 3584 3314 3078 
Q 3713 2572 3713 1747 
Q 3713 922 3314 415 
Q 2916 -91 2278 -91 
Q 1894 -91 1617 61 
Q 1341 213 1159 525 
L 1159 0 
L 581 0 
L 581 4863 
L 1159 4863 
L 1159 2969 
z
" transform="scale(0.015625)"/>
       <path id="DejaVuSans-78" d="M 3513 3500 
L 2247 1797 
L 3578 0 
L 2900 0 
L 1881 1375 
L 863 0 
L 184 0 
L 1544 1831 
L 300 3500 
L 978 3500 
L 1906 2253 
L 2834 3500 
L 3513 3500 
z
" transform="scale(0.015625)"/>
      </defs>
      <use xlink:href="#DejaVuSans-62"/>
      <use xlink:href="#DejaVuSans-6c" transform="translate(63.476562 0)"/>
      <use xlink:href="#DejaVuSans-61" transform="translate(91.259766 0)"/>
      <use xlink:href="#DejaVuSans-63" transform="translate(152.539062 0)"/>
      <use xlink:href="#DejaVuSans-6b" transform="translate(207.519531 0)"/>
      <use xlink:href="#DejaVuSans-5f" transform="translate(265.429688 0)"/>
      <use xlink:href="#DejaVuSans-62" transform="translate(315.429688 0)"/>
      <use xlink:href="#DejaVuSans-6f" transform="translate(378.90625 0)"/>
      <use xlink:href="#DejaVuSans-78" transform="translate(436.962891 0)"/>
     </g>
    </g>
   </g>
   <g id="text_4">
    <g clip-path="url(#pf12efd3b83)">
     <!-- centre_of_calculation -->
     <g transform="translate(166.944724 291.347612) scale(0.08 -0.08)">
      <defs>
       <path id="DejaVuSans-66" d="M 2375 4863 
L 2375 4384 
L 1825 4384 
Q 1516 4384 1395 4259 
Q 1275 4134 1275 3809 
L 1275 3500 
L 2222 3500 
L 2222 3053 
L 1275 3053 
L 1275 0 
L 697 0 
L 697 3053 
L 147 3053 
L 147 3500 
L 697 3500 
L 697 3744 
Q 697 4328 969 4595 
Q 1241 4863 1831 4863 
L 2375 4863 
z
" transform="scale(0.015625)"/>
      </defs>
      <use xlink:href="#DejaVuSans-63"/>
      <use xlink:href="#DejaVuSans-65" transform="translate(54.980469 0)"/>
      <use xlink:href="#DejaVuSans-6e" transform="translate(116.503906 0)"/>
      <use xlink:href="#DejaVuSans-74" transform="translate(179.882812 0)"/>
      <use xlink:href="#DejaVuSans-72" transform="translate(219.091797 0)"/>
      <use xlink:href="#DejaVuSans-65" transform="translate(257.955078 0)"/>
      <use xlink:href="#DejaVuSans-5f" transform="translate(319.478516 0)"/>
      <use xlink:href="#DejaVuSans-6f" transform="translate(369.478516 0)"/>
      <use xlink:href="#DejaVuSans-66" transform="translate(430.660156 0)"/>
      <use xlink:href="#DejaVuSans-5f" transform="translate(465.865234 0)"/>
      <use xlink:href="#DejaVuSans-63" transform="translate(515.865234 0)"/>
      <use xlink:href="#DejaVuSans-61" transform="translate(570.845703 0)"/>
      <use xlink:href="#DejaVuSans-6c" transform="translate(632.125 0)"/>
      <use xlink:href="#DejaVuSans-63" transform="translate(659.908203 0)"/>
      <use xlink:href="#DejaVuSans-75" transform="translate(714.888672 0)"/>
      <use xlink:href="#DejaVuSans-6c" transform="translate(778.267578 0)"/>
      <use xlink:href="#DejaVuSans-61" transform="translate(806.050781 0)"/>
      <use xlink:href="#DejaVuSans-74" transform="translate(867.330078 0)"/>
      <use xlink:href="#DejaVuSans-69" transform="translate(906.539062 0)"/>
      <use xlink:href="#DejaVuSans-6f" transform="translate(934.322266 0)"/>
      <use xlink:href="#DejaVuSans-6e" transform="translate(995.503906 0)"/>
     </g>
    </g>
   </g>
   <g id="text_5">
    <g clip-path="url(#pf12efd3b83)">
     <!-- construction -->
     <g transform="translate(312.066415 187.663652) scale(0.08 -0.08)">
      <defs>
       <path id="DejaVuSans-73" d="M 2834 3397 
L 2834 2853 
Q 2591 2978 2328 3040 
Q 2066 3103 1784 3103 
Q 1356 3103 1142 2972 
Q 928 2841 928 2578 
Q 928 2378 1081 2264 
Q 1234 2150 1697 2047 
L 1894 2003 
Q 2506 1872 2764 1633 
Q 3022 1394 3022 966 
Q 3022 478 2636 193 
Q 2250 -91 1575 -91 
Q 1294 -91 989 -36 
Q 684 19 347 128 
L 347 722 
Q 666 556 975 473 
Q 1284 391 1588 391 
Q 1994 391 2212 530 
Q 2431 669 2431 922 
Q 2431 1156 2273 1281 
Q 2116 1406 1581 1522 
L 1381 1569 
Q 847 1681 609 1914 
Q 372 2147 372 2553 
Q 372 3047 722 3315 
Q 1072 3584 1716 3584 
Q 2034 3584 2315 3537 
Q 2597 3491 2834 3397 
z
" transform="scale(0.015625)"/>
      </defs>
      <use xlink:href="#DejaVuSans-63"/>
      <use xlink:href="#DejaVuSans-6f" transform="translate(54.980469 0)"/>
      <use xlink:href="#DejaVuSans-6e" transform="translate(116.162109 0)"/>
      <use xlink:href="#DejaVuSans-73" transform="translate(179.541016 0)"/>
      <use xlink:href="#DejaVuSans-74" transform="translate(231.640625 0)"/>
      <use xlink:href="#DejaVuSans-72" transform="translate(270.849609 0)"/>
      <use xlink:href="#DejaVuSans-75" transform="translate(311.962891 0)"/>
      <use xlink:href="#DejaVuSans-63" transform="translate(375.341797 0)"/>
      <use xlink:href="#DejaVuSans-74" transform="translate(430.322266 0)"/>
      <use xlink:href="#DejaVuSans-69" transform="translate(469.53125 0)"/>
      <use xlink:href="#DejaVuSans-6f" transform="translate(497.314453 0)"/>
      <use xlink:href="#DejaVuSans-6e" transform="translate(558.496094 0)"/>
     </g>
    </g>
   </g>
   <g id="text_6">
    <g clip-path="url(#pf12efd3b83)">
     <!-- enrollment -->
     <g transform="translate(216.95023 144.9861) scale(0.08 -0.08)">
      <defs>
       <path id="DejaVuSans-6d" d="M 3328 2828 
Q 3544 3216 3844 3400 
Q 4144 3584 4550 3584 
Q 5097 3584 5394 3201 
Q 5691 2819 5691 2113 
L 5691 0 
L 5113 0 
L 5113 2094 
Q 5113 2597 4934 2840 
Q 4756 3084 4391 3084 
Q 3944 3084 3684 2787 
Q 3425 2491 3425 1978 
L 3425 0 
L 2847 0 
L 2847 2094 
Q 2847 2600 2669 2842 
Q 2491 3084 2119 3084 
Q 1678 3084 1418 2786 
Q 1159 2488 1159 1978 
L 1159 0 
L 581 0 
L 581 3500 
L 1159 3500 
L 1159 2956 
Q 1356 3278 1631 3431 
Q 1906 3584 2284 3584 
Q 2666 3584 2933 3390 
Q 3200 3197 3328 2828 
z
" transform="scale(0.015625)"/>
      </defs>
      <use xlink:href="#DejaVuSans-65"/>
      <use xlink:href="#DejaVuSans-6e" transform="translate(61.523438 0)"/>
      <use xlink:href="#DejaVuSans-72" transform="translate(124.902344 0)"/>
      <use xlink:href="#DejaVuSans-6f" transform="translate(163.765625 0)"/>
      <use xlink:href="#DejaVuSans-6c" transform="translate(224.947266 0)"/>
      <use xlink:href="#DejaVuSans-6c" transform="translate(252.730469 0)"/>
      <use xlink:href="#DejaVuSans-6d" transform="translate(280.513672 0)"/>
      <use xlink:href="#DejaVuSans-65" transform="translate(377.925781 0)"/>
      <use xlink:href="#DejaVuSans-6e" transform="translate(439.449219 0)"/>
      <use xlink:href="#DejaVuSans-74" transform="translate(502.828125 0)"/>
     </g>
    </g>
   </g>
   <g id="text_7">
    <g clip-path="url(#pf12efd3b83)">
     <!-- immutable_mobile -->
     <g transform="translate(318.199047 454.861705) scale(0.08 -0.08)">
      <use xlink:href="#DejaVuSans-69"/>
      <use xlink:href="#DejaVuSans-6d" transform="translate(27.783203 0)"/>
      <use xlink:href="#DejaVuSans-6d" transform="translate(125.195312 0)"/>
      <use xlink:href="#DejaVuSans-75" transform="translate(222.607422 0)"/>
      <use xlink:href="#DejaVuSans-74" transform="translate(285.986328 0)"/>
      <use xlink:href="#DejaVuSans-61" transform="translate(325.195312 0)"/>
      <use xlink:href="#DejaVuSans-62" transform="translate(386.474609 0)"/>
      <use xlink:href="#DejaVuSans-6c" transform="translate(449.951172 0)"/>
      <use xlink:href="#DejaVuSans-65" transform="translate(477.734375 0)"/>
      <use xlink:href="#DejaVuSans-5f" transform="translate(539.257812 0)"/>
      <use xlink:href="#DejaVuSans-6d" transform="translate(589.257812 0)"/>
      <use xlink:href="#DejaVuSans-6f" transform="translate(686.669922 0)"/>
      <use xlink:href="#DejaVuSans-62" transform="translate(747.851562 0)"/>
      <use xlink:href="#DejaVuSans-69" transform="translate(811.328125 0)"/>
      <use xlink:href="#DejaVuSans-6c" transform="translate(839.111328 0)"/>
      <use xlink:href="#DejaVuSans-65" transform="translate(866.894531 0)"/>
     </g>
    </g>
   </g>
   <g id="text_8">
    <g clip-path="url(#pf12efd3b83)">
     <!-- inscription -->
     <g transform="translate(310.252476 281.339544) scale(0.08 -0.08)">
      <defs>
       <path id="DejaVuSans-70" d="M 1159 525 
L 1159 -1331 
L 581 -1331 
L 581 3500 
L 1159 3500 
L 1159 2969 
Q 1341 3281 1617 3432 
Q 1894 3584 2278 3584 
Q 2916 3584 3314 3078 
Q 3713 2572 3713 1747 
Q 3713 922 3314 415 
Q 2916 -91 2278 -91 
Q 1894 -91 1617 61 
Q 1341 213 1159 525 
z
M 3116 1747 
Q 3116 2381 2855 2742 
Q 2594 3103 2138 3103 
Q 1681 3103 1420 2742 
Q 1159 2381 1159 1747 
Q 1159 1113 1420 752 
Q 1681 391 2138 391 
Q 2594 391 2855 752 
Q 3116 1113 3116 1747 
z
" transform="scale(0.015625)"/>
      </defs>
      <use xlink:href="#DejaVuSans-69"/>
      <use xlink:href="#DejaVuSans-6e" transform="translate(27.783203 0)"/>
      <use xlink:href="#DejaVuSans-73" transform="translate(91.162109 0)"/>
      <use xlink:href="#DejaVuSans-63" transform="translate(143.261719 0)"/>
      <use xlink:href="#DejaVuSans-72" transform="translate(198.242188 0)"/>
      <use xlink:href="#DejaVuSans-69" transform="translate(239.355469 0)"/>
      <use xlink:href="#DejaVuSans-70" transform="translate(267.138672 0)"/>
      <use xlink:href="#DejaVuSans-74" transform="translate(330.615234 0)"/>
      <use xlink:href="#DejaVuSans-69" transform="translate(369.824219 0)"/>
      <use xlink:href="#DejaVuSans-6f" transform="translate(397.607422 0)"/>
      <use xlink:href="#DejaVuSans-6e" transform="translate(458.789062 0)"/>
     </g>
    </g>
   </g>
   <g id="text_9">
    <g clip-path="url(#pf12efd3b83)">
     <!-- militar -->
     <g transform="translate(297.191958 211.989305) scale(0.08 -0.08)">
      <use xlink:href="#DejaVuSans-6d"/>
      <use xlink:href="#DejaVuSans-69" transform="translate(97.412109 0)"/>
      <use xlink:href="#DejaVuSans-6c" transform="translate(125.195312 0)"/>
      <use xlink:href="#DejaVuSans-69" transform="translate(152.978516 0)"/>
      <use xlink:href="#DejaVuSans-74" transform="translate(180.761719 0)"/>
      <use xlink:href="#DejaVuSans-61" transform="translate(219.970703 0)"/>
      <use xlink:href="#DejaVuSans-72" transform="translate(281.25 0)"/>
     </g>
    </g>
   </g>
   <g id="text_10">
    <g clip-path="url(#pf12efd3b83)">
     <!-- network -->
     <g transform="translate(260.668907 263.869984) scale(0.08 -0.08)">
      <use xlink:href="#DejaVuSans-6e"/>
      <use xlink:href="#DejaVuSans-65" transform="translate(63.378906 0)"/>
      <use xlink:href="#DejaVuSans-74" transform="translate(124.902344 0)"/>
      <use xlink:href="#DejaVuSans-77" transform="translate(164.111328 0)"/>
      <use xlink:href="#DejaVuSans-6f" transform="translate(245.898438 0)"/>
      <use xlink:href="#DejaVuSans-72" transform="translate(307.080078 0)"/>
      <use xlink:href="#DejaVuSans-6b" transform="translate(348.193359 0)"/>
     </g>
    </g>
   </g>
   <g id="text_11">
    <g clip-path="url(#pf12efd3b83)">
     <!-- proposition -->
     <g transform="translate(42.772025 415.050421) scale(0.08 -0.08)">
      <use xlink:href="#DejaVuSans-70"/>
      <use xlink:href="#DejaVuSans-72" transform="translate(63.476562 0)"/>
      <use xlink:href="#DejaVuSans-6f" transform="translate(102.339844 0)"/>
      <use xlink:href="#DejaVuSans-70" transform="translate(163.521484 0)"/>
      <use xlink:href="#DejaVuSans-6f" transform="translate(226.998047 0)"/>
      <use xlink:href="#DejaVuSans-73" transform="translate(288.179688 0)"/>
      <use xlink:href="#DejaVuSans-69" transform="translate(340.279297 0)"/>
      <use xlink:href="#DejaVuSans-74" transform="translate(368.0625 0)"/>
      <use xlink:href="#DejaVuSans-69" transform="translate(407.271484 0)"/>
      <use xlink:href="#DejaVuSans-6f" transform="translate(435.054688 0)"/>
      <use xlink:href="#DejaVuSans-6e" transform="translate(496.236328 0)"/>
     </g>
    </g>
   </g>
   <g id="text_12">
    <g clip-path="url(#pf12efd3b83)">
     <!-- spokesperson -->
     <g transform="translate(366.56658 190.536405) scale(0.08 -0.08)">
      <use xlink:href="#DejaVuSans-73"/>
      <use xlink:href="#DejaVuSans-70" transform="translate(52.099609 0)"/>
      <use xlink:href="#DejaVuSans-6f" transform="translate(115.576172 0)"/>
      <use xlink:href="#DejaVuSans-6b" transform="translate(176.757812 0)"/>
      <use xlink:href="#DejaVuSans-65" transform="translate(231.042969 0)"/>
      <use xlink:href="#DejaVuSans-73" transform="translate(292.566406 0)"/>
      <use xlink:href="#DejaVuSans-70" transform="translate(344.666016 0)"/>
      <use xlink:href="#DejaVuSans-65" transform="translate(408.142578 0)"/>
      <use xlink:href="#DejaVuSans-72" transform="translate(469.666016 0)"/>
      <use xlink:href="#DejaVuSans-73" transform="translate(510.779297 0)"/>
      <use xlink:href="#DejaVuSans-6f" transform="translate(562.878906 0)"/>
      <use xlink:href="#DejaVuSans-6e" transform="translate(624.060547 0)"/>
     </g>
    </g>
   </g>
   <g id="text_13">
    <g clip-path="url(#pf12efd3b83)">
     <!-- translation -->
     <g transform="translate(236.972275 201.54181) scale(0.08 -0.08)">
      <use xlink:href="#DejaVuSans-74"/>
      <use xlink:href="#DejaVuSans-72" transform="translate(39.208984 0)"/>
      <use xlink:href="#DejaVuSans-61" transform="translate(80.322266 0)"/>
      <use xlink:href="#DejaVuSans-6e" transform="translate(141.601562 0)"/>
      <use xlink:href="#DejaVuSans-73" transform="translate(204.980469 0)"/>
      <use xlink:href="#DejaVuSans-6c" transform="translate(257.080078 0)"/>
      <use xlink:href="#DejaVuSans-61" transform="translate(284.863281 0)"/>
      <use xlink:href="#DejaVuSans-74" transform="translate(346.142578 0)"/>
      <use xlink:href="#DejaVuSans-69" transform="translate(385.351562 0)"/>
      <use xlink:href="#DejaVuSans-6f" transform="translate(413.134766 0)"/>
      <use xlink:href="#DejaVuSans-6e" transform="translate(474.316406 0)"/>
     </g>
    </g>
   </g>
   <g id="text_14">
    <g clip-path="url(#pf12efd3b83)">
     <!-- trial_of_strength -->
     <g transform="translate(373.570944 270.770656) scale(0.08 -0.08)">
      <defs>
       <path id="DejaVuSans-67" d="M 2906 1791 
Q 2906 2416 2648 2759 
Q 2391 3103 1925 3103 
Q 1463 3103 1205 2759 
Q 947 2416 947 1791 
Q 947 1169 1205 825 
Q 1463 481 1925 481 
Q 2391 481 2648 825 
Q 2906 1169 2906 1791 
z
M 3481 434 
Q 3481 -459 3084 -895 
Q 2688 -1331 1869 -1331 
Q 1566 -1331 1297 -1286 
Q 1028 -1241 775 -1147 
L 775 -588 
Q 1028 -725 1275 -790 
Q 1522 -856 1778 -856 
Q 2344 -856 2625 -561 
Q 2906 -266 2906 331 
L 2906 616 
Q 2728 306 2450 153 
Q 2172 0 1784 0 
Q 1141 0 747 490 
Q 353 981 353 1791 
Q 353 2603 747 3093 
Q 1141 3584 1784 3584 
Q 2172 3584 2450 3431 
Q 2728 3278 2906 2969 
L 2906 3500 
L 3481 3500 
L 3481 434 
z
" transform="scale(0.015625)"/>
       <path id="DejaVuSans-68" d="M 3513 2113 
L 3513 0 
L 2938 0 
L 2938 2094 
Q 2938 2591 2744 2837 
Q 2550 3084 2163 3084 
Q 1697 3084 1428 2787 
Q 1159 2491 1159 1978 
L 1159 0 
L 581 0 
L 581 4863 
L 1159 4863 
L 1159 2956 
Q 1366 3272 1645 3428 
Q 1925 3584 2291 3584 
Q 2894 3584 3203 3211 
Q 3513 2838 3513 2113 
z
" transform="scale(0.015625)"/>
      </defs>
      <use xlink:href="#DejaVuSans-74"/>
      <use xlink:href="#DejaVuSans-72" transform="translate(39.208984 0)"/>
      <use xlink:href="#DejaVuSans-69" transform="translate(80.322266 0)"/>
      <use xlink:href="#DejaVuSans-61" transform="translate(108.105469 0)"/>
      <use xlink:href="#DejaVuSans-6c" transform="translate(169.384766 0)"/>
      <use xlink:href="#DejaVuSans-5f" transform="translate(197.167969 0)"/>
      <use xlink:href="#DejaVuSans-6f" transform="translate(247.167969 0)"/>
      <use xlink:href="#DejaVuSans-66" transform="translate(308.349609 0)"/>
      <use xlink:href="#DejaVuSans-5f" transform="translate(343.554688 0)"/>
      <use xlink:href="#DejaVuSans-73" transform="translate(393.554688 0)"/>
      <use xlink:href="#DejaVuSans-74" transform="translate(445.654297 0)"/>
      <use xlink:href="#DejaVuSans-72" transform="translate(484.863281 0)"/>
      <use xlink:href="#DejaVuSans-65" transform="translate(523.726562 0)"/>
      <use xlink:href="#DejaVuSans-6e" transform="translate(585.25 0)"/>
      <use xlink:href="#DejaVuSans-67" transform="translate(648.628906 0)"/>
      <use xlink:href="#DejaVuSans-74" transform="translate(712.105469 0)"/>
      <use xlink:href="#DejaVuSans-68" transform="translate(751.314453 0)"/>
     </g>
    </g>
   </g>
   <g id="text_15">
    <!-- Rede de cocorrência figural: latour_1987_science_action_en (janela 200 palavras) -->
    <g transform="translate(78.653437 21.24) scale(0.12 -0.12)">
     <defs>
      <path id="DejaVuSans-52" d="M 2841 2188 
Q 3044 2119 3236 1894 
Q 3428 1669 3622 1275 
L 4263 0 
L 3584 0 
L 2988 1197 
Q 2756 1666 2539 1819 
Q 2322 1972 1947 1972 
L 1259 1972 
L 1259 0 
L 628 0 
L 628 4666 
L 2053 4666 
Q 2853 4666 3247 4331 
Q 3641 3997 3641 3322 
Q 3641 2881 3436 2590 
Q 3231 2300 2841 2188 
z
M 1259 4147 
L 1259 2491 
L 2053 2491 
Q 2509 2491 2742 2702 
Q 2975 2913 2975 3322 
Q 2975 3731 2742 3939 
Q 2509 4147 2053 4147 
L 1259 4147 
z
" transform="scale(0.015625)"/>
      <path id="DejaVuSans-64" d="M 2906 2969 
L 2906 4863 
L 3481 4863 
L 3481 0 
L 2906 0 
L 2906 525 
Q 2725 213 2448 61 
Q 2172 -91 1784 -91 
Q 1150 -91 751 415 
Q 353 922 353 1747 
Q 353 2572 751 3078 
Q 1150 3584 1784 3584 
Q 2172 3584 2448 3432 
Q 2725 3281 2906 2969 
z
M 947 1747 
Q 947 1113 1208 752 
Q 1469 391 1925 391 
Q 2381 391 2643 752 
Q 2906 1113 2906 1747 
Q 2906 2381 2643 2742 
Q 2381 3103 1925 3103 
Q 1469 3103 1208 2742 
Q 947 2381 947 1747 
z
" transform="scale(0.015625)"/>
      <path id="DejaVuSans-20" transform="scale(0.015625)"/>
      <path id="DejaVuSans-ea" d="M 3597 1894 
L 3597 1613 
L 953 1613 
Q 991 1019 1311 708 
Q 1631 397 2203 397 
Q 2534 397 2845 478 
Q 3156 559 3463 722 
L 3463 178 
Q 3153 47 2828 -22 
Q 2503 -91 2169 -91 
Q 1331 -91 842 396 
Q 353 884 353 1716 
Q 353 2575 817 3079 
Q 1281 3584 2069 3584 
Q 2775 3584 3186 3129 
Q 3597 2675 3597 1894 
z
M 3022 2063 
Q 3016 2534 2758 2815 
Q 2500 3097 2075 3097 
Q 1594 3097 1305 2825 
Q 1016 2553 972 2059 
L 3022 2063 
z
M 1801 5119 
L 2263 5119 
L 3029 3944 
L 2595 3944 
L 2032 4709 
L 1470 3944 
L 1035 3944 
L 1801 5119 
z
" transform="scale(0.015625)"/>
      <path id="DejaVuSans-3a" d="M 750 794 
L 1409 794 
L 1409 0 
L 750 0 
L 750 794 
z
M 750 3309 
L 1409 3309 
L 1409 2516 
L 750 2516 
L 750 3309 
z
" transform="scale(0.015625)"/>
      <path id="DejaVuSans-31" d="M 794 531 
L 1825 531 
L 1825 4091 
L 703 3866 
L 703 4441 
L 1819 4666 
L 2450 4666 
L 2450 531 
L 3481 531 
L 3481 0 
L 794 0 
L 794 531 
z
" transform="scale(0.015625)"/>
      <path id="DejaVuSans-39" d="M 703 97 
L 703 672 
Q 941 559 1184 500 
Q 1428 441 1663 441 
Q 2288 441 2617 861 
Q 2947 1281 2994 2138 
Q 2813 1869 2534 1725 
Q 2256 1581 1919 1581 
Q 1219 1581 811 2004 
Q 403 2428 403 3163 
Q 403 3881 828 4315 
Q 1253 4750 1959 4750 
Q 2769 4750 3195 4129 
Q 3622 3509 3622 2328 
Q 3622 1225 3098 567 
Q 2575 -91 1691 -91 
Q 1453 -91 1209 -44 
Q 966 3 703 97 
z
M 1959 2075 
Q 2384 2075 2632 2365 
Q 2881 2656 2881 3163 
Q 2881 3666 2632 3958 
Q 2384 4250 1959 4250 
Q 1534 4250 1286 3958 
Q 1038 3666 1038 3163 
Q 1038 2656 1286 2365 
Q 1534 2075 1959 2075 
z
" transform="scale(0.015625)"/>
      <path id="DejaVuSans-38" d="M 2034 2216 
Q 1584 2216 1326 1975 
Q 1069 1734 1069 1313 
Q 1069 891 1326 650 
Q 1584 409 2034 409 
Q 2484 409 2743 651 
Q 3003 894 3003 1313 
Q 3003 1734 2745 1975 
Q 2488 2216 2034 2216 
z
M 1403 2484 
Q 997 2584 770 2862 
Q 544 3141 544 3541 
Q 544 4100 942 4425 
Q 1341 4750 2034 4750 
Q 2731 4750 3128 4425 
Q 3525 4100 3525 3541 
Q 3525 3141 3298 2862 
Q 3072 2584 2669 2484 
Q 3125 2378 3379 2068 
Q 3634 1759 3634 1313 
Q 3634 634 3220 271 
Q 2806 -91 2034 -91 
Q 1263 -91 848 271 
Q 434 634 434 1313 
Q 434 1759 690 2068 
Q 947 2378 1403 2484 
z
M 1172 3481 
Q 1172 3119 1398 2916 
Q 1625 2713 2034 2713 
Q 2441 2713 2670 2916 
Q 2900 3119 2900 3481 
Q 2900 3844 2670 4047 
Q 2441 4250 2034 4250 
Q 1625 4250 1398 4047 
Q 1172 3844 1172 3481 
z
" transform="scale(0.015625)"/>
      <path id="DejaVuSans-37" d="M 525 4666 
L 3525 4666 
L 3525 4397 
L 1831 0 
L 1172 0 
L 2766 4134 
L 525 4134 
L 525 4666 
z
" transform="scale(0.015625)"/>
      <path id="DejaVuSans-28" d="M 1984 4856 
Q 1566 4138 1362 3434 
Q 1159 2731 1159 2009 
Q 1159 1288 1364 580 
Q 1569 -128 1984 -844 
L 1484 -844 
Q 1016 -109 783 600 
Q 550 1309 550 2009 
Q 550 2706 781 3412 
Q 1013 4119 1484 4856 
L 1984 4856 
z
" transform="scale(0.015625)"/>
      <path id="DejaVuSans-6a" d="M 603 3500 
L 1178 3500 
L 1178 -63 
Q 1178 -731 923 -1031 
Q 669 -1331 103 -1331 
L -116 -1331 
L -116 -844 
L 38 -844 
Q 366 -844 484 -692 
Q 603 -541 603 -63 
L 603 3500 
z
M 603 4863 
L 1178 4863 
L 1178 4134 
L 603 4134 
L 603 4863 
z
" transform="scale(0.015625)"/>
      <path id="DejaVuSans-32" d="M 1228 531 
L 3431 531 
L 3431 0 
L 469 0 
L 469 531 
Q 828 903 1448 1529 
Q 2069 2156 2228 2338 
Q 2531 2678 2651 2914 
Q 2772 3150 2772 3378 
Q 2772 3750 2511 3984 
Q 2250 4219 1831 4219 
Q 1534 4219 1204 4116 
Q 875 4013 500 3803 
L 500 4441 
Q 881 4594 1212 4672 
Q 1544 4750 1819 4750 
Q 2544 4750 2975 4387 
Q 3406 4025 3406 3419 
Q 3406 3131 3298 2873 
Q 3191 2616 2906 2266 
Q 2828 2175 2409 1742 
Q 1991 1309 1228 531 
z
" transform="scale(0.015625)"/>
      <path id="DejaVuSans-30" d="M 2034 4250 
Q 1547 4250 1301 3770 
Q 1056 3291 1056 2328 
Q 1056 1369 1301 889 
Q 1547 409 2034 409 
Q 2525 409 2770 889 
Q 3016 1369 3016 2328 
Q 3016 3291 2770 3770 
Q 2525 4250 2034 4250 
z
M 2034 4750 
Q 2819 4750 3233 4129 
Q 3647 3509 3647 2328 
Q 3647 1150 3233 529 
Q 2819 -91 2034 -91 
Q 1250 -91 836 529 
Q 422 1150 422 2328 
Q 422 3509 836 4129 
Q 1250 4750 2034 4750 
z
" transform="scale(0.015625)"/>
      <path id="DejaVuSans-76" d="M 191 3500 
L 800 3500 
L 1894 563 
L 2988 3500 
L 3597 3500 
L 2284 0 
L 1503 0 
L 191 3500 
z
" transform="scale(0.015625)"/>
      <path id="DejaVuSans-29" d="M 513 4856 
L 1013 4856 
Q 1481 4119 1714 3412 
Q 1947 2706 1947 2009 
Q 1947 1309 1714 600 
Q 1481 -109 1013 -844 
L 513 -844 
Q 928 -128 1133 580 
Q 1338 1288 1338 2009 
Q 1338 2731 1133 3434 
Q 928 4138 513 4856 
z
" transform="scale(0.015625)"/>
     </defs>
     <use xlink:href="#DejaVuSans-52"/>
     <use xlink:href="#DejaVuSans-65" transform="translate(64.982422 0)"/>
     <use xlink:href="#DejaVuSans-64" transform="translate(126.505859 0)"/>
     <use xlink:href="#DejaVuSans-65" transform="translate(189.982422 0)"/>
     <use xlink:href="#DejaVuSans-20" transform="translate(251.505859 0)"/>
     <use xlink:href="#DejaVuSans-64" transform="translate(283.292969 0)"/>
     <use xlink:href="#DejaVuSans-65" transform="translate(346.769531 0)"/>
     <use xlink:href="#DejaVuSans-20" transform="translate(408.292969 0)"/>
     <use xlink:href="#DejaVuSans-63" transform="translate(440.080078 0)"/>
     <use xlink:href="#DejaVuSans-6f" transform="translate(495.060547 0)"/>
     <use xlink:href="#DejaVuSans-63" transform="translate(556.242188 0)"/>
     <use xlink:href="#DejaVuSans-6f" transform="translate(611.222656 0)"/>
     <use xlink:href="#DejaVuSans-72" transform="translate(672.404297 0)"/>
     <use xlink:href="#DejaVuSans-72" transform="translate(711.767578 0)"/>
     <use xlink:href="#DejaVuSans-ea" transform="translate(750.630859 0)"/>
     <use xlink:href="#DejaVuSans-6e" transform="translate(812.154297 0)"/>
     <use xlink:href="#DejaVuSans-63" transform="translate(875.533203 0)"/>
     <use xlink:href="#DejaVuSans-69" transform="translate(930.513672 0)"/>
     <use xlink:href="#DejaVuSans-61" transform="translate(958.296875 0)"/>
     <use xlink:href="#DejaVuSans-20" transform="translate(1019.576172 0)"/>
     <use xlink:href="#DejaVuSans-66" transform="translate(1051.363281 0)"/>
     <use xlink:href="#DejaVuSans-69" transform="translate(1086.568359 0)"/>
     <use xlink:href="#DejaVuSans-67" transform="translate(1114.351562 0)"/>
     <use xlink:href="#DejaVuSans-75" transform="translate(1177.828125 0)"/>
     <use xlink:href="#DejaVuSans-72" transform="translate(1241.207031 0)"/>
     <use xlink:href="#DejaVuSans-61" transform="translate(1282.320312 0)"/>
     <use xlink:href="#DejaVuSans-6c" transform="translate(1343.599609 0)"/>
     <use xlink:href="#DejaVuSans-3a" transform="translate(1371.382812 0)"/>
     <use xlink:href="#DejaVuSans-20" transform="translate(1405.074219 0)"/>
     <use xlink:href="#DejaVuSans-6c" transform="translate(1436.861328 0)"/>
     <use xlink:href="#DejaVuSans-61" transform="translate(1464.644531 0)"/>
     <use xlink:href="#DejaVuSans-74" transform="translate(1525.923828 0)"/>
     <use xlink:href="#DejaVuSans-6f" transform="translate(1565.132812 0)"/>
     <use xlink:href="#DejaVuSans-75" transform="translate(1626.314453 0)"/>
     <use xlink:href="#DejaVuSans-72" transform="translate(1689.693359 0)"/>
     <use xlink:href="#DejaVuSans-5f" transform="translate(1730.806641 0)"/>
     <use xlink:href="#DejaVuSans-31" transform="translate(1780.806641 0)"/>
     <use xlink:href="#DejaVuSans-39" transform="translate(1844.429688 0)"/>
     <use xlink:href="#DejaVuSans-38" transform="translate(1908.052734 0)"/>
     <use xlink:href="#DejaVuSans-37" transform="translate(1971.675781 0)"/>
     <use xlink:href="#DejaVuSans-5f" transform="translate(2035.298828 0)"/>
     <use xlink:href="#DejaVuSans-73" transform="translate(2085.298828 0)"/>
     <use xlink:href="#DejaVuSans-63" transform="translate(2137.398438 0)"/>
     <use xlink:href="#DejaVuSans-69" transform="translate(2192.378906 0)"/>
     <use xlink:href="#DejaVuSans-65" transform="translate(2220.162109 0)"/>
     <use xlink:href="#DejaVuSans-6e" transform="translate(2281.685547 0)"/>
     <use xlink:href="#DejaVuSans-63" transform="translate(2345.064453 0)"/>
     <use xlink:href="#DejaVuSans-65" transform="translate(2400.044922 0)"/>
     <use xlink:href="#DejaVuSans-5f" transform="translate(2461.568359 0)"/>
     <use xlink:href="#DejaVuSans-61" transform="translate(2511.568359 0)"/>
     <use xlink:href="#DejaVuSans-63" transform="translate(2572.847656 0)"/>
     <use xlink:href="#DejaVuSans-74" transform="translate(2627.828125 0)"/>
     <use xlink:href="#DejaVuSans-69" transform="translate(2667.037109 0)"/>
     <use xlink:href="#DejaVuSans-6f" transform="translate(2694.820312 0)"/>
     <use xlink:href="#DejaVuSans-6e" transform="translate(2756.001953 0)"/>
     <use xlink:href="#DejaVuSans-5f" transform="translate(2819.380859 0)"/>
     <use xlink:href="#DejaVuSans-65" transform="translate(2869.380859 0)"/>
     <use xlink:href="#DejaVuSans-6e" transform="translate(2930.904297 0)"/>
     <use xlink:href="#DejaVuSans-20" transform="translate(2994.283203 0)"/>
     <use xlink:href="#DejaVuSans-28" transform="translate(3026.070312 0)"/>
     <use xlink:href="#DejaVuSans-6a" transform="translate(3065.083984 0)"/>
     <use xlink:href="#DejaVuSans-61" transform="translate(3092.867188 0)"/>
     <use xlink:href="#DejaVuSans-6e" transform="translate(3154.146484 0)"/>
     <use xlink:href="#DejaVuSans-65" transform="translate(3217.525391 0)"/>
     <use xlink:href="#DejaVuSans-6c" transform="translate(3279.048828 0)"/>
     <use xlink:href="#DejaVuSans-61" transform="translate(3306.832031 0)"/>
     <use xlink:href="#DejaVuSans-20" transform="translate(3368.111328 0)"/>
     <use xlink:href="#DejaVuSans-32" transform="translate(3399.898438 0)"/>
     <use xlink:href="#DejaVuSans-30" transform="translate(3463.521484 0)"/>
     <use xlink:href="#DejaVuSans-30" transform="translate(3527.144531 0)"/>
     <use xlink:href="#DejaVuSans-20" transform="translate(3590.767578 0)"/>
     <use xlink:href="#DejaVuSans-70" transform="translate(3622.554688 0)"/>
     <use xlink:href="#DejaVuSans-61" transform="translate(3686.03125 0)"/>
     <use xlink:href="#DejaVuSans-6c" transform="translate(3747.310547 0)"/>
     <use xlink:href="#DejaVuSans-61" transform="translate(3775.09375 0)"/>
     <use xlink:href="#DejaVuSans-76" transform="translate(3836.373047 0)"/>
     <use xlink:href="#DejaVuSans-72" transform="translate(3895.552734 0)"/>
     <use xlink:href="#DejaVuSans-61" transform="translate(3936.666016 0)"/>
     <use xlink:href="#DejaVuSans-73" transform="translate(3997.945312 0)"/>
     <use xlink:href="#DejaVuSans-29" transform="translate(4050.044922 0)"/>
    </g>
   </g>
  </g>
 </g>
 <defs>
  <clipPath id="pf12efd3b83">
   <rect x="10.8" y="27.24" width="626.4" height="465.96"/>
  </clipPath>
 </defs>
</svg>
