<?xml version="1.0" encoding="utf-8" standalone="no"?>
<!DOCTYPE svg PUBLIC "-//W3C//DTD SVG 1.1//EN"
  "http://www.w3.org/Graphics/SVG/1.1/DTD/svg11.dtd">
<svg xmlns:xlink="http://www.w3.org/1999/xlink" width="648pt" height="504pt" viewBox="0 0 648 504" xmlns="http://www.w3.org/2000/svg" version="1.1">
 <metadata>
  <rdf:RDF xmlns:dc="http://purl.org/dc/elements/1.1/" xmlns:cc="http://creativecommons.org/ns#" xmlns:rdf="http://www.w3.org/1999/02/22-rdf-syntax-ns#">
   <cc:Work>
    <dc:type rdf:resource="http://purl.org/dc/dcmitype/StillImage"/>
    <dc:date>2026-05-14T21:23:10.322194</dc:date>
    <dc:format>image/svg+xml</dc:format>
    <dc:creator>
     <cc:Agent>
      <dc:title>Matplotlib v3.10.9, https://matplotlib.org/</dc:title>
     </cc:Agent>
    </dc:creator>
   </cc:Work>
  </rdf:RDF>
 </metadata>
 <defs>
  <style type="text/css">*{stroke-linejoin: round; stroke-linecap: butt}</style>
 </defs>
 <g id="figure_1">
  <g id="patch_1">
   <path d="M 0 504 
L 648 504 
L 648 0 
L 0 0 
z
" style="fill: #ffffff"/>
  </g>
  <g id="axes_1">
   <g id="LineCollection_1">
    <path d="M 361.552696 52.661157 
L 394.064705 177.572443 
" clip-path="url(#p02048754d1)" style="fill: none; stroke: #000000; stroke-opacity: 0.45; stroke-width: 1.348683"/>
    <path d="M 361.552696 52.661157 
L 310.085708 199.782244 
" clip-path="url(#p02048754d1)" style="fill: none; stroke: #000000; stroke-opacity: 0.45; stroke-width: 1.958846"/>
    <path d="M 361.552696 52.661157 
L 298.035135 142.247114 
" clip-path="url(#p02048754d1)" style="fill: none; stroke: #000000; stroke-opacity: 0.45; stroke-width: 1.134847"/>
    <path d="M 361.552696 52.661157 
L 336.94079 174.598334 
" clip-path="url(#p02048754d1)" style="fill: none; stroke: #000000; stroke-opacity: 0.45; stroke-width: 1.193725"/>
    <path d="M 361.552696 52.661157 
L 331.138726 271.579299 
" clip-path="url(#p02048754d1)" style="fill: none; stroke: #000000; stroke-opacity: 0.45; stroke-width: 0.7"/>
    <path d="M 361.552696 52.661157 
L 276.912657 253.493377 
" clip-path="url(#p02048754d1)" style="fill: none; stroke: #000000; stroke-opacity: 0.45; stroke-width: 0.7"/>
    <path d="M 361.552696 52.661157 
L 258.47915 188.966141 
" clip-path="url(#p02048754d1)" style="fill: none; stroke: #000000; stroke-opacity: 0.45; stroke-width: 0.824264"/>
    <path d="M 582.842975 161.593194 
L 331.138726 271.579299 
" clip-path="url(#p02048754d1)" style="fill: none; stroke: #000000; stroke-opacity: 0.45; stroke-width: 0.7"/>
    <path d="M 582.842975 161.593194 
L 394.064705 177.572443 
" clip-path="url(#p02048754d1)" style="fill: none; stroke: #000000; stroke-opacity: 0.45; stroke-width: 1.134847"/>
    <path d="M 582.842975 161.593194 
L 310.085708 199.782244 
" clip-path="url(#p02048754d1)" style="fill: none; stroke: #000000; stroke-opacity: 0.45; stroke-width: 0.7"/>
    <path d="M 582.842975 161.593194 
L 276.912657 253.493377 
" clip-path="url(#p02048754d1)" style="fill: none; stroke: #000000; stroke-opacity: 0.45; stroke-width: 0.7"/>
    <path d="M 298.035135 142.247114 
L 258.47915 188.966141 
" clip-path="url(#p02048754d1)" style="fill: none; stroke: #000000; stroke-opacity: 0.45; stroke-width: 2.320937"/>
    <path d="M 298.035135 142.247114 
L 310.085708 199.782244 
" clip-path="url(#p02048754d1)" style="fill: none; stroke: #000000; stroke-opacity: 0.45; stroke-width: 4.098648"/>
    <path d="M 298.035135 142.247114 
L 276.912657 253.493377 
" clip-path="url(#p02048754d1)" style="fill: none; stroke: #000000; stroke-opacity: 0.45; stroke-width: 1.636932"/>
    <path d="M 298.035135 142.247114 
L 209.300349 282.055646 
" clip-path="url(#p02048754d1)" style="fill: none; stroke: #000000; stroke-opacity: 0.45; stroke-width: 1.134847"/>
    <path d="M 298.035135 142.247114 
L 336.94079 174.598334 
" clip-path="url(#p02048754d1)" style="fill: none; stroke: #000000; stroke-opacity: 0.45; stroke-width: 2.015549"/>
    <path d="M 298.035135 142.247114 
L 406.157819 260.752694 
" clip-path="url(#p02048754d1)" style="fill: none; stroke: #000000; stroke-opacity: 0.45; stroke-width: 1.134847"/>
    <path d="M 298.035135 142.247114 
L 394.064705 177.572443 
" clip-path="url(#p02048754d1)" style="fill: none; stroke: #000000; stroke-opacity: 0.45; stroke-width: 1.394987"/>
    <path d="M 298.035135 142.247114 
L 331.138726 271.579299 
" clip-path="url(#p02048754d1)" style="fill: none; stroke: #000000; stroke-opacity: 0.45; stroke-width: 1.07082"/>
    <path d="M 298.035135 142.247114 
L 238.63148 130.415033 
" clip-path="url(#p02048754d1)" style="fill: none; stroke: #000000; stroke-opacity: 0.45; stroke-width: 1.741641"/>
    <path d="M 298.035135 142.247114 
L 355.335922 451.338843 
" clip-path="url(#p02048754d1)" style="fill: none; stroke: #000000; stroke-opacity: 0.45; stroke-width: 0.7"/>
    <path d="M 209.300349 282.055646 
L 258.47915 188.966141 
" clip-path="url(#p02048754d1)" style="fill: none; stroke: #000000; stroke-opacity: 0.45; stroke-width: 1.07082"/>
    <path d="M 209.300349 282.055646 
L 310.085708 199.782244 
" clip-path="url(#p02048754d1)" style="fill: none; stroke: #000000; stroke-opacity: 0.45; stroke-width: 1.561895"/>
    <path d="M 209.300349 282.055646 
L 276.912657 253.493377 
" clip-path="url(#p02048754d1)" style="fill: none; stroke: #000000; stroke-opacity: 0.45; stroke-width: 1.774773"/>
    <path d="M 209.300349 282.055646 
L 331.138726 271.579299 
" clip-path="url(#p02048754d1)" style="fill: none; stroke: #000000; stroke-opacity: 0.45; stroke-width: 1.348683"/>
    <path d="M 209.300349 282.055646 
L 394.064705 177.572443 
" clip-path="url(#p02048754d1)" style="fill: none; stroke: #000000; stroke-opacity: 0.45; stroke-width: 0.7"/>
    <path d="M 209.300349 282.055646 
L 336.94079 174.598334 
" clip-path="url(#p02048754d1)" style="fill: none; stroke: #000000; stroke-opacity: 0.45"/>
    <path d="M 209.300349 282.055646 
L 238.63148 130.415033 
" clip-path="url(#p02048754d1)" style="fill: none; stroke: #000000; stroke-opacity: 0.45; stroke-width: 0.7"/>
    <path d="M 336.94079 174.598334 
L 310.085708 199.782244 
" clip-path="url(#p02048754d1)" style="fill: none; stroke: #000000; stroke-opacity: 0.45; stroke-width: 2.704344"/>
    <path d="M 336.94079 174.598334 
L 276.912657 253.493377 
" clip-path="url(#p02048754d1)" style="fill: none; stroke: #000000; stroke-opacity: 0.45; stroke-width: 1.774773"/>
    <path d="M 336.94079 174.598334 
L 331.138726 271.579299 
" clip-path="url(#p02048754d1)" style="fill: none; stroke: #000000; stroke-opacity: 0.45; stroke-width: 1.522497"/>
    <path d="M 336.94079 174.598334 
L 394.064705 177.572443 
" clip-path="url(#p02048754d1)" style="fill: none; stroke: #000000; stroke-opacity: 0.45; stroke-width: 0.919615"/>
    <path d="M 336.94079 174.598334 
L 406.157819 260.752694 
" clip-path="url(#p02048754d1)" style="fill: none; stroke: #000000; stroke-opacity: 0.45; stroke-width: 0.7"/>
    <path d="M 336.94079 174.598334 
L 238.63148 130.415033 
" clip-path="url(#p02048754d1)" style="fill: none; stroke: #000000; stroke-opacity: 0.45; stroke-width: 1.43923"/>
    <path d="M 336.94079 174.598334 
L 258.47915 188.966141 
" clip-path="url(#p02048754d1)" style="fill: none; stroke: #000000; stroke-opacity: 0.45; stroke-width: 1.807125"/>
    <path d="M 336.94079 174.598334 
L 355.335922 451.338843 
" clip-path="url(#p02048754d1)" style="fill: none; stroke: #000000; stroke-opacity: 0.45"/>
    <path d="M 238.63148 130.415033 
L 310.085708 199.782244 
" clip-path="url(#p02048754d1)" style="fill: none; stroke: #000000; stroke-opacity: 0.45; stroke-width: 2.563331"/>
    <path d="M 238.63148 130.415033 
L 258.47915 188.966141 
" clip-path="url(#p02048754d1)" style="fill: none; stroke: #000000; stroke-opacity: 0.45; stroke-width: 2.320937"/>
    <path d="M 238.63148 130.415033 
L 394.064705 177.572443 
" clip-path="url(#p02048754d1)" style="fill: none; stroke: #000000; stroke-opacity: 0.45; stroke-width: 0.824264"/>
    <path d="M 238.63148 130.415033 
L 276.912657 253.493377 
" clip-path="url(#p02048754d1)" style="fill: none; stroke: #000000; stroke-opacity: 0.45; stroke-width: 1.70767"/>
    <path d="M 238.63148 130.415033 
L 331.138726 271.579299 
" clip-path="url(#p02048754d1)" style="fill: none; stroke: #000000; stroke-opacity: 0.45; stroke-width: 0.824264"/>
    <path d="M 355.335922 451.338843 
L 276.912657 253.493377 
" clip-path="url(#p02048754d1)" style="fill: none; stroke: #000000; stroke-opacity: 0.45"/>
    <path d="M 355.335922 451.338843 
L 310.085708 199.782244 
" clip-path="url(#p02048754d1)" style="fill: none; stroke: #000000; stroke-opacity: 0.45; stroke-width: 0.824264"/>
    <path d="M 355.335922 451.338843 
L 331.138726 271.579299 
" clip-path="url(#p02048754d1)" style="fill: none; stroke: #000000; stroke-opacity: 0.45"/>
    <path d="M 355.335922 451.338843 
L 258.47915 188.966141 
" clip-path="url(#p02048754d1)" style="fill: none; stroke: #000000; stroke-opacity: 0.45; stroke-width: 0.7"/>
    <path d="M 331.138726 271.579299 
L 310.085708 199.782244 
" clip-path="url(#p02048754d1)" style="fill: none; stroke: #000000; stroke-opacity: 0.45; stroke-width: 2.945584"/>
    <path d="M 331.138726 271.579299 
L 394.064705 177.572443 
" clip-path="url(#p02048754d1)" style="fill: none; stroke: #000000; stroke-opacity: 0.45; stroke-width: 1.6"/>
    <path d="M 331.138726 271.579299 
L 406.157819 260.752694 
" clip-path="url(#p02048754d1)" style="fill: none; stroke: #000000; stroke-opacity: 0.45; stroke-width: 1.348683"/>
    <path d="M 331.138726 271.579299 
L 276.912657 253.493377 
" clip-path="url(#p02048754d1)" style="fill: none; stroke: #000000; stroke-opacity: 0.45; stroke-width: 2.097056"/>
    <path d="M 331.138726 271.579299 
L 258.47915 188.966141 
" clip-path="url(#p02048754d1)" style="fill: none; stroke: #000000; stroke-opacity: 0.45; stroke-width: 1.672792"/>
    <path d="M 310.085708 199.782244 
L 258.47915 188.966141 
" clip-path="url(#p02048754d1)" style="fill: none; stroke: #000000; stroke-opacity: 0.45; stroke-width: 2.927845"/>
    <path d="M 310.085708 199.782244 
L 276.912657 253.493377 
" clip-path="url(#p02048754d1)" style="fill: none; stroke: #000000; stroke-opacity: 0.45; stroke-width: 3.369848"/>
    <path d="M 310.085708 199.782244 
L 406.157819 260.752694 
" clip-path="url(#p02048754d1)" style="fill: none; stroke: #000000; stroke-opacity: 0.45; stroke-width: 2.273499"/>
    <path d="M 310.085708 199.782244 
L 394.064705 177.572443 
" clip-path="url(#p02048754d1)" style="fill: none; stroke: #000000; stroke-opacity: 0.45; stroke-width: 2.62486"/>
    <path d="M 310.085708 199.782244 
L 65.157025 410.007762 
" clip-path="url(#p02048754d1)" style="fill: none; stroke: #000000; stroke-opacity: 0.45; stroke-width: 0.919615"/>
    <path d="M 276.912657 253.493377 
L 258.47915 188.966141 
" clip-path="url(#p02048754d1)" style="fill: none; stroke: #000000; stroke-opacity: 0.45; stroke-width: 1.672792"/>
    <path d="M 276.912657 253.493377 
L 394.064705 177.572443 
" clip-path="url(#p02048754d1)" style="fill: none; stroke: #000000; stroke-opacity: 0.45; stroke-width: 1.3"/>
    <path d="M 276.912657 253.493377 
L 65.157025 410.007762 
" clip-path="url(#p02048754d1)" style="fill: none; stroke: #000000; stroke-opacity: 0.45; stroke-width: 0.919615"/>
    <path d="M 276.912657 253.493377 
L 406.157819 260.752694 
" clip-path="url(#p02048754d1)" style="fill: none; stroke: #000000; stroke-opacity: 0.45; stroke-width: 0.7"/>
    <path d="M 394.064705 177.572443 
L 406.157819 260.752694 
" clip-path="url(#p02048754d1)" style="fill: none; stroke: #000000; stroke-opacity: 0.45; stroke-width: 1.807125"/>
    <path d="M 394.064705 177.572443 
L 258.47915 188.966141 
" clip-path="url(#p02048754d1)" style="fill: none; stroke: #000000; stroke-opacity: 0.45; stroke-width: 0.919615"/>
    <path d="M 258.47915 188.966141 
L 406.157819 260.752694 
" clip-path="url(#p02048754d1)" style="fill: none; stroke: #000000; stroke-opacity: 0.45; stroke-width: 0.919615"/>
   </g>
   <g id="PathCollection_1">
    <path d="M 361.552696 64.170376 
C 364.604977 64.170376 367.532654 62.957692 369.690943 60.799404 
C 371.849231 58.641115 373.061915 55.713437 373.061915 52.661157 
C 373.061915 49.608877 371.849231 46.681199 369.690943 44.522911 
C 367.532654 42.364622 364.604977 41.151938 361.552696 41.151938 
C 358.500416 41.151938 355.572738 42.364622 353.41445 44.522911 
C 351.256161 46.681199 350.043478 49.608877 350.043478 52.661157 
C 350.043478 55.713437 351.256161 58.641115 353.41445 60.799404 
C 355.572738 62.957692 358.500416 64.170376 361.552696 64.170376 
z
" clip-path="url(#p02048754d1)" style="fill: #4c72b0; stroke: #ffffff; stroke-width: 1.5"/>
    <path d="M 582.842975 171.080027 
C 585.358913 171.080027 587.772143 170.080434 589.551179 168.301398 
C 591.330216 166.522361 592.329808 164.109131 592.329808 161.593194 
C 592.329808 159.077256 591.330216 156.664026 589.551179 154.88499 
C 587.772143 153.105953 585.358913 152.106361 582.842975 152.106361 
C 580.327038 152.106361 577.913808 153.105953 576.134771 154.88499 
C 574.355735 156.664026 573.356142 159.077256 573.356142 161.593194 
C 573.356142 164.109131 574.355735 166.522361 576.134771 168.301398 
C 577.913808 170.080434 580.327038 171.080027 582.842975 171.080027 
z
" clip-path="url(#p02048754d1)" style="fill: #4c72b0; stroke: #ffffff; stroke-width: 1.5"/>
    <path d="M 298.035135 159.025575 
C 302.484835 159.025575 306.752885 157.25769 309.899298 154.111278 
C 313.045711 150.964865 314.813596 146.696814 314.813596 142.247114 
C 314.813596 137.797415 313.045711 133.529364 309.899298 130.382951 
C 306.752885 127.236538 302.484835 125.468654 298.035135 125.468654 
C 293.585435 125.468654 289.317385 127.236538 286.170972 130.382951 
C 283.024559 133.529364 281.256674 137.797415 281.256674 142.247114 
C 281.256674 146.696814 283.024559 150.964865 286.170972 154.111278 
C 289.317385 157.25769 293.585435 159.025575 298.035135 159.025575 
z
" clip-path="url(#p02048754d1)" style="fill: #4c72b0; stroke: #ffffff; stroke-width: 1.5"/>
    <path d="M 209.300349 293.767946 
C 212.406487 293.767946 215.385824 292.533865 217.582195 290.337493 
C 219.778567 288.141122 221.012649 285.161784 221.012649 282.055646 
C 221.012649 278.949508 219.778567 275.970171 217.582195 273.773799 
C 215.385824 271.577428 212.406487 270.343346 209.300349 270.343346 
C 206.19421 270.343346 203.214873 271.577428 201.018502 273.773799 
C 198.82213 275.970171 197.588048 278.949508 197.588048 282.055646 
C 197.588048 285.161784 198.82213 288.141122 201.018502 290.337493 
C 203.214873 292.533865 206.19421 293.767946 209.300349 293.767946 
z
" clip-path="url(#p02048754d1)" style="fill: #4c72b0; stroke: #ffffff; stroke-width: 1.5"/>
    <path d="M 336.94079 188.584119 
C 340.649863 188.584119 344.207522 187.110489 346.830233 184.487778 
C 349.452944 181.865067 350.926575 178.307408 350.926575 174.598334 
C 350.926575 170.88926 349.452944 167.331601 346.830233 164.70889 
C 344.207522 162.086179 340.649863 160.612548 336.94079 160.612548 
C 333.231716 160.612548 329.674057 162.086179 327.051346 164.70889 
C 324.428635 167.331601 322.955004 170.88926 322.955004 174.598334 
C 322.955004 178.307408 324.428635 181.865067 327.051346 184.487778 
C 329.674057 187.110489 333.231716 188.584119 336.94079 188.584119 
z
" clip-path="url(#p02048754d1)" style="fill: #4c72b0; stroke: #ffffff; stroke-width: 1.5"/>
    <path d="M 238.63148 143.930394 
C 242.215796 143.930394 245.65379 142.506331 248.188284 139.971837 
C 250.722778 137.437343 252.146841 133.999349 252.146841 130.415033 
C 252.146841 126.830717 250.722778 123.392723 248.188284 120.858229 
C 245.65379 118.323735 242.215796 116.899672 238.63148 116.899672 
C 235.047164 116.899672 231.60917 118.323735 229.074676 120.858229 
C 226.540182 123.392723 225.116119 126.830717 225.116119 130.415033 
C 225.116119 133.999349 226.540182 137.437343 229.074676 139.971837 
C 231.60917 142.506331 235.047164 143.930394 238.63148 143.930394 
z
" clip-path="url(#p02048754d1)" style="fill: #4c72b0; stroke: #ffffff; stroke-width: 1.5"/>
    <path d="M 355.335922 460.825676 
C 357.85186 460.825676 360.26509 459.826083 362.044126 458.047047 
C 363.823163 456.26801 364.822755 453.85478 364.822755 451.338843 
C 364.822755 448.822905 363.823163 446.409676 362.044126 444.630639 
C 360.26509 442.851603 357.85186 441.85201 355.335922 441.85201 
C 352.819985 441.85201 350.406755 442.851603 348.627718 444.630639 
C 346.848682 446.409676 345.849089 448.822905 345.849089 451.338843 
C 345.849089 453.85478 346.848682 456.26801 348.627718 458.047047 
C 350.406755 459.826083 352.819985 460.825676 355.335922 460.825676 
z
" clip-path="url(#p02048754d1)" style="fill: #4c72b0; stroke: #ffffff; stroke-width: 1.5"/>
    <path d="M 331.138726 285.98347 
C 334.958757 285.98347 338.622844 284.465756 341.324014 281.764586 
C 344.025183 279.063416 345.542898 275.39933 345.542898 271.579299 
C 345.542898 267.759268 344.025183 264.095181 341.324014 261.394011 
C 338.622844 258.692842 334.958757 257.175127 331.138726 257.175127 
C 327.318695 257.175127 323.654609 258.692842 320.953439 261.394011 
C 318.252269 264.095181 316.734555 267.759268 316.734555 271.579299 
C 316.734555 275.39933 318.252269 279.063416 320.953439 281.764586 
C 323.654609 284.465756 327.318695 285.98347 331.138726 285.98347 
z
" clip-path="url(#p02048754d1)" style="fill: #4c72b0; stroke: #ffffff; stroke-width: 1.5"/>
    <path d="M 310.085708 220.681565 
C 315.628272 220.681565 320.944574 218.479481 324.863759 214.560296 
C 328.782944 210.641111 330.985028 205.324809 330.985028 199.782244 
C 330.985028 194.23968 328.782944 188.923378 324.863759 185.004193 
C 320.944574 181.085008 315.628272 178.882924 310.085708 178.882924 
C 304.543143 178.882924 299.226842 181.085008 295.307657 185.004193 
C 291.388472 188.923378 289.186387 194.23968 289.186387 199.782244 
C 289.186387 205.324809 291.388472 210.641111 295.307657 214.560296 
C 299.226842 218.479481 304.543143 220.681565 310.085708 220.681565 
z
" clip-path="url(#p02048754d1)" style="fill: #4c72b0; stroke: #ffffff; stroke-width: 1.5"/>
    <path d="M 276.912657 270.088212 
C 281.313659 270.088212 285.535 268.339676 288.646978 265.227698 
C 291.758956 262.11572 293.507492 257.894379 293.507492 253.493377 
C 293.507492 249.092376 291.758956 244.871035 288.646978 241.759057 
C 285.535 238.647079 281.313659 236.898542 276.912657 236.898542 
C 272.511656 236.898542 268.290315 238.647079 265.178337 241.759057 
C 262.066359 244.871035 260.317822 249.092376 260.317822 253.493377 
C 260.317822 257.894379 262.066359 262.11572 265.178337 265.227698 
C 268.290315 268.339676 272.511656 270.088212 276.912657 270.088212 
z
" clip-path="url(#p02048754d1)" style="fill: #4c72b0; stroke: #ffffff; stroke-width: 1.5"/>
    <path d="M 65.157025 419.740252 
C 67.738111 419.740252 70.213831 418.714776 72.038934 416.889672 
C 73.864038 415.064568 74.889515 412.588849 74.889515 410.007762 
C 74.889515 407.426676 73.864038 404.950957 72.038934 403.125853 
C 70.213831 401.300749 67.738111 400.275272 65.157025 400.275272 
C 62.575938 400.275272 60.100219 401.300749 58.275115 403.125853 
C 56.450011 404.950957 55.424535 407.426676 55.424535 410.007762 
C 55.424535 412.588849 56.450011 415.064568 58.275115 416.889672 
C 60.100219 418.714776 62.575938 419.740252 65.157025 419.740252 
z
" clip-path="url(#p02048754d1)" style="fill: #4c72b0; stroke: #ffffff; stroke-width: 1.5"/>
    <path d="M 394.064705 191.197662 
C 397.678155 191.197662 401.144094 189.762023 403.69919 187.206928 
C 406.254285 184.651833 407.689924 181.185893 407.689924 177.572443 
C 407.689924 173.958993 406.254285 170.493053 403.69919 167.937958 
C 401.144094 165.382863 397.678155 163.947224 394.064705 163.947224 
C 390.451254 163.947224 386.985315 165.382863 384.43022 167.937958 
C 381.875124 170.493053 380.439485 173.958993 380.439485 177.572443 
C 380.439485 181.185893 381.875124 184.651833 384.43022 187.206928 
C 386.985315 189.762023 390.451254 191.197662 394.064705 191.197662 
z
" clip-path="url(#p02048754d1)" style="fill: #4c72b0; stroke: #ffffff; stroke-width: 1.5"/>
    <path d="M 258.47915 204.020549 
C 262.471626 204.020549 266.301118 202.434322 269.124224 199.611215 
C 271.947331 196.788109 273.533558 192.958617 273.533558 188.966141 
C 273.533558 184.973665 271.947331 181.144173 269.124224 178.321066 
C 266.301118 175.49796 262.471626 173.911732 258.47915 173.911732 
C 254.486674 173.911732 250.657182 175.49796 247.834076 178.321066 
C 245.010969 181.144173 243.424741 184.973665 243.424741 188.966141 
C 243.424741 192.958617 245.010969 196.788109 247.834076 199.611215 
C 250.657182 202.434322 254.486674 204.020549 258.47915 204.020549 
z
" clip-path="url(#p02048754d1)" style="fill: #4c72b0; stroke: #ffffff; stroke-width: 1.5"/>
    <path d="M 406.157819 272.561281 
C 409.289493 272.561281 412.293323 271.317053 414.50775 269.102626 
C 416.722178 266.888198 417.966405 263.884368 417.966405 260.752694 
C 417.966405 257.62102 416.722178 254.61719 414.50775 252.402762 
C 412.293323 250.188334 409.289493 248.944107 406.157819 248.944107 
C 403.026145 248.944107 400.022315 250.188334 397.807887 252.402762 
C 395.593459 254.61719 394.349232 257.62102 394.349232 260.752694 
C 394.349232 263.884368 395.593459 266.888198 397.807887 269.102626 
C 400.022315 271.317053 403.026145 272.561281 406.157819 272.561281 
z
" clip-path="url(#p02048754d1)" style="fill: #4c72b0; stroke: #ffffff; stroke-width: 1.5"/>
   </g>
   <g id="text_1">
    <g clip-path="url(#p02048754d1)">
     <!-- actor_network -->
     <g transform="translate(332.998321 54.757407) scale(0.08 -0.08)">
      <defs>
       <path id="DejaVuSans-61" d="M 2194 1759 
Q 1497 1759 1228 1600 
Q 959 1441 959 1056 
Q 959 750 1161 570 
Q 1363 391 1709 391 
Q 2188 391 2477 730 
Q 2766 1069 2766 1631 
L 2766 1759 
L 2194 1759 
z
M 3341 1997 
L 3341 0 
L 2766 0 
L 2766 531 
Q 2569 213 2275 61 
Q 1981 -91 1556 -91 
Q 1019 -91 701 211 
Q 384 513 384 1019 
Q 384 1609 779 1909 
Q 1175 2209 1959 2209 
L 2766 2209 
L 2766 2266 
Q 2766 2663 2505 2880 
Q 2244 3097 1772 3097 
Q 1472 3097 1187 3025 
Q 903 2953 641 2809 
L 641 3341 
Q 956 3463 1253 3523 
Q 1550 3584 1831 3584 
Q 2591 3584 2966 3190 
Q 3341 2797 3341 1997 
z
" transform="scale(0.015625)"/>
       <path id="DejaVuSans-63" d="M 3122 3366 
L 3122 2828 
Q 2878 2963 2633 3030 
Q 2388 3097 2138 3097 
Q 1578 3097 1268 2742 
Q 959 2388 959 1747 
Q 959 1106 1268 751 
Q 1578 397 2138 397 
Q 2388 397 2633 464 
Q 2878 531 3122 666 
L 3122 134 
Q 2881 22 2623 -34 
Q 2366 -91 2075 -91 
Q 1284 -91 818 406 
Q 353 903 353 1747 
Q 353 2603 823 3093 
Q 1294 3584 2113 3584 
Q 2378 3584 2631 3529 
Q 2884 3475 3122 3366 
z
" transform="scale(0.015625)"/>
       <path id="DejaVuSans-74" d="M 1172 4494 
L 1172 3500 
L 2356 3500 
L 2356 3053 
L 1172 3053 
L 1172 1153 
Q 1172 725 1289 603 
Q 1406 481 1766 481 
L 2356 481 
L 2356 0 
L 1766 0 
Q 1100 0 847 248 
Q 594 497 594 1153 
L 594 3053 
L 172 3053 
L 172 3500 
L 594 3500 
L 594 4494 
L 1172 4494 
z
" transform="scale(0.015625)"/>
       <path id="DejaVuSans-6f" d="M 1959 3097 
Q 1497 3097 1228 2736 
Q 959 2375 959 1747 
Q 959 1119 1226 758 
Q 1494 397 1959 397 
Q 2419 397 2687 759 
Q 2956 1122 2956 1747 
Q 2956 2369 2687 2733 
Q 2419 3097 1959 3097 
z
M 1959 3584 
Q 2709 3584 3137 3096 
Q 3566 2609 3566 1747 
Q 3566 888 3137 398 
Q 2709 -91 1959 -91 
Q 1206 -91 779 398 
Q 353 888 353 1747 
Q 353 2609 779 3096 
Q 1206 3584 1959 3584 
z
" transform="scale(0.015625)"/>
       <path id="DejaVuSans-72" d="M 2631 2963 
Q 2534 3019 2420 3045 
Q 2306 3072 2169 3072 
Q 1681 3072 1420 2755 
Q 1159 2438 1159 1844 
L 1159 0 
L 581 0 
L 581 3500 
L 1159 3500 
L 1159 2956 
Q 1341 3275 1631 3429 
Q 1922 3584 2338 3584 
Q 2397 3584 2469 3576 
Q 2541 3569 2628 3553 
L 2631 2963 
z
" transform="scale(0.015625)"/>
       <path id="DejaVuSans-5f" d="M 3263 -1063 
L 3263 -1509 
L -63 -1509 
L -63 -1063 
L 3263 -1063 
z
" transform="scale(0.015625)"/>
       <path id="DejaVuSans-6e" d="M 3513 2113 
L 3513 0 
L 2938 0 
L 2938 2094 
Q 2938 2591 2744 2837 
Q 2550 3084 2163 3084 
Q 1697 3084 1428 2787 
Q 1159 2491 1159 1978 
L 1159 0 
L 581 0 
L 581 3500 
L 1159 3500 
L 1159 2956 
Q 1366 3272 1645 3428 
Q 1925 3584 2291 3584 
Q 2894 3584 3203 3211 
Q 3513 2838 3513 2113 
z
" transform="scale(0.015625)"/>
       <path id="DejaVuSans-65" d="M 3597 1894 
L 3597 1613 
L 953 1613 
Q 991 1019 1311 708 
Q 1631 397 2203 397 
Q 2534 397 2845 478 
Q 3156 559 3463 722 
L 3463 178 
Q 3153 47 2828 -22 
Q 2503 -91 2169 -91 
Q 1331 -91 842 396 
Q 353 884 353 1716 
Q 353 2575 817 3079 
Q 1281 3584 2069 3584 
Q 2775 3584 3186 3129 
Q 3597 2675 3597 1894 
z
M 3022 2063 
Q 3016 2534 2758 2815 
Q 2500 3097 2075 3097 
Q 1594 3097 1305 2825 
Q 1016 2553 972 2059 
L 3022 2063 
z
" transform="scale(0.015625)"/>
       <path id="DejaVuSans-77" d="M 269 3500 
L 844 3500 
L 1563 769 
L 2278 3500 
L 2956 3500 
L 3675 769 
L 4391 3500 
L 4966 3500 
L 4050 0 
L 3372 0 
L 2619 2869 
L 1863 0 
L 1184 0 
L 269 3500 
z
" transform="scale(0.015625)"/>
       <path id="DejaVuSans-6b" d="M 581 4863 
L 1159 4863 
L 1159 1991 
L 2875 3500 
L 3609 3500 
L 1753 1863 
L 3688 0 
L 2938 0 
L 1159 1709 
L 1159 0 
L 581 0 
L 581 4863 
z
" transform="scale(0.015625)"/>
      </defs>
      <use xlink:href="#DejaVuSans-61"/>
      <use xlink:href="#DejaVuSans-63" transform="translate(61.279297 0)"/>
      <use xlink:href="#DejaVuSans-74" transform="translate(116.259766 0)"/>
      <use xlink:href="#DejaVuSans-6f" transform="translate(155.46875 0)"/>
      <use xlink:href="#DejaVuSans-72" transform="translate(216.650391 0)"/>
      <use xlink:href="#DejaVuSans-5f" transform="translate(257.763672 0)"/>
      <use xlink:href="#DejaVuSans-6e" transform="translate(307.763672 0)"/>
      <use xlink:href="#DejaVuSans-65" transform="translate(371.142578 0)"/>
      <use xlink:href="#DejaVuSans-74" transform="translate(432.666016 0)"/>
      <use xlink:href="#DejaVuSans-77" transform="translate(471.875 0)"/>
      <use xlink:href="#DejaVuSans-6f" transform="translate(553.662109 0)"/>
      <use xlink:href="#DejaVuSans-72" transform="translate(614.84375 0)"/>
      <use xlink:href="#DejaVuSans-6b" transform="translate(655.957031 0)"/>
     </g>
    </g>
   </g>
   <g id="text_2">
    <g clip-path="url(#p02048754d1)">
     <!-- articulation -->
     <g transform="translate(560.109225 163.800694) scale(0.08 -0.08)">
      <defs>
       <path id="DejaVuSans-69" d="M 603 3500 
L 1178 3500 
L 1178 0 
L 603 0 
L 603 3500 
z
M 603 4863 
L 1178 4863 
L 1178 4134 
L 603 4134 
L 603 4863 
z
" transform="scale(0.015625)"/>
       <path id="DejaVuSans-75" d="M 544 1381 
L 544 3500 
L 1119 3500 
L 1119 1403 
Q 1119 906 1312 657 
Q 1506 409 1894 409 
Q 2359 409 2629 706 
Q 2900 1003 2900 1516 
L 2900 3500 
L 3475 3500 
L 3475 0 
L 2900 0 
L 2900 538 
Q 2691 219 2414 64 
Q 2138 -91 1772 -91 
Q 1169 -91 856 284 
Q 544 659 544 1381 
z
M 1991 3584 
L 1991 3584 
z
" transform="scale(0.015625)"/>
       <path id="DejaVuSans-6c" d="M 603 4863 
L 1178 4863 
L 1178 0 
L 603 0 
L 603 4863 
z
" transform="scale(0.015625)"/>
      </defs>
      <use xlink:href="#DejaVuSans-61"/>
      <use xlink:href="#DejaVuSans-72" transform="translate(61.279297 0)"/>
      <use xlink:href="#DejaVuSans-74" transform="translate(102.392578 0)"/>
      <use xlink:href="#DejaVuSans-69" transform="translate(141.601562 0)"/>
      <use xlink:href="#DejaVuSans-63" transform="translate(169.384766 0)"/>
      <use xlink:href="#DejaVuSans-75" transform="translate(224.365234 0)"/>
      <use xlink:href="#DejaVuSans-6c" transform="translate(287.744141 0)"/>
      <use xlink:href="#DejaVuSans-61" transform="translate(315.527344 0)"/>
      <use xlink:href="#DejaVuSans-74" transform="translate(376.806641 0)"/>
      <use xlink:href="#DejaVuSans-69" transform="translate(416.015625 0)"/>
      <use xlink:href="#DejaVuSans-6f" transform="translate(443.798828 0)"/>
      <use xlink:href="#DejaVuSans-6e" transform="translate(504.980469 0)"/>
     </g>
    </g>
   </g>
   <g id="text_3">
    <g clip-path="url(#p02048754d1)">
     <!-- black_box -->
     <g transform="translate(278.18826 144.343364) scale(0.08 -0.08)">
      <defs>
       <path id="DejaVuSans-62" d="M 3116 1747 
Q 3116 2381 2855 2742 
Q 2594 3103 2138 3103 
Q 1681 3103 1420 2742 
Q 1159 2381 1159 1747 
Q 1159 1113 1420 752 
Q 1681 391 2138 391 
Q 2594 391 2855 752 
Q 3116 1113 3116 1747 
z
M 1159 2969 
Q 1341 3281 1617 3432 
Q 1894 3584 2278 3584 
Q 2916 3584 3314 3078 
Q 3713 2572 3713 1747 
Q 3713 922 3314 415 
Q 2916 -91 2278 -91 
Q 1894 -91 1617 61 
Q 1341 213 1159 525 
L 1159 0 
L 581 0 
L 581 4863 
L 1159 4863 
L 1159 2969 
z
" transform="scale(0.015625)"/>
       <path id="DejaVuSans-78" d="M 3513 3500 
L 2247 1797 
L 3578 0 
L 2900 0 
L 1881 1375 
L 863 0 
L 184 0 
L 1544 1831 
L 300 3500 
L 978 3500 
L 1906 2253 
L 2834 3500 
L 3513 3500 
z
" transform="scale(0.015625)"/>
      </defs>
      <use xlink:href="#DejaVuSans-62"/>
      <use xlink:href="#DejaVuSans-6c" transform="translate(63.476562 0)"/>
      <use xlink:href="#DejaVuSans-61" transform="translate(91.259766 0)"/>
      <use xlink:href="#DejaVuSans-63" transform="translate(152.539062 0)"/>
      <use xlink:href="#DejaVuSans-6b" transform="translate(207.519531 0)"/>
      <use xlink:href="#DejaVuSans-5f" transform="translate(265.429688 0)"/>
      <use xlink:href="#DejaVuSans-62" transform="translate(315.429688 0)"/>
      <use xlink:href="#DejaVuSans-6f" transform="translate(378.90625 0)"/>
      <use xlink:href="#DejaVuSans-78" transform="translate(436.962891 0)"/>
     </g>
    </g>
   </g>
   <g id="text_4">
    <g clip-path="url(#p02048754d1)">
     <!-- centre_of_calculation -->
     <g transform="translate(166.944724 284.151896) scale(0.08 -0.08)">
      <defs>
       <path id="DejaVuSans-66" d="M 2375 4863 
L 2375 4384 
L 1825 4384 
Q 1516 4384 1395 4259 
Q 1275 4134 1275 3809 
L 1275 3500 
L 2222 3500 
L 2222 3053 
L 1275 3053 
L 1275 0 
L 697 0 
L 697 3053 
L 147 3053 
L 147 3500 
L 697 3500 
L 697 3744 
Q 697 4328 969 4595 
Q 1241 4863 1831 4863 
L 2375 4863 
z
" transform="scale(0.015625)"/>
      </defs>
      <use xlink:href="#DejaVuSans-63"/>
      <use xlink:href="#DejaVuSans-65" transform="translate(54.980469 0)"/>
      <use xlink:href="#DejaVuSans-6e" transform="translate(116.503906 0)"/>
      <use xlink:href="#DejaVuSans-74" transform="translate(179.882812 0)"/>
      <use xlink:href="#DejaVuSans-72" transform="translate(219.091797 0)"/>
      <use xlink:href="#DejaVuSans-65" transform="translate(257.955078 0)"/>
      <use xlink:href="#DejaVuSans-5f" transform="translate(319.478516 0)"/>
      <use xlink:href="#DejaVuSans-6f" transform="translate(369.478516 0)"/>
      <use xlink:href="#DejaVuSans-66" transform="translate(430.660156 0)"/>
      <use xlink:href="#DejaVuSans-5f" transform="translate(465.865234 0)"/>
      <use xlink:href="#DejaVuSans-63" transform="translate(515.865234 0)"/>
      <use xlink:href="#DejaVuSans-61" transform="translate(570.845703 0)"/>
      <use xlink:href="#DejaVuSans-6c" transform="translate(632.125 0)"/>
      <use xlink:href="#DejaVuSans-63" transform="translate(659.908203 0)"/>
      <use xlink:href="#DejaVuSans-75" transform="translate(714.888672 0)"/>
      <use xlink:href="#DejaVuSans-6c" transform="translate(778.267578 0)"/>
      <use xlink:href="#DejaVuSans-61" transform="translate(806.050781 0)"/>
      <use xlink:href="#DejaVuSans-74" transform="translate(867.330078 0)"/>
      <use xlink:href="#DejaVuSans-69" transform="translate(906.539062 0)"/>
      <use xlink:href="#DejaVuSans-6f" transform="translate(934.322266 0)"/>
      <use xlink:href="#DejaVuSans-6e" transform="translate(995.503906 0)"/>
     </g>
    </g>
   </g>
   <g id="text_5">
    <g clip-path="url(#p02048754d1)">
     <!-- construction -->
     <g transform="translate(312.066415 176.805834) scale(0.08 -0.08)">
      <defs>
       <path id="DejaVuSans-73" d="M 2834 3397 
L 2834 2853 
Q 2591 2978 2328 3040 
Q 2066 3103 1784 3103 
Q 1356 3103 1142 2972 
Q 928 2841 928 2578 
Q 928 2378 1081 2264 
Q 1234 2150 1697 2047 
L 1894 2003 
Q 2506 1872 2764 1633 
Q 3022 1394 3022 966 
Q 3022 478 2636 193 
Q 2250 -91 1575 -91 
Q 1294 -91 989 -36 
Q 684 19 347 128 
L 347 722 
Q 666 556 975 473 
Q 1284 391 1588 391 
Q 1994 391 2212 530 
Q 2431 669 2431 922 
Q 2431 1156 2273 1281 
Q 2116 1406 1581 1522 
L 1381 1569 
Q 847 1681 609 1914 
Q 372 2147 372 2553 
Q 372 3047 722 3315 
Q 1072 3584 1716 3584 
Q 2034 3584 2315 3537 
Q 2597 3491 2834 3397 
z
" transform="scale(0.015625)"/>
      </defs>
      <use xlink:href="#DejaVuSans-63"/>
      <use xlink:href="#DejaVuSans-6f" transform="translate(54.980469 0)"/>
      <use xlink:href="#DejaVuSans-6e" transform="translate(116.162109 0)"/>
      <use xlink:href="#DejaVuSans-73" transform="translate(179.541016 0)"/>
      <use xlink:href="#DejaVuSans-74" transform="translate(231.640625 0)"/>
      <use xlink:href="#DejaVuSans-72" transform="translate(270.849609 0)"/>
      <use xlink:href="#DejaVuSans-75" transform="translate(311.962891 0)"/>
      <use xlink:href="#DejaVuSans-63" transform="translate(375.341797 0)"/>
      <use xlink:href="#DejaVuSans-74" transform="translate(430.322266 0)"/>
      <use xlink:href="#DejaVuSans-69" transform="translate(469.53125 0)"/>
      <use xlink:href="#DejaVuSans-6f" transform="translate(497.314453 0)"/>
      <use xlink:href="#DejaVuSans-6e" transform="translate(558.496094 0)"/>
     </g>
    </g>
   </g>
   <g id="text_6">
    <g clip-path="url(#p02048754d1)">
     <!-- enrollment -->
     <g transform="translate(216.95023 132.622533) scale(0.08 -0.08)">
      <defs>
       <path id="DejaVuSans-6d" d="M 3328 2828 
Q 3544 3216 3844 3400 
Q 4144 3584 4550 3584 
Q 5097 3584 5394 3201 
Q 5691 2819 5691 2113 
L 5691 0 
L 5113 0 
L 5113 2094 
Q 5113 2597 4934 2840 
Q 4756 3084 4391 3084 
Q 3944 3084 3684 2787 
Q 3425 2491 3425 1978 
L 3425 0 
L 2847 0 
L 2847 2094 
Q 2847 2600 2669 2842 
Q 2491 3084 2119 3084 
Q 1678 3084 1418 2786 
Q 1159 2488 1159 1978 
L 1159 0 
L 581 0 
L 581 3500 
L 1159 3500 
L 1159 2956 
Q 1356 3278 1631 3431 
Q 1906 3584 2284 3584 
Q 2666 3584 2933 3390 
Q 3200 3197 3328 2828 
z
" transform="scale(0.015625)"/>
      </defs>
      <use xlink:href="#DejaVuSans-65"/>
      <use xlink:href="#DejaVuSans-6e" transform="translate(61.523438 0)"/>
      <use xlink:href="#DejaVuSans-72" transform="translate(124.902344 0)"/>
      <use xlink:href="#DejaVuSans-6f" transform="translate(163.765625 0)"/>
      <use xlink:href="#DejaVuSans-6c" transform="translate(224.947266 0)"/>
      <use xlink:href="#DejaVuSans-6c" transform="translate(252.730469 0)"/>
      <use xlink:href="#DejaVuSans-6d" transform="translate(280.513672 0)"/>
      <use xlink:href="#DejaVuSans-65" transform="translate(377.925781 0)"/>
      <use xlink:href="#DejaVuSans-6e" transform="translate(439.449219 0)"/>
      <use xlink:href="#DejaVuSans-74" transform="translate(502.828125 0)"/>
     </g>
    </g>
   </g>
   <g id="text_7">
    <g clip-path="url(#p02048754d1)">
     <!-- immutable_mobile -->
     <g transform="translate(318.199047 453.435093) scale(0.08 -0.08)">
      <use xlink:href="#DejaVuSans-69"/>
      <use xlink:href="#DejaVuSans-6d" transform="translate(27.783203 0)"/>
      <use xlink:href="#DejaVuSans-6d" transform="translate(125.195312 0)"/>
      <use xlink:href="#DejaVuSans-75" transform="translate(222.607422 0)"/>
      <use xlink:href="#DejaVuSans-74" transform="translate(285.986328 0)"/>
      <use xlink:href="#DejaVuSans-61" transform="translate(325.195312 0)"/>
      <use xlink:href="#DejaVuSans-62" transform="translate(386.474609 0)"/>
      <use xlink:href="#DejaVuSans-6c" transform="translate(449.951172 0)"/>
      <use xlink:href="#DejaVuSans-65" transform="translate(477.734375 0)"/>
      <use xlink:href="#DejaVuSans-5f" transform="translate(539.257812 0)"/>
      <use xlink:href="#DejaVuSans-6d" transform="translate(589.257812 0)"/>
      <use xlink:href="#DejaVuSans-6f" transform="translate(686.669922 0)"/>
      <use xlink:href="#DejaVuSans-62" transform="translate(747.851562 0)"/>
      <use xlink:href="#DejaVuSans-69" transform="translate(811.328125 0)"/>
      <use xlink:href="#DejaVuSans-6c" transform="translate(839.111328 0)"/>
      <use xlink:href="#DejaVuSans-65" transform="translate(866.894531 0)"/>
     </g>
    </g>
   </g>
   <g id="text_8">
    <g clip-path="url(#p02048754d1)">
     <!-- inscription -->
     <g transform="translate(310.252476 273.786799) scale(0.08 -0.08)">
      <defs>
       <path id="DejaVuSans-70" d="M 1159 525 
L 1159 -1331 
L 581 -1331 
L 581 3500 
L 1159 3500 
L 1159 2969 
Q 1341 3281 1617 3432 
Q 1894 3584 2278 3584 
Q 2916 3584 3314 3078 
Q 3713 2572 3713 1747 
Q 3713 922 3314 415 
Q 2916 -91 2278 -91 
Q 1894 -91 1617 61 
Q 1341 213 1159 525 
z
M 3116 1747 
Q 3116 2381 2855 2742 
Q 2594 3103 2138 3103 
Q 1681 3103 1420 2742 
Q 1159 2381 1159 1747 
Q 1159 1113 1420 752 
Q 1681 391 2138 391 
Q 2594 391 2855 752 
Q 3116 1113 3116 1747 
z
" transform="scale(0.015625)"/>
      </defs>
      <use xlink:href="#DejaVuSans-69"/>
      <use xlink:href="#DejaVuSans-6e" transform="translate(27.783203 0)"/>
      <use xlink:href="#DejaVuSans-73" transform="translate(91.162109 0)"/>
      <use xlink:href="#DejaVuSans-63" transform="translate(143.261719 0)"/>
      <use xlink:href="#DejaVuSans-72" transform="translate(198.242188 0)"/>
      <use xlink:href="#DejaVuSans-69" transform="translate(239.355469 0)"/>
      <use xlink:href="#DejaVuSans-70" transform="translate(267.138672 0)"/>
      <use xlink:href="#DejaVuSans-74" transform="translate(330.615234 0)"/>
      <use xlink:href="#DejaVuSans-69" transform="translate(369.824219 0)"/>
      <use xlink:href="#DejaVuSans-6f" transform="translate(397.607422 0)"/>
      <use xlink:href="#DejaVuSans-6e" transform="translate(458.789062 0)"/>
     </g>
    </g>
   </g>
   <g id="text_9">
    <g clip-path="url(#p02048754d1)">
     <!-- militar -->
     <g transform="translate(297.191958 201.989744) scale(0.08 -0.08)">
      <use xlink:href="#DejaVuSans-6d"/>
      <use xlink:href="#DejaVuSans-69" transform="translate(97.412109 0)"/>
      <use xlink:href="#DejaVuSans-6c" transform="translate(125.195312 0)"/>
      <use xlink:href="#DejaVuSans-69" transform="translate(152.978516 0)"/>
      <use xlink:href="#DejaVuSans-74" transform="translate(180.761719 0)"/>
      <use xlink:href="#DejaVuSans-61" transform="translate(219.970703 0)"/>
      <use xlink:href="#DejaVuSans-72" transform="translate(281.25 0)"/>
     </g>
    </g>
   </g>
   <g id="text_10">
    <g clip-path="url(#p02048754d1)">
     <!-- network -->
     <g transform="translate(260.668907 255.700877) scale(0.08 -0.08)">
      <use xlink:href="#DejaVuSans-6e"/>
      <use xlink:href="#DejaVuSans-65" transform="translate(63.378906 0)"/>
      <use xlink:href="#DejaVuSans-74" transform="translate(124.902344 0)"/>
      <use xlink:href="#DejaVuSans-77" transform="translate(164.111328 0)"/>
      <use xlink:href="#DejaVuSans-6f" transform="translate(245.898438 0)"/>
      <use xlink:href="#DejaVuSans-72" transform="translate(307.080078 0)"/>
      <use xlink:href="#DejaVuSans-6b" transform="translate(348.193359 0)"/>
     </g>
    </g>
   </g>
   <g id="text_11">
    <g clip-path="url(#p02048754d1)">
     <!-- proposition -->
     <g transform="translate(42.772025 412.215262) scale(0.08 -0.08)">
      <use xlink:href="#DejaVuSans-70"/>
      <use xlink:href="#DejaVuSans-72" transform="translate(63.476562 0)"/>
      <use xlink:href="#DejaVuSans-6f" transform="translate(102.339844 0)"/>
      <use xlink:href="#DejaVuSans-70" transform="translate(163.521484 0)"/>
      <use xlink:href="#DejaVuSans-6f" transform="translate(226.998047 0)"/>
      <use xlink:href="#DejaVuSans-73" transform="translate(288.179688 0)"/>
      <use xlink:href="#DejaVuSans-69" transform="translate(340.279297 0)"/>
      <use xlink:href="#DejaVuSans-74" transform="translate(368.0625 0)"/>
      <use xlink:href="#DejaVuSans-69" transform="translate(407.271484 0)"/>
      <use xlink:href="#DejaVuSans-6f" transform="translate(435.054688 0)"/>
      <use xlink:href="#DejaVuSans-6e" transform="translate(496.236328 0)"/>
     </g>
    </g>
   </g>
   <g id="text_12">
    <g clip-path="url(#p02048754d1)">
     <!-- spokesperson -->
     <g transform="translate(366.56658 179.779943) scale(0.08 -0.08)">
      <use xlink:href="#DejaVuSans-73"/>
      <use xlink:href="#DejaVuSans-70" transform="translate(52.099609 0)"/>
      <use xlink:href="#DejaVuSans-6f" transform="translate(115.576172 0)"/>
      <use xlink:href="#DejaVuSans-6b" transform="translate(176.757812 0)"/>
      <use xlink:href="#DejaVuSans-65" transform="translate(231.042969 0)"/>
      <use xlink:href="#DejaVuSans-73" transform="translate(292.566406 0)"/>
      <use xlink:href="#DejaVuSans-70" transform="translate(344.666016 0)"/>
      <use xlink:href="#DejaVuSans-65" transform="translate(408.142578 0)"/>
      <use xlink:href="#DejaVuSans-72" transform="translate(469.666016 0)"/>
      <use xlink:href="#DejaVuSans-73" transform="translate(510.779297 0)"/>
      <use xlink:href="#DejaVuSans-6f" transform="translate(562.878906 0)"/>
      <use xlink:href="#DejaVuSans-6e" transform="translate(624.060547 0)"/>
     </g>
    </g>
   </g>
   <g id="text_13">
    <g clip-path="url(#p02048754d1)">
     <!-- translation -->
     <g transform="translate(236.972275 191.173641) scale(0.08 -0.08)">
      <use xlink:href="#DejaVuSans-74"/>
      <use xlink:href="#DejaVuSans-72" transform="translate(39.208984 0)"/>
      <use xlink:href="#DejaVuSans-61" transform="translate(80.322266 0)"/>
      <use xlink:href="#DejaVuSans-6e" transform="translate(141.601562 0)"/>
      <use xlink:href="#DejaVuSans-73" transform="translate(204.980469 0)"/>
      <use xlink:href="#DejaVuSans-6c" transform="translate(257.080078 0)"/>
      <use xlink:href="#DejaVuSans-61" transform="translate(284.863281 0)"/>
      <use xlink:href="#DejaVuSans-74" transform="translate(346.142578 0)"/>
      <use xlink:href="#DejaVuSans-69" transform="translate(385.351562 0)"/>
      <use xlink:href="#DejaVuSans-6f" transform="translate(413.134766 0)"/>
      <use xlink:href="#DejaVuSans-6e" transform="translate(474.316406 0)"/>
     </g>
    </g>
   </g>
   <g id="text_14">
    <g clip-path="url(#p02048754d1)">
     <!-- trial_of_strength -->
     <g transform="translate(373.570944 262.848944) scale(0.08 -0.08)">
      <defs>
       <path id="DejaVuSans-67" d="M 2906 1791 
Q 2906 2416 2648 2759 
Q 2391 3103 1925 3103 
Q 1463 3103 1205 2759 
Q 947 2416 947 1791 
Q 947 1169 1205 825 
Q 1463 481 1925 481 
Q 2391 481 2648 825 
Q 2906 1169 2906 1791 
z
M 3481 434 
Q 3481 -459 3084 -895 
Q 2688 -1331 1869 -1331 
Q 1566 -1331 1297 -1286 
Q 1028 -1241 775 -1147 
L 775 -588 
Q 1028 -725 1275 -790 
Q 1522 -856 1778 -856 
Q 2344 -856 2625 -561 
Q 2906 -266 2906 331 
L 2906 616 
Q 2728 306 2450 153 
Q 2172 0 1784 0 
Q 1141 0 747 490 
Q 353 981 353 1791 
Q 353 2603 747 3093 
Q 1141 3584 1784 3584 
Q 2172 3584 2450 3431 
Q 2728 3278 2906 2969 
L 2906 3500 
L 3481 3500 
L 3481 434 
z
" transform="scale(0.015625)"/>
       <path id="DejaVuSans-68" d="M 3513 2113 
L 3513 0 
L 2938 0 
L 2938 2094 
Q 2938 2591 2744 2837 
Q 2550 3084 2163 3084 
Q 1697 3084 1428 2787 
Q 1159 2491 1159 1978 
L 1159 0 
L 581 0 
L 581 4863 
L 1159 4863 
L 1159 2956 
Q 1366 3272 1645 3428 
Q 1925 3584 2291 3584 
Q 2894 3584 3203 3211 
Q 3513 2838 3513 2113 
z
" transform="scale(0.015625)"/>
      </defs>
      <use xlink:href="#DejaVuSans-74"/>
      <use xlink:href="#DejaVuSans-72" transform="translate(39.208984 0)"/>
      <use xlink:href="#DejaVuSans-69" transform="translate(80.322266 0)"/>
      <use xlink:href="#DejaVuSans-61" transform="translate(108.105469 0)"/>
      <use xlink:href="#DejaVuSans-6c" transform="translate(169.384766 0)"/>
      <use xlink:href="#DejaVuSans-5f" transform="translate(197.167969 0)"/>
      <use xlink:href="#DejaVuSans-6f" transform="translate(247.167969 0)"/>
      <use xlink:href="#DejaVuSans-66" transform="translate(308.349609 0)"/>
      <use xlink:href="#DejaVuSans-5f" transform="translate(343.554688 0)"/>
      <use xlink:href="#DejaVuSans-73" transform="translate(393.554688 0)"/>
      <use xlink:href="#DejaVuSans-74" transform="translate(445.654297 0)"/>
      <use xlink:href="#DejaVuSans-72" transform="translate(484.863281 0)"/>
      <use xlink:href="#DejaVuSans-65" transform="translate(523.726562 0)"/>
      <use xlink:href="#DejaVuSans-6e" transform="translate(585.25 0)"/>
      <use xlink:href="#DejaVuSans-67" transform="translate(648.628906 0)"/>
      <use xlink:href="#DejaVuSans-74" transform="translate(712.105469 0)"/>
      <use xlink:href="#DejaVuSans-68" transform="translate(751.314453 0)"/>
     </g>
    </g>
   </g>
  </g>
 </g>
 <defs>
  <clipPath id="p02048754d1">
   <rect x="10.8" y="10.8" width="626.4" height="482.4"/>
  </clipPath>
 </defs>
</svg>
