<?xml version="1.0" encoding="utf-8" standalone="no"?>
<!DOCTYPE svg PUBLIC "-//W3C//DTD SVG 1.1//EN"
  "http://www.w3.org/Graphics/SVG/1.1/DTD/svg11.dtd">
<svg xmlns:xlink="http://www.w3.org/1999/xlink" width="648pt" height="504pt" viewBox="0 0 648 504" xmlns="http://www.w3.org/2000/svg" version="1.1">
 <metadata>
  <rdf:RDF xmlns:dc="http://purl.org/dc/elements/1.1/" xmlns:cc="http://creativecommons.org/ns#" xmlns:rdf="http://www.w3.org/1999/02/22-rdf-syntax-ns#">
   <cc:Work>
    <dc:type rdf:resource="http://purl.org/dc/dcmitype/StillImage"/>
    <dc:date>2026-05-14T21:23:09.901259</dc:date>
    <dc:format>image/svg+xml</dc:format>
    <dc:creator>
     <cc:Agent>
      <dc:title>Matplotlib v3.10.9, https://matplotlib.org/</dc:title>
     </cc:Agent>
    </dc:creator>
   </cc:Work>
  </rdf:RDF>
 </metadata>
 <defs>
  <style type="text/css">*{stroke-linejoin: round; stroke-linecap: butt}</style>
 </defs>
 <g id="figure_1">
  <g id="patch_1">
   <path d="M 0 504 
L 648 504 
L 648 0 
L 0 0 
z
" style="fill: #ffffff"/>
  </g>
  <g id="axes_1">
   <g id="LineCollection_1">
    <path d="M 482.766327 261.949727 
L 492.283029 315.688197 
" clip-path="url(#pd4c99677b0)" style="fill: none; stroke: #000000; stroke-opacity: 0.45; stroke-width: 1.193725"/>
    <path d="M 482.766327 261.949727 
L 520.154569 229.612752 
" clip-path="url(#pd4c99677b0)" style="fill: none; stroke: #000000; stroke-opacity: 0.45; stroke-width: 1.134847"/>
    <path d="M 482.766327 261.949727 
L 457.562204 255.654327 
" clip-path="url(#pd4c99677b0)" style="fill: none; stroke: #000000; stroke-opacity: 0.45; stroke-width: 1.522497"/>
    <path d="M 482.766327 261.949727 
L 476.474975 313.391386 
" clip-path="url(#pd4c99677b0)" style="fill: none; stroke: #000000; stroke-opacity: 0.45; stroke-width: 2.434699"/>
    <path d="M 520.154569 229.612752 
L 492.283029 315.688197 
" clip-path="url(#pd4c99677b0)" style="fill: none; stroke: #000000; stroke-opacity: 0.45"/>
    <path d="M 520.154569 229.612752 
L 476.474975 313.391386 
" clip-path="url(#pd4c99677b0)" style="fill: none; stroke: #000000; stroke-opacity: 0.45; stroke-width: 0.824264"/>
    <path d="M 476.474975 313.391386 
L 492.283029 315.688197 
" clip-path="url(#pd4c99677b0)" style="fill: none; stroke: #000000; stroke-opacity: 0.45; stroke-width: 3.24605"/>
    <path d="M 476.474975 313.391386 
L 476.474143 356.12002 
" clip-path="url(#pd4c99677b0)" style="fill: none; stroke: #000000; stroke-opacity: 0.45; stroke-width: 2.542429"/>
    <path d="M 476.474975 313.391386 
L 440.751152 451.338843 
" clip-path="url(#pd4c99677b0)" style="fill: none; stroke: #000000; stroke-opacity: 0.45"/>
    <path d="M 476.474975 313.391386 
L 457.562204 255.654327 
" clip-path="url(#pd4c99677b0)" style="fill: none; stroke: #000000; stroke-opacity: 0.45; stroke-width: 1.561895"/>
    <path d="M 389.953305 52.661157 
L 457.562204 255.654327 
" clip-path="url(#pd4c99677b0)" style="fill: none; stroke: #000000; stroke-opacity: 0.45; stroke-width: 0.7"/>
    <path d="M 492.283029 315.688197 
L 476.474143 356.12002 
" clip-path="url(#pd4c99677b0)" style="fill: none; stroke: #000000; stroke-opacity: 0.45; stroke-width: 1.741641"/>
    <path d="M 492.283029 315.688197 
L 457.562204 255.654327 
" clip-path="url(#pd4c99677b0)" style="fill: none; stroke: #000000; stroke-opacity: 0.45; stroke-width: 1.248528"/>
    <path d="M 492.283029 315.688197 
L 598.309465 430.491711 
" clip-path="url(#pd4c99677b0)" style="fill: none; stroke: #000000; stroke-opacity: 0.45; stroke-width: 0.7"/>
    <path d="M 457.562204 255.654327 
L 476.474143 356.12002 
" clip-path="url(#pd4c99677b0)" style="fill: none; stroke: #000000; stroke-opacity: 0.45; stroke-width: 0.824264"/>
   </g>
   <g id="PathCollection_1">
    <path d="M 482.766327 274.72224 
C 486.153637 274.72224 489.402667 273.376448 491.797857 270.981258 
C 494.193047 268.586068 495.538839 265.337037 495.538839 261.949727 
C 495.538839 258.562417 494.193047 255.313387 491.797857 252.918197 
C 489.402667 250.523007 486.153637 249.177214 482.766327 249.177214 
C 479.379017 249.177214 476.129986 250.523007 473.734796 252.918197 
C 471.339606 255.313387 469.993814 258.562417 469.993814 261.949727 
C 469.993814 265.337037 471.339606 268.586068 473.734796 270.981258 
C 476.129986 273.376448 479.379017 274.72224 482.766327 274.72224 
z
" clip-path="url(#pd4c99677b0)" style="fill: #4c72b0; stroke: #ffffff; stroke-width: 1.5"/>
    <path d="M 520.154569 240.254442 
C 522.976778 240.254442 525.683777 239.133166 527.67938 237.137563 
C 529.674983 235.14196 530.796259 232.434961 530.796259 229.612752 
C 530.796259 226.790543 529.674983 224.083545 527.67938 222.087942 
C 525.683777 220.092338 522.976778 218.971063 520.154569 218.971063 
C 517.33236 218.971063 514.625362 220.092338 512.629759 222.087942 
C 510.634155 224.083545 509.51288 226.790543 509.51288 229.612752 
C 509.51288 232.434961 510.634155 235.14196 512.629759 237.137563 
C 514.625362 239.133166 517.33236 240.254442 520.154569 240.254442 
z
" clip-path="url(#pd4c99677b0)" style="fill: #4c72b0; stroke: #ffffff; stroke-width: 1.5"/>
    <path d="M 476.474975 331.712334 
C 481.333747 331.712334 485.994171 329.781924 489.429841 326.346253 
C 492.865512 322.910582 494.795923 318.250159 494.795923 313.391386 
C 494.795923 308.532614 492.865512 303.872191 489.429841 300.43652 
C 485.994171 297.000849 481.333747 295.070438 476.474975 295.070438 
C 471.616203 295.070438 466.955779 297.000849 463.520108 300.43652 
C 460.084437 303.872191 458.154027 308.532614 458.154027 313.391386 
C 458.154027 318.250159 460.084437 322.910582 463.520108 326.346253 
C 466.955779 329.781924 471.616203 331.712334 476.474975 331.712334 
z
" clip-path="url(#pd4c99677b0)" style="fill: #4c72b0; stroke: #ffffff; stroke-width: 1.5"/>
    <path d="M 389.953305 61.027757 
C 392.172153 61.027757 394.300422 60.1462 395.869384 58.577237 
C 397.438347 57.008274 398.319905 54.880005 398.319905 52.661157 
C 398.319905 50.442309 397.438347 48.31404 395.869384 46.745077 
C 394.300422 45.176115 392.172153 44.294557 389.953305 44.294557 
C 387.734456 44.294557 385.606187 45.176115 384.037225 46.745077 
C 382.468262 48.31404 381.586704 50.442309 381.586704 52.661157 
C 381.586704 54.880005 382.468262 57.008274 384.037225 58.577237 
C 385.606187 60.1462 387.734456 61.027757 389.953305 61.027757 
z
" clip-path="url(#pd4c99677b0)" style="fill: #4c72b0; stroke: #ffffff; stroke-width: 1.5"/>
    <path d="M 492.283029 332.229261 
C 496.669771 332.229261 500.877433 330.48639 503.979328 327.384496 
C 507.081222 324.282601 508.824093 320.074939 508.824093 315.688197 
C 508.824093 311.301456 507.081222 307.093793 503.979328 303.991899 
C 500.877433 300.890004 496.669771 299.147133 492.283029 299.147133 
C 487.896288 299.147133 483.688625 300.890004 480.586731 303.991899 
C 477.484836 307.093793 475.741965 311.301456 475.741965 315.688197 
C 475.741965 320.074939 477.484836 324.282601 480.586731 327.384496 
C 483.688625 330.48639 487.896288 332.229261 492.283029 332.229261 
z
" clip-path="url(#pd4c99677b0)" style="fill: #4c72b0; stroke: #ffffff; stroke-width: 1.5"/>
    <path d="M 457.562204 268.879302 
C 461.069509 268.879302 464.433635 267.485835 466.913674 265.005796 
C 469.393712 262.525758 470.787179 259.161631 470.787179 255.654327 
C 470.787179 252.147023 469.393712 248.782896 466.913674 246.302857 
C 464.433635 243.822819 461.069509 242.429352 457.562204 242.429352 
C 454.0549 242.429352 450.690774 243.822819 448.210735 246.302857 
C 445.730696 248.782896 444.33723 252.147023 444.33723 255.654327 
C 444.33723 259.161631 445.730696 262.525758 448.210735 265.005796 
C 450.690774 267.485835 454.0549 268.879302 457.562204 268.879302 
z
" clip-path="url(#pd4c99677b0)" style="fill: #4c72b0; stroke: #ffffff; stroke-width: 1.5"/>
    <path d="M 476.474143 369.690727 
C 480.073137 369.690727 483.525209 368.260832 486.070082 365.715959 
C 488.614955 363.171086 490.04485 359.719014 490.04485 356.12002 
C 490.04485 352.521027 488.614955 349.068954 486.070082 346.524082 
C 483.525209 343.979209 480.073137 342.549314 476.474143 342.549314 
C 472.87515 342.549314 469.423077 343.979209 466.878205 346.524082 
C 464.333332 349.068954 462.903437 352.521027 462.903437 356.12002 
C 462.903437 359.719014 464.333332 363.171086 466.878205 365.715959 
C 469.423077 368.260832 472.87515 369.690727 476.474143 369.690727 
z
" clip-path="url(#pd4c99677b0)" style="fill: #4c72b0; stroke: #ffffff; stroke-width: 1.5"/>
    <path d="M 598.309465 440.224201 
C 600.890551 440.224201 603.366271 439.198724 605.191374 437.37362 
C 607.016478 435.548516 608.041955 433.072797 608.041955 430.491711 
C 608.041955 427.910624 607.016478 425.434905 605.191374 423.609801 
C 603.366271 421.784697 600.890551 420.759221 598.309465 420.759221 
C 595.728378 420.759221 593.252659 421.784697 591.427555 423.609801 
C 589.602451 425.434905 588.576975 427.910624 588.576975 430.491711 
C 588.576975 433.072797 589.602451 435.548516 591.427555 437.37362 
C 593.252659 439.198724 595.728378 440.224201 598.309465 440.224201 
z
" clip-path="url(#pd4c99677b0)" style="fill: #4c72b0; stroke: #ffffff; stroke-width: 1.5"/>
    <path d="M 39.272727 333.420854 
C 41.491576 333.420854 43.619844 332.539297 45.188807 330.970334 
C 46.75777 329.401371 47.639328 327.273102 47.639328 325.054254 
C 47.639328 322.835406 46.75777 320.707137 45.188807 319.138174 
C 43.619844 317.569212 41.491576 316.687654 39.272727 316.687654 
C 37.053879 316.687654 34.92561 317.569212 33.356647 319.138174 
C 31.787685 320.707137 30.906127 322.835406 30.906127 325.054254 
C 30.906127 327.273102 31.787685 329.401371 33.356647 330.970334 
C 34.92561 332.539297 37.053879 333.420854 39.272727 333.420854 
z
" clip-path="url(#pd4c99677b0)" style="fill: #4c72b0; stroke: #ffffff; stroke-width: 1.5"/>
    <path d="M 440.751152 460.538898 
C 443.191036 460.538898 445.531316 459.569522 447.256574 457.844264 
C 448.981832 456.119006 449.951208 453.778726 449.951208 451.338843 
C 449.951208 448.89896 448.981832 446.558679 447.256574 444.833422 
C 445.531316 443.108164 443.191036 442.138788 440.751152 442.138788 
C 438.311269 442.138788 435.970989 443.108164 434.245731 444.833422 
C 432.520473 446.558679 431.551097 448.89896 431.551097 451.338843 
C 431.551097 453.778726 432.520473 456.119006 434.245731 457.844264 
C 435.970989 459.569522 438.311269 460.538898 440.751152 460.538898 
z
" clip-path="url(#pd4c99677b0)" style="fill: #4c72b0; stroke: #ffffff; stroke-width: 1.5"/>
   </g>
   <g id="text_1">
    <g clip-path="url(#pd4c99677b0)">
     <!-- agonistic -->
     <g transform="translate(464.719452 264.157227) scale(0.08 -0.08)">
      <defs>
       <path id="DejaVuSans-61" d="M 2194 1759 
Q 1497 1759 1228 1600 
Q 959 1441 959 1056 
Q 959 750 1161 570 
Q 1363 391 1709 391 
Q 2188 391 2477 730 
Q 2766 1069 2766 1631 
L 2766 1759 
L 2194 1759 
z
M 3341 1997 
L 3341 0 
L 2766 0 
L 2766 531 
Q 2569 213 2275 61 
Q 1981 -91 1556 -91 
Q 1019 -91 701 211 
Q 384 513 384 1019 
Q 384 1609 779 1909 
Q 1175 2209 1959 2209 
L 2766 2209 
L 2766 2266 
Q 2766 2663 2505 2880 
Q 2244 3097 1772 3097 
Q 1472 3097 1187 3025 
Q 903 2953 641 2809 
L 641 3341 
Q 956 3463 1253 3523 
Q 1550 3584 1831 3584 
Q 2591 3584 2966 3190 
Q 3341 2797 3341 1997 
z
" transform="scale(0.015625)"/>
       <path id="DejaVuSans-67" d="M 2906 1791 
Q 2906 2416 2648 2759 
Q 2391 3103 1925 3103 
Q 1463 3103 1205 2759 
Q 947 2416 947 1791 
Q 947 1169 1205 825 
Q 1463 481 1925 481 
Q 2391 481 2648 825 
Q 2906 1169 2906 1791 
z
M 3481 434 
Q 3481 -459 3084 -895 
Q 2688 -1331 1869 -1331 
Q 1566 -1331 1297 -1286 
Q 1028 -1241 775 -1147 
L 775 -588 
Q 1028 -725 1275 -790 
Q 1522 -856 1778 -856 
Q 2344 -856 2625 -561 
Q 2906 -266 2906 331 
L 2906 616 
Q 2728 306 2450 153 
Q 2172 0 1784 0 
Q 1141 0 747 490 
Q 353 981 353 1791 
Q 353 2603 747 3093 
Q 1141 3584 1784 3584 
Q 2172 3584 2450 3431 
Q 2728 3278 2906 2969 
L 2906 3500 
L 3481 3500 
L 3481 434 
z
" transform="scale(0.015625)"/>
       <path id="DejaVuSans-6f" d="M 1959 3097 
Q 1497 3097 1228 2736 
Q 959 2375 959 1747 
Q 959 1119 1226 758 
Q 1494 397 1959 397 
Q 2419 397 2687 759 
Q 2956 1122 2956 1747 
Q 2956 2369 2687 2733 
Q 2419 3097 1959 3097 
z
M 1959 3584 
Q 2709 3584 3137 3096 
Q 3566 2609 3566 1747 
Q 3566 888 3137 398 
Q 2709 -91 1959 -91 
Q 1206 -91 779 398 
Q 353 888 353 1747 
Q 353 2609 779 3096 
Q 1206 3584 1959 3584 
z
" transform="scale(0.015625)"/>
       <path id="DejaVuSans-6e" d="M 3513 2113 
L 3513 0 
L 2938 0 
L 2938 2094 
Q 2938 2591 2744 2837 
Q 2550 3084 2163 3084 
Q 1697 3084 1428 2787 
Q 1159 2491 1159 1978 
L 1159 0 
L 581 0 
L 581 3500 
L 1159 3500 
L 1159 2956 
Q 1366 3272 1645 3428 
Q 1925 3584 2291 3584 
Q 2894 3584 3203 3211 
Q 3513 2838 3513 2113 
z
" transform="scale(0.015625)"/>
       <path id="DejaVuSans-69" d="M 603 3500 
L 1178 3500 
L 1178 0 
L 603 0 
L 603 3500 
z
M 603 4863 
L 1178 4863 
L 1178 4134 
L 603 4134 
L 603 4863 
z
" transform="scale(0.015625)"/>
       <path id="DejaVuSans-73" d="M 2834 3397 
L 2834 2853 
Q 2591 2978 2328 3040 
Q 2066 3103 1784 3103 
Q 1356 3103 1142 2972 
Q 928 2841 928 2578 
Q 928 2378 1081 2264 
Q 1234 2150 1697 2047 
L 1894 2003 
Q 2506 1872 2764 1633 
Q 3022 1394 3022 966 
Q 3022 478 2636 193 
Q 2250 -91 1575 -91 
Q 1294 -91 989 -36 
Q 684 19 347 128 
L 347 722 
Q 666 556 975 473 
Q 1284 391 1588 391 
Q 1994 391 2212 530 
Q 2431 669 2431 922 
Q 2431 1156 2273 1281 
Q 2116 1406 1581 1522 
L 1381 1569 
Q 847 1681 609 1914 
Q 372 2147 372 2553 
Q 372 3047 722 3315 
Q 1072 3584 1716 3584 
Q 2034 3584 2315 3537 
Q 2597 3491 2834 3397 
z
" transform="scale(0.015625)"/>
       <path id="DejaVuSans-74" d="M 1172 4494 
L 1172 3500 
L 2356 3500 
L 2356 3053 
L 1172 3053 
L 1172 1153 
Q 1172 725 1289 603 
Q 1406 481 1766 481 
L 2356 481 
L 2356 0 
L 1766 0 
Q 1100 0 847 248 
Q 594 497 594 1153 
L 594 3053 
L 172 3053 
L 172 3500 
L 594 3500 
L 594 4494 
L 1172 4494 
z
" transform="scale(0.015625)"/>
       <path id="DejaVuSans-63" d="M 3122 3366 
L 3122 2828 
Q 2878 2963 2633 3030 
Q 2388 3097 2138 3097 
Q 1578 3097 1268 2742 
Q 959 2388 959 1747 
Q 959 1106 1268 751 
Q 1578 397 2138 397 
Q 2388 397 2633 464 
Q 2878 531 3122 666 
L 3122 134 
Q 2881 22 2623 -34 
Q 2366 -91 2075 -91 
Q 1284 -91 818 406 
Q 353 903 353 1747 
Q 353 2603 823 3093 
Q 1294 3584 2113 3584 
Q 2378 3584 2631 3529 
Q 2884 3475 3122 3366 
z
" transform="scale(0.015625)"/>
      </defs>
      <use xlink:href="#DejaVuSans-61"/>
      <use xlink:href="#DejaVuSans-67" transform="translate(61.279297 0)"/>
      <use xlink:href="#DejaVuSans-6f" transform="translate(124.755859 0)"/>
      <use xlink:href="#DejaVuSans-6e" transform="translate(185.9375 0)"/>
      <use xlink:href="#DejaVuSans-69" transform="translate(249.316406 0)"/>
      <use xlink:href="#DejaVuSans-73" transform="translate(277.099609 0)"/>
      <use xlink:href="#DejaVuSans-74" transform="translate(329.199219 0)"/>
      <use xlink:href="#DejaVuSans-69" transform="translate(368.408203 0)"/>
      <use xlink:href="#DejaVuSans-63" transform="translate(396.191406 0)"/>
     </g>
    </g>
   </g>
   <g id="text_2">
    <g clip-path="url(#pd4c99677b0)">
     <!-- black_box -->
     <g transform="translate(500.307694 231.709002) scale(0.08 -0.08)">
      <defs>
       <path id="DejaVuSans-62" d="M 3116 1747 
Q 3116 2381 2855 2742 
Q 2594 3103 2138 3103 
Q 1681 3103 1420 2742 
Q 1159 2381 1159 1747 
Q 1159 1113 1420 752 
Q 1681 391 2138 391 
Q 2594 391 2855 752 
Q 3116 1113 3116 1747 
z
M 1159 2969 
Q 1341 3281 1617 3432 
Q 1894 3584 2278 3584 
Q 2916 3584 3314 3078 
Q 3713 2572 3713 1747 
Q 3713 922 3314 415 
Q 2916 -91 2278 -91 
Q 1894 -91 1617 61 
Q 1341 213 1159 525 
L 1159 0 
L 581 0 
L 581 4863 
L 1159 4863 
L 1159 2969 
z
" transform="scale(0.015625)"/>
       <path id="DejaVuSans-6c" d="M 603 4863 
L 1178 4863 
L 1178 0 
L 603 0 
L 603 4863 
z
" transform="scale(0.015625)"/>
       <path id="DejaVuSans-6b" d="M 581 4863 
L 1159 4863 
L 1159 1991 
L 2875 3500 
L 3609 3500 
L 1753 1863 
L 3688 0 
L 2938 0 
L 1159 1709 
L 1159 0 
L 581 0 
L 581 4863 
z
" transform="scale(0.015625)"/>
       <path id="DejaVuSans-5f" d="M 3263 -1063 
L 3263 -1509 
L -63 -1509 
L -63 -1063 
L 3263 -1063 
z
" transform="scale(0.015625)"/>
       <path id="DejaVuSans-78" d="M 3513 3500 
L 2247 1797 
L 3578 0 
L 2900 0 
L 1881 1375 
L 863 0 
L 184 0 
L 1544 1831 
L 300 3500 
L 978 3500 
L 1906 2253 
L 2834 3500 
L 3513 3500 
z
" transform="scale(0.015625)"/>
      </defs>
      <use xlink:href="#DejaVuSans-62"/>
      <use xlink:href="#DejaVuSans-6c" transform="translate(63.476562 0)"/>
      <use xlink:href="#DejaVuSans-61" transform="translate(91.259766 0)"/>
      <use xlink:href="#DejaVuSans-63" transform="translate(152.539062 0)"/>
      <use xlink:href="#DejaVuSans-6b" transform="translate(207.519531 0)"/>
      <use xlink:href="#DejaVuSans-5f" transform="translate(265.429688 0)"/>
      <use xlink:href="#DejaVuSans-62" transform="translate(315.429688 0)"/>
      <use xlink:href="#DejaVuSans-6f" transform="translate(378.90625 0)"/>
      <use xlink:href="#DejaVuSans-78" transform="translate(436.962891 0)"/>
     </g>
    </g>
   </g>
   <g id="text_3">
    <g clip-path="url(#pd4c99677b0)">
     <!-- construction -->
     <g transform="translate(451.6006 315.598886) scale(0.08 -0.08)">
      <defs>
       <path id="DejaVuSans-72" d="M 2631 2963 
Q 2534 3019 2420 3045 
Q 2306 3072 2169 3072 
Q 1681 3072 1420 2755 
Q 1159 2438 1159 1844 
L 1159 0 
L 581 0 
L 581 3500 
L 1159 3500 
L 1159 2956 
Q 1341 3275 1631 3429 
Q 1922 3584 2338 3584 
Q 2397 3584 2469 3576 
Q 2541 3569 2628 3553 
L 2631 2963 
z
" transform="scale(0.015625)"/>
       <path id="DejaVuSans-75" d="M 544 1381 
L 544 3500 
L 1119 3500 
L 1119 1403 
Q 1119 906 1312 657 
Q 1506 409 1894 409 
Q 2359 409 2629 706 
Q 2900 1003 2900 1516 
L 2900 3500 
L 3475 3500 
L 3475 0 
L 2900 0 
L 2900 538 
Q 2691 219 2414 64 
Q 2138 -91 1772 -91 
Q 1169 -91 856 284 
Q 544 659 544 1381 
z
M 1991 3584 
L 1991 3584 
z
" transform="scale(0.015625)"/>
      </defs>
      <use xlink:href="#DejaVuSans-63"/>
      <use xlink:href="#DejaVuSans-6f" transform="translate(54.980469 0)"/>
      <use xlink:href="#DejaVuSans-6e" transform="translate(116.162109 0)"/>
      <use xlink:href="#DejaVuSans-73" transform="translate(179.541016 0)"/>
      <use xlink:href="#DejaVuSans-74" transform="translate(231.640625 0)"/>
      <use xlink:href="#DejaVuSans-72" transform="translate(270.849609 0)"/>
      <use xlink:href="#DejaVuSans-75" transform="translate(311.962891 0)"/>
      <use xlink:href="#DejaVuSans-63" transform="translate(375.341797 0)"/>
      <use xlink:href="#DejaVuSans-74" transform="translate(430.322266 0)"/>
      <use xlink:href="#DejaVuSans-69" transform="translate(469.53125 0)"/>
      <use xlink:href="#DejaVuSans-6f" transform="translate(497.314453 0)"/>
      <use xlink:href="#DejaVuSans-6e" transform="translate(558.496094 0)"/>
     </g>
    </g>
   </g>
   <g id="text_4">
    <g clip-path="url(#pd4c99677b0)">
     <!-- enrollment -->
     <g transform="translate(368.272055 54.868657) scale(0.08 -0.08)">
      <defs>
       <path id="DejaVuSans-65" d="M 3597 1894 
L 3597 1613 
L 953 1613 
Q 991 1019 1311 708 
Q 1631 397 2203 397 
Q 2534 397 2845 478 
Q 3156 559 3463 722 
L 3463 178 
Q 3153 47 2828 -22 
Q 2503 -91 2169 -91 
Q 1331 -91 842 396 
Q 353 884 353 1716 
Q 353 2575 817 3079 
Q 1281 3584 2069 3584 
Q 2775 3584 3186 3129 
Q 3597 2675 3597 1894 
z
M 3022 2063 
Q 3016 2534 2758 2815 
Q 2500 3097 2075 3097 
Q 1594 3097 1305 2825 
Q 1016 2553 972 2059 
L 3022 2063 
z
" transform="scale(0.015625)"/>
       <path id="DejaVuSans-6d" d="M 3328 2828 
Q 3544 3216 3844 3400 
Q 4144 3584 4550 3584 
Q 5097 3584 5394 3201 
Q 5691 2819 5691 2113 
L 5691 0 
L 5113 0 
L 5113 2094 
Q 5113 2597 4934 2840 
Q 4756 3084 4391 3084 
Q 3944 3084 3684 2787 
Q 3425 2491 3425 1978 
L 3425 0 
L 2847 0 
L 2847 2094 
Q 2847 2600 2669 2842 
Q 2491 3084 2119 3084 
Q 1678 3084 1418 2786 
Q 1159 2488 1159 1978 
L 1159 0 
L 581 0 
L 581 3500 
L 1159 3500 
L 1159 2956 
Q 1356 3278 1631 3431 
Q 1906 3584 2284 3584 
Q 2666 3584 2933 3390 
Q 3200 3197 3328 2828 
z
" transform="scale(0.015625)"/>
      </defs>
      <use xlink:href="#DejaVuSans-65"/>
      <use xlink:href="#DejaVuSans-6e" transform="translate(61.523438 0)"/>
      <use xlink:href="#DejaVuSans-72" transform="translate(124.902344 0)"/>
      <use xlink:href="#DejaVuSans-6f" transform="translate(163.765625 0)"/>
      <use xlink:href="#DejaVuSans-6c" transform="translate(224.947266 0)"/>
      <use xlink:href="#DejaVuSans-6c" transform="translate(252.730469 0)"/>
      <use xlink:href="#DejaVuSans-6d" transform="translate(280.513672 0)"/>
      <use xlink:href="#DejaVuSans-65" transform="translate(377.925781 0)"/>
      <use xlink:href="#DejaVuSans-6e" transform="translate(439.449219 0)"/>
      <use xlink:href="#DejaVuSans-74" transform="translate(502.828125 0)"/>
     </g>
    </g>
   </g>
   <g id="text_5">
    <g clip-path="url(#pd4c99677b0)">
     <!-- inscription -->
     <g transform="translate(471.396779 317.895697) scale(0.08 -0.08)">
      <defs>
       <path id="DejaVuSans-70" d="M 1159 525 
L 1159 -1331 
L 581 -1331 
L 581 3500 
L 1159 3500 
L 1159 2969 
Q 1341 3281 1617 3432 
Q 1894 3584 2278 3584 
Q 2916 3584 3314 3078 
Q 3713 2572 3713 1747 
Q 3713 922 3314 415 
Q 2916 -91 2278 -91 
Q 1894 -91 1617 61 
Q 1341 213 1159 525 
z
M 3116 1747 
Q 3116 2381 2855 2742 
Q 2594 3103 2138 3103 
Q 1681 3103 1420 2742 
Q 1159 2381 1159 1747 
Q 1159 1113 1420 752 
Q 1681 391 2138 391 
Q 2594 391 2855 752 
Q 3116 1113 3116 1747 
z
" transform="scale(0.015625)"/>
      </defs>
      <use xlink:href="#DejaVuSans-69"/>
      <use xlink:href="#DejaVuSans-6e" transform="translate(27.783203 0)"/>
      <use xlink:href="#DejaVuSans-73" transform="translate(91.162109 0)"/>
      <use xlink:href="#DejaVuSans-63" transform="translate(143.261719 0)"/>
      <use xlink:href="#DejaVuSans-72" transform="translate(198.242188 0)"/>
      <use xlink:href="#DejaVuSans-69" transform="translate(239.355469 0)"/>
      <use xlink:href="#DejaVuSans-70" transform="translate(267.138672 0)"/>
      <use xlink:href="#DejaVuSans-74" transform="translate(330.615234 0)"/>
      <use xlink:href="#DejaVuSans-69" transform="translate(369.824219 0)"/>
      <use xlink:href="#DejaVuSans-6f" transform="translate(397.607422 0)"/>
      <use xlink:href="#DejaVuSans-6e" transform="translate(458.789062 0)"/>
     </g>
    </g>
   </g>
   <g id="text_6">
    <g clip-path="url(#pd4c99677b0)">
     <!-- militar -->
     <g transform="translate(444.668454 257.861827) scale(0.08 -0.08)">
      <use xlink:href="#DejaVuSans-6d"/>
      <use xlink:href="#DejaVuSans-69" transform="translate(97.412109 0)"/>
      <use xlink:href="#DejaVuSans-6c" transform="translate(125.195312 0)"/>
      <use xlink:href="#DejaVuSans-69" transform="translate(152.978516 0)"/>
      <use xlink:href="#DejaVuSans-74" transform="translate(180.761719 0)"/>
      <use xlink:href="#DejaVuSans-61" transform="translate(219.970703 0)"/>
      <use xlink:href="#DejaVuSans-72" transform="translate(281.25 0)"/>
     </g>
    </g>
   </g>
   <g id="text_7">
    <g clip-path="url(#pd4c99677b0)">
     <!-- network -->
     <g transform="translate(460.230393 358.32752) scale(0.08 -0.08)">
      <defs>
       <path id="DejaVuSans-77" d="M 269 3500 
L 844 3500 
L 1563 769 
L 2278 3500 
L 2956 3500 
L 3675 769 
L 4391 3500 
L 4966 3500 
L 4050 0 
L 3372 0 
L 2619 2869 
L 1863 0 
L 1184 0 
L 269 3500 
z
" transform="scale(0.015625)"/>
      </defs>
      <use xlink:href="#DejaVuSans-6e"/>
      <use xlink:href="#DejaVuSans-65" transform="translate(63.378906 0)"/>
      <use xlink:href="#DejaVuSans-74" transform="translate(124.902344 0)"/>
      <use xlink:href="#DejaVuSans-77" transform="translate(164.111328 0)"/>
      <use xlink:href="#DejaVuSans-6f" transform="translate(245.898438 0)"/>
      <use xlink:href="#DejaVuSans-72" transform="translate(307.080078 0)"/>
      <use xlink:href="#DejaVuSans-6b" transform="translate(348.193359 0)"/>
     </g>
    </g>
   </g>
   <g id="text_8">
    <g clip-path="url(#pd4c99677b0)">
     <!-- proposition -->
     <g transform="translate(575.924465 432.699211) scale(0.08 -0.08)">
      <use xlink:href="#DejaVuSans-70"/>
      <use xlink:href="#DejaVuSans-72" transform="translate(63.476562 0)"/>
      <use xlink:href="#DejaVuSans-6f" transform="translate(102.339844 0)"/>
      <use xlink:href="#DejaVuSans-70" transform="translate(163.521484 0)"/>
      <use xlink:href="#DejaVuSans-6f" transform="translate(226.998047 0)"/>
      <use xlink:href="#DejaVuSans-73" transform="translate(288.179688 0)"/>
      <use xlink:href="#DejaVuSans-69" transform="translate(340.279297 0)"/>
      <use xlink:href="#DejaVuSans-74" transform="translate(368.0625 0)"/>
      <use xlink:href="#DejaVuSans-69" transform="translate(407.271484 0)"/>
      <use xlink:href="#DejaVuSans-6f" transform="translate(435.054688 0)"/>
      <use xlink:href="#DejaVuSans-6e" transform="translate(496.236328 0)"/>
     </g>
    </g>
   </g>
   <g id="text_9">
    <g clip-path="url(#pd4c99677b0)">
     <!-- spokesperson -->
     <g transform="translate(11.774602 327.261754) scale(0.08 -0.08)">
      <use xlink:href="#DejaVuSans-73"/>
      <use xlink:href="#DejaVuSans-70" transform="translate(52.099609 0)"/>
      <use xlink:href="#DejaVuSans-6f" transform="translate(115.576172 0)"/>
      <use xlink:href="#DejaVuSans-6b" transform="translate(176.757812 0)"/>
      <use xlink:href="#DejaVuSans-65" transform="translate(231.042969 0)"/>
      <use xlink:href="#DejaVuSans-73" transform="translate(292.566406 0)"/>
      <use xlink:href="#DejaVuSans-70" transform="translate(344.666016 0)"/>
      <use xlink:href="#DejaVuSans-65" transform="translate(408.142578 0)"/>
      <use xlink:href="#DejaVuSans-72" transform="translate(469.666016 0)"/>
      <use xlink:href="#DejaVuSans-73" transform="translate(510.779297 0)"/>
      <use xlink:href="#DejaVuSans-6f" transform="translate(562.878906 0)"/>
      <use xlink:href="#DejaVuSans-6e" transform="translate(624.060547 0)"/>
     </g>
    </g>
   </g>
   <g id="text_10">
    <g clip-path="url(#pd4c99677b0)">
     <!-- translation -->
     <g transform="translate(419.244277 453.546343) scale(0.08 -0.08)">
      <use xlink:href="#DejaVuSans-74"/>
      <use xlink:href="#DejaVuSans-72" transform="translate(39.208984 0)"/>
      <use xlink:href="#DejaVuSans-61" transform="translate(80.322266 0)"/>
      <use xlink:href="#DejaVuSans-6e" transform="translate(141.601562 0)"/>
      <use xlink:href="#DejaVuSans-73" transform="translate(204.980469 0)"/>
      <use xlink:href="#DejaVuSans-6c" transform="translate(257.080078 0)"/>
      <use xlink:href="#DejaVuSans-61" transform="translate(284.863281 0)"/>
      <use xlink:href="#DejaVuSans-74" transform="translate(346.142578 0)"/>
      <use xlink:href="#DejaVuSans-69" transform="translate(385.351562 0)"/>
      <use xlink:href="#DejaVuSans-6f" transform="translate(413.134766 0)"/>
      <use xlink:href="#DejaVuSans-6e" transform="translate(474.316406 0)"/>
     </g>
    </g>
   </g>
  </g>
 </g>
 <defs>
  <clipPath id="pd4c99677b0">
   <rect x="10.8" y="10.8" width="626.4" height="482.4"/>
  </clipPath>
 </defs>
</svg>
