<?xml version="1.0" encoding="utf-8" standalone="no"?>
<!DOCTYPE svg PUBLIC "-//W3C//DTD SVG 1.1//EN"
  "http://www.w3.org/Graphics/SVG/1.1/DTD/svg11.dtd">
<svg xmlns:xlink="http://www.w3.org/1999/xlink" width="648pt" height="504pt" viewBox="0 0 648 504" xmlns="http://www.w3.org/2000/svg" version="1.1">
 <metadata>
  <rdf:RDF xmlns:dc="http://purl.org/dc/elements/1.1/" xmlns:cc="http://creativecommons.org/ns#" xmlns:rdf="http://www.w3.org/1999/02/22-rdf-syntax-ns#">
   <cc:Work>
    <dc:type rdf:resource="http://purl.org/dc/dcmitype/StillImage"/>
    <dc:date>2026-05-14T01:36:24.073055</dc:date>
    <dc:format>image/svg+xml</dc:format>
    <dc:creator>
     <cc:Agent>
      <dc:title>Matplotlib v3.10.9, https://matplotlib.org/</dc:title>
     </cc:Agent>
    </dc:creator>
   </cc:Work>
  </rdf:RDF>
 </metadata>
 <defs>
  <style type="text/css">*{stroke-linejoin: round; stroke-linecap: butt}</style>
 </defs>
 <g id="figure_1">
  <g id="patch_1">
   <path d="M 0 504 
L 648 504 
L 648 0 
L 0 0 
z
" style="fill: #ffffff"/>
  </g>
  <g id="axes_1">
   <g id="LineCollection_1">
    <path d="M 482.766327 269.830645 
L 492.283029 321.737729 
" clip-path="url(#pae0d1c7ad8)" style="fill: none; stroke: #000000; stroke-opacity: 0.45; stroke-width: 1.193725"/>
    <path d="M 482.766327 269.830645 
L 520.154569 238.595701 
" clip-path="url(#pae0d1c7ad8)" style="fill: none; stroke: #000000; stroke-opacity: 0.45; stroke-width: 1.134847"/>
    <path d="M 482.766327 269.830645 
L 457.562204 263.749789 
" clip-path="url(#pae0d1c7ad8)" style="fill: none; stroke: #000000; stroke-opacity: 0.45; stroke-width: 1.522497"/>
    <path d="M 482.766327 269.830645 
L 476.474975 319.519192 
" clip-path="url(#pae0d1c7ad8)" style="fill: none; stroke: #000000; stroke-opacity: 0.45; stroke-width: 2.434699"/>
    <path d="M 520.154569 238.595701 
L 492.283029 321.737729 
" clip-path="url(#pae0d1c7ad8)" style="fill: none; stroke: #000000; stroke-opacity: 0.45"/>
    <path d="M 520.154569 238.595701 
L 476.474975 319.519192 
" clip-path="url(#pae0d1c7ad8)" style="fill: none; stroke: #000000; stroke-opacity: 0.45; stroke-width: 0.824264"/>
    <path d="M 476.474975 319.519192 
L 492.283029 321.737729 
" clip-path="url(#pae0d1c7ad8)" style="fill: none; stroke: #000000; stroke-opacity: 0.45; stroke-width: 3.24605"/>
    <path d="M 476.474975 319.519192 
L 476.474143 360.791652 
" clip-path="url(#pae0d1c7ad8)" style="fill: none; stroke: #000000; stroke-opacity: 0.45; stroke-width: 2.542429"/>
    <path d="M 476.474975 319.519192 
L 440.751152 452.765455 
" clip-path="url(#pae0d1c7ad8)" style="fill: none; stroke: #000000; stroke-opacity: 0.45"/>
    <path d="M 476.474975 319.519192 
L 457.562204 263.749789 
" clip-path="url(#pae0d1c7ad8)" style="fill: none; stroke: #000000; stroke-opacity: 0.45; stroke-width: 1.561895"/>
    <path d="M 389.953305 67.674545 
L 457.562204 263.749789 
" clip-path="url(#pae0d1c7ad8)" style="fill: none; stroke: #000000; stroke-opacity: 0.45; stroke-width: 0.7"/>
    <path d="M 492.283029 321.737729 
L 476.474143 360.791652 
" clip-path="url(#pae0d1c7ad8)" style="fill: none; stroke: #000000; stroke-opacity: 0.45; stroke-width: 1.741641"/>
    <path d="M 492.283029 321.737729 
L 457.562204 263.749789 
" clip-path="url(#pae0d1c7ad8)" style="fill: none; stroke: #000000; stroke-opacity: 0.45; stroke-width: 1.248528"/>
    <path d="M 492.283029 321.737729 
L 598.309465 432.628784 
" clip-path="url(#pae0d1c7ad8)" style="fill: none; stroke: #000000; stroke-opacity: 0.45; stroke-width: 0.7"/>
    <path d="M 457.562204 263.749789 
L 476.474143 360.791652 
" clip-path="url(#pae0d1c7ad8)" style="fill: none; stroke: #000000; stroke-opacity: 0.45; stroke-width: 0.824264"/>
   </g>
   <g id="PathCollection_1">
    <path d="M 482.766327 282.603157 
C 486.153637 282.603157 489.402667 281.257365 491.797857 278.862175 
C 494.193047 276.466985 495.538839 273.217955 495.538839 269.830645 
C 495.538839 266.443335 494.193047 263.194304 491.797857 260.799114 
C 489.402667 258.403924 486.153637 257.058132 482.766327 257.058132 
C 479.379017 257.058132 476.129986 258.403924 473.734796 260.799114 
C 471.339606 263.194304 469.993814 266.443335 469.993814 269.830645 
C 469.993814 273.217955 471.339606 276.466985 473.734796 278.862175 
C 476.129986 281.257365 479.379017 282.603157 482.766327 282.603157 
z
" clip-path="url(#pae0d1c7ad8)" style="fill: #4c72b0; stroke: #ffffff; stroke-width: 1.5"/>
    <path d="M 520.154569 249.23739 
C 522.976778 249.23739 525.683777 248.116115 527.67938 246.120512 
C 529.674983 244.124908 530.796259 241.41791 530.796259 238.595701 
C 530.796259 235.773492 529.674983 233.066493 527.67938 231.07089 
C 525.683777 229.075287 522.976778 227.954011 520.154569 227.954011 
C 517.33236 227.954011 514.625362 229.075287 512.629759 231.07089 
C 510.634155 233.066493 509.51288 235.773492 509.51288 238.595701 
C 509.51288 241.41791 510.634155 244.124908 512.629759 246.120512 
C 514.625362 248.116115 517.33236 249.23739 520.154569 249.23739 
z
" clip-path="url(#pae0d1c7ad8)" style="fill: #4c72b0; stroke: #ffffff; stroke-width: 1.5"/>
    <path d="M 476.474975 337.84014 
C 481.333747 337.84014 485.994171 335.90973 489.429841 332.474059 
C 492.865512 329.038388 494.795923 324.377965 494.795923 319.519192 
C 494.795923 314.66042 492.865512 309.999997 489.429841 306.564326 
C 485.994171 303.128655 481.333747 301.198244 476.474975 301.198244 
C 471.616203 301.198244 466.955779 303.128655 463.520108 306.564326 
C 460.084437 309.999997 458.154027 314.66042 458.154027 319.519192 
C 458.154027 324.377965 460.084437 329.038388 463.520108 332.474059 
C 466.955779 335.90973 471.616203 337.84014 476.474975 337.84014 
z
" clip-path="url(#pae0d1c7ad8)" style="fill: #4c72b0; stroke: #ffffff; stroke-width: 1.5"/>
    <path d="M 389.953305 76.041146 
C 392.172153 76.041146 394.300422 75.159588 395.869384 73.590625 
C 397.438347 72.021663 398.319905 69.893394 398.319905 67.674545 
C 398.319905 65.455697 397.438347 63.327428 395.869384 61.758466 
C 394.300422 60.189503 392.172153 59.307945 389.953305 59.307945 
C 387.734456 59.307945 385.606187 60.189503 384.037225 61.758466 
C 382.468262 63.327428 381.586704 65.455697 381.586704 67.674545 
C 381.586704 69.893394 382.468262 72.021663 384.037225 73.590625 
C 385.606187 75.159588 387.734456 76.041146 389.953305 76.041146 
z
" clip-path="url(#pae0d1c7ad8)" style="fill: #4c72b0; stroke: #ffffff; stroke-width: 1.5"/>
    <path d="M 492.283029 338.278793 
C 496.669771 338.278793 500.877433 336.535922 503.979328 333.434027 
C 507.081222 330.332133 508.824093 326.12447 508.824093 321.737729 
C 508.824093 317.350987 507.081222 313.143325 503.979328 310.04143 
C 500.877433 306.939536 496.669771 305.196665 492.283029 305.196665 
C 487.896288 305.196665 483.688625 306.939536 480.586731 310.04143 
C 477.484836 313.143325 475.741965 317.350987 475.741965 321.737729 
C 475.741965 326.12447 477.484836 330.332133 480.586731 333.434027 
C 483.688625 336.535922 487.896288 338.278793 492.283029 338.278793 
z
" clip-path="url(#pae0d1c7ad8)" style="fill: #4c72b0; stroke: #ffffff; stroke-width: 1.5"/>
    <path d="M 457.562204 276.974764 
C 461.069509 276.974764 464.433635 275.581297 466.913674 273.101258 
C 469.393712 270.62122 470.787179 267.257093 470.787179 263.749789 
C 470.787179 260.242485 469.393712 256.878358 466.913674 254.398319 
C 464.433635 251.918281 461.069509 250.524814 457.562204 250.524814 
C 454.0549 250.524814 450.690774 251.918281 448.210735 254.398319 
C 445.730696 256.878358 444.33723 260.242485 444.33723 263.749789 
C 444.33723 267.257093 445.730696 270.62122 448.210735 273.101258 
C 450.690774 275.581297 454.0549 276.974764 457.562204 276.974764 
z
" clip-path="url(#pae0d1c7ad8)" style="fill: #4c72b0; stroke: #ffffff; stroke-width: 1.5"/>
    <path d="M 476.474143 374.362358 
C 480.073137 374.362358 483.525209 372.932463 486.070082 370.38759 
C 488.614955 367.842718 490.04485 364.390645 490.04485 360.791652 
C 490.04485 357.192658 488.614955 353.740586 486.070082 351.195713 
C 483.525209 348.65084 480.073137 347.220945 476.474143 347.220945 
C 472.87515 347.220945 469.423077 348.65084 466.878205 351.195713 
C 464.333332 353.740586 462.903437 357.192658 462.903437 360.791652 
C 462.903437 364.390645 464.333332 367.842718 466.878205 370.38759 
C 469.423077 372.932463 472.87515 374.362358 476.474143 374.362358 
z
" clip-path="url(#pae0d1c7ad8)" style="fill: #4c72b0; stroke: #ffffff; stroke-width: 1.5"/>
    <path d="M 598.309465 442.361274 
C 600.890551 442.361274 603.366271 441.335798 605.191374 439.510694 
C 607.016478 437.68559 608.041955 435.209871 608.041955 432.628784 
C 608.041955 430.047698 607.016478 427.571978 605.191374 425.746875 
C 603.366271 423.921771 600.890551 422.896294 598.309465 422.896294 
C 595.728378 422.896294 593.252659 423.921771 591.427555 425.746875 
C 589.602451 427.571978 588.576975 430.047698 588.576975 432.628784 
C 588.576975 435.209871 589.602451 437.68559 591.427555 439.510694 
C 593.252659 441.335798 595.728378 442.361274 598.309465 442.361274 
z
" clip-path="url(#pae0d1c7ad8)" style="fill: #4c72b0; stroke: #ffffff; stroke-width: 1.5"/>
    <path d="M 39.272727 339.151194 
C 41.491576 339.151194 43.619844 338.269637 45.188807 336.700674 
C 46.75777 335.131711 47.639328 333.003443 47.639328 330.784594 
C 47.639328 328.565746 46.75777 326.437477 45.188807 324.868514 
C 43.619844 323.299552 41.491576 322.417994 39.272727 322.417994 
C 37.053879 322.417994 34.92561 323.299552 33.356647 324.868514 
C 31.787685 326.437477 30.906127 328.565746 30.906127 330.784594 
C 30.906127 333.003443 31.787685 335.131711 33.356647 336.700674 
C 34.92561 338.269637 37.053879 339.151194 39.272727 339.151194 
z
" clip-path="url(#pae0d1c7ad8)" style="fill: #4c72b0; stroke: #ffffff; stroke-width: 1.5"/>
    <path d="M 440.751152 461.96551 
C 443.191036 461.96551 445.531316 460.996134 447.256574 459.270876 
C 448.981832 457.545618 449.951208 455.205338 449.951208 452.765455 
C 449.951208 450.325571 448.981832 447.985291 447.256574 446.260033 
C 445.531316 444.534775 443.191036 443.565399 440.751152 443.565399 
C 438.311269 443.565399 435.970989 444.534775 434.245731 446.260033 
C 432.520473 447.985291 431.551097 450.325571 431.551097 452.765455 
C 431.551097 455.205338 432.520473 457.545618 434.245731 459.270876 
C 435.970989 460.996134 438.311269 461.96551 440.751152 461.96551 
z
" clip-path="url(#pae0d1c7ad8)" style="fill: #4c72b0; stroke: #ffffff; stroke-width: 1.5"/>
   </g>
   <g id="text_1">
    <g clip-path="url(#pae0d1c7ad8)">
     <!-- agonistic -->
     <g transform="translate(464.719452 272.038145) scale(0.08 -0.08)">
      <defs>
       <path id="DejaVuSans-61" d="M 2194 1759 
Q 1497 1759 1228 1600 
Q 959 1441 959 1056 
Q 959 750 1161 570 
Q 1363 391 1709 391 
Q 2188 391 2477 730 
Q 2766 1069 2766 1631 
L 2766 1759 
L 2194 1759 
z
M 3341 1997 
L 3341 0 
L 2766 0 
L 2766 531 
Q 2569 213 2275 61 
Q 1981 -91 1556 -91 
Q 1019 -91 701 211 
Q 384 513 384 1019 
Q 384 1609 779 1909 
Q 1175 2209 1959 2209 
L 2766 2209 
L 2766 2266 
Q 2766 2663 2505 2880 
Q 2244 3097 1772 3097 
Q 1472 3097 1187 3025 
Q 903 2953 641 2809 
L 641 3341 
Q 956 3463 1253 3523 
Q 1550 3584 1831 3584 
Q 2591 3584 2966 3190 
Q 3341 2797 3341 1997 
z
" transform="scale(0.015625)"/>
       <path id="DejaVuSans-67" d="M 2906 1791 
Q 2906 2416 2648 2759 
Q 2391 3103 1925 3103 
Q 1463 3103 1205 2759 
Q 947 2416 947 1791 
Q 947 1169 1205 825 
Q 1463 481 1925 481 
Q 2391 481 2648 825 
Q 2906 1169 2906 1791 
z
M 3481 434 
Q 3481 -459 3084 -895 
Q 2688 -1331 1869 -1331 
Q 1566 -1331 1297 -1286 
Q 1028 -1241 775 -1147 
L 775 -588 
Q 1028 -725 1275 -790 
Q 1522 -856 1778 -856 
Q 2344 -856 2625 -561 
Q 2906 -266 2906 331 
L 2906 616 
Q 2728 306 2450 153 
Q 2172 0 1784 0 
Q 1141 0 747 490 
Q 353 981 353 1791 
Q 353 2603 747 3093 
Q 1141 3584 1784 3584 
Q 2172 3584 2450 3431 
Q 2728 3278 2906 2969 
L 2906 3500 
L 3481 3500 
L 3481 434 
z
" transform="scale(0.015625)"/>
       <path id="DejaVuSans-6f" d="M 1959 3097 
Q 1497 3097 1228 2736 
Q 959 2375 959 1747 
Q 959 1119 1226 758 
Q 1494 397 1959 397 
Q 2419 397 2687 759 
Q 2956 1122 2956 1747 
Q 2956 2369 2687 2733 
Q 2419 3097 1959 3097 
z
M 1959 3584 
Q 2709 3584 3137 3096 
Q 3566 2609 3566 1747 
Q 3566 888 3137 398 
Q 2709 -91 1959 -91 
Q 1206 -91 779 398 
Q 353 888 353 1747 
Q 353 2609 779 3096 
Q 1206 3584 1959 3584 
z
" transform="scale(0.015625)"/>
       <path id="DejaVuSans-6e" d="M 3513 2113 
L 3513 0 
L 2938 0 
L 2938 2094 
Q 2938 2591 2744 2837 
Q 2550 3084 2163 3084 
Q 1697 3084 1428 2787 
Q 1159 2491 1159 1978 
L 1159 0 
L 581 0 
L 581 3500 
L 1159 3500 
L 1159 2956 
Q 1366 3272 1645 3428 
Q 1925 3584 2291 3584 
Q 2894 3584 3203 3211 
Q 3513 2838 3513 2113 
z
" transform="scale(0.015625)"/>
       <path id="DejaVuSans-69" d="M 603 3500 
L 1178 3500 
L 1178 0 
L 603 0 
L 603 3500 
z
M 603 4863 
L 1178 4863 
L 1178 4134 
L 603 4134 
L 603 4863 
z
" transform="scale(0.015625)"/>
       <path id="DejaVuSans-73" d="M 2834 3397 
L 2834 2853 
Q 2591 2978 2328 3040 
Q 2066 3103 1784 3103 
Q 1356 3103 1142 2972 
Q 928 2841 928 2578 
Q 928 2378 1081 2264 
Q 1234 2150 1697 2047 
L 1894 2003 
Q 2506 1872 2764 1633 
Q 3022 1394 3022 966 
Q 3022 478 2636 193 
Q 2250 -91 1575 -91 
Q 1294 -91 989 -36 
Q 684 19 347 128 
L 347 722 
Q 666 556 975 473 
Q 1284 391 1588 391 
Q 1994 391 2212 530 
Q 2431 669 2431 922 
Q 2431 1156 2273 1281 
Q 2116 1406 1581 1522 
L 1381 1569 
Q 847 1681 609 1914 
Q 372 2147 372 2553 
Q 372 3047 722 3315 
Q 1072 3584 1716 3584 
Q 2034 3584 2315 3537 
Q 2597 3491 2834 3397 
z
" transform="scale(0.015625)"/>
       <path id="DejaVuSans-74" d="M 1172 4494 
L 1172 3500 
L 2356 3500 
L 2356 3053 
L 1172 3053 
L 1172 1153 
Q 1172 725 1289 603 
Q 1406 481 1766 481 
L 2356 481 
L 2356 0 
L 1766 0 
Q 1100 0 847 248 
Q 594 497 594 1153 
L 594 3053 
L 172 3053 
L 172 3500 
L 594 3500 
L 594 4494 
L 1172 4494 
z
" transform="scale(0.015625)"/>
       <path id="DejaVuSans-63" d="M 3122 3366 
L 3122 2828 
Q 2878 2963 2633 3030 
Q 2388 3097 2138 3097 
Q 1578 3097 1268 2742 
Q 959 2388 959 1747 
Q 959 1106 1268 751 
Q 1578 397 2138 397 
Q 2388 397 2633 464 
Q 2878 531 3122 666 
L 3122 134 
Q 2881 22 2623 -34 
Q 2366 -91 2075 -91 
Q 1284 -91 818 406 
Q 353 903 353 1747 
Q 353 2603 823 3093 
Q 1294 3584 2113 3584 
Q 2378 3584 2631 3529 
Q 2884 3475 3122 3366 
z
" transform="scale(0.015625)"/>
      </defs>
      <use xlink:href="#DejaVuSans-61"/>
      <use xlink:href="#DejaVuSans-67" transform="translate(61.279297 0)"/>
      <use xlink:href="#DejaVuSans-6f" transform="translate(124.755859 0)"/>
      <use xlink:href="#DejaVuSans-6e" transform="translate(185.9375 0)"/>
      <use xlink:href="#DejaVuSans-69" transform="translate(249.316406 0)"/>
      <use xlink:href="#DejaVuSans-73" transform="translate(277.099609 0)"/>
      <use xlink:href="#DejaVuSans-74" transform="translate(329.199219 0)"/>
      <use xlink:href="#DejaVuSans-69" transform="translate(368.408203 0)"/>
      <use xlink:href="#DejaVuSans-63" transform="translate(396.191406 0)"/>
     </g>
    </g>
   </g>
   <g id="text_2">
    <g clip-path="url(#pae0d1c7ad8)">
     <!-- black_box -->
     <g transform="translate(500.307694 240.691951) scale(0.08 -0.08)">
      <defs>
       <path id="DejaVuSans-62" d="M 3116 1747 
Q 3116 2381 2855 2742 
Q 2594 3103 2138 3103 
Q 1681 3103 1420 2742 
Q 1159 2381 1159 1747 
Q 1159 1113 1420 752 
Q 1681 391 2138 391 
Q 2594 391 2855 752 
Q 3116 1113 3116 1747 
z
M 1159 2969 
Q 1341 3281 1617 3432 
Q 1894 3584 2278 3584 
Q 2916 3584 3314 3078 
Q 3713 2572 3713 1747 
Q 3713 922 3314 415 
Q 2916 -91 2278 -91 
Q 1894 -91 1617 61 
Q 1341 213 1159 525 
L 1159 0 
L 581 0 
L 581 4863 
L 1159 4863 
L 1159 2969 
z
" transform="scale(0.015625)"/>
       <path id="DejaVuSans-6c" d="M 603 4863 
L 1178 4863 
L 1178 0 
L 603 0 
L 603 4863 
z
" transform="scale(0.015625)"/>
       <path id="DejaVuSans-6b" d="M 581 4863 
L 1159 4863 
L 1159 1991 
L 2875 3500 
L 3609 3500 
L 1753 1863 
L 3688 0 
L 2938 0 
L 1159 1709 
L 1159 0 
L 581 0 
L 581 4863 
z
" transform="scale(0.015625)"/>
       <path id="DejaVuSans-5f" d="M 3263 -1063 
L 3263 -1509 
L -63 -1509 
L -63 -1063 
L 3263 -1063 
z
" transform="scale(0.015625)"/>
       <path id="DejaVuSans-78" d="M 3513 3500 
L 2247 1797 
L 3578 0 
L 2900 0 
L 1881 1375 
L 863 0 
L 184 0 
L 1544 1831 
L 300 3500 
L 978 3500 
L 1906 2253 
L 2834 3500 
L 3513 3500 
z
" transform="scale(0.015625)"/>
      </defs>
      <use xlink:href="#DejaVuSans-62"/>
      <use xlink:href="#DejaVuSans-6c" transform="translate(63.476562 0)"/>
      <use xlink:href="#DejaVuSans-61" transform="translate(91.259766 0)"/>
      <use xlink:href="#DejaVuSans-63" transform="translate(152.539062 0)"/>
      <use xlink:href="#DejaVuSans-6b" transform="translate(207.519531 0)"/>
      <use xlink:href="#DejaVuSans-5f" transform="translate(265.429688 0)"/>
      <use xlink:href="#DejaVuSans-62" transform="translate(315.429688 0)"/>
      <use xlink:href="#DejaVuSans-6f" transform="translate(378.90625 0)"/>
      <use xlink:href="#DejaVuSans-78" transform="translate(436.962891 0)"/>
     </g>
    </g>
   </g>
   <g id="text_3">
    <g clip-path="url(#pae0d1c7ad8)">
     <!-- construction -->
     <g transform="translate(451.6006 321.726692) scale(0.08 -0.08)">
      <defs>
       <path id="DejaVuSans-72" d="M 2631 2963 
Q 2534 3019 2420 3045 
Q 2306 3072 2169 3072 
Q 1681 3072 1420 2755 
Q 1159 2438 1159 1844 
L 1159 0 
L 581 0 
L 581 3500 
L 1159 3500 
L 1159 2956 
Q 1341 3275 1631 3429 
Q 1922 3584 2338 3584 
Q 2397 3584 2469 3576 
Q 2541 3569 2628 3553 
L 2631 2963 
z
" transform="scale(0.015625)"/>
       <path id="DejaVuSans-75" d="M 544 1381 
L 544 3500 
L 1119 3500 
L 1119 1403 
Q 1119 906 1312 657 
Q 1506 409 1894 409 
Q 2359 409 2629 706 
Q 2900 1003 2900 1516 
L 2900 3500 
L 3475 3500 
L 3475 0 
L 2900 0 
L 2900 538 
Q 2691 219 2414 64 
Q 2138 -91 1772 -91 
Q 1169 -91 856 284 
Q 544 659 544 1381 
z
M 1991 3584 
L 1991 3584 
z
" transform="scale(0.015625)"/>
      </defs>
      <use xlink:href="#DejaVuSans-63"/>
      <use xlink:href="#DejaVuSans-6f" transform="translate(54.980469 0)"/>
      <use xlink:href="#DejaVuSans-6e" transform="translate(116.162109 0)"/>
      <use xlink:href="#DejaVuSans-73" transform="translate(179.541016 0)"/>
      <use xlink:href="#DejaVuSans-74" transform="translate(231.640625 0)"/>
      <use xlink:href="#DejaVuSans-72" transform="translate(270.849609 0)"/>
      <use xlink:href="#DejaVuSans-75" transform="translate(311.962891 0)"/>
      <use xlink:href="#DejaVuSans-63" transform="translate(375.341797 0)"/>
      <use xlink:href="#DejaVuSans-74" transform="translate(430.322266 0)"/>
      <use xlink:href="#DejaVuSans-69" transform="translate(469.53125 0)"/>
      <use xlink:href="#DejaVuSans-6f" transform="translate(497.314453 0)"/>
      <use xlink:href="#DejaVuSans-6e" transform="translate(558.496094 0)"/>
     </g>
    </g>
   </g>
   <g id="text_4">
    <g clip-path="url(#pae0d1c7ad8)">
     <!-- enrollment -->
     <g transform="translate(368.272055 69.882045) scale(0.08 -0.08)">
      <defs>
       <path id="DejaVuSans-65" d="M 3597 1894 
L 3597 1613 
L 953 1613 
Q 991 1019 1311 708 
Q 1631 397 2203 397 
Q 2534 397 2845 478 
Q 3156 559 3463 722 
L 3463 178 
Q 3153 47 2828 -22 
Q 2503 -91 2169 -91 
Q 1331 -91 842 396 
Q 353 884 353 1716 
Q 353 2575 817 3079 
Q 1281 3584 2069 3584 
Q 2775 3584 3186 3129 
Q 3597 2675 3597 1894 
z
M 3022 2063 
Q 3016 2534 2758 2815 
Q 2500 3097 2075 3097 
Q 1594 3097 1305 2825 
Q 1016 2553 972 2059 
L 3022 2063 
z
" transform="scale(0.015625)"/>
       <path id="DejaVuSans-6d" d="M 3328 2828 
Q 3544 3216 3844 3400 
Q 4144 3584 4550 3584 
Q 5097 3584 5394 3201 
Q 5691 2819 5691 2113 
L 5691 0 
L 5113 0 
L 5113 2094 
Q 5113 2597 4934 2840 
Q 4756 3084 4391 3084 
Q 3944 3084 3684 2787 
Q 3425 2491 3425 1978 
L 3425 0 
L 2847 0 
L 2847 2094 
Q 2847 2600 2669 2842 
Q 2491 3084 2119 3084 
Q 1678 3084 1418 2786 
Q 1159 2488 1159 1978 
L 1159 0 
L 581 0 
L 581 3500 
L 1159 3500 
L 1159 2956 
Q 1356 3278 1631 3431 
Q 1906 3584 2284 3584 
Q 2666 3584 2933 3390 
Q 3200 3197 3328 2828 
z
" transform="scale(0.015625)"/>
      </defs>
      <use xlink:href="#DejaVuSans-65"/>
      <use xlink:href="#DejaVuSans-6e" transform="translate(61.523438 0)"/>
      <use xlink:href="#DejaVuSans-72" transform="translate(124.902344 0)"/>
      <use xlink:href="#DejaVuSans-6f" transform="translate(163.765625 0)"/>
      <use xlink:href="#DejaVuSans-6c" transform="translate(224.947266 0)"/>
      <use xlink:href="#DejaVuSans-6c" transform="translate(252.730469 0)"/>
      <use xlink:href="#DejaVuSans-6d" transform="translate(280.513672 0)"/>
      <use xlink:href="#DejaVuSans-65" transform="translate(377.925781 0)"/>
      <use xlink:href="#DejaVuSans-6e" transform="translate(439.449219 0)"/>
      <use xlink:href="#DejaVuSans-74" transform="translate(502.828125 0)"/>
     </g>
    </g>
   </g>
   <g id="text_5">
    <g clip-path="url(#pae0d1c7ad8)">
     <!-- inscription -->
     <g transform="translate(471.396779 323.945229) scale(0.08 -0.08)">
      <defs>
       <path id="DejaVuSans-70" d="M 1159 525 
L 1159 -1331 
L 581 -1331 
L 581 3500 
L 1159 3500 
L 1159 2969 
Q 1341 3281 1617 3432 
Q 1894 3584 2278 3584 
Q 2916 3584 3314 3078 
Q 3713 2572 3713 1747 
Q 3713 922 3314 415 
Q 2916 -91 2278 -91 
Q 1894 -91 1617 61 
Q 1341 213 1159 525 
z
M 3116 1747 
Q 3116 2381 2855 2742 
Q 2594 3103 2138 3103 
Q 1681 3103 1420 2742 
Q 1159 2381 1159 1747 
Q 1159 1113 1420 752 
Q 1681 391 2138 391 
Q 2594 391 2855 752 
Q 3116 1113 3116 1747 
z
" transform="scale(0.015625)"/>
      </defs>
      <use xlink:href="#DejaVuSans-69"/>
      <use xlink:href="#DejaVuSans-6e" transform="translate(27.783203 0)"/>
      <use xlink:href="#DejaVuSans-73" transform="translate(91.162109 0)"/>
      <use xlink:href="#DejaVuSans-63" transform="translate(143.261719 0)"/>
      <use xlink:href="#DejaVuSans-72" transform="translate(198.242188 0)"/>
      <use xlink:href="#DejaVuSans-69" transform="translate(239.355469 0)"/>
      <use xlink:href="#DejaVuSans-70" transform="translate(267.138672 0)"/>
      <use xlink:href="#DejaVuSans-74" transform="translate(330.615234 0)"/>
      <use xlink:href="#DejaVuSans-69" transform="translate(369.824219 0)"/>
      <use xlink:href="#DejaVuSans-6f" transform="translate(397.607422 0)"/>
      <use xlink:href="#DejaVuSans-6e" transform="translate(458.789062 0)"/>
     </g>
    </g>
   </g>
   <g id="text_6">
    <g clip-path="url(#pae0d1c7ad8)">
     <!-- militar -->
     <g transform="translate(444.668454 265.957289) scale(0.08 -0.08)">
      <use xlink:href="#DejaVuSans-6d"/>
      <use xlink:href="#DejaVuSans-69" transform="translate(97.412109 0)"/>
      <use xlink:href="#DejaVuSans-6c" transform="translate(125.195312 0)"/>
      <use xlink:href="#DejaVuSans-69" transform="translate(152.978516 0)"/>
      <use xlink:href="#DejaVuSans-74" transform="translate(180.761719 0)"/>
      <use xlink:href="#DejaVuSans-61" transform="translate(219.970703 0)"/>
      <use xlink:href="#DejaVuSans-72" transform="translate(281.25 0)"/>
     </g>
    </g>
   </g>
   <g id="text_7">
    <g clip-path="url(#pae0d1c7ad8)">
     <!-- network -->
     <g transform="translate(460.230393 362.999152) scale(0.08 -0.08)">
      <defs>
       <path id="DejaVuSans-77" d="M 269 3500 
L 844 3500 
L 1563 769 
L 2278 3500 
L 2956 3500 
L 3675 769 
L 4391 3500 
L 4966 3500 
L 4050 0 
L 3372 0 
L 2619 2869 
L 1863 0 
L 1184 0 
L 269 3500 
z
" transform="scale(0.015625)"/>
      </defs>
      <use xlink:href="#DejaVuSans-6e"/>
      <use xlink:href="#DejaVuSans-65" transform="translate(63.378906 0)"/>
      <use xlink:href="#DejaVuSans-74" transform="translate(124.902344 0)"/>
      <use xlink:href="#DejaVuSans-77" transform="translate(164.111328 0)"/>
      <use xlink:href="#DejaVuSans-6f" transform="translate(245.898438 0)"/>
      <use xlink:href="#DejaVuSans-72" transform="translate(307.080078 0)"/>
      <use xlink:href="#DejaVuSans-6b" transform="translate(348.193359 0)"/>
     </g>
    </g>
   </g>
   <g id="text_8">
    <g clip-path="url(#pae0d1c7ad8)">
     <!-- proposition -->
     <g transform="translate(575.924465 434.836284) scale(0.08 -0.08)">
      <use xlink:href="#DejaVuSans-70"/>
      <use xlink:href="#DejaVuSans-72" transform="translate(63.476562 0)"/>
      <use xlink:href="#DejaVuSans-6f" transform="translate(102.339844 0)"/>
      <use xlink:href="#DejaVuSans-70" transform="translate(163.521484 0)"/>
      <use xlink:href="#DejaVuSans-6f" transform="translate(226.998047 0)"/>
      <use xlink:href="#DejaVuSans-73" transform="translate(288.179688 0)"/>
      <use xlink:href="#DejaVuSans-69" transform="translate(340.279297 0)"/>
      <use xlink:href="#DejaVuSans-74" transform="translate(368.0625 0)"/>
      <use xlink:href="#DejaVuSans-69" transform="translate(407.271484 0)"/>
      <use xlink:href="#DejaVuSans-6f" transform="translate(435.054688 0)"/>
      <use xlink:href="#DejaVuSans-6e" transform="translate(496.236328 0)"/>
     </g>
    </g>
   </g>
   <g id="text_9">
    <g clip-path="url(#pae0d1c7ad8)">
     <!-- spokesperson -->
     <g transform="translate(11.774602 332.992094) scale(0.08 -0.08)">
      <use xlink:href="#DejaVuSans-73"/>
      <use xlink:href="#DejaVuSans-70" transform="translate(52.099609 0)"/>
      <use xlink:href="#DejaVuSans-6f" transform="translate(115.576172 0)"/>
      <use xlink:href="#DejaVuSans-6b" transform="translate(176.757812 0)"/>
      <use xlink:href="#DejaVuSans-65" transform="translate(231.042969 0)"/>
      <use xlink:href="#DejaVuSans-73" transform="translate(292.566406 0)"/>
      <use xlink:href="#DejaVuSans-70" transform="translate(344.666016 0)"/>
      <use xlink:href="#DejaVuSans-65" transform="translate(408.142578 0)"/>
      <use xlink:href="#DejaVuSans-72" transform="translate(469.666016 0)"/>
      <use xlink:href="#DejaVuSans-73" transform="translate(510.779297 0)"/>
      <use xlink:href="#DejaVuSans-6f" transform="translate(562.878906 0)"/>
      <use xlink:href="#DejaVuSans-6e" transform="translate(624.060547 0)"/>
     </g>
    </g>
   </g>
   <g id="text_10">
    <g clip-path="url(#pae0d1c7ad8)">
     <!-- translation -->
     <g transform="translate(419.244277 454.972955) scale(0.08 -0.08)">
      <use xlink:href="#DejaVuSans-74"/>
      <use xlink:href="#DejaVuSans-72" transform="translate(39.208984 0)"/>
      <use xlink:href="#DejaVuSans-61" transform="translate(80.322266 0)"/>
      <use xlink:href="#DejaVuSans-6e" transform="translate(141.601562 0)"/>
      <use xlink:href="#DejaVuSans-73" transform="translate(204.980469 0)"/>
      <use xlink:href="#DejaVuSans-6c" transform="translate(257.080078 0)"/>
      <use xlink:href="#DejaVuSans-61" transform="translate(284.863281 0)"/>
      <use xlink:href="#DejaVuSans-74" transform="translate(346.142578 0)"/>
      <use xlink:href="#DejaVuSans-69" transform="translate(385.351562 0)"/>
      <use xlink:href="#DejaVuSans-6f" transform="translate(413.134766 0)"/>
      <use xlink:href="#DejaVuSans-6e" transform="translate(474.316406 0)"/>
     </g>
    </g>
   </g>
   <g id="text_11">
    <!-- Rede de cocorrência figural: latour_woolgar_1986_lab_life_en (janela 200 palavras) -->
    <g transform="translate(74.539688 21.24) scale(0.12 -0.12)">
     <defs>
      <path id="DejaVuSans-52" d="M 2841 2188 
Q 3044 2119 3236 1894 
Q 3428 1669 3622 1275 
L 4263 0 
L 3584 0 
L 2988 1197 
Q 2756 1666 2539 1819 
Q 2322 1972 1947 1972 
L 1259 1972 
L 1259 0 
L 628 0 
L 628 4666 
L 2053 4666 
Q 2853 4666 3247 4331 
Q 3641 3997 3641 3322 
Q 3641 2881 3436 2590 
Q 3231 2300 2841 2188 
z
M 1259 4147 
L 1259 2491 
L 2053 2491 
Q 2509 2491 2742 2702 
Q 2975 2913 2975 3322 
Q 2975 3731 2742 3939 
Q 2509 4147 2053 4147 
L 1259 4147 
z
" transform="scale(0.015625)"/>
      <path id="DejaVuSans-64" d="M 2906 2969 
L 2906 4863 
L 3481 4863 
L 3481 0 
L 2906 0 
L 2906 525 
Q 2725 213 2448 61 
Q 2172 -91 1784 -91 
Q 1150 -91 751 415 
Q 353 922 353 1747 
Q 353 2572 751 3078 
Q 1150 3584 1784 3584 
Q 2172 3584 2448 3432 
Q 2725 3281 2906 2969 
z
M 947 1747 
Q 947 1113 1208 752 
Q 1469 391 1925 391 
Q 2381 391 2643 752 
Q 2906 1113 2906 1747 
Q 2906 2381 2643 2742 
Q 2381 3103 1925 3103 
Q 1469 3103 1208 2742 
Q 947 2381 947 1747 
z
" transform="scale(0.015625)"/>
      <path id="DejaVuSans-20" transform="scale(0.015625)"/>
      <path id="DejaVuSans-ea" d="M 3597 1894 
L 3597 1613 
L 953 1613 
Q 991 1019 1311 708 
Q 1631 397 2203 397 
Q 2534 397 2845 478 
Q 3156 559 3463 722 
L 3463 178 
Q 3153 47 2828 -22 
Q 2503 -91 2169 -91 
Q 1331 -91 842 396 
Q 353 884 353 1716 
Q 353 2575 817 3079 
Q 1281 3584 2069 3584 
Q 2775 3584 3186 3129 
Q 3597 2675 3597 1894 
z
M 3022 2063 
Q 3016 2534 2758 2815 
Q 2500 3097 2075 3097 
Q 1594 3097 1305 2825 
Q 1016 2553 972 2059 
L 3022 2063 
z
M 1801 5119 
L 2263 5119 
L 3029 3944 
L 2595 3944 
L 2032 4709 
L 1470 3944 
L 1035 3944 
L 1801 5119 
z
" transform="scale(0.015625)"/>
      <path id="DejaVuSans-66" d="M 2375 4863 
L 2375 4384 
L 1825 4384 
Q 1516 4384 1395 4259 
Q 1275 4134 1275 3809 
L 1275 3500 
L 2222 3500 
L 2222 3053 
L 1275 3053 
L 1275 0 
L 697 0 
L 697 3053 
L 147 3053 
L 147 3500 
L 697 3500 
L 697 3744 
Q 697 4328 969 4595 
Q 1241 4863 1831 4863 
L 2375 4863 
z
" transform="scale(0.015625)"/>
      <path id="DejaVuSans-3a" d="M 750 794 
L 1409 794 
L 1409 0 
L 750 0 
L 750 794 
z
M 750 3309 
L 1409 3309 
L 1409 2516 
L 750 2516 
L 750 3309 
z
" transform="scale(0.015625)"/>
      <path id="DejaVuSans-31" d="M 794 531 
L 1825 531 
L 1825 4091 
L 703 3866 
L 703 4441 
L 1819 4666 
L 2450 4666 
L 2450 531 
L 3481 531 
L 3481 0 
L 794 0 
L 794 531 
z
" transform="scale(0.015625)"/>
      <path id="DejaVuSans-39" d="M 703 97 
L 703 672 
Q 941 559 1184 500 
Q 1428 441 1663 441 
Q 2288 441 2617 861 
Q 2947 1281 2994 2138 
Q 2813 1869 2534 1725 
Q 2256 1581 1919 1581 
Q 1219 1581 811 2004 
Q 403 2428 403 3163 
Q 403 3881 828 4315 
Q 1253 4750 1959 4750 
Q 2769 4750 3195 4129 
Q 3622 3509 3622 2328 
Q 3622 1225 3098 567 
Q 2575 -91 1691 -91 
Q 1453 -91 1209 -44 
Q 966 3 703 97 
z
M 1959 2075 
Q 2384 2075 2632 2365 
Q 2881 2656 2881 3163 
Q 2881 3666 2632 3958 
Q 2384 4250 1959 4250 
Q 1534 4250 1286 3958 
Q 1038 3666 1038 3163 
Q 1038 2656 1286 2365 
Q 1534 2075 1959 2075 
z
" transform="scale(0.015625)"/>
      <path id="DejaVuSans-38" d="M 2034 2216 
Q 1584 2216 1326 1975 
Q 1069 1734 1069 1313 
Q 1069 891 1326 650 
Q 1584 409 2034 409 
Q 2484 409 2743 651 
Q 3003 894 3003 1313 
Q 3003 1734 2745 1975 
Q 2488 2216 2034 2216 
z
M 1403 2484 
Q 997 2584 770 2862 
Q 544 3141 544 3541 
Q 544 4100 942 4425 
Q 1341 4750 2034 4750 
Q 2731 4750 3128 4425 
Q 3525 4100 3525 3541 
Q 3525 3141 3298 2862 
Q 3072 2584 2669 2484 
Q 3125 2378 3379 2068 
Q 3634 1759 3634 1313 
Q 3634 634 3220 271 
Q 2806 -91 2034 -91 
Q 1263 -91 848 271 
Q 434 634 434 1313 
Q 434 1759 690 2068 
Q 947 2378 1403 2484 
z
M 1172 3481 
Q 1172 3119 1398 2916 
Q 1625 2713 2034 2713 
Q 2441 2713 2670 2916 
Q 2900 3119 2900 3481 
Q 2900 3844 2670 4047 
Q 2441 4250 2034 4250 
Q 1625 4250 1398 4047 
Q 1172 3844 1172 3481 
z
" transform="scale(0.015625)"/>
      <path id="DejaVuSans-36" d="M 2113 2584 
Q 1688 2584 1439 2293 
Q 1191 2003 1191 1497 
Q 1191 994 1439 701 
Q 1688 409 2113 409 
Q 2538 409 2786 701 
Q 3034 994 3034 1497 
Q 3034 2003 2786 2293 
Q 2538 2584 2113 2584 
z
M 3366 4563 
L 3366 3988 
Q 3128 4100 2886 4159 
Q 2644 4219 2406 4219 
Q 1781 4219 1451 3797 
Q 1122 3375 1075 2522 
Q 1259 2794 1537 2939 
Q 1816 3084 2150 3084 
Q 2853 3084 3261 2657 
Q 3669 2231 3669 1497 
Q 3669 778 3244 343 
Q 2819 -91 2113 -91 
Q 1303 -91 875 529 
Q 447 1150 447 2328 
Q 447 3434 972 4092 
Q 1497 4750 2381 4750 
Q 2619 4750 2861 4703 
Q 3103 4656 3366 4563 
z
" transform="scale(0.015625)"/>
      <path id="DejaVuSans-28" d="M 1984 4856 
Q 1566 4138 1362 3434 
Q 1159 2731 1159 2009 
Q 1159 1288 1364 580 
Q 1569 -128 1984 -844 
L 1484 -844 
Q 1016 -109 783 600 
Q 550 1309 550 2009 
Q 550 2706 781 3412 
Q 1013 4119 1484 4856 
L 1984 4856 
z
" transform="scale(0.015625)"/>
      <path id="DejaVuSans-6a" d="M 603 3500 
L 1178 3500 
L 1178 -63 
Q 1178 -731 923 -1031 
Q 669 -1331 103 -1331 
L -116 -1331 
L -116 -844 
L 38 -844 
Q 366 -844 484 -692 
Q 603 -541 603 -63 
L 603 3500 
z
M 603 4863 
L 1178 4863 
L 1178 4134 
L 603 4134 
L 603 4863 
z
" transform="scale(0.015625)"/>
      <path id="DejaVuSans-32" d="M 1228 531 
L 3431 531 
L 3431 0 
L 469 0 
L 469 531 
Q 828 903 1448 1529 
Q 2069 2156 2228 2338 
Q 2531 2678 2651 2914 
Q 2772 3150 2772 3378 
Q 2772 3750 2511 3984 
Q 2250 4219 1831 4219 
Q 1534 4219 1204 4116 
Q 875 4013 500 3803 
L 500 4441 
Q 881 4594 1212 4672 
Q 1544 4750 1819 4750 
Q 2544 4750 2975 4387 
Q 3406 4025 3406 3419 
Q 3406 3131 3298 2873 
Q 3191 2616 2906 2266 
Q 2828 2175 2409 1742 
Q 1991 1309 1228 531 
z
" transform="scale(0.015625)"/>
      <path id="DejaVuSans-30" d="M 2034 4250 
Q 1547 4250 1301 3770 
Q 1056 3291 1056 2328 
Q 1056 1369 1301 889 
Q 1547 409 2034 409 
Q 2525 409 2770 889 
Q 3016 1369 3016 2328 
Q 3016 3291 2770 3770 
Q 2525 4250 2034 4250 
z
M 2034 4750 
Q 2819 4750 3233 4129 
Q 3647 3509 3647 2328 
Q 3647 1150 3233 529 
Q 2819 -91 2034 -91 
Q 1250 -91 836 529 
Q 422 1150 422 2328 
Q 422 3509 836 4129 
Q 1250 4750 2034 4750 
z
" transform="scale(0.015625)"/>
      <path id="DejaVuSans-76" d="M 191 3500 
L 800 3500 
L 1894 563 
L 2988 3500 
L 3597 3500 
L 2284 0 
L 1503 0 
L 191 3500 
z
" transform="scale(0.015625)"/>
      <path id="DejaVuSans-29" d="M 513 4856 
L 1013 4856 
Q 1481 4119 1714 3412 
Q 1947 2706 1947 2009 
Q 1947 1309 1714 600 
Q 1481 -109 1013 -844 
L 513 -844 
Q 928 -128 1133 580 
Q 1338 1288 1338 2009 
Q 1338 2731 1133 3434 
Q 928 4138 513 4856 
z
" transform="scale(0.015625)"/>
     </defs>
     <use xlink:href="#DejaVuSans-52"/>
     <use xlink:href="#DejaVuSans-65" transform="translate(64.982422 0)"/>
     <use xlink:href="#DejaVuSans-64" transform="translate(126.505859 0)"/>
     <use xlink:href="#DejaVuSans-65" transform="translate(189.982422 0)"/>
     <use xlink:href="#DejaVuSans-20" transform="translate(251.505859 0)"/>
     <use xlink:href="#DejaVuSans-64" transform="translate(283.292969 0)"/>
     <use xlink:href="#DejaVuSans-65" transform="translate(346.769531 0)"/>
     <use xlink:href="#DejaVuSans-20" transform="translate(408.292969 0)"/>
     <use xlink:href="#DejaVuSans-63" transform="translate(440.080078 0)"/>
     <use xlink:href="#DejaVuSans-6f" transform="translate(495.060547 0)"/>
     <use xlink:href="#DejaVuSans-63" transform="translate(556.242188 0)"/>
     <use xlink:href="#DejaVuSans-6f" transform="translate(611.222656 0)"/>
     <use xlink:href="#DejaVuSans-72" transform="translate(672.404297 0)"/>
     <use xlink:href="#DejaVuSans-72" transform="translate(711.767578 0)"/>
     <use xlink:href="#DejaVuSans-ea" transform="translate(750.630859 0)"/>
     <use xlink:href="#DejaVuSans-6e" transform="translate(812.154297 0)"/>
     <use xlink:href="#DejaVuSans-63" transform="translate(875.533203 0)"/>
     <use xlink:href="#DejaVuSans-69" transform="translate(930.513672 0)"/>
     <use xlink:href="#DejaVuSans-61" transform="translate(958.296875 0)"/>
     <use xlink:href="#DejaVuSans-20" transform="translate(1019.576172 0)"/>
     <use xlink:href="#DejaVuSans-66" transform="translate(1051.363281 0)"/>
     <use xlink:href="#DejaVuSans-69" transform="translate(1086.568359 0)"/>
     <use xlink:href="#DejaVuSans-67" transform="translate(1114.351562 0)"/>
     <use xlink:href="#DejaVuSans-75" transform="translate(1177.828125 0)"/>
     <use xlink:href="#DejaVuSans-72" transform="translate(1241.207031 0)"/>
     <use xlink:href="#DejaVuSans-61" transform="translate(1282.320312 0)"/>
     <use xlink:href="#DejaVuSans-6c" transform="translate(1343.599609 0)"/>
     <use xlink:href="#DejaVuSans-3a" transform="translate(1371.382812 0)"/>
     <use xlink:href="#DejaVuSans-20" transform="translate(1405.074219 0)"/>
     <use xlink:href="#DejaVuSans-6c" transform="translate(1436.861328 0)"/>
     <use xlink:href="#DejaVuSans-61" transform="translate(1464.644531 0)"/>
     <use xlink:href="#DejaVuSans-74" transform="translate(1525.923828 0)"/>
     <use xlink:href="#DejaVuSans-6f" transform="translate(1565.132812 0)"/>
     <use xlink:href="#DejaVuSans-75" transform="translate(1626.314453 0)"/>
     <use xlink:href="#DejaVuSans-72" transform="translate(1689.693359 0)"/>
     <use xlink:href="#DejaVuSans-5f" transform="translate(1730.806641 0)"/>
     <use xlink:href="#DejaVuSans-77" transform="translate(1780.806641 0)"/>
     <use xlink:href="#DejaVuSans-6f" transform="translate(1862.59375 0)"/>
     <use xlink:href="#DejaVuSans-6f" transform="translate(1923.775391 0)"/>
     <use xlink:href="#DejaVuSans-6c" transform="translate(1984.957031 0)"/>
     <use xlink:href="#DejaVuSans-67" transform="translate(2012.740234 0)"/>
     <use xlink:href="#DejaVuSans-61" transform="translate(2076.216797 0)"/>
     <use xlink:href="#DejaVuSans-72" transform="translate(2137.496094 0)"/>
     <use xlink:href="#DejaVuSans-5f" transform="translate(2178.609375 0)"/>
     <use xlink:href="#DejaVuSans-31" transform="translate(2228.609375 0)"/>
     <use xlink:href="#DejaVuSans-39" transform="translate(2292.232422 0)"/>
     <use xlink:href="#DejaVuSans-38" transform="translate(2355.855469 0)"/>
     <use xlink:href="#DejaVuSans-36" transform="translate(2419.478516 0)"/>
     <use xlink:href="#DejaVuSans-5f" transform="translate(2483.101562 0)"/>
     <use xlink:href="#DejaVuSans-6c" transform="translate(2533.101562 0)"/>
     <use xlink:href="#DejaVuSans-61" transform="translate(2560.884766 0)"/>
     <use xlink:href="#DejaVuSans-62" transform="translate(2622.164062 0)"/>
     <use xlink:href="#DejaVuSans-5f" transform="translate(2685.640625 0)"/>
     <use xlink:href="#DejaVuSans-6c" transform="translate(2735.640625 0)"/>
     <use xlink:href="#DejaVuSans-69" transform="translate(2763.423828 0)"/>
     <use xlink:href="#DejaVuSans-66" transform="translate(2791.207031 0)"/>
     <use xlink:href="#DejaVuSans-65" transform="translate(2826.412109 0)"/>
     <use xlink:href="#DejaVuSans-5f" transform="translate(2887.935547 0)"/>
     <use xlink:href="#DejaVuSans-65" transform="translate(2937.935547 0)"/>
     <use xlink:href="#DejaVuSans-6e" transform="translate(2999.458984 0)"/>
     <use xlink:href="#DejaVuSans-20" transform="translate(3062.837891 0)"/>
     <use xlink:href="#DejaVuSans-28" transform="translate(3094.625 0)"/>
     <use xlink:href="#DejaVuSans-6a" transform="translate(3133.638672 0)"/>
     <use xlink:href="#DejaVuSans-61" transform="translate(3161.421875 0)"/>
     <use xlink:href="#DejaVuSans-6e" transform="translate(3222.701172 0)"/>
     <use xlink:href="#DejaVuSans-65" transform="translate(3286.080078 0)"/>
     <use xlink:href="#DejaVuSans-6c" transform="translate(3347.603516 0)"/>
     <use xlink:href="#DejaVuSans-61" transform="translate(3375.386719 0)"/>
     <use xlink:href="#DejaVuSans-20" transform="translate(3436.666016 0)"/>
     <use xlink:href="#DejaVuSans-32" transform="translate(3468.453125 0)"/>
     <use xlink:href="#DejaVuSans-30" transform="translate(3532.076172 0)"/>
     <use xlink:href="#DejaVuSans-30" transform="translate(3595.699219 0)"/>
     <use xlink:href="#DejaVuSans-20" transform="translate(3659.322266 0)"/>
     <use xlink:href="#DejaVuSans-70" transform="translate(3691.109375 0)"/>
     <use xlink:href="#DejaVuSans-61" transform="translate(3754.585938 0)"/>
     <use xlink:href="#DejaVuSans-6c" transform="translate(3815.865234 0)"/>
     <use xlink:href="#DejaVuSans-61" transform="translate(3843.648438 0)"/>
     <use xlink:href="#DejaVuSans-76" transform="translate(3904.927734 0)"/>
     <use xlink:href="#DejaVuSans-72" transform="translate(3964.107422 0)"/>
     <use xlink:href="#DejaVuSans-61" transform="translate(4005.220703 0)"/>
     <use xlink:href="#DejaVuSans-73" transform="translate(4066.5 0)"/>
     <use xlink:href="#DejaVuSans-29" transform="translate(4118.599609 0)"/>
    </g>
   </g>
  </g>
 </g>
 <defs>
  <clipPath id="pae0d1c7ad8">
   <rect x="10.8" y="27.24" width="626.4" height="465.96"/>
  </clipPath>
 </defs>
</svg>
