<?xml version="1.0" encoding="utf-8" standalone="no"?>
<!DOCTYPE svg PUBLIC "-//W3C//DTD SVG 1.1//EN"
  "http://www.w3.org/Graphics/SVG/1.1/DTD/svg11.dtd">
<svg xmlns:xlink="http://www.w3.org/1999/xlink" width="648pt" height="504pt" viewBox="0 0 648 504" xmlns="http://www.w3.org/2000/svg" version="1.1">
 <metadata>
  <rdf:RDF xmlns:dc="http://purl.org/dc/elements/1.1/" xmlns:cc="http://creativecommons.org/ns#" xmlns:rdf="http://www.w3.org/1999/02/22-rdf-syntax-ns#">
   <cc:Work>
    <dc:type rdf:resource="http://purl.org/dc/dcmitype/StillImage"/>
    <dc:date>2026-05-14T21:23:10.853925</dc:date>
    <dc:format>image/svg+xml</dc:format>
    <dc:creator>
     <cc:Agent>
      <dc:title>Matplotlib v3.10.9, https://matplotlib.org/</dc:title>
     </cc:Agent>
    </dc:creator>
   </cc:Work>
  </rdf:RDF>
 </metadata>
 <defs>
  <style type="text/css">*{stroke-linejoin: round; stroke-linecap: butt}</style>
 </defs>
 <g id="figure_1">
  <g id="patch_1">
   <path d="M 0 504 
L 648 504 
L 648 0 
L 0 0 
z
" style="fill: #ffffff"/>
  </g>
  <g id="axes_1">
   <g id="LineCollection_1">
    <path d="M 310.534206 290.376101 
L 547.866336 217.482979 
" clip-path="url(#p1f1763103e)" style="fill: none; stroke: #000000; stroke-opacity: 0.45; stroke-width: 0.7"/>
    <path d="M 310.534206 290.376101 
L 287.825717 232.357842 
" clip-path="url(#p1f1763103e)" style="fill: none; stroke: #000000; stroke-opacity: 0.45; stroke-width: 1.741641"/>
    <path d="M 310.534206 290.376101 
L 203.825009 195.116953 
" clip-path="url(#p1f1763103e)" style="fill: none; stroke: #000000; stroke-opacity: 0.45; stroke-width: 1.134847"/>
    <path d="M 310.534206 290.376101 
L 302.068393 143.421352 
" clip-path="url(#p1f1763103e)" style="fill: none; stroke: #000000; stroke-opacity: 0.45; stroke-width: 1.248528"/>
    <path d="M 310.534206 290.376101 
L 360.693034 204.806224 
" clip-path="url(#p1f1763103e)" style="fill: none; stroke: #000000; stroke-opacity: 0.45; stroke-width: 1.394987"/>
    <path d="M 310.534206 290.376101 
L 65.157025 214.770024 
" clip-path="url(#p1f1763103e)" style="fill: none; stroke: #000000; stroke-opacity: 0.45; stroke-width: 1.07082"/>
    <path d="M 310.534206 290.376101 
L 416.665861 350.541985 
" clip-path="url(#p1f1763103e)" style="fill: none; stroke: #000000; stroke-opacity: 0.45; stroke-width: 1.774773"/>
    <path d="M 310.534206 290.376101 
L 421.808356 249.465279 
" clip-path="url(#p1f1763103e)" style="fill: none; stroke: #000000; stroke-opacity: 0.45; stroke-width: 1.193725"/>
    <path d="M 310.534206 290.376101 
L 529.846908 303.772518 
" clip-path="url(#p1f1763103e)" style="fill: none; stroke: #000000; stroke-opacity: 0.45; stroke-width: 1.134847"/>
    <path d="M 360.693034 204.806224 
L 203.825009 195.116953 
" clip-path="url(#p1f1763103e)" style="fill: none; stroke: #000000; stroke-opacity: 0.45; stroke-width: 1.07082"/>
    <path d="M 360.693034 204.806224 
L 65.157025 214.770024 
" clip-path="url(#p1f1763103e)" style="fill: none; stroke: #000000; stroke-opacity: 0.45; stroke-width: 0.919615"/>
    <path d="M 360.693034 204.806224 
L 287.825717 232.357842 
" clip-path="url(#p1f1763103e)" style="fill: none; stroke: #000000; stroke-opacity: 0.45; stroke-width: 1.43923"/>
    <path d="M 360.693034 204.806224 
L 416.665861 350.541985 
" clip-path="url(#p1f1763103e)" style="fill: none; stroke: #000000; stroke-opacity: 0.45"/>
    <path d="M 360.693034 204.806224 
L 302.068393 143.421352 
" clip-path="url(#p1f1763103e)" style="fill: none; stroke: #000000; stroke-opacity: 0.45; stroke-width: 2.8"/>
    <path d="M 360.693034 204.806224 
L 421.808356 249.465279 
" clip-path="url(#p1f1763103e)" style="fill: none; stroke: #000000; stroke-opacity: 0.45; stroke-width: 1.807125"/>
    <path d="M 360.693034 204.806224 
L 176.830711 264.199485 
" clip-path="url(#p1f1763103e)" style="fill: none; stroke: #000000; stroke-opacity: 0.45"/>
    <path d="M 360.693034 204.806224 
L 529.846908 303.772518 
" clip-path="url(#p1f1763103e)" style="fill: none; stroke: #000000; stroke-opacity: 0.45; stroke-width: 0.824264"/>
    <path d="M 360.693034 204.806224 
L 547.866336 217.482979 
" clip-path="url(#p1f1763103e)" style="fill: none; stroke: #000000; stroke-opacity: 0.45; stroke-width: 0.919615"/>
    <path d="M 360.693034 204.806224 
L 273.516048 355.776592 
" clip-path="url(#p1f1763103e)" style="fill: none; stroke: #000000; stroke-opacity: 0.45; stroke-width: 1.193725"/>
    <path d="M 360.693034 204.806224 
L 428.263155 451.338843 
" clip-path="url(#p1f1763103e)" style="fill: none; stroke: #000000; stroke-opacity: 0.45"/>
    <path d="M 416.665861 350.541985 
L 65.157025 214.770024 
" clip-path="url(#p1f1763103e)" style="fill: none; stroke: #000000; stroke-opacity: 0.45; stroke-width: 0.7"/>
    <path d="M 416.665861 350.541985 
L 287.825717 232.357842 
" clip-path="url(#p1f1763103e)" style="fill: none; stroke: #000000; stroke-opacity: 0.45; stroke-width: 1.193725"/>
    <path d="M 416.665861 350.541985 
L 547.866336 217.482979 
" clip-path="url(#p1f1763103e)" style="fill: none; stroke: #000000; stroke-opacity: 0.45; stroke-width: 0.7"/>
    <path d="M 416.665861 350.541985 
L 302.068393 143.421352 
" clip-path="url(#p1f1763103e)" style="fill: none; stroke: #000000; stroke-opacity: 0.45; stroke-width: 0.7"/>
    <path d="M 416.665861 350.541985 
L 421.808356 249.465279 
" clip-path="url(#p1f1763103e)" style="fill: none; stroke: #000000; stroke-opacity: 0.45; stroke-width: 1.248528"/>
    <path d="M 416.665861 350.541985 
L 529.846908 303.772518 
" clip-path="url(#p1f1763103e)" style="fill: none; stroke: #000000; stroke-opacity: 0.45; stroke-width: 1.07082"/>
    <path d="M 416.665861 350.541985 
L 203.825009 195.116953 
" clip-path="url(#p1f1763103e)" style="fill: none; stroke: #000000; stroke-opacity: 0.45; stroke-width: 0.7"/>
    <path d="M 582.842975 52.661157 
L 287.825717 232.357842 
" clip-path="url(#p1f1763103e)" style="fill: none; stroke: #000000; stroke-opacity: 0.45; stroke-width: 0.7"/>
    <path d="M 582.842975 52.661157 
L 547.866336 217.482979 
" clip-path="url(#p1f1763103e)" style="fill: none; stroke: #000000; stroke-opacity: 0.45; stroke-width: 0.919615"/>
    <path d="M 582.842975 52.661157 
L 203.825009 195.116953 
" clip-path="url(#p1f1763103e)" style="fill: none; stroke: #000000; stroke-opacity: 0.45; stroke-width: 0.824264"/>
    <path d="M 582.842975 52.661157 
L 273.516048 355.776592 
" clip-path="url(#p1f1763103e)" style="fill: none; stroke: #000000; stroke-opacity: 0.45; stroke-width: 0.7"/>
    <path d="M 582.842975 52.661157 
L 421.808356 249.465279 
" clip-path="url(#p1f1763103e)" style="fill: none; stroke: #000000; stroke-opacity: 0.45; stroke-width: 0.919615"/>
    <path d="M 547.866336 217.482979 
L 287.825717 232.357842 
" clip-path="url(#p1f1763103e)" style="fill: none; stroke: #000000; stroke-opacity: 0.45; stroke-width: 1.248528"/>
    <path d="M 547.866336 217.482979 
L 176.830711 264.199485 
" clip-path="url(#p1f1763103e)" style="fill: none; stroke: #000000; stroke-opacity: 0.45; stroke-width: 0.919615"/>
    <path d="M 547.866336 217.482979 
L 421.808356 249.465279 
" clip-path="url(#p1f1763103e)" style="fill: none; stroke: #000000; stroke-opacity: 0.45; stroke-width: 1.481665"/>
    <path d="M 547.866336 217.482979 
L 203.825009 195.116953 
" clip-path="url(#p1f1763103e)" style="fill: none; stroke: #000000; stroke-opacity: 0.45; stroke-width: 0.7"/>
    <path d="M 547.866336 217.482979 
L 273.516048 355.776592 
" clip-path="url(#p1f1763103e)" style="fill: none; stroke: #000000; stroke-opacity: 0.45"/>
    <path d="M 547.866336 217.482979 
L 428.263155 451.338843 
" clip-path="url(#p1f1763103e)" style="fill: none; stroke: #000000; stroke-opacity: 0.45; stroke-width: 0.824264"/>
    <path d="M 203.825009 195.116953 
L 529.846908 303.772518 
" clip-path="url(#p1f1763103e)" style="fill: none; stroke: #000000; stroke-opacity: 0.45; stroke-width: 0.919615"/>
    <path d="M 203.825009 195.116953 
L 176.830711 264.199485 
" clip-path="url(#p1f1763103e)" style="fill: none; stroke: #000000; stroke-opacity: 0.45; stroke-width: 2.224829"/>
    <path d="M 203.825009 195.116953 
L 65.157025 214.770024 
" clip-path="url(#p1f1763103e)" style="fill: none; stroke: #000000; stroke-opacity: 0.45; stroke-width: 1.43923"/>
    <path d="M 203.825009 195.116953 
L 287.825717 232.357842 
" clip-path="url(#p1f1763103e)" style="fill: none; stroke: #000000; stroke-opacity: 0.45; stroke-width: 2.456696"/>
    <path d="M 203.825009 195.116953 
L 273.516048 355.776592 
" clip-path="url(#p1f1763103e)" style="fill: none; stroke: #000000; stroke-opacity: 0.45; stroke-width: 0.824264"/>
    <path d="M 203.825009 195.116953 
L 421.808356 249.465279 
" clip-path="url(#p1f1763103e)" style="fill: none; stroke: #000000; stroke-opacity: 0.45; stroke-width: 1.134847"/>
    <path d="M 203.825009 195.116953 
L 302.068393 143.421352 
" clip-path="url(#p1f1763103e)" style="fill: none; stroke: #000000; stroke-opacity: 0.45; stroke-width: 1.134847"/>
    <path d="M 529.846908 303.772518 
L 176.830711 264.199485 
" clip-path="url(#p1f1763103e)" style="fill: none; stroke: #000000; stroke-opacity: 0.45; stroke-width: 0.824264"/>
    <path d="M 529.846908 303.772518 
L 287.825717 232.357842 
" clip-path="url(#p1f1763103e)" style="fill: none; stroke: #000000; stroke-opacity: 0.45; stroke-width: 1.394987"/>
    <path d="M 529.846908 303.772518 
L 421.808356 249.465279 
" clip-path="url(#p1f1763103e)" style="fill: none; stroke: #000000; stroke-opacity: 0.45; stroke-width: 1.07082"/>
    <path d="M 176.830711 264.199485 
L 287.825717 232.357842 
" clip-path="url(#p1f1763103e)" style="fill: none; stroke: #000000; stroke-opacity: 0.45; stroke-width: 2.043168"/>
    <path d="M 176.830711 264.199485 
L 421.808356 249.465279 
" clip-path="url(#p1f1763103e)" style="fill: none; stroke: #000000; stroke-opacity: 0.45; stroke-width: 1.07082"/>
    <path d="M 176.830711 264.199485 
L 65.157025 214.770024 
" clip-path="url(#p1f1763103e)" style="fill: none; stroke: #000000; stroke-opacity: 0.45; stroke-width: 1.248528"/>
    <path d="M 176.830711 264.199485 
L 302.068393 143.421352 
" clip-path="url(#p1f1763103e)" style="fill: none; stroke: #000000; stroke-opacity: 0.45; stroke-width: 1.07082"/>
    <path d="M 176.830711 264.199485 
L 273.516048 355.776592 
" clip-path="url(#p1f1763103e)" style="fill: none; stroke: #000000; stroke-opacity: 0.45; stroke-width: 1.248528"/>
    <path d="M 176.830711 264.199485 
L 428.263155 451.338843 
" clip-path="url(#p1f1763103e)" style="fill: none; stroke: #000000; stroke-opacity: 0.45; stroke-width: 0.824264"/>
    <path d="M 428.263155 451.338843 
L 273.516048 355.776592 
" clip-path="url(#p1f1763103e)" style="fill: none; stroke: #000000; stroke-opacity: 0.45; stroke-width: 1.193725"/>
    <path d="M 428.263155 451.338843 
L 421.808356 249.465279 
" clip-path="url(#p1f1763103e)" style="fill: none; stroke: #000000; stroke-opacity: 0.45; stroke-width: 0.824264"/>
    <path d="M 273.516048 355.776592 
L 65.157025 214.770024 
" clip-path="url(#p1f1763103e)" style="fill: none; stroke: #000000; stroke-opacity: 0.45; stroke-width: 0.824264"/>
    <path d="M 273.516048 355.776592 
L 421.808356 249.465279 
" clip-path="url(#p1f1763103e)" style="fill: none; stroke: #000000; stroke-opacity: 0.45; stroke-width: 1.3"/>
    <path d="M 273.516048 355.776592 
L 302.068393 143.421352 
" clip-path="url(#p1f1763103e)" style="fill: none; stroke: #000000; stroke-opacity: 0.45; stroke-width: 0.7"/>
    <path d="M 287.825717 232.357842 
L 65.157025 214.770024 
" clip-path="url(#p1f1763103e)" style="fill: none; stroke: #000000; stroke-opacity: 0.45; stroke-width: 1.774773"/>
    <path d="M 287.825717 232.357842 
L 421.808356 249.465279 
" clip-path="url(#p1f1763103e)" style="fill: none; stroke: #000000; stroke-opacity: 0.45; stroke-width: 2.097056"/>
    <path d="M 287.825717 232.357842 
L 302.068393 143.421352 
" clip-path="url(#p1f1763103e)" style="fill: none; stroke: #000000; stroke-opacity: 0.45; stroke-width: 1.3"/>
    <path d="M 65.157025 214.770024 
L 302.068393 143.421352 
" clip-path="url(#p1f1763103e)" style="fill: none; stroke: #000000; stroke-opacity: 0.45; stroke-width: 0.919615"/>
    <path d="M 302.068393 143.421352 
L 421.808356 249.465279 
" clip-path="url(#p1f1763103e)" style="fill: none; stroke: #000000; stroke-opacity: 0.45; stroke-width: 1.07082"/>
   </g>
   <g id="PathCollection_1">
    <path d="M 310.534206 303.078671 
C 313.902967 303.078671 317.134206 301.740249 319.51628 299.358175 
C 321.898353 296.976101 323.236776 293.744862 323.236776 290.376101 
C 323.236776 287.00734 321.898353 283.776102 319.51628 281.394028 
C 317.134206 279.011954 313.902967 277.673531 310.534206 277.673531 
C 307.165445 277.673531 303.934206 279.011954 301.552133 281.394028 
C 299.170059 283.776102 297.831636 287.00734 297.831636 290.376101 
C 297.831636 293.744862 299.170059 296.976101 301.552133 299.358175 
C 303.934206 301.740249 307.165445 303.078671 310.534206 303.078671 
z
" clip-path="url(#p1f1763103e)" style="fill: #4c72b0; stroke: #ffffff; stroke-width: 1.5"/>
    <path d="M 360.693034 218.79201 
C 364.402108 218.79201 367.959767 217.318379 370.582478 214.695668 
C 373.205189 212.072957 374.67882 208.515298 374.67882 204.806224 
C 374.67882 201.09715 373.205189 197.539491 370.582478 194.91678 
C 367.959767 192.294069 364.402108 190.820438 360.693034 190.820438 
C 356.98396 190.820438 353.426302 192.294069 350.80359 194.91678 
C 348.180879 197.539491 346.707249 201.09715 346.707249 204.806224 
C 346.707249 208.515298 348.180879 212.072957 350.80359 214.695668 
C 353.426302 217.318379 356.98396 218.79201 360.693034 218.79201 
z
" clip-path="url(#p1f1763103e)" style="fill: #4c72b0; stroke: #ffffff; stroke-width: 1.5"/>
    <path d="M 416.665861 362.051203 
C 419.718141 362.051203 422.645819 360.838519 424.804108 358.680231 
C 426.962396 356.521943 428.17508 353.594265 428.17508 350.541985 
C 428.17508 347.489704 426.962396 344.562026 424.804108 342.403738 
C 422.645819 340.24545 419.718141 339.032766 416.665861 339.032766 
C 413.613581 339.032766 410.685903 340.24545 408.527614 342.403738 
C 406.369326 344.562026 405.156642 347.489704 405.156642 350.541985 
C 405.156642 353.594265 406.369326 356.521943 408.527614 358.680231 
C 410.685903 360.838519 413.613581 362.051203 416.665861 362.051203 
z
" clip-path="url(#p1f1763103e)" style="fill: #4c72b0; stroke: #ffffff; stroke-width: 1.5"/>
    <path d="M 582.842975 62.14799 
C 585.358913 62.14799 587.772143 61.148397 589.551179 59.369361 
C 591.330216 57.590324 592.329808 55.177095 592.329808 52.661157 
C 592.329808 50.14522 591.330216 47.73199 589.551179 45.952953 
C 587.772143 44.173917 585.358913 43.174324 582.842975 43.174324 
C 580.327038 43.174324 577.913808 44.173917 576.134771 45.952953 
C 574.355735 47.73199 573.356142 50.14522 573.356142 52.661157 
C 573.356142 55.177095 574.355735 57.590324 576.134771 59.369361 
C 577.913808 61.148397 580.327038 62.14799 582.842975 62.14799 
z
" clip-path="url(#p1f1763103e)" style="fill: #4c72b0; stroke: #ffffff; stroke-width: 1.5"/>
    <path d="M 547.866336 229.095594 
C 550.946037 229.095594 553.900017 227.872016 556.077695 225.694338 
C 558.255372 223.51666 559.478951 220.562681 559.478951 217.482979 
C 559.478951 214.403278 558.255372 211.449299 556.077695 209.271621 
C 553.900017 207.093943 550.946037 205.870365 547.866336 205.870365 
C 544.786635 205.870365 541.832655 207.093943 539.654978 209.271621 
C 537.4773 211.449299 536.253722 214.403278 536.253722 217.482979 
C 536.253722 220.562681 537.4773 223.51666 539.654978 225.694338 
C 541.832655 227.872016 544.786635 229.095594 547.866336 229.095594 
z
" clip-path="url(#p1f1763103e)" style="fill: #4c72b0; stroke: #ffffff; stroke-width: 1.5"/>
    <path d="M 203.825009 209.521124 
C 207.64504 209.521124 211.309127 208.00341 214.010297 205.30224 
C 216.711466 202.60107 218.229181 198.936983 218.229181 195.116953 
C 218.229181 191.296922 216.711466 187.632835 214.010297 184.931665 
C 211.309127 182.230495 207.64504 180.712781 203.825009 180.712781 
C 200.004978 180.712781 196.340892 182.230495 193.639722 184.931665 
C 190.938552 187.632835 189.420838 191.296922 189.420838 195.116953 
C 189.420838 198.936983 190.938552 202.60107 193.639722 205.30224 
C 196.340892 208.00341 200.004978 209.521124 203.825009 209.521124 
z
" clip-path="url(#p1f1763103e)" style="fill: #4c72b0; stroke: #ffffff; stroke-width: 1.5"/>
    <path d="M 529.846908 314.694149 
C 532.743358 314.694149 535.521567 313.543377 537.569667 311.495278 
C 539.617767 309.447178 540.768539 306.668969 540.768539 303.772518 
C 540.768539 300.876068 539.617767 298.097858 537.569667 296.049758 
C 535.521567 294.001659 532.743358 292.850887 529.846908 292.850887 
C 526.950457 292.850887 524.172248 294.001659 522.124148 296.049758 
C 520.076048 298.097858 518.925276 300.876068 518.925276 303.772518 
C 518.925276 306.668969 520.076048 309.447178 522.124148 311.495278 
C 524.172248 313.543377 526.950457 314.694149 529.846908 314.694149 
z
" clip-path="url(#p1f1763103e)" style="fill: #4c72b0; stroke: #ffffff; stroke-width: 1.5"/>
    <path d="M 176.830711 278.18527 
C 180.539785 278.18527 184.097444 276.71164 186.720155 274.088928 
C 189.342866 271.466217 190.816497 267.908558 190.816497 264.199485 
C 190.816497 260.490411 189.342866 256.932752 186.720155 254.310041 
C 184.097444 251.68733 180.539785 250.213699 176.830711 250.213699 
C 173.121637 250.213699 169.563979 251.68733 166.941267 254.310041 
C 164.318556 256.932752 162.844926 260.490411 162.844926 264.199485 
C 162.844926 267.908558 164.318556 271.466217 166.941267 274.088928 
C 169.563979 276.71164 173.121637 278.18527 176.830711 278.18527 
z
" clip-path="url(#p1f1763103e)" style="fill: #4c72b0; stroke: #ffffff; stroke-width: 1.5"/>
    <path d="M 428.263155 460.538898 
C 430.703039 460.538898 433.043319 459.569522 434.768577 457.844264 
C 436.493835 456.119006 437.463211 453.778726 437.463211 451.338843 
C 437.463211 448.89896 436.493835 446.558679 434.768577 444.833422 
C 433.043319 443.108164 430.703039 442.138788 428.263155 442.138788 
C 425.823272 442.138788 423.482992 443.108164 421.757734 444.833422 
C 420.032476 446.558679 419.0631 448.89896 419.0631 451.338843 
C 419.0631 453.778726 420.032476 456.119006 421.757734 457.844264 
C 423.482992 459.569522 425.823272 460.538898 428.263155 460.538898 
z
" clip-path="url(#p1f1763103e)" style="fill: #4c72b0; stroke: #ffffff; stroke-width: 1.5"/>
    <path d="M 273.516048 366.949467 
C 276.479129 366.949467 279.321249 365.772223 281.416464 363.677008 
C 283.511679 361.581793 284.688924 358.739673 284.688924 355.776592 
C 284.688924 352.813511 283.511679 349.971391 281.416464 347.876176 
C 279.321249 345.780961 276.479129 344.603716 273.516048 344.603716 
C 270.552967 344.603716 267.710847 345.780961 265.615632 347.876176 
C 263.520417 349.971391 262.343173 352.813511 262.343173 355.776592 
C 262.343173 358.739673 263.520417 361.581793 265.615632 363.677008 
C 267.710847 365.772223 270.552967 366.949467 273.516048 366.949467 
z
" clip-path="url(#p1f1763103e)" style="fill: #4c72b0; stroke: #ffffff; stroke-width: 1.5"/>
    <path d="M 287.825717 250.829561 
C 292.724474 250.829561 297.423251 248.883264 300.887195 245.419319 
C 304.351139 241.955375 306.297436 237.256599 306.297436 232.357842 
C 306.297436 227.459085 304.351139 222.760309 300.887195 219.296364 
C 297.423251 215.83242 292.724474 213.886123 287.825717 213.886123 
C 282.92696 213.886123 278.228184 215.83242 274.76424 219.296364 
C 271.300295 222.760309 269.353999 227.459085 269.353999 232.357842 
C 269.353999 237.256599 271.300295 241.955375 274.76424 245.419319 
C 278.228184 248.883264 282.92696 250.829561 287.825717 250.829561 
z
" clip-path="url(#p1f1763103e)" style="fill: #4c72b0; stroke: #ffffff; stroke-width: 1.5"/>
    <path d="M 65.157025 227.743906 
C 68.597738 227.743906 71.897992 226.376896 74.330944 223.943944 
C 76.763896 221.510992 78.130906 218.210738 78.130906 214.770024 
C 78.130906 211.329311 76.763896 208.029057 74.330944 205.596105 
C 71.897992 203.163153 68.597738 201.796143 65.157025 201.796143 
C 61.716311 201.796143 58.416057 203.163153 55.983105 205.596105 
C 53.550153 208.029057 52.183144 211.329311 52.183144 214.770024 
C 52.183144 218.210738 53.550153 221.510992 55.983105 223.943944 
C 58.416057 226.376896 61.716311 227.743906 65.157025 227.743906 
z
" clip-path="url(#p1f1763103e)" style="fill: #4c72b0; stroke: #ffffff; stroke-width: 1.5"/>
    <path d="M 302.068393 156.765358 
C 305.607264 156.765358 309.001669 155.359349 311.504029 152.856989 
C 314.00639 150.354629 315.412398 146.960224 315.412398 143.421352 
C 315.412398 139.88248 314.00639 136.488075 311.504029 133.985715 
C 309.001669 131.483355 305.607264 130.077346 302.068393 130.077346 
C 298.529521 130.077346 295.135116 131.483355 292.632756 133.985715 
C 290.130396 136.488075 288.724387 139.88248 288.724387 143.421352 
C 288.724387 146.960224 290.130396 150.354629 292.632756 152.856989 
C 295.135116 155.359349 298.529521 156.765358 302.068393 156.765358 
z
" clip-path="url(#p1f1763103e)" style="fill: #4c72b0; stroke: #ffffff; stroke-width: 1.5"/>
    <path d="M 421.808356 264.207464 
C 425.718029 264.207464 429.468098 262.654134 432.232655 259.889578 
C 434.997211 257.125022 436.550541 253.374952 436.550541 249.465279 
C 436.550541 245.555606 434.997211 241.805537 432.232655 239.040981 
C 429.468098 236.276424 425.718029 234.723095 421.808356 234.723095 
C 417.898683 234.723095 414.148614 236.276424 411.384057 239.040981 
C 408.619501 241.805537 407.066172 245.555606 407.066172 249.465279 
C 407.066172 253.374952 408.619501 257.125022 411.384057 259.889578 
C 414.148614 262.654134 417.898683 264.207464 421.808356 264.207464 
z
" clip-path="url(#p1f1763103e)" style="fill: #4c72b0; stroke: #ffffff; stroke-width: 1.5"/>
   </g>
   <g id="text_1">
    <g clip-path="url(#p1f1763103e)">
     <!-- actor_network -->
     <g transform="translate(281.979831 292.472351) scale(0.08 -0.08)">
      <defs>
       <path id="DejaVuSans-61" d="M 2194 1759 
Q 1497 1759 1228 1600 
Q 959 1441 959 1056 
Q 959 750 1161 570 
Q 1363 391 1709 391 
Q 2188 391 2477 730 
Q 2766 1069 2766 1631 
L 2766 1759 
L 2194 1759 
z
M 3341 1997 
L 3341 0 
L 2766 0 
L 2766 531 
Q 2569 213 2275 61 
Q 1981 -91 1556 -91 
Q 1019 -91 701 211 
Q 384 513 384 1019 
Q 384 1609 779 1909 
Q 1175 2209 1959 2209 
L 2766 2209 
L 2766 2266 
Q 2766 2663 2505 2880 
Q 2244 3097 1772 3097 
Q 1472 3097 1187 3025 
Q 903 2953 641 2809 
L 641 3341 
Q 956 3463 1253 3523 
Q 1550 3584 1831 3584 
Q 2591 3584 2966 3190 
Q 3341 2797 3341 1997 
z
" transform="scale(0.015625)"/>
       <path id="DejaVuSans-63" d="M 3122 3366 
L 3122 2828 
Q 2878 2963 2633 3030 
Q 2388 3097 2138 3097 
Q 1578 3097 1268 2742 
Q 959 2388 959 1747 
Q 959 1106 1268 751 
Q 1578 397 2138 397 
Q 2388 397 2633 464 
Q 2878 531 3122 666 
L 3122 134 
Q 2881 22 2623 -34 
Q 2366 -91 2075 -91 
Q 1284 -91 818 406 
Q 353 903 353 1747 
Q 353 2603 823 3093 
Q 1294 3584 2113 3584 
Q 2378 3584 2631 3529 
Q 2884 3475 3122 3366 
z
" transform="scale(0.015625)"/>
       <path id="DejaVuSans-74" d="M 1172 4494 
L 1172 3500 
L 2356 3500 
L 2356 3053 
L 1172 3053 
L 1172 1153 
Q 1172 725 1289 603 
Q 1406 481 1766 481 
L 2356 481 
L 2356 0 
L 1766 0 
Q 1100 0 847 248 
Q 594 497 594 1153 
L 594 3053 
L 172 3053 
L 172 3500 
L 594 3500 
L 594 4494 
L 1172 4494 
z
" transform="scale(0.015625)"/>
       <path id="DejaVuSans-6f" d="M 1959 3097 
Q 1497 3097 1228 2736 
Q 959 2375 959 1747 
Q 959 1119 1226 758 
Q 1494 397 1959 397 
Q 2419 397 2687 759 
Q 2956 1122 2956 1747 
Q 2956 2369 2687 2733 
Q 2419 3097 1959 3097 
z
M 1959 3584 
Q 2709 3584 3137 3096 
Q 3566 2609 3566 1747 
Q 3566 888 3137 398 
Q 2709 -91 1959 -91 
Q 1206 -91 779 398 
Q 353 888 353 1747 
Q 353 2609 779 3096 
Q 1206 3584 1959 3584 
z
" transform="scale(0.015625)"/>
       <path id="DejaVuSans-72" d="M 2631 2963 
Q 2534 3019 2420 3045 
Q 2306 3072 2169 3072 
Q 1681 3072 1420 2755 
Q 1159 2438 1159 1844 
L 1159 0 
L 581 0 
L 581 3500 
L 1159 3500 
L 1159 2956 
Q 1341 3275 1631 3429 
Q 1922 3584 2338 3584 
Q 2397 3584 2469 3576 
Q 2541 3569 2628 3553 
L 2631 2963 
z
" transform="scale(0.015625)"/>
       <path id="DejaVuSans-5f" d="M 3263 -1063 
L 3263 -1509 
L -63 -1509 
L -63 -1063 
L 3263 -1063 
z
" transform="scale(0.015625)"/>
       <path id="DejaVuSans-6e" d="M 3513 2113 
L 3513 0 
L 2938 0 
L 2938 2094 
Q 2938 2591 2744 2837 
Q 2550 3084 2163 3084 
Q 1697 3084 1428 2787 
Q 1159 2491 1159 1978 
L 1159 0 
L 581 0 
L 581 3500 
L 1159 3500 
L 1159 2956 
Q 1366 3272 1645 3428 
Q 1925 3584 2291 3584 
Q 2894 3584 3203 3211 
Q 3513 2838 3513 2113 
z
" transform="scale(0.015625)"/>
       <path id="DejaVuSans-65" d="M 3597 1894 
L 3597 1613 
L 953 1613 
Q 991 1019 1311 708 
Q 1631 397 2203 397 
Q 2534 397 2845 478 
Q 3156 559 3463 722 
L 3463 178 
Q 3153 47 2828 -22 
Q 2503 -91 2169 -91 
Q 1331 -91 842 396 
Q 353 884 353 1716 
Q 353 2575 817 3079 
Q 1281 3584 2069 3584 
Q 2775 3584 3186 3129 
Q 3597 2675 3597 1894 
z
M 3022 2063 
Q 3016 2534 2758 2815 
Q 2500 3097 2075 3097 
Q 1594 3097 1305 2825 
Q 1016 2553 972 2059 
L 3022 2063 
z
" transform="scale(0.015625)"/>
       <path id="DejaVuSans-77" d="M 269 3500 
L 844 3500 
L 1563 769 
L 2278 3500 
L 2956 3500 
L 3675 769 
L 4391 3500 
L 4966 3500 
L 4050 0 
L 3372 0 
L 2619 2869 
L 1863 0 
L 1184 0 
L 269 3500 
z
" transform="scale(0.015625)"/>
       <path id="DejaVuSans-6b" d="M 581 4863 
L 1159 4863 
L 1159 1991 
L 2875 3500 
L 3609 3500 
L 1753 1863 
L 3688 0 
L 2938 0 
L 1159 1709 
L 1159 0 
L 581 0 
L 581 4863 
z
" transform="scale(0.015625)"/>
      </defs>
      <use xlink:href="#DejaVuSans-61"/>
      <use xlink:href="#DejaVuSans-63" transform="translate(61.279297 0)"/>
      <use xlink:href="#DejaVuSans-74" transform="translate(116.259766 0)"/>
      <use xlink:href="#DejaVuSans-6f" transform="translate(155.46875 0)"/>
      <use xlink:href="#DejaVuSans-72" transform="translate(216.650391 0)"/>
      <use xlink:href="#DejaVuSans-5f" transform="translate(257.763672 0)"/>
      <use xlink:href="#DejaVuSans-6e" transform="translate(307.763672 0)"/>
      <use xlink:href="#DejaVuSans-65" transform="translate(371.142578 0)"/>
      <use xlink:href="#DejaVuSans-74" transform="translate(432.666016 0)"/>
      <use xlink:href="#DejaVuSans-77" transform="translate(471.875 0)"/>
      <use xlink:href="#DejaVuSans-6f" transform="translate(553.662109 0)"/>
      <use xlink:href="#DejaVuSans-72" transform="translate(614.84375 0)"/>
      <use xlink:href="#DejaVuSans-6b" transform="translate(655.957031 0)"/>
     </g>
    </g>
   </g>
   <g id="text_2">
    <g clip-path="url(#p1f1763103e)">
     <!-- articulation -->
     <g transform="translate(337.959284 207.013724) scale(0.08 -0.08)">
      <defs>
       <path id="DejaVuSans-69" d="M 603 3500 
L 1178 3500 
L 1178 0 
L 603 0 
L 603 3500 
z
M 603 4863 
L 1178 4863 
L 1178 4134 
L 603 4134 
L 603 4863 
z
" transform="scale(0.015625)"/>
       <path id="DejaVuSans-75" d="M 544 1381 
L 544 3500 
L 1119 3500 
L 1119 1403 
Q 1119 906 1312 657 
Q 1506 409 1894 409 
Q 2359 409 2629 706 
Q 2900 1003 2900 1516 
L 2900 3500 
L 3475 3500 
L 3475 0 
L 2900 0 
L 2900 538 
Q 2691 219 2414 64 
Q 2138 -91 1772 -91 
Q 1169 -91 856 284 
Q 544 659 544 1381 
z
M 1991 3584 
L 1991 3584 
z
" transform="scale(0.015625)"/>
       <path id="DejaVuSans-6c" d="M 603 4863 
L 1178 4863 
L 1178 0 
L 603 0 
L 603 4863 
z
" transform="scale(0.015625)"/>
      </defs>
      <use xlink:href="#DejaVuSans-61"/>
      <use xlink:href="#DejaVuSans-72" transform="translate(61.279297 0)"/>
      <use xlink:href="#DejaVuSans-74" transform="translate(102.392578 0)"/>
      <use xlink:href="#DejaVuSans-69" transform="translate(141.601562 0)"/>
      <use xlink:href="#DejaVuSans-63" transform="translate(169.384766 0)"/>
      <use xlink:href="#DejaVuSans-75" transform="translate(224.365234 0)"/>
      <use xlink:href="#DejaVuSans-6c" transform="translate(287.744141 0)"/>
      <use xlink:href="#DejaVuSans-61" transform="translate(315.527344 0)"/>
      <use xlink:href="#DejaVuSans-74" transform="translate(376.806641 0)"/>
      <use xlink:href="#DejaVuSans-69" transform="translate(416.015625 0)"/>
      <use xlink:href="#DejaVuSans-6f" transform="translate(443.798828 0)"/>
      <use xlink:href="#DejaVuSans-6e" transform="translate(504.980469 0)"/>
     </g>
    </g>
   </g>
   <g id="text_3">
    <g clip-path="url(#p1f1763103e)">
     <!-- black_box -->
     <g transform="translate(396.818986 352.638235) scale(0.08 -0.08)">
      <defs>
       <path id="DejaVuSans-62" d="M 3116 1747 
Q 3116 2381 2855 2742 
Q 2594 3103 2138 3103 
Q 1681 3103 1420 2742 
Q 1159 2381 1159 1747 
Q 1159 1113 1420 752 
Q 1681 391 2138 391 
Q 2594 391 2855 752 
Q 3116 1113 3116 1747 
z
M 1159 2969 
Q 1341 3281 1617 3432 
Q 1894 3584 2278 3584 
Q 2916 3584 3314 3078 
Q 3713 2572 3713 1747 
Q 3713 922 3314 415 
Q 2916 -91 2278 -91 
Q 1894 -91 1617 61 
Q 1341 213 1159 525 
L 1159 0 
L 581 0 
L 581 4863 
L 1159 4863 
L 1159 2969 
z
" transform="scale(0.015625)"/>
       <path id="DejaVuSans-78" d="M 3513 3500 
L 2247 1797 
L 3578 0 
L 2900 0 
L 1881 1375 
L 863 0 
L 184 0 
L 1544 1831 
L 300 3500 
L 978 3500 
L 1906 2253 
L 2834 3500 
L 3513 3500 
z
" transform="scale(0.015625)"/>
      </defs>
      <use xlink:href="#DejaVuSans-62"/>
      <use xlink:href="#DejaVuSans-6c" transform="translate(63.476562 0)"/>
      <use xlink:href="#DejaVuSans-61" transform="translate(91.259766 0)"/>
      <use xlink:href="#DejaVuSans-63" transform="translate(152.539062 0)"/>
      <use xlink:href="#DejaVuSans-6b" transform="translate(207.519531 0)"/>
      <use xlink:href="#DejaVuSans-5f" transform="translate(265.429688 0)"/>
      <use xlink:href="#DejaVuSans-62" transform="translate(315.429688 0)"/>
      <use xlink:href="#DejaVuSans-6f" transform="translate(378.90625 0)"/>
      <use xlink:href="#DejaVuSans-78" transform="translate(436.962891 0)"/>
     </g>
    </g>
   </g>
   <g id="text_4">
    <g clip-path="url(#p1f1763103e)">
     <!-- centre_of_calculation -->
     <g transform="translate(540.48735 54.757407) scale(0.08 -0.08)">
      <defs>
       <path id="DejaVuSans-66" d="M 2375 4863 
L 2375 4384 
L 1825 4384 
Q 1516 4384 1395 4259 
Q 1275 4134 1275 3809 
L 1275 3500 
L 2222 3500 
L 2222 3053 
L 1275 3053 
L 1275 0 
L 697 0 
L 697 3053 
L 147 3053 
L 147 3500 
L 697 3500 
L 697 3744 
Q 697 4328 969 4595 
Q 1241 4863 1831 4863 
L 2375 4863 
z
" transform="scale(0.015625)"/>
      </defs>
      <use xlink:href="#DejaVuSans-63"/>
      <use xlink:href="#DejaVuSans-65" transform="translate(54.980469 0)"/>
      <use xlink:href="#DejaVuSans-6e" transform="translate(116.503906 0)"/>
      <use xlink:href="#DejaVuSans-74" transform="translate(179.882812 0)"/>
      <use xlink:href="#DejaVuSans-72" transform="translate(219.091797 0)"/>
      <use xlink:href="#DejaVuSans-65" transform="translate(257.955078 0)"/>
      <use xlink:href="#DejaVuSans-5f" transform="translate(319.478516 0)"/>
      <use xlink:href="#DejaVuSans-6f" transform="translate(369.478516 0)"/>
      <use xlink:href="#DejaVuSans-66" transform="translate(430.660156 0)"/>
      <use xlink:href="#DejaVuSans-5f" transform="translate(465.865234 0)"/>
      <use xlink:href="#DejaVuSans-63" transform="translate(515.865234 0)"/>
      <use xlink:href="#DejaVuSans-61" transform="translate(570.845703 0)"/>
      <use xlink:href="#DejaVuSans-6c" transform="translate(632.125 0)"/>
      <use xlink:href="#DejaVuSans-63" transform="translate(659.908203 0)"/>
      <use xlink:href="#DejaVuSans-75" transform="translate(714.888672 0)"/>
      <use xlink:href="#DejaVuSans-6c" transform="translate(778.267578 0)"/>
      <use xlink:href="#DejaVuSans-61" transform="translate(806.050781 0)"/>
      <use xlink:href="#DejaVuSans-74" transform="translate(867.330078 0)"/>
      <use xlink:href="#DejaVuSans-69" transform="translate(906.539062 0)"/>
      <use xlink:href="#DejaVuSans-6f" transform="translate(934.322266 0)"/>
      <use xlink:href="#DejaVuSans-6e" transform="translate(995.503906 0)"/>
     </g>
    </g>
   </g>
   <g id="text_5">
    <g clip-path="url(#p1f1763103e)">
     <!-- circulating_reference -->
     <g transform="translate(505.854461 219.579229) scale(0.08 -0.08)">
      <defs>
       <path id="DejaVuSans-67" d="M 2906 1791 
Q 2906 2416 2648 2759 
Q 2391 3103 1925 3103 
Q 1463 3103 1205 2759 
Q 947 2416 947 1791 
Q 947 1169 1205 825 
Q 1463 481 1925 481 
Q 2391 481 2648 825 
Q 2906 1169 2906 1791 
z
M 3481 434 
Q 3481 -459 3084 -895 
Q 2688 -1331 1869 -1331 
Q 1566 -1331 1297 -1286 
Q 1028 -1241 775 -1147 
L 775 -588 
Q 1028 -725 1275 -790 
Q 1522 -856 1778 -856 
Q 2344 -856 2625 -561 
Q 2906 -266 2906 331 
L 2906 616 
Q 2728 306 2450 153 
Q 2172 0 1784 0 
Q 1141 0 747 490 
Q 353 981 353 1791 
Q 353 2603 747 3093 
Q 1141 3584 1784 3584 
Q 2172 3584 2450 3431 
Q 2728 3278 2906 2969 
L 2906 3500 
L 3481 3500 
L 3481 434 
z
" transform="scale(0.015625)"/>
      </defs>
      <use xlink:href="#DejaVuSans-63"/>
      <use xlink:href="#DejaVuSans-69" transform="translate(54.980469 0)"/>
      <use xlink:href="#DejaVuSans-72" transform="translate(82.763672 0)"/>
      <use xlink:href="#DejaVuSans-63" transform="translate(121.626953 0)"/>
      <use xlink:href="#DejaVuSans-75" transform="translate(176.607422 0)"/>
      <use xlink:href="#DejaVuSans-6c" transform="translate(239.986328 0)"/>
      <use xlink:href="#DejaVuSans-61" transform="translate(267.769531 0)"/>
      <use xlink:href="#DejaVuSans-74" transform="translate(329.048828 0)"/>
      <use xlink:href="#DejaVuSans-69" transform="translate(368.257812 0)"/>
      <use xlink:href="#DejaVuSans-6e" transform="translate(396.041016 0)"/>
      <use xlink:href="#DejaVuSans-67" transform="translate(459.419922 0)"/>
      <use xlink:href="#DejaVuSans-5f" transform="translate(522.896484 0)"/>
      <use xlink:href="#DejaVuSans-72" transform="translate(572.896484 0)"/>
      <use xlink:href="#DejaVuSans-65" transform="translate(611.759766 0)"/>
      <use xlink:href="#DejaVuSans-66" transform="translate(673.283203 0)"/>
      <use xlink:href="#DejaVuSans-65" transform="translate(708.488281 0)"/>
      <use xlink:href="#DejaVuSans-72" transform="translate(770.011719 0)"/>
      <use xlink:href="#DejaVuSans-65" transform="translate(808.875 0)"/>
      <use xlink:href="#DejaVuSans-6e" transform="translate(870.398438 0)"/>
      <use xlink:href="#DejaVuSans-63" transform="translate(933.777344 0)"/>
      <use xlink:href="#DejaVuSans-65" transform="translate(988.757812 0)"/>
     </g>
    </g>
   </g>
   <g id="text_6">
    <g clip-path="url(#p1f1763103e)">
     <!-- construction -->
     <g transform="translate(178.950634 197.324453) scale(0.08 -0.08)">
      <defs>
       <path id="DejaVuSans-73" d="M 2834 3397 
L 2834 2853 
Q 2591 2978 2328 3040 
Q 2066 3103 1784 3103 
Q 1356 3103 1142 2972 
Q 928 2841 928 2578 
Q 928 2378 1081 2264 
Q 1234 2150 1697 2047 
L 1894 2003 
Q 2506 1872 2764 1633 
Q 3022 1394 3022 966 
Q 3022 478 2636 193 
Q 2250 -91 1575 -91 
Q 1294 -91 989 -36 
Q 684 19 347 128 
L 347 722 
Q 666 556 975 473 
Q 1284 391 1588 391 
Q 1994 391 2212 530 
Q 2431 669 2431 922 
Q 2431 1156 2273 1281 
Q 2116 1406 1581 1522 
L 1381 1569 
Q 847 1681 609 1914 
Q 372 2147 372 2553 
Q 372 3047 722 3315 
Q 1072 3584 1716 3584 
Q 2034 3584 2315 3537 
Q 2597 3491 2834 3397 
z
" transform="scale(0.015625)"/>
      </defs>
      <use xlink:href="#DejaVuSans-63"/>
      <use xlink:href="#DejaVuSans-6f" transform="translate(54.980469 0)"/>
      <use xlink:href="#DejaVuSans-6e" transform="translate(116.162109 0)"/>
      <use xlink:href="#DejaVuSans-73" transform="translate(179.541016 0)"/>
      <use xlink:href="#DejaVuSans-74" transform="translate(231.640625 0)"/>
      <use xlink:href="#DejaVuSans-72" transform="translate(270.849609 0)"/>
      <use xlink:href="#DejaVuSans-75" transform="translate(311.962891 0)"/>
      <use xlink:href="#DejaVuSans-63" transform="translate(375.341797 0)"/>
      <use xlink:href="#DejaVuSans-74" transform="translate(430.322266 0)"/>
      <use xlink:href="#DejaVuSans-69" transform="translate(469.53125 0)"/>
      <use xlink:href="#DejaVuSans-6f" transform="translate(497.314453 0)"/>
      <use xlink:href="#DejaVuSans-6e" transform="translate(558.496094 0)"/>
     </g>
    </g>
   </g>
   <g id="text_7">
    <g clip-path="url(#p1f1763103e)">
     <!-- enrollment -->
     <g transform="translate(508.165658 305.980018) scale(0.08 -0.08)">
      <defs>
       <path id="DejaVuSans-6d" d="M 3328 2828 
Q 3544 3216 3844 3400 
Q 4144 3584 4550 3584 
Q 5097 3584 5394 3201 
Q 5691 2819 5691 2113 
L 5691 0 
L 5113 0 
L 5113 2094 
Q 5113 2597 4934 2840 
Q 4756 3084 4391 3084 
Q 3944 3084 3684 2787 
Q 3425 2491 3425 1978 
L 3425 0 
L 2847 0 
L 2847 2094 
Q 2847 2600 2669 2842 
Q 2491 3084 2119 3084 
Q 1678 3084 1418 2786 
Q 1159 2488 1159 1978 
L 1159 0 
L 581 0 
L 581 3500 
L 1159 3500 
L 1159 2956 
Q 1356 3278 1631 3431 
Q 1906 3584 2284 3584 
Q 2666 3584 2933 3390 
Q 3200 3197 3328 2828 
z
" transform="scale(0.015625)"/>
      </defs>
      <use xlink:href="#DejaVuSans-65"/>
      <use xlink:href="#DejaVuSans-6e" transform="translate(61.523438 0)"/>
      <use xlink:href="#DejaVuSans-72" transform="translate(124.902344 0)"/>
      <use xlink:href="#DejaVuSans-6f" transform="translate(163.765625 0)"/>
      <use xlink:href="#DejaVuSans-6c" transform="translate(224.947266 0)"/>
      <use xlink:href="#DejaVuSans-6c" transform="translate(252.730469 0)"/>
      <use xlink:href="#DejaVuSans-6d" transform="translate(280.513672 0)"/>
      <use xlink:href="#DejaVuSans-65" transform="translate(377.925781 0)"/>
      <use xlink:href="#DejaVuSans-6e" transform="translate(439.449219 0)"/>
      <use xlink:href="#DejaVuSans-74" transform="translate(502.828125 0)"/>
     </g>
    </g>
   </g>
   <g id="text_8">
    <g clip-path="url(#p1f1763103e)">
     <!-- factish -->
     <g transform="translate(163.473836 266.406985) scale(0.08 -0.08)">
      <defs>
       <path id="DejaVuSans-68" d="M 3513 2113 
L 3513 0 
L 2938 0 
L 2938 2094 
Q 2938 2591 2744 2837 
Q 2550 3084 2163 3084 
Q 1697 3084 1428 2787 
Q 1159 2491 1159 1978 
L 1159 0 
L 581 0 
L 581 4863 
L 1159 4863 
L 1159 2956 
Q 1366 3272 1645 3428 
Q 1925 3584 2291 3584 
Q 2894 3584 3203 3211 
Q 3513 2838 3513 2113 
z
" transform="scale(0.015625)"/>
      </defs>
      <use xlink:href="#DejaVuSans-66"/>
      <use xlink:href="#DejaVuSans-61" transform="translate(35.205078 0)"/>
      <use xlink:href="#DejaVuSans-63" transform="translate(96.484375 0)"/>
      <use xlink:href="#DejaVuSans-74" transform="translate(151.464844 0)"/>
      <use xlink:href="#DejaVuSans-69" transform="translate(190.673828 0)"/>
      <use xlink:href="#DejaVuSans-73" transform="translate(218.457031 0)"/>
      <use xlink:href="#DejaVuSans-68" transform="translate(270.556641 0)"/>
     </g>
    </g>
   </g>
   <g id="text_9">
    <g clip-path="url(#p1f1763103e)">
     <!-- immutable_mobile -->
     <g transform="translate(391.12628 453.435093) scale(0.08 -0.08)">
      <use xlink:href="#DejaVuSans-69"/>
      <use xlink:href="#DejaVuSans-6d" transform="translate(27.783203 0)"/>
      <use xlink:href="#DejaVuSans-6d" transform="translate(125.195312 0)"/>
      <use xlink:href="#DejaVuSans-75" transform="translate(222.607422 0)"/>
      <use xlink:href="#DejaVuSans-74" transform="translate(285.986328 0)"/>
      <use xlink:href="#DejaVuSans-61" transform="translate(325.195312 0)"/>
      <use xlink:href="#DejaVuSans-62" transform="translate(386.474609 0)"/>
      <use xlink:href="#DejaVuSans-6c" transform="translate(449.951172 0)"/>
      <use xlink:href="#DejaVuSans-65" transform="translate(477.734375 0)"/>
      <use xlink:href="#DejaVuSans-5f" transform="translate(539.257812 0)"/>
      <use xlink:href="#DejaVuSans-6d" transform="translate(589.257812 0)"/>
      <use xlink:href="#DejaVuSans-6f" transform="translate(686.669922 0)"/>
      <use xlink:href="#DejaVuSans-62" transform="translate(747.851562 0)"/>
      <use xlink:href="#DejaVuSans-69" transform="translate(811.328125 0)"/>
      <use xlink:href="#DejaVuSans-6c" transform="translate(839.111328 0)"/>
      <use xlink:href="#DejaVuSans-65" transform="translate(866.894531 0)"/>
     </g>
    </g>
   </g>
   <g id="text_10">
    <g clip-path="url(#p1f1763103e)">
     <!-- inscription -->
     <g transform="translate(252.629798 357.984092) scale(0.08 -0.08)">
      <defs>
       <path id="DejaVuSans-70" d="M 1159 525 
L 1159 -1331 
L 581 -1331 
L 581 3500 
L 1159 3500 
L 1159 2969 
Q 1341 3281 1617 3432 
Q 1894 3584 2278 3584 
Q 2916 3584 3314 3078 
Q 3713 2572 3713 1747 
Q 3713 922 3314 415 
Q 2916 -91 2278 -91 
Q 1894 -91 1617 61 
Q 1341 213 1159 525 
z
M 3116 1747 
Q 3116 2381 2855 2742 
Q 2594 3103 2138 3103 
Q 1681 3103 1420 2742 
Q 1159 2381 1159 1747 
Q 1159 1113 1420 752 
Q 1681 391 2138 391 
Q 2594 391 2855 752 
Q 3116 1113 3116 1747 
z
" transform="scale(0.015625)"/>
      </defs>
      <use xlink:href="#DejaVuSans-69"/>
      <use xlink:href="#DejaVuSans-6e" transform="translate(27.783203 0)"/>
      <use xlink:href="#DejaVuSans-73" transform="translate(91.162109 0)"/>
      <use xlink:href="#DejaVuSans-63" transform="translate(143.261719 0)"/>
      <use xlink:href="#DejaVuSans-72" transform="translate(198.242188 0)"/>
      <use xlink:href="#DejaVuSans-69" transform="translate(239.355469 0)"/>
      <use xlink:href="#DejaVuSans-70" transform="translate(267.138672 0)"/>
      <use xlink:href="#DejaVuSans-74" transform="translate(330.615234 0)"/>
      <use xlink:href="#DejaVuSans-69" transform="translate(369.824219 0)"/>
      <use xlink:href="#DejaVuSans-6f" transform="translate(397.607422 0)"/>
      <use xlink:href="#DejaVuSans-6e" transform="translate(458.789062 0)"/>
     </g>
    </g>
   </g>
   <g id="text_11">
    <g clip-path="url(#p1f1763103e)">
     <!-- militar -->
     <g transform="translate(274.931967 234.565342) scale(0.08 -0.08)">
      <use xlink:href="#DejaVuSans-6d"/>
      <use xlink:href="#DejaVuSans-69" transform="translate(97.412109 0)"/>
      <use xlink:href="#DejaVuSans-6c" transform="translate(125.195312 0)"/>
      <use xlink:href="#DejaVuSans-69" transform="translate(152.978516 0)"/>
      <use xlink:href="#DejaVuSans-74" transform="translate(180.761719 0)"/>
      <use xlink:href="#DejaVuSans-61" transform="translate(219.970703 0)"/>
      <use xlink:href="#DejaVuSans-72" transform="translate(281.25 0)"/>
     </g>
    </g>
   </g>
   <g id="text_12">
    <g clip-path="url(#p1f1763103e)">
     <!-- network -->
     <g transform="translate(48.913275 216.977524) scale(0.08 -0.08)">
      <use xlink:href="#DejaVuSans-6e"/>
      <use xlink:href="#DejaVuSans-65" transform="translate(63.378906 0)"/>
      <use xlink:href="#DejaVuSans-74" transform="translate(124.902344 0)"/>
      <use xlink:href="#DejaVuSans-77" transform="translate(164.111328 0)"/>
      <use xlink:href="#DejaVuSans-6f" transform="translate(245.898438 0)"/>
      <use xlink:href="#DejaVuSans-72" transform="translate(307.080078 0)"/>
      <use xlink:href="#DejaVuSans-6b" transform="translate(348.193359 0)"/>
     </g>
    </g>
   </g>
   <g id="text_13">
    <g clip-path="url(#p1f1763103e)">
     <!-- proposition -->
     <g transform="translate(279.683393 145.628852) scale(0.08 -0.08)">
      <use xlink:href="#DejaVuSans-70"/>
      <use xlink:href="#DejaVuSans-72" transform="translate(63.476562 0)"/>
      <use xlink:href="#DejaVuSans-6f" transform="translate(102.339844 0)"/>
      <use xlink:href="#DejaVuSans-70" transform="translate(163.521484 0)"/>
      <use xlink:href="#DejaVuSans-6f" transform="translate(226.998047 0)"/>
      <use xlink:href="#DejaVuSans-73" transform="translate(288.179688 0)"/>
      <use xlink:href="#DejaVuSans-69" transform="translate(340.279297 0)"/>
      <use xlink:href="#DejaVuSans-74" transform="translate(368.0625 0)"/>
      <use xlink:href="#DejaVuSans-69" transform="translate(407.271484 0)"/>
      <use xlink:href="#DejaVuSans-6f" transform="translate(435.054688 0)"/>
      <use xlink:href="#DejaVuSans-6e" transform="translate(496.236328 0)"/>
     </g>
    </g>
   </g>
   <g id="text_14">
    <g clip-path="url(#p1f1763103e)">
     <!-- translation -->
     <g transform="translate(400.301481 251.672779) scale(0.08 -0.08)">
      <use xlink:href="#DejaVuSans-74"/>
      <use xlink:href="#DejaVuSans-72" transform="translate(39.208984 0)"/>
      <use xlink:href="#DejaVuSans-61" transform="translate(80.322266 0)"/>
      <use xlink:href="#DejaVuSans-6e" transform="translate(141.601562 0)"/>
      <use xlink:href="#DejaVuSans-73" transform="translate(204.980469 0)"/>
      <use xlink:href="#DejaVuSans-6c" transform="translate(257.080078 0)"/>
      <use xlink:href="#DejaVuSans-61" transform="translate(284.863281 0)"/>
      <use xlink:href="#DejaVuSans-74" transform="translate(346.142578 0)"/>
      <use xlink:href="#DejaVuSans-69" transform="translate(385.351562 0)"/>
      <use xlink:href="#DejaVuSans-6f" transform="translate(413.134766 0)"/>
      <use xlink:href="#DejaVuSans-6e" transform="translate(474.316406 0)"/>
     </g>
    </g>
   </g>
  </g>
 </g>
 <defs>
  <clipPath id="p1f1763103e">
   <rect x="10.8" y="10.8" width="626.4" height="482.4"/>
  </clipPath>
 </defs>
</svg>
