<?xml version="1.0" encoding="utf-8" standalone="no"?>
<!DOCTYPE svg PUBLIC "-//W3C//DTD SVG 1.1//EN"
  "http://www.w3.org/Graphics/SVG/1.1/DTD/svg11.dtd">
<svg xmlns:xlink="http://www.w3.org/1999/xlink" width="648pt" height="504pt" viewBox="0 0 648 504" xmlns="http://www.w3.org/2000/svg" version="1.1">
 <metadata>
  <rdf:RDF xmlns:dc="http://purl.org/dc/elements/1.1/" xmlns:cc="http://creativecommons.org/ns#" xmlns:rdf="http://www.w3.org/1999/02/22-rdf-syntax-ns#">
   <cc:Work>
    <dc:type rdf:resource="http://purl.org/dc/dcmitype/StillImage"/>
    <dc:date>2026-05-14T01:36:24.844959</dc:date>
    <dc:format>image/svg+xml</dc:format>
    <dc:creator>
     <cc:Agent>
      <dc:title>Matplotlib v3.10.9, https://matplotlib.org/</dc:title>
     </cc:Agent>
    </dc:creator>
   </cc:Work>
  </rdf:RDF>
 </metadata>
 <defs>
  <style type="text/css">*{stroke-linejoin: round; stroke-linecap: butt}</style>
 </defs>
 <g id="figure_1">
  <g id="patch_1">
   <path d="M 0 504 
L 648 504 
L 648 0 
L 0 0 
z
" style="fill: #ffffff"/>
  </g>
  <g id="axes_1">
   <g id="LineCollection_1">
    <path d="M 310.534206 297.288259 
L 547.866336 226.879306 
" clip-path="url(#p953e2a5573)" style="fill: none; stroke: #000000; stroke-opacity: 0.45; stroke-width: 0.7"/>
    <path d="M 310.534206 297.288259 
L 287.825717 241.247239 
" clip-path="url(#p953e2a5573)" style="fill: none; stroke: #000000; stroke-opacity: 0.45; stroke-width: 1.741641"/>
    <path d="M 310.534206 297.288259 
L 203.825009 205.275504 
" clip-path="url(#p953e2a5573)" style="fill: none; stroke: #000000; stroke-opacity: 0.45; stroke-width: 1.134847"/>
    <path d="M 310.534206 297.288259 
L 302.068393 155.341669 
" clip-path="url(#p953e2a5573)" style="fill: none; stroke: #000000; stroke-opacity: 0.45; stroke-width: 1.248528"/>
    <path d="M 310.534206 297.288259 
L 360.693034 214.634569 
" clip-path="url(#p953e2a5573)" style="fill: none; stroke: #000000; stroke-opacity: 0.45; stroke-width: 1.394987"/>
    <path d="M 310.534206 297.288259 
L 65.157025 224.258807 
" clip-path="url(#p953e2a5573)" style="fill: none; stroke: #000000; stroke-opacity: 0.45; stroke-width: 1.07082"/>
    <path d="M 310.534206 297.288259 
L 416.665861 355.403713 
" clip-path="url(#p953e2a5573)" style="fill: none; stroke: #000000; stroke-opacity: 0.45; stroke-width: 1.774773"/>
    <path d="M 310.534206 297.288259 
L 421.808356 257.771662 
" clip-path="url(#p953e2a5573)" style="fill: none; stroke: #000000; stroke-opacity: 0.45; stroke-width: 1.193725"/>
    <path d="M 310.534206 297.288259 
L 529.846908 310.228131 
" clip-path="url(#p953e2a5573)" style="fill: none; stroke: #000000; stroke-opacity: 0.45; stroke-width: 1.134847"/>
    <path d="M 360.693034 214.634569 
L 203.825009 205.275504 
" clip-path="url(#p953e2a5573)" style="fill: none; stroke: #000000; stroke-opacity: 0.45; stroke-width: 1.07082"/>
    <path d="M 360.693034 214.634569 
L 65.157025 224.258807 
" clip-path="url(#p953e2a5573)" style="fill: none; stroke: #000000; stroke-opacity: 0.45; stroke-width: 0.919615"/>
    <path d="M 360.693034 214.634569 
L 287.825717 241.247239 
" clip-path="url(#p953e2a5573)" style="fill: none; stroke: #000000; stroke-opacity: 0.45; stroke-width: 1.43923"/>
    <path d="M 360.693034 214.634569 
L 416.665861 355.403713 
" clip-path="url(#p953e2a5573)" style="fill: none; stroke: #000000; stroke-opacity: 0.45"/>
    <path d="M 360.693034 214.634569 
L 302.068393 155.341669 
" clip-path="url(#p953e2a5573)" style="fill: none; stroke: #000000; stroke-opacity: 0.45; stroke-width: 2.8"/>
    <path d="M 360.693034 214.634569 
L 421.808356 257.771662 
" clip-path="url(#p953e2a5573)" style="fill: none; stroke: #000000; stroke-opacity: 0.45; stroke-width: 1.807125"/>
    <path d="M 360.693034 214.634569 
L 176.830711 272.003731 
" clip-path="url(#p953e2a5573)" style="fill: none; stroke: #000000; stroke-opacity: 0.45"/>
    <path d="M 360.693034 214.634569 
L 529.846908 310.228131 
" clip-path="url(#p953e2a5573)" style="fill: none; stroke: #000000; stroke-opacity: 0.45; stroke-width: 0.824264"/>
    <path d="M 360.693034 214.634569 
L 547.866336 226.879306 
" clip-path="url(#p953e2a5573)" style="fill: none; stroke: #000000; stroke-opacity: 0.45; stroke-width: 0.919615"/>
    <path d="M 360.693034 214.634569 
L 273.516048 360.459927 
" clip-path="url(#p953e2a5573)" style="fill: none; stroke: #000000; stroke-opacity: 0.45; stroke-width: 1.193725"/>
    <path d="M 360.693034 214.634569 
L 428.263155 452.765455 
" clip-path="url(#p953e2a5573)" style="fill: none; stroke: #000000; stroke-opacity: 0.45"/>
    <path d="M 416.665861 355.403713 
L 65.157025 224.258807 
" clip-path="url(#p953e2a5573)" style="fill: none; stroke: #000000; stroke-opacity: 0.45; stroke-width: 0.7"/>
    <path d="M 416.665861 355.403713 
L 287.825717 241.247239 
" clip-path="url(#p953e2a5573)" style="fill: none; stroke: #000000; stroke-opacity: 0.45; stroke-width: 1.193725"/>
    <path d="M 416.665861 355.403713 
L 547.866336 226.879306 
" clip-path="url(#p953e2a5573)" style="fill: none; stroke: #000000; stroke-opacity: 0.45; stroke-width: 0.7"/>
    <path d="M 416.665861 355.403713 
L 302.068393 155.341669 
" clip-path="url(#p953e2a5573)" style="fill: none; stroke: #000000; stroke-opacity: 0.45; stroke-width: 0.7"/>
    <path d="M 416.665861 355.403713 
L 421.808356 257.771662 
" clip-path="url(#p953e2a5573)" style="fill: none; stroke: #000000; stroke-opacity: 0.45; stroke-width: 1.248528"/>
    <path d="M 416.665861 355.403713 
L 529.846908 310.228131 
" clip-path="url(#p953e2a5573)" style="fill: none; stroke: #000000; stroke-opacity: 0.45; stroke-width: 1.07082"/>
    <path d="M 416.665861 355.403713 
L 203.825009 205.275504 
" clip-path="url(#p953e2a5573)" style="fill: none; stroke: #000000; stroke-opacity: 0.45; stroke-width: 0.7"/>
    <path d="M 582.842975 67.674545 
L 287.825717 241.247239 
" clip-path="url(#p953e2a5573)" style="fill: none; stroke: #000000; stroke-opacity: 0.45; stroke-width: 0.7"/>
    <path d="M 582.842975 67.674545 
L 547.866336 226.879306 
" clip-path="url(#p953e2a5573)" style="fill: none; stroke: #000000; stroke-opacity: 0.45; stroke-width: 0.919615"/>
    <path d="M 582.842975 67.674545 
L 203.825009 205.275504 
" clip-path="url(#p953e2a5573)" style="fill: none; stroke: #000000; stroke-opacity: 0.45; stroke-width: 0.824264"/>
    <path d="M 582.842975 67.674545 
L 273.516048 360.459927 
" clip-path="url(#p953e2a5573)" style="fill: none; stroke: #000000; stroke-opacity: 0.45; stroke-width: 0.7"/>
    <path d="M 582.842975 67.674545 
L 421.808356 257.771662 
" clip-path="url(#p953e2a5573)" style="fill: none; stroke: #000000; stroke-opacity: 0.45; stroke-width: 0.919615"/>
    <path d="M 547.866336 226.879306 
L 287.825717 241.247239 
" clip-path="url(#p953e2a5573)" style="fill: none; stroke: #000000; stroke-opacity: 0.45; stroke-width: 1.248528"/>
    <path d="M 547.866336 226.879306 
L 176.830711 272.003731 
" clip-path="url(#p953e2a5573)" style="fill: none; stroke: #000000; stroke-opacity: 0.45; stroke-width: 0.919615"/>
    <path d="M 547.866336 226.879306 
L 421.808356 257.771662 
" clip-path="url(#p953e2a5573)" style="fill: none; stroke: #000000; stroke-opacity: 0.45; stroke-width: 1.481665"/>
    <path d="M 547.866336 226.879306 
L 203.825009 205.275504 
" clip-path="url(#p953e2a5573)" style="fill: none; stroke: #000000; stroke-opacity: 0.45; stroke-width: 0.7"/>
    <path d="M 547.866336 226.879306 
L 273.516048 360.459927 
" clip-path="url(#p953e2a5573)" style="fill: none; stroke: #000000; stroke-opacity: 0.45"/>
    <path d="M 547.866336 226.879306 
L 428.263155 452.765455 
" clip-path="url(#p953e2a5573)" style="fill: none; stroke: #000000; stroke-opacity: 0.45; stroke-width: 0.824264"/>
    <path d="M 203.825009 205.275504 
L 529.846908 310.228131 
" clip-path="url(#p953e2a5573)" style="fill: none; stroke: #000000; stroke-opacity: 0.45; stroke-width: 0.919615"/>
    <path d="M 203.825009 205.275504 
L 176.830711 272.003731 
" clip-path="url(#p953e2a5573)" style="fill: none; stroke: #000000; stroke-opacity: 0.45; stroke-width: 2.224829"/>
    <path d="M 203.825009 205.275504 
L 65.157025 224.258807 
" clip-path="url(#p953e2a5573)" style="fill: none; stroke: #000000; stroke-opacity: 0.45; stroke-width: 1.43923"/>
    <path d="M 203.825009 205.275504 
L 287.825717 241.247239 
" clip-path="url(#p953e2a5573)" style="fill: none; stroke: #000000; stroke-opacity: 0.45; stroke-width: 2.456696"/>
    <path d="M 203.825009 205.275504 
L 273.516048 360.459927 
" clip-path="url(#p953e2a5573)" style="fill: none; stroke: #000000; stroke-opacity: 0.45; stroke-width: 0.824264"/>
    <path d="M 203.825009 205.275504 
L 421.808356 257.771662 
" clip-path="url(#p953e2a5573)" style="fill: none; stroke: #000000; stroke-opacity: 0.45; stroke-width: 1.134847"/>
    <path d="M 203.825009 205.275504 
L 302.068393 155.341669 
" clip-path="url(#p953e2a5573)" style="fill: none; stroke: #000000; stroke-opacity: 0.45; stroke-width: 1.134847"/>
    <path d="M 529.846908 310.228131 
L 176.830711 272.003731 
" clip-path="url(#p953e2a5573)" style="fill: none; stroke: #000000; stroke-opacity: 0.45; stroke-width: 0.824264"/>
    <path d="M 529.846908 310.228131 
L 287.825717 241.247239 
" clip-path="url(#p953e2a5573)" style="fill: none; stroke: #000000; stroke-opacity: 0.45; stroke-width: 1.394987"/>
    <path d="M 529.846908 310.228131 
L 421.808356 257.771662 
" clip-path="url(#p953e2a5573)" style="fill: none; stroke: #000000; stroke-opacity: 0.45; stroke-width: 1.07082"/>
    <path d="M 176.830711 272.003731 
L 287.825717 241.247239 
" clip-path="url(#p953e2a5573)" style="fill: none; stroke: #000000; stroke-opacity: 0.45; stroke-width: 2.043168"/>
    <path d="M 176.830711 272.003731 
L 421.808356 257.771662 
" clip-path="url(#p953e2a5573)" style="fill: none; stroke: #000000; stroke-opacity: 0.45; stroke-width: 1.07082"/>
    <path d="M 176.830711 272.003731 
L 65.157025 224.258807 
" clip-path="url(#p953e2a5573)" style="fill: none; stroke: #000000; stroke-opacity: 0.45; stroke-width: 1.248528"/>
    <path d="M 176.830711 272.003731 
L 302.068393 155.341669 
" clip-path="url(#p953e2a5573)" style="fill: none; stroke: #000000; stroke-opacity: 0.45; stroke-width: 1.07082"/>
    <path d="M 176.830711 272.003731 
L 273.516048 360.459927 
" clip-path="url(#p953e2a5573)" style="fill: none; stroke: #000000; stroke-opacity: 0.45; stroke-width: 1.248528"/>
    <path d="M 176.830711 272.003731 
L 428.263155 452.765455 
" clip-path="url(#p953e2a5573)" style="fill: none; stroke: #000000; stroke-opacity: 0.45; stroke-width: 0.824264"/>
    <path d="M 428.263155 452.765455 
L 273.516048 360.459927 
" clip-path="url(#p953e2a5573)" style="fill: none; stroke: #000000; stroke-opacity: 0.45; stroke-width: 1.193725"/>
    <path d="M 428.263155 452.765455 
L 421.808356 257.771662 
" clip-path="url(#p953e2a5573)" style="fill: none; stroke: #000000; stroke-opacity: 0.45; stroke-width: 0.824264"/>
    <path d="M 273.516048 360.459927 
L 65.157025 224.258807 
" clip-path="url(#p953e2a5573)" style="fill: none; stroke: #000000; stroke-opacity: 0.45; stroke-width: 0.824264"/>
    <path d="M 273.516048 360.459927 
L 421.808356 257.771662 
" clip-path="url(#p953e2a5573)" style="fill: none; stroke: #000000; stroke-opacity: 0.45; stroke-width: 1.3"/>
    <path d="M 273.516048 360.459927 
L 302.068393 155.341669 
" clip-path="url(#p953e2a5573)" style="fill: none; stroke: #000000; stroke-opacity: 0.45; stroke-width: 0.7"/>
    <path d="M 287.825717 241.247239 
L 65.157025 224.258807 
" clip-path="url(#p953e2a5573)" style="fill: none; stroke: #000000; stroke-opacity: 0.45; stroke-width: 1.774773"/>
    <path d="M 287.825717 241.247239 
L 421.808356 257.771662 
" clip-path="url(#p953e2a5573)" style="fill: none; stroke: #000000; stroke-opacity: 0.45; stroke-width: 2.097056"/>
    <path d="M 287.825717 241.247239 
L 302.068393 155.341669 
" clip-path="url(#p953e2a5573)" style="fill: none; stroke: #000000; stroke-opacity: 0.45; stroke-width: 1.3"/>
    <path d="M 65.157025 224.258807 
L 302.068393 155.341669 
" clip-path="url(#p953e2a5573)" style="fill: none; stroke: #000000; stroke-opacity: 0.45; stroke-width: 0.919615"/>
    <path d="M 302.068393 155.341669 
L 421.808356 257.771662 
" clip-path="url(#p953e2a5573)" style="fill: none; stroke: #000000; stroke-opacity: 0.45; stroke-width: 1.07082"/>
   </g>
   <g id="PathCollection_1">
    <path d="M 310.534206 309.990829 
C 313.902967 309.990829 317.134206 308.652406 319.51628 306.270333 
C 321.898353 303.888259 323.236776 300.65702 323.236776 297.288259 
C 323.236776 293.919498 321.898353 290.688259 319.51628 288.306186 
C 317.134206 285.924112 313.902967 284.585689 310.534206 284.585689 
C 307.165445 284.585689 303.934206 285.924112 301.552133 288.306186 
C 299.170059 290.688259 297.831636 293.919498 297.831636 297.288259 
C 297.831636 300.65702 299.170059 303.888259 301.552133 306.270333 
C 303.934206 308.652406 307.165445 309.990829 310.534206 309.990829 
z
" clip-path="url(#p953e2a5573)" style="fill: #4c72b0; stroke: #ffffff; stroke-width: 1.5"/>
    <path d="M 360.693034 228.620355 
C 364.402108 228.620355 367.959767 227.146724 370.582478 224.524013 
C 373.205189 221.901302 374.67882 218.343643 374.67882 214.634569 
C 374.67882 210.925495 373.205189 207.367836 370.582478 204.745125 
C 367.959767 202.122414 364.402108 200.648783 360.693034 200.648783 
C 356.98396 200.648783 353.426302 202.122414 350.80359 204.745125 
C 348.180879 207.367836 346.707249 210.925495 346.707249 214.634569 
C 346.707249 218.343643 348.180879 221.901302 350.80359 224.524013 
C 353.426302 227.146724 356.98396 228.620355 360.693034 228.620355 
z
" clip-path="url(#p953e2a5573)" style="fill: #4c72b0; stroke: #ffffff; stroke-width: 1.5"/>
    <path d="M 416.665861 366.912932 
C 419.718141 366.912932 422.645819 365.700248 424.804108 363.54196 
C 426.962396 361.383671 428.17508 358.455993 428.17508 355.403713 
C 428.17508 352.351433 426.962396 349.423755 424.804108 347.265467 
C 422.645819 345.107178 419.718141 343.894494 416.665861 343.894494 
C 413.613581 343.894494 410.685903 345.107178 408.527614 347.265467 
C 406.369326 349.423755 405.156642 352.351433 405.156642 355.403713 
C 405.156642 358.455993 406.369326 361.383671 408.527614 363.54196 
C 410.685903 365.700248 413.613581 366.912932 416.665861 366.912932 
z
" clip-path="url(#p953e2a5573)" style="fill: #4c72b0; stroke: #ffffff; stroke-width: 1.5"/>
    <path d="M 582.842975 77.161378 
C 585.358913 77.161378 587.772143 76.161786 589.551179 74.382749 
C 591.330216 72.603713 592.329808 70.190483 592.329808 67.674545 
C 592.329808 65.158608 591.330216 62.745378 589.551179 60.966342 
C 587.772143 59.187305 585.358913 58.187712 582.842975 58.187712 
C 580.327038 58.187712 577.913808 59.187305 576.134771 60.966342 
C 574.355735 62.745378 573.356142 65.158608 573.356142 67.674545 
C 573.356142 70.190483 574.355735 72.603713 576.134771 74.382749 
C 577.913808 76.161786 580.327038 77.161378 582.842975 77.161378 
z
" clip-path="url(#p953e2a5573)" style="fill: #4c72b0; stroke: #ffffff; stroke-width: 1.5"/>
    <path d="M 547.866336 238.49192 
C 550.946037 238.49192 553.900017 237.268342 556.077695 235.090664 
C 558.255372 232.912986 559.478951 229.959007 559.478951 226.879306 
C 559.478951 223.799604 558.255372 220.845625 556.077695 218.667947 
C 553.900017 216.49027 550.946037 215.266691 547.866336 215.266691 
C 544.786635 215.266691 541.832655 216.49027 539.654978 218.667947 
C 537.4773 220.845625 536.253722 223.799604 536.253722 226.879306 
C 536.253722 229.959007 537.4773 232.912986 539.654978 235.090664 
C 541.832655 237.268342 544.786635 238.49192 547.866336 238.49192 
z
" clip-path="url(#p953e2a5573)" style="fill: #4c72b0; stroke: #ffffff; stroke-width: 1.5"/>
    <path d="M 203.825009 219.679676 
C 207.64504 219.679676 211.309127 218.161961 214.010297 215.460791 
C 216.711466 212.759622 218.229181 209.095535 218.229181 205.275504 
C 218.229181 201.455473 216.711466 197.791387 214.010297 195.090217 
C 211.309127 192.389047 207.64504 190.871333 203.825009 190.871333 
C 200.004978 190.871333 196.340892 192.389047 193.639722 195.090217 
C 190.938552 197.791387 189.420838 201.455473 189.420838 205.275504 
C 189.420838 209.095535 190.938552 212.759622 193.639722 215.460791 
C 196.340892 218.161961 200.004978 219.679676 203.825009 219.679676 
z
" clip-path="url(#p953e2a5573)" style="fill: #4c72b0; stroke: #ffffff; stroke-width: 1.5"/>
    <path d="M 529.846908 321.149763 
C 532.743358 321.149763 535.521567 319.998991 537.569667 317.950891 
C 539.617767 315.902791 540.768539 313.124582 540.768539 310.228131 
C 540.768539 307.331681 539.617767 304.553471 537.569667 302.505372 
C 535.521567 300.457272 532.743358 299.3065 529.846908 299.3065 
C 526.950457 299.3065 524.172248 300.457272 522.124148 302.505372 
C 520.076048 304.553471 518.925276 307.331681 518.925276 310.228131 
C 518.925276 313.124582 520.076048 315.902791 522.124148 317.950891 
C 524.172248 319.998991 526.950457 321.149763 529.846908 321.149763 
z
" clip-path="url(#p953e2a5573)" style="fill: #4c72b0; stroke: #ffffff; stroke-width: 1.5"/>
    <path d="M 176.830711 285.989517 
C 180.539785 285.989517 184.097444 284.515886 186.720155 281.893175 
C 189.342866 279.270464 190.816497 275.712805 190.816497 272.003731 
C 190.816497 268.294657 189.342866 264.736998 186.720155 262.114287 
C 184.097444 259.491576 180.539785 258.017945 176.830711 258.017945 
C 173.121637 258.017945 169.563979 259.491576 166.941267 262.114287 
C 164.318556 264.736998 162.844926 268.294657 162.844926 272.003731 
C 162.844926 275.712805 164.318556 279.270464 166.941267 281.893175 
C 169.563979 284.515886 173.121637 285.989517 176.830711 285.989517 
z
" clip-path="url(#p953e2a5573)" style="fill: #4c72b0; stroke: #ffffff; stroke-width: 1.5"/>
    <path d="M 428.263155 461.96551 
C 430.703039 461.96551 433.043319 460.996134 434.768577 459.270876 
C 436.493835 457.545618 437.463211 455.205338 437.463211 452.765455 
C 437.463211 450.325571 436.493835 447.985291 434.768577 446.260033 
C 433.043319 444.534775 430.703039 443.565399 428.263155 443.565399 
C 425.823272 443.565399 423.482992 444.534775 421.757734 446.260033 
C 420.032476 447.985291 419.0631 450.325571 419.0631 452.765455 
C 419.0631 455.205338 420.032476 457.545618 421.757734 459.270876 
C 423.482992 460.996134 425.823272 461.96551 428.263155 461.96551 
z
" clip-path="url(#p953e2a5573)" style="fill: #4c72b0; stroke: #ffffff; stroke-width: 1.5"/>
    <path d="M 273.516048 371.632802 
C 276.479129 371.632802 279.321249 370.455558 281.416464 368.360343 
C 283.511679 366.265128 284.688924 363.423008 284.688924 360.459927 
C 284.688924 357.496846 283.511679 354.654726 281.416464 352.559511 
C 279.321249 350.464296 276.479129 349.287051 273.516048 349.287051 
C 270.552967 349.287051 267.710847 350.464296 265.615632 352.559511 
C 263.520417 354.654726 262.343173 357.496846 262.343173 360.459927 
C 262.343173 363.423008 263.520417 366.265128 265.615632 368.360343 
C 267.710847 370.455558 270.552967 371.632802 273.516048 371.632802 
z
" clip-path="url(#p953e2a5573)" style="fill: #4c72b0; stroke: #ffffff; stroke-width: 1.5"/>
    <path d="M 287.825717 259.718958 
C 292.724474 259.718958 297.423251 257.772661 300.887195 254.308716 
C 304.351139 250.844772 306.297436 246.145996 306.297436 241.247239 
C 306.297436 236.348482 304.351139 231.649705 300.887195 228.185761 
C 297.423251 224.721817 292.724474 222.77552 287.825717 222.77552 
C 282.92696 222.77552 278.228184 224.721817 274.76424 228.185761 
C 271.300295 231.649705 269.353999 236.348482 269.353999 241.247239 
C 269.353999 246.145996 271.300295 250.844772 274.76424 254.308716 
C 278.228184 257.772661 282.92696 259.718958 287.825717 259.718958 
z
" clip-path="url(#p953e2a5573)" style="fill: #4c72b0; stroke: #ffffff; stroke-width: 1.5"/>
    <path d="M 65.157025 237.232688 
C 68.597738 237.232688 71.897992 235.865678 74.330944 233.432727 
C 76.763896 230.999775 78.130906 227.699521 78.130906 224.258807 
C 78.130906 220.818094 76.763896 217.51784 74.330944 215.084888 
C 71.897992 212.651936 68.597738 211.284926 65.157025 211.284926 
C 61.716311 211.284926 58.416057 212.651936 55.983105 215.084888 
C 53.550153 217.51784 52.183144 220.818094 52.183144 224.258807 
C 52.183144 227.699521 53.550153 230.999775 55.983105 233.432727 
C 58.416057 235.865678 61.716311 237.232688 65.157025 237.232688 
z
" clip-path="url(#p953e2a5573)" style="fill: #4c72b0; stroke: #ffffff; stroke-width: 1.5"/>
    <path d="M 302.068393 168.685675 
C 305.607264 168.685675 309.001669 167.279666 311.504029 164.777306 
C 314.00639 162.274946 315.412398 158.880541 315.412398 155.341669 
C 315.412398 151.802797 314.00639 148.408392 311.504029 145.906032 
C 309.001669 143.403672 305.607264 141.997663 302.068393 141.997663 
C 298.529521 141.997663 295.135116 143.403672 292.632756 145.906032 
C 290.130396 148.408392 288.724387 151.802797 288.724387 155.341669 
C 288.724387 158.880541 290.130396 162.274946 292.632756 164.777306 
C 295.135116 167.279666 298.529521 168.685675 302.068393 168.685675 
z
" clip-path="url(#p953e2a5573)" style="fill: #4c72b0; stroke: #ffffff; stroke-width: 1.5"/>
    <path d="M 421.808356 272.513846 
C 425.718029 272.513846 429.468098 270.960517 432.232655 268.19596 
C 434.997211 265.431404 436.550541 261.681335 436.550541 257.771662 
C 436.550541 253.861989 434.997211 250.111919 432.232655 247.347363 
C 429.468098 244.582807 425.718029 243.029477 421.808356 243.029477 
C 417.898683 243.029477 414.148614 244.582807 411.384057 247.347363 
C 408.619501 250.111919 407.066172 253.861989 407.066172 257.771662 
C 407.066172 261.681335 408.619501 265.431404 411.384057 268.19596 
C 414.148614 270.960517 417.898683 272.513846 421.808356 272.513846 
z
" clip-path="url(#p953e2a5573)" style="fill: #4c72b0; stroke: #ffffff; stroke-width: 1.5"/>
   </g>
   <g id="text_1">
    <g clip-path="url(#p953e2a5573)">
     <!-- actor_network -->
     <g transform="translate(281.979831 299.384509) scale(0.08 -0.08)">
      <defs>
       <path id="DejaVuSans-61" d="M 2194 1759 
Q 1497 1759 1228 1600 
Q 959 1441 959 1056 
Q 959 750 1161 570 
Q 1363 391 1709 391 
Q 2188 391 2477 730 
Q 2766 1069 2766 1631 
L 2766 1759 
L 2194 1759 
z
M 3341 1997 
L 3341 0 
L 2766 0 
L 2766 531 
Q 2569 213 2275 61 
Q 1981 -91 1556 -91 
Q 1019 -91 701 211 
Q 384 513 384 1019 
Q 384 1609 779 1909 
Q 1175 2209 1959 2209 
L 2766 2209 
L 2766 2266 
Q 2766 2663 2505 2880 
Q 2244 3097 1772 3097 
Q 1472 3097 1187 3025 
Q 903 2953 641 2809 
L 641 3341 
Q 956 3463 1253 3523 
Q 1550 3584 1831 3584 
Q 2591 3584 2966 3190 
Q 3341 2797 3341 1997 
z
" transform="scale(0.015625)"/>
       <path id="DejaVuSans-63" d="M 3122 3366 
L 3122 2828 
Q 2878 2963 2633 3030 
Q 2388 3097 2138 3097 
Q 1578 3097 1268 2742 
Q 959 2388 959 1747 
Q 959 1106 1268 751 
Q 1578 397 2138 397 
Q 2388 397 2633 464 
Q 2878 531 3122 666 
L 3122 134 
Q 2881 22 2623 -34 
Q 2366 -91 2075 -91 
Q 1284 -91 818 406 
Q 353 903 353 1747 
Q 353 2603 823 3093 
Q 1294 3584 2113 3584 
Q 2378 3584 2631 3529 
Q 2884 3475 3122 3366 
z
" transform="scale(0.015625)"/>
       <path id="DejaVuSans-74" d="M 1172 4494 
L 1172 3500 
L 2356 3500 
L 2356 3053 
L 1172 3053 
L 1172 1153 
Q 1172 725 1289 603 
Q 1406 481 1766 481 
L 2356 481 
L 2356 0 
L 1766 0 
Q 1100 0 847 248 
Q 594 497 594 1153 
L 594 3053 
L 172 3053 
L 172 3500 
L 594 3500 
L 594 4494 
L 1172 4494 
z
" transform="scale(0.015625)"/>
       <path id="DejaVuSans-6f" d="M 1959 3097 
Q 1497 3097 1228 2736 
Q 959 2375 959 1747 
Q 959 1119 1226 758 
Q 1494 397 1959 397 
Q 2419 397 2687 759 
Q 2956 1122 2956 1747 
Q 2956 2369 2687 2733 
Q 2419 3097 1959 3097 
z
M 1959 3584 
Q 2709 3584 3137 3096 
Q 3566 2609 3566 1747 
Q 3566 888 3137 398 
Q 2709 -91 1959 -91 
Q 1206 -91 779 398 
Q 353 888 353 1747 
Q 353 2609 779 3096 
Q 1206 3584 1959 3584 
z
" transform="scale(0.015625)"/>
       <path id="DejaVuSans-72" d="M 2631 2963 
Q 2534 3019 2420 3045 
Q 2306 3072 2169 3072 
Q 1681 3072 1420 2755 
Q 1159 2438 1159 1844 
L 1159 0 
L 581 0 
L 581 3500 
L 1159 3500 
L 1159 2956 
Q 1341 3275 1631 3429 
Q 1922 3584 2338 3584 
Q 2397 3584 2469 3576 
Q 2541 3569 2628 3553 
L 2631 2963 
z
" transform="scale(0.015625)"/>
       <path id="DejaVuSans-5f" d="M 3263 -1063 
L 3263 -1509 
L -63 -1509 
L -63 -1063 
L 3263 -1063 
z
" transform="scale(0.015625)"/>
       <path id="DejaVuSans-6e" d="M 3513 2113 
L 3513 0 
L 2938 0 
L 2938 2094 
Q 2938 2591 2744 2837 
Q 2550 3084 2163 3084 
Q 1697 3084 1428 2787 
Q 1159 2491 1159 1978 
L 1159 0 
L 581 0 
L 581 3500 
L 1159 3500 
L 1159 2956 
Q 1366 3272 1645 3428 
Q 1925 3584 2291 3584 
Q 2894 3584 3203 3211 
Q 3513 2838 3513 2113 
z
" transform="scale(0.015625)"/>
       <path id="DejaVuSans-65" d="M 3597 1894 
L 3597 1613 
L 953 1613 
Q 991 1019 1311 708 
Q 1631 397 2203 397 
Q 2534 397 2845 478 
Q 3156 559 3463 722 
L 3463 178 
Q 3153 47 2828 -22 
Q 2503 -91 2169 -91 
Q 1331 -91 842 396 
Q 353 884 353 1716 
Q 353 2575 817 3079 
Q 1281 3584 2069 3584 
Q 2775 3584 3186 3129 
Q 3597 2675 3597 1894 
z
M 3022 2063 
Q 3016 2534 2758 2815 
Q 2500 3097 2075 3097 
Q 1594 3097 1305 2825 
Q 1016 2553 972 2059 
L 3022 2063 
z
" transform="scale(0.015625)"/>
       <path id="DejaVuSans-77" d="M 269 3500 
L 844 3500 
L 1563 769 
L 2278 3500 
L 2956 3500 
L 3675 769 
L 4391 3500 
L 4966 3500 
L 4050 0 
L 3372 0 
L 2619 2869 
L 1863 0 
L 1184 0 
L 269 3500 
z
" transform="scale(0.015625)"/>
       <path id="DejaVuSans-6b" d="M 581 4863 
L 1159 4863 
L 1159 1991 
L 2875 3500 
L 3609 3500 
L 1753 1863 
L 3688 0 
L 2938 0 
L 1159 1709 
L 1159 0 
L 581 0 
L 581 4863 
z
" transform="scale(0.015625)"/>
      </defs>
      <use xlink:href="#DejaVuSans-61"/>
      <use xlink:href="#DejaVuSans-63" transform="translate(61.279297 0)"/>
      <use xlink:href="#DejaVuSans-74" transform="translate(116.259766 0)"/>
      <use xlink:href="#DejaVuSans-6f" transform="translate(155.46875 0)"/>
      <use xlink:href="#DejaVuSans-72" transform="translate(216.650391 0)"/>
      <use xlink:href="#DejaVuSans-5f" transform="translate(257.763672 0)"/>
      <use xlink:href="#DejaVuSans-6e" transform="translate(307.763672 0)"/>
      <use xlink:href="#DejaVuSans-65" transform="translate(371.142578 0)"/>
      <use xlink:href="#DejaVuSans-74" transform="translate(432.666016 0)"/>
      <use xlink:href="#DejaVuSans-77" transform="translate(471.875 0)"/>
      <use xlink:href="#DejaVuSans-6f" transform="translate(553.662109 0)"/>
      <use xlink:href="#DejaVuSans-72" transform="translate(614.84375 0)"/>
      <use xlink:href="#DejaVuSans-6b" transform="translate(655.957031 0)"/>
     </g>
    </g>
   </g>
   <g id="text_2">
    <g clip-path="url(#p953e2a5573)">
     <!-- articulation -->
     <g transform="translate(337.959284 216.842069) scale(0.08 -0.08)">
      <defs>
       <path id="DejaVuSans-69" d="M 603 3500 
L 1178 3500 
L 1178 0 
L 603 0 
L 603 3500 
z
M 603 4863 
L 1178 4863 
L 1178 4134 
L 603 4134 
L 603 4863 
z
" transform="scale(0.015625)"/>
       <path id="DejaVuSans-75" d="M 544 1381 
L 544 3500 
L 1119 3500 
L 1119 1403 
Q 1119 906 1312 657 
Q 1506 409 1894 409 
Q 2359 409 2629 706 
Q 2900 1003 2900 1516 
L 2900 3500 
L 3475 3500 
L 3475 0 
L 2900 0 
L 2900 538 
Q 2691 219 2414 64 
Q 2138 -91 1772 -91 
Q 1169 -91 856 284 
Q 544 659 544 1381 
z
M 1991 3584 
L 1991 3584 
z
" transform="scale(0.015625)"/>
       <path id="DejaVuSans-6c" d="M 603 4863 
L 1178 4863 
L 1178 0 
L 603 0 
L 603 4863 
z
" transform="scale(0.015625)"/>
      </defs>
      <use xlink:href="#DejaVuSans-61"/>
      <use xlink:href="#DejaVuSans-72" transform="translate(61.279297 0)"/>
      <use xlink:href="#DejaVuSans-74" transform="translate(102.392578 0)"/>
      <use xlink:href="#DejaVuSans-69" transform="translate(141.601562 0)"/>
      <use xlink:href="#DejaVuSans-63" transform="translate(169.384766 0)"/>
      <use xlink:href="#DejaVuSans-75" transform="translate(224.365234 0)"/>
      <use xlink:href="#DejaVuSans-6c" transform="translate(287.744141 0)"/>
      <use xlink:href="#DejaVuSans-61" transform="translate(315.527344 0)"/>
      <use xlink:href="#DejaVuSans-74" transform="translate(376.806641 0)"/>
      <use xlink:href="#DejaVuSans-69" transform="translate(416.015625 0)"/>
      <use xlink:href="#DejaVuSans-6f" transform="translate(443.798828 0)"/>
      <use xlink:href="#DejaVuSans-6e" transform="translate(504.980469 0)"/>
     </g>
    </g>
   </g>
   <g id="text_3">
    <g clip-path="url(#p953e2a5573)">
     <!-- black_box -->
     <g transform="translate(396.818986 357.499963) scale(0.08 -0.08)">
      <defs>
       <path id="DejaVuSans-62" d="M 3116 1747 
Q 3116 2381 2855 2742 
Q 2594 3103 2138 3103 
Q 1681 3103 1420 2742 
Q 1159 2381 1159 1747 
Q 1159 1113 1420 752 
Q 1681 391 2138 391 
Q 2594 391 2855 752 
Q 3116 1113 3116 1747 
z
M 1159 2969 
Q 1341 3281 1617 3432 
Q 1894 3584 2278 3584 
Q 2916 3584 3314 3078 
Q 3713 2572 3713 1747 
Q 3713 922 3314 415 
Q 2916 -91 2278 -91 
Q 1894 -91 1617 61 
Q 1341 213 1159 525 
L 1159 0 
L 581 0 
L 581 4863 
L 1159 4863 
L 1159 2969 
z
" transform="scale(0.015625)"/>
       <path id="DejaVuSans-78" d="M 3513 3500 
L 2247 1797 
L 3578 0 
L 2900 0 
L 1881 1375 
L 863 0 
L 184 0 
L 1544 1831 
L 300 3500 
L 978 3500 
L 1906 2253 
L 2834 3500 
L 3513 3500 
z
" transform="scale(0.015625)"/>
      </defs>
      <use xlink:href="#DejaVuSans-62"/>
      <use xlink:href="#DejaVuSans-6c" transform="translate(63.476562 0)"/>
      <use xlink:href="#DejaVuSans-61" transform="translate(91.259766 0)"/>
      <use xlink:href="#DejaVuSans-63" transform="translate(152.539062 0)"/>
      <use xlink:href="#DejaVuSans-6b" transform="translate(207.519531 0)"/>
      <use xlink:href="#DejaVuSans-5f" transform="translate(265.429688 0)"/>
      <use xlink:href="#DejaVuSans-62" transform="translate(315.429688 0)"/>
      <use xlink:href="#DejaVuSans-6f" transform="translate(378.90625 0)"/>
      <use xlink:href="#DejaVuSans-78" transform="translate(436.962891 0)"/>
     </g>
    </g>
   </g>
   <g id="text_4">
    <g clip-path="url(#p953e2a5573)">
     <!-- centre_of_calculation -->
     <g transform="translate(540.48735 69.770795) scale(0.08 -0.08)">
      <defs>
       <path id="DejaVuSans-66" d="M 2375 4863 
L 2375 4384 
L 1825 4384 
Q 1516 4384 1395 4259 
Q 1275 4134 1275 3809 
L 1275 3500 
L 2222 3500 
L 2222 3053 
L 1275 3053 
L 1275 0 
L 697 0 
L 697 3053 
L 147 3053 
L 147 3500 
L 697 3500 
L 697 3744 
Q 697 4328 969 4595 
Q 1241 4863 1831 4863 
L 2375 4863 
z
" transform="scale(0.015625)"/>
      </defs>
      <use xlink:href="#DejaVuSans-63"/>
      <use xlink:href="#DejaVuSans-65" transform="translate(54.980469 0)"/>
      <use xlink:href="#DejaVuSans-6e" transform="translate(116.503906 0)"/>
      <use xlink:href="#DejaVuSans-74" transform="translate(179.882812 0)"/>
      <use xlink:href="#DejaVuSans-72" transform="translate(219.091797 0)"/>
      <use xlink:href="#DejaVuSans-65" transform="translate(257.955078 0)"/>
      <use xlink:href="#DejaVuSans-5f" transform="translate(319.478516 0)"/>
      <use xlink:href="#DejaVuSans-6f" transform="translate(369.478516 0)"/>
      <use xlink:href="#DejaVuSans-66" transform="translate(430.660156 0)"/>
      <use xlink:href="#DejaVuSans-5f" transform="translate(465.865234 0)"/>
      <use xlink:href="#DejaVuSans-63" transform="translate(515.865234 0)"/>
      <use xlink:href="#DejaVuSans-61" transform="translate(570.845703 0)"/>
      <use xlink:href="#DejaVuSans-6c" transform="translate(632.125 0)"/>
      <use xlink:href="#DejaVuSans-63" transform="translate(659.908203 0)"/>
      <use xlink:href="#DejaVuSans-75" transform="translate(714.888672 0)"/>
      <use xlink:href="#DejaVuSans-6c" transform="translate(778.267578 0)"/>
      <use xlink:href="#DejaVuSans-61" transform="translate(806.050781 0)"/>
      <use xlink:href="#DejaVuSans-74" transform="translate(867.330078 0)"/>
      <use xlink:href="#DejaVuSans-69" transform="translate(906.539062 0)"/>
      <use xlink:href="#DejaVuSans-6f" transform="translate(934.322266 0)"/>
      <use xlink:href="#DejaVuSans-6e" transform="translate(995.503906 0)"/>
     </g>
    </g>
   </g>
   <g id="text_5">
    <g clip-path="url(#p953e2a5573)">
     <!-- circulating_reference -->
     <g transform="translate(505.854461 228.975556) scale(0.08 -0.08)">
      <defs>
       <path id="DejaVuSans-67" d="M 2906 1791 
Q 2906 2416 2648 2759 
Q 2391 3103 1925 3103 
Q 1463 3103 1205 2759 
Q 947 2416 947 1791 
Q 947 1169 1205 825 
Q 1463 481 1925 481 
Q 2391 481 2648 825 
Q 2906 1169 2906 1791 
z
M 3481 434 
Q 3481 -459 3084 -895 
Q 2688 -1331 1869 -1331 
Q 1566 -1331 1297 -1286 
Q 1028 -1241 775 -1147 
L 775 -588 
Q 1028 -725 1275 -790 
Q 1522 -856 1778 -856 
Q 2344 -856 2625 -561 
Q 2906 -266 2906 331 
L 2906 616 
Q 2728 306 2450 153 
Q 2172 0 1784 0 
Q 1141 0 747 490 
Q 353 981 353 1791 
Q 353 2603 747 3093 
Q 1141 3584 1784 3584 
Q 2172 3584 2450 3431 
Q 2728 3278 2906 2969 
L 2906 3500 
L 3481 3500 
L 3481 434 
z
" transform="scale(0.015625)"/>
      </defs>
      <use xlink:href="#DejaVuSans-63"/>
      <use xlink:href="#DejaVuSans-69" transform="translate(54.980469 0)"/>
      <use xlink:href="#DejaVuSans-72" transform="translate(82.763672 0)"/>
      <use xlink:href="#DejaVuSans-63" transform="translate(121.626953 0)"/>
      <use xlink:href="#DejaVuSans-75" transform="translate(176.607422 0)"/>
      <use xlink:href="#DejaVuSans-6c" transform="translate(239.986328 0)"/>
      <use xlink:href="#DejaVuSans-61" transform="translate(267.769531 0)"/>
      <use xlink:href="#DejaVuSans-74" transform="translate(329.048828 0)"/>
      <use xlink:href="#DejaVuSans-69" transform="translate(368.257812 0)"/>
      <use xlink:href="#DejaVuSans-6e" transform="translate(396.041016 0)"/>
      <use xlink:href="#DejaVuSans-67" transform="translate(459.419922 0)"/>
      <use xlink:href="#DejaVuSans-5f" transform="translate(522.896484 0)"/>
      <use xlink:href="#DejaVuSans-72" transform="translate(572.896484 0)"/>
      <use xlink:href="#DejaVuSans-65" transform="translate(611.759766 0)"/>
      <use xlink:href="#DejaVuSans-66" transform="translate(673.283203 0)"/>
      <use xlink:href="#DejaVuSans-65" transform="translate(708.488281 0)"/>
      <use xlink:href="#DejaVuSans-72" transform="translate(770.011719 0)"/>
      <use xlink:href="#DejaVuSans-65" transform="translate(808.875 0)"/>
      <use xlink:href="#DejaVuSans-6e" transform="translate(870.398438 0)"/>
      <use xlink:href="#DejaVuSans-63" transform="translate(933.777344 0)"/>
      <use xlink:href="#DejaVuSans-65" transform="translate(988.757812 0)"/>
     </g>
    </g>
   </g>
   <g id="text_6">
    <g clip-path="url(#p953e2a5573)">
     <!-- construction -->
     <g transform="translate(178.950634 207.483004) scale(0.08 -0.08)">
      <defs>
       <path id="DejaVuSans-73" d="M 2834 3397 
L 2834 2853 
Q 2591 2978 2328 3040 
Q 2066 3103 1784 3103 
Q 1356 3103 1142 2972 
Q 928 2841 928 2578 
Q 928 2378 1081 2264 
Q 1234 2150 1697 2047 
L 1894 2003 
Q 2506 1872 2764 1633 
Q 3022 1394 3022 966 
Q 3022 478 2636 193 
Q 2250 -91 1575 -91 
Q 1294 -91 989 -36 
Q 684 19 347 128 
L 347 722 
Q 666 556 975 473 
Q 1284 391 1588 391 
Q 1994 391 2212 530 
Q 2431 669 2431 922 
Q 2431 1156 2273 1281 
Q 2116 1406 1581 1522 
L 1381 1569 
Q 847 1681 609 1914 
Q 372 2147 372 2553 
Q 372 3047 722 3315 
Q 1072 3584 1716 3584 
Q 2034 3584 2315 3537 
Q 2597 3491 2834 3397 
z
" transform="scale(0.015625)"/>
      </defs>
      <use xlink:href="#DejaVuSans-63"/>
      <use xlink:href="#DejaVuSans-6f" transform="translate(54.980469 0)"/>
      <use xlink:href="#DejaVuSans-6e" transform="translate(116.162109 0)"/>
      <use xlink:href="#DejaVuSans-73" transform="translate(179.541016 0)"/>
      <use xlink:href="#DejaVuSans-74" transform="translate(231.640625 0)"/>
      <use xlink:href="#DejaVuSans-72" transform="translate(270.849609 0)"/>
      <use xlink:href="#DejaVuSans-75" transform="translate(311.962891 0)"/>
      <use xlink:href="#DejaVuSans-63" transform="translate(375.341797 0)"/>
      <use xlink:href="#DejaVuSans-74" transform="translate(430.322266 0)"/>
      <use xlink:href="#DejaVuSans-69" transform="translate(469.53125 0)"/>
      <use xlink:href="#DejaVuSans-6f" transform="translate(497.314453 0)"/>
      <use xlink:href="#DejaVuSans-6e" transform="translate(558.496094 0)"/>
     </g>
    </g>
   </g>
   <g id="text_7">
    <g clip-path="url(#p953e2a5573)">
     <!-- enrollment -->
     <g transform="translate(508.165658 312.435631) scale(0.08 -0.08)">
      <defs>
       <path id="DejaVuSans-6d" d="M 3328 2828 
Q 3544 3216 3844 3400 
Q 4144 3584 4550 3584 
Q 5097 3584 5394 3201 
Q 5691 2819 5691 2113 
L 5691 0 
L 5113 0 
L 5113 2094 
Q 5113 2597 4934 2840 
Q 4756 3084 4391 3084 
Q 3944 3084 3684 2787 
Q 3425 2491 3425 1978 
L 3425 0 
L 2847 0 
L 2847 2094 
Q 2847 2600 2669 2842 
Q 2491 3084 2119 3084 
Q 1678 3084 1418 2786 
Q 1159 2488 1159 1978 
L 1159 0 
L 581 0 
L 581 3500 
L 1159 3500 
L 1159 2956 
Q 1356 3278 1631 3431 
Q 1906 3584 2284 3584 
Q 2666 3584 2933 3390 
Q 3200 3197 3328 2828 
z
" transform="scale(0.015625)"/>
      </defs>
      <use xlink:href="#DejaVuSans-65"/>
      <use xlink:href="#DejaVuSans-6e" transform="translate(61.523438 0)"/>
      <use xlink:href="#DejaVuSans-72" transform="translate(124.902344 0)"/>
      <use xlink:href="#DejaVuSans-6f" transform="translate(163.765625 0)"/>
      <use xlink:href="#DejaVuSans-6c" transform="translate(224.947266 0)"/>
      <use xlink:href="#DejaVuSans-6c" transform="translate(252.730469 0)"/>
      <use xlink:href="#DejaVuSans-6d" transform="translate(280.513672 0)"/>
      <use xlink:href="#DejaVuSans-65" transform="translate(377.925781 0)"/>
      <use xlink:href="#DejaVuSans-6e" transform="translate(439.449219 0)"/>
      <use xlink:href="#DejaVuSans-74" transform="translate(502.828125 0)"/>
     </g>
    </g>
   </g>
   <g id="text_8">
    <g clip-path="url(#p953e2a5573)">
     <!-- factish -->
     <g transform="translate(163.473836 274.211231) scale(0.08 -0.08)">
      <defs>
       <path id="DejaVuSans-68" d="M 3513 2113 
L 3513 0 
L 2938 0 
L 2938 2094 
Q 2938 2591 2744 2837 
Q 2550 3084 2163 3084 
Q 1697 3084 1428 2787 
Q 1159 2491 1159 1978 
L 1159 0 
L 581 0 
L 581 4863 
L 1159 4863 
L 1159 2956 
Q 1366 3272 1645 3428 
Q 1925 3584 2291 3584 
Q 2894 3584 3203 3211 
Q 3513 2838 3513 2113 
z
" transform="scale(0.015625)"/>
      </defs>
      <use xlink:href="#DejaVuSans-66"/>
      <use xlink:href="#DejaVuSans-61" transform="translate(35.205078 0)"/>
      <use xlink:href="#DejaVuSans-63" transform="translate(96.484375 0)"/>
      <use xlink:href="#DejaVuSans-74" transform="translate(151.464844 0)"/>
      <use xlink:href="#DejaVuSans-69" transform="translate(190.673828 0)"/>
      <use xlink:href="#DejaVuSans-73" transform="translate(218.457031 0)"/>
      <use xlink:href="#DejaVuSans-68" transform="translate(270.556641 0)"/>
     </g>
    </g>
   </g>
   <g id="text_9">
    <g clip-path="url(#p953e2a5573)">
     <!-- immutable_mobile -->
     <g transform="translate(391.12628 454.861705) scale(0.08 -0.08)">
      <use xlink:href="#DejaVuSans-69"/>
      <use xlink:href="#DejaVuSans-6d" transform="translate(27.783203 0)"/>
      <use xlink:href="#DejaVuSans-6d" transform="translate(125.195312 0)"/>
      <use xlink:href="#DejaVuSans-75" transform="translate(222.607422 0)"/>
      <use xlink:href="#DejaVuSans-74" transform="translate(285.986328 0)"/>
      <use xlink:href="#DejaVuSans-61" transform="translate(325.195312 0)"/>
      <use xlink:href="#DejaVuSans-62" transform="translate(386.474609 0)"/>
      <use xlink:href="#DejaVuSans-6c" transform="translate(449.951172 0)"/>
      <use xlink:href="#DejaVuSans-65" transform="translate(477.734375 0)"/>
      <use xlink:href="#DejaVuSans-5f" transform="translate(539.257812 0)"/>
      <use xlink:href="#DejaVuSans-6d" transform="translate(589.257812 0)"/>
      <use xlink:href="#DejaVuSans-6f" transform="translate(686.669922 0)"/>
      <use xlink:href="#DejaVuSans-62" transform="translate(747.851562 0)"/>
      <use xlink:href="#DejaVuSans-69" transform="translate(811.328125 0)"/>
      <use xlink:href="#DejaVuSans-6c" transform="translate(839.111328 0)"/>
      <use xlink:href="#DejaVuSans-65" transform="translate(866.894531 0)"/>
     </g>
    </g>
   </g>
   <g id="text_10">
    <g clip-path="url(#p953e2a5573)">
     <!-- inscription -->
     <g transform="translate(252.629798 362.667427) scale(0.08 -0.08)">
      <defs>
       <path id="DejaVuSans-70" d="M 1159 525 
L 1159 -1331 
L 581 -1331 
L 581 3500 
L 1159 3500 
L 1159 2969 
Q 1341 3281 1617 3432 
Q 1894 3584 2278 3584 
Q 2916 3584 3314 3078 
Q 3713 2572 3713 1747 
Q 3713 922 3314 415 
Q 2916 -91 2278 -91 
Q 1894 -91 1617 61 
Q 1341 213 1159 525 
z
M 3116 1747 
Q 3116 2381 2855 2742 
Q 2594 3103 2138 3103 
Q 1681 3103 1420 2742 
Q 1159 2381 1159 1747 
Q 1159 1113 1420 752 
Q 1681 391 2138 391 
Q 2594 391 2855 752 
Q 3116 1113 3116 1747 
z
" transform="scale(0.015625)"/>
      </defs>
      <use xlink:href="#DejaVuSans-69"/>
      <use xlink:href="#DejaVuSans-6e" transform="translate(27.783203 0)"/>
      <use xlink:href="#DejaVuSans-73" transform="translate(91.162109 0)"/>
      <use xlink:href="#DejaVuSans-63" transform="translate(143.261719 0)"/>
      <use xlink:href="#DejaVuSans-72" transform="translate(198.242188 0)"/>
      <use xlink:href="#DejaVuSans-69" transform="translate(239.355469 0)"/>
      <use xlink:href="#DejaVuSans-70" transform="translate(267.138672 0)"/>
      <use xlink:href="#DejaVuSans-74" transform="translate(330.615234 0)"/>
      <use xlink:href="#DejaVuSans-69" transform="translate(369.824219 0)"/>
      <use xlink:href="#DejaVuSans-6f" transform="translate(397.607422 0)"/>
      <use xlink:href="#DejaVuSans-6e" transform="translate(458.789062 0)"/>
     </g>
    </g>
   </g>
   <g id="text_11">
    <g clip-path="url(#p953e2a5573)">
     <!-- militar -->
     <g transform="translate(274.931967 243.454739) scale(0.08 -0.08)">
      <use xlink:href="#DejaVuSans-6d"/>
      <use xlink:href="#DejaVuSans-69" transform="translate(97.412109 0)"/>
      <use xlink:href="#DejaVuSans-6c" transform="translate(125.195312 0)"/>
      <use xlink:href="#DejaVuSans-69" transform="translate(152.978516 0)"/>
      <use xlink:href="#DejaVuSans-74" transform="translate(180.761719 0)"/>
      <use xlink:href="#DejaVuSans-61" transform="translate(219.970703 0)"/>
      <use xlink:href="#DejaVuSans-72" transform="translate(281.25 0)"/>
     </g>
    </g>
   </g>
   <g id="text_12">
    <g clip-path="url(#p953e2a5573)">
     <!-- network -->
     <g transform="translate(48.913275 226.466307) scale(0.08 -0.08)">
      <use xlink:href="#DejaVuSans-6e"/>
      <use xlink:href="#DejaVuSans-65" transform="translate(63.378906 0)"/>
      <use xlink:href="#DejaVuSans-74" transform="translate(124.902344 0)"/>
      <use xlink:href="#DejaVuSans-77" transform="translate(164.111328 0)"/>
      <use xlink:href="#DejaVuSans-6f" transform="translate(245.898438 0)"/>
      <use xlink:href="#DejaVuSans-72" transform="translate(307.080078 0)"/>
      <use xlink:href="#DejaVuSans-6b" transform="translate(348.193359 0)"/>
     </g>
    </g>
   </g>
   <g id="text_13">
    <g clip-path="url(#p953e2a5573)">
     <!-- proposition -->
     <g transform="translate(279.683393 157.549169) scale(0.08 -0.08)">
      <use xlink:href="#DejaVuSans-70"/>
      <use xlink:href="#DejaVuSans-72" transform="translate(63.476562 0)"/>
      <use xlink:href="#DejaVuSans-6f" transform="translate(102.339844 0)"/>
      <use xlink:href="#DejaVuSans-70" transform="translate(163.521484 0)"/>
      <use xlink:href="#DejaVuSans-6f" transform="translate(226.998047 0)"/>
      <use xlink:href="#DejaVuSans-73" transform="translate(288.179688 0)"/>
      <use xlink:href="#DejaVuSans-69" transform="translate(340.279297 0)"/>
      <use xlink:href="#DejaVuSans-74" transform="translate(368.0625 0)"/>
      <use xlink:href="#DejaVuSans-69" transform="translate(407.271484 0)"/>
      <use xlink:href="#DejaVuSans-6f" transform="translate(435.054688 0)"/>
      <use xlink:href="#DejaVuSans-6e" transform="translate(496.236328 0)"/>
     </g>
    </g>
   </g>
   <g id="text_14">
    <g clip-path="url(#p953e2a5573)">
     <!-- translation -->
     <g transform="translate(400.301481 259.979162) scale(0.08 -0.08)">
      <use xlink:href="#DejaVuSans-74"/>
      <use xlink:href="#DejaVuSans-72" transform="translate(39.208984 0)"/>
      <use xlink:href="#DejaVuSans-61" transform="translate(80.322266 0)"/>
      <use xlink:href="#DejaVuSans-6e" transform="translate(141.601562 0)"/>
      <use xlink:href="#DejaVuSans-73" transform="translate(204.980469 0)"/>
      <use xlink:href="#DejaVuSans-6c" transform="translate(257.080078 0)"/>
      <use xlink:href="#DejaVuSans-61" transform="translate(284.863281 0)"/>
      <use xlink:href="#DejaVuSans-74" transform="translate(346.142578 0)"/>
      <use xlink:href="#DejaVuSans-69" transform="translate(385.351562 0)"/>
      <use xlink:href="#DejaVuSans-6f" transform="translate(413.134766 0)"/>
      <use xlink:href="#DejaVuSans-6e" transform="translate(474.316406 0)"/>
     </g>
    </g>
   </g>
   <g id="text_15">
    <!-- Rede de cocorrência figural: latour_1999_pandora_en (janela 200 palavras) -->
    <g transform="translate(97.786875 21.24) scale(0.12 -0.12)">
     <defs>
      <path id="DejaVuSans-52" d="M 2841 2188 
Q 3044 2119 3236 1894 
Q 3428 1669 3622 1275 
L 4263 0 
L 3584 0 
L 2988 1197 
Q 2756 1666 2539 1819 
Q 2322 1972 1947 1972 
L 1259 1972 
L 1259 0 
L 628 0 
L 628 4666 
L 2053 4666 
Q 2853 4666 3247 4331 
Q 3641 3997 3641 3322 
Q 3641 2881 3436 2590 
Q 3231 2300 2841 2188 
z
M 1259 4147 
L 1259 2491 
L 2053 2491 
Q 2509 2491 2742 2702 
Q 2975 2913 2975 3322 
Q 2975 3731 2742 3939 
Q 2509 4147 2053 4147 
L 1259 4147 
z
" transform="scale(0.015625)"/>
      <path id="DejaVuSans-64" d="M 2906 2969 
L 2906 4863 
L 3481 4863 
L 3481 0 
L 2906 0 
L 2906 525 
Q 2725 213 2448 61 
Q 2172 -91 1784 -91 
Q 1150 -91 751 415 
Q 353 922 353 1747 
Q 353 2572 751 3078 
Q 1150 3584 1784 3584 
Q 2172 3584 2448 3432 
Q 2725 3281 2906 2969 
z
M 947 1747 
Q 947 1113 1208 752 
Q 1469 391 1925 391 
Q 2381 391 2643 752 
Q 2906 1113 2906 1747 
Q 2906 2381 2643 2742 
Q 2381 3103 1925 3103 
Q 1469 3103 1208 2742 
Q 947 2381 947 1747 
z
" transform="scale(0.015625)"/>
      <path id="DejaVuSans-20" transform="scale(0.015625)"/>
      <path id="DejaVuSans-ea" d="M 3597 1894 
L 3597 1613 
L 953 1613 
Q 991 1019 1311 708 
Q 1631 397 2203 397 
Q 2534 397 2845 478 
Q 3156 559 3463 722 
L 3463 178 
Q 3153 47 2828 -22 
Q 2503 -91 2169 -91 
Q 1331 -91 842 396 
Q 353 884 353 1716 
Q 353 2575 817 3079 
Q 1281 3584 2069 3584 
Q 2775 3584 3186 3129 
Q 3597 2675 3597 1894 
z
M 3022 2063 
Q 3016 2534 2758 2815 
Q 2500 3097 2075 3097 
Q 1594 3097 1305 2825 
Q 1016 2553 972 2059 
L 3022 2063 
z
M 1801 5119 
L 2263 5119 
L 3029 3944 
L 2595 3944 
L 2032 4709 
L 1470 3944 
L 1035 3944 
L 1801 5119 
z
" transform="scale(0.015625)"/>
      <path id="DejaVuSans-3a" d="M 750 794 
L 1409 794 
L 1409 0 
L 750 0 
L 750 794 
z
M 750 3309 
L 1409 3309 
L 1409 2516 
L 750 2516 
L 750 3309 
z
" transform="scale(0.015625)"/>
      <path id="DejaVuSans-31" d="M 794 531 
L 1825 531 
L 1825 4091 
L 703 3866 
L 703 4441 
L 1819 4666 
L 2450 4666 
L 2450 531 
L 3481 531 
L 3481 0 
L 794 0 
L 794 531 
z
" transform="scale(0.015625)"/>
      <path id="DejaVuSans-39" d="M 703 97 
L 703 672 
Q 941 559 1184 500 
Q 1428 441 1663 441 
Q 2288 441 2617 861 
Q 2947 1281 2994 2138 
Q 2813 1869 2534 1725 
Q 2256 1581 1919 1581 
Q 1219 1581 811 2004 
Q 403 2428 403 3163 
Q 403 3881 828 4315 
Q 1253 4750 1959 4750 
Q 2769 4750 3195 4129 
Q 3622 3509 3622 2328 
Q 3622 1225 3098 567 
Q 2575 -91 1691 -91 
Q 1453 -91 1209 -44 
Q 966 3 703 97 
z
M 1959 2075 
Q 2384 2075 2632 2365 
Q 2881 2656 2881 3163 
Q 2881 3666 2632 3958 
Q 2384 4250 1959 4250 
Q 1534 4250 1286 3958 
Q 1038 3666 1038 3163 
Q 1038 2656 1286 2365 
Q 1534 2075 1959 2075 
z
" transform="scale(0.015625)"/>
      <path id="DejaVuSans-28" d="M 1984 4856 
Q 1566 4138 1362 3434 
Q 1159 2731 1159 2009 
Q 1159 1288 1364 580 
Q 1569 -128 1984 -844 
L 1484 -844 
Q 1016 -109 783 600 
Q 550 1309 550 2009 
Q 550 2706 781 3412 
Q 1013 4119 1484 4856 
L 1984 4856 
z
" transform="scale(0.015625)"/>
      <path id="DejaVuSans-6a" d="M 603 3500 
L 1178 3500 
L 1178 -63 
Q 1178 -731 923 -1031 
Q 669 -1331 103 -1331 
L -116 -1331 
L -116 -844 
L 38 -844 
Q 366 -844 484 -692 
Q 603 -541 603 -63 
L 603 3500 
z
M 603 4863 
L 1178 4863 
L 1178 4134 
L 603 4134 
L 603 4863 
z
" transform="scale(0.015625)"/>
      <path id="DejaVuSans-32" d="M 1228 531 
L 3431 531 
L 3431 0 
L 469 0 
L 469 531 
Q 828 903 1448 1529 
Q 2069 2156 2228 2338 
Q 2531 2678 2651 2914 
Q 2772 3150 2772 3378 
Q 2772 3750 2511 3984 
Q 2250 4219 1831 4219 
Q 1534 4219 1204 4116 
Q 875 4013 500 3803 
L 500 4441 
Q 881 4594 1212 4672 
Q 1544 4750 1819 4750 
Q 2544 4750 2975 4387 
Q 3406 4025 3406 3419 
Q 3406 3131 3298 2873 
Q 3191 2616 2906 2266 
Q 2828 2175 2409 1742 
Q 1991 1309 1228 531 
z
" transform="scale(0.015625)"/>
      <path id="DejaVuSans-30" d="M 2034 4250 
Q 1547 4250 1301 3770 
Q 1056 3291 1056 2328 
Q 1056 1369 1301 889 
Q 1547 409 2034 409 
Q 2525 409 2770 889 
Q 3016 1369 3016 2328 
Q 3016 3291 2770 3770 
Q 2525 4250 2034 4250 
z
M 2034 4750 
Q 2819 4750 3233 4129 
Q 3647 3509 3647 2328 
Q 3647 1150 3233 529 
Q 2819 -91 2034 -91 
Q 1250 -91 836 529 
Q 422 1150 422 2328 
Q 422 3509 836 4129 
Q 1250 4750 2034 4750 
z
" transform="scale(0.015625)"/>
      <path id="DejaVuSans-76" d="M 191 3500 
L 800 3500 
L 1894 563 
L 2988 3500 
L 3597 3500 
L 2284 0 
L 1503 0 
L 191 3500 
z
" transform="scale(0.015625)"/>
      <path id="DejaVuSans-29" d="M 513 4856 
L 1013 4856 
Q 1481 4119 1714 3412 
Q 1947 2706 1947 2009 
Q 1947 1309 1714 600 
Q 1481 -109 1013 -844 
L 513 -844 
Q 928 -128 1133 580 
Q 1338 1288 1338 2009 
Q 1338 2731 1133 3434 
Q 928 4138 513 4856 
z
" transform="scale(0.015625)"/>
     </defs>
     <use xlink:href="#DejaVuSans-52"/>
     <use xlink:href="#DejaVuSans-65" transform="translate(64.982422 0)"/>
     <use xlink:href="#DejaVuSans-64" transform="translate(126.505859 0)"/>
     <use xlink:href="#DejaVuSans-65" transform="translate(189.982422 0)"/>
     <use xlink:href="#DejaVuSans-20" transform="translate(251.505859 0)"/>
     <use xlink:href="#DejaVuSans-64" transform="translate(283.292969 0)"/>
     <use xlink:href="#DejaVuSans-65" transform="translate(346.769531 0)"/>
     <use xlink:href="#DejaVuSans-20" transform="translate(408.292969 0)"/>
     <use xlink:href="#DejaVuSans-63" transform="translate(440.080078 0)"/>
     <use xlink:href="#DejaVuSans-6f" transform="translate(495.060547 0)"/>
     <use xlink:href="#DejaVuSans-63" transform="translate(556.242188 0)"/>
     <use xlink:href="#DejaVuSans-6f" transform="translate(611.222656 0)"/>
     <use xlink:href="#DejaVuSans-72" transform="translate(672.404297 0)"/>
     <use xlink:href="#DejaVuSans-72" transform="translate(711.767578 0)"/>
     <use xlink:href="#DejaVuSans-ea" transform="translate(750.630859 0)"/>
     <use xlink:href="#DejaVuSans-6e" transform="translate(812.154297 0)"/>
     <use xlink:href="#DejaVuSans-63" transform="translate(875.533203 0)"/>
     <use xlink:href="#DejaVuSans-69" transform="translate(930.513672 0)"/>
     <use xlink:href="#DejaVuSans-61" transform="translate(958.296875 0)"/>
     <use xlink:href="#DejaVuSans-20" transform="translate(1019.576172 0)"/>
     <use xlink:href="#DejaVuSans-66" transform="translate(1051.363281 0)"/>
     <use xlink:href="#DejaVuSans-69" transform="translate(1086.568359 0)"/>
     <use xlink:href="#DejaVuSans-67" transform="translate(1114.351562 0)"/>
     <use xlink:href="#DejaVuSans-75" transform="translate(1177.828125 0)"/>
     <use xlink:href="#DejaVuSans-72" transform="translate(1241.207031 0)"/>
     <use xlink:href="#DejaVuSans-61" transform="translate(1282.320312 0)"/>
     <use xlink:href="#DejaVuSans-6c" transform="translate(1343.599609 0)"/>
     <use xlink:href="#DejaVuSans-3a" transform="translate(1371.382812 0)"/>
     <use xlink:href="#DejaVuSans-20" transform="translate(1405.074219 0)"/>
     <use xlink:href="#DejaVuSans-6c" transform="translate(1436.861328 0)"/>
     <use xlink:href="#DejaVuSans-61" transform="translate(1464.644531 0)"/>
     <use xlink:href="#DejaVuSans-74" transform="translate(1525.923828 0)"/>
     <use xlink:href="#DejaVuSans-6f" transform="translate(1565.132812 0)"/>
     <use xlink:href="#DejaVuSans-75" transform="translate(1626.314453 0)"/>
     <use xlink:href="#DejaVuSans-72" transform="translate(1689.693359 0)"/>
     <use xlink:href="#DejaVuSans-5f" transform="translate(1730.806641 0)"/>
     <use xlink:href="#DejaVuSans-31" transform="translate(1780.806641 0)"/>
     <use xlink:href="#DejaVuSans-39" transform="translate(1844.429688 0)"/>
     <use xlink:href="#DejaVuSans-39" transform="translate(1908.052734 0)"/>
     <use xlink:href="#DejaVuSans-39" transform="translate(1971.675781 0)"/>
     <use xlink:href="#DejaVuSans-5f" transform="translate(2035.298828 0)"/>
     <use xlink:href="#DejaVuSans-70" transform="translate(2085.298828 0)"/>
     <use xlink:href="#DejaVuSans-61" transform="translate(2148.775391 0)"/>
     <use xlink:href="#DejaVuSans-6e" transform="translate(2210.054688 0)"/>
     <use xlink:href="#DejaVuSans-64" transform="translate(2273.433594 0)"/>
     <use xlink:href="#DejaVuSans-6f" transform="translate(2336.910156 0)"/>
     <use xlink:href="#DejaVuSans-72" transform="translate(2398.091797 0)"/>
     <use xlink:href="#DejaVuSans-61" transform="translate(2439.205078 0)"/>
     <use xlink:href="#DejaVuSans-5f" transform="translate(2500.484375 0)"/>
     <use xlink:href="#DejaVuSans-65" transform="translate(2550.484375 0)"/>
     <use xlink:href="#DejaVuSans-6e" transform="translate(2612.007812 0)"/>
     <use xlink:href="#DejaVuSans-20" transform="translate(2675.386719 0)"/>
     <use xlink:href="#DejaVuSans-28" transform="translate(2707.173828 0)"/>
     <use xlink:href="#DejaVuSans-6a" transform="translate(2746.1875 0)"/>
     <use xlink:href="#DejaVuSans-61" transform="translate(2773.970703 0)"/>
     <use xlink:href="#DejaVuSans-6e" transform="translate(2835.25 0)"/>
     <use xlink:href="#DejaVuSans-65" transform="translate(2898.628906 0)"/>
     <use xlink:href="#DejaVuSans-6c" transform="translate(2960.152344 0)"/>
     <use xlink:href="#DejaVuSans-61" transform="translate(2987.935547 0)"/>
     <use xlink:href="#DejaVuSans-20" transform="translate(3049.214844 0)"/>
     <use xlink:href="#DejaVuSans-32" transform="translate(3081.001953 0)"/>
     <use xlink:href="#DejaVuSans-30" transform="translate(3144.625 0)"/>
     <use xlink:href="#DejaVuSans-30" transform="translate(3208.248047 0)"/>
     <use xlink:href="#DejaVuSans-20" transform="translate(3271.871094 0)"/>
     <use xlink:href="#DejaVuSans-70" transform="translate(3303.658203 0)"/>
     <use xlink:href="#DejaVuSans-61" transform="translate(3367.134766 0)"/>
     <use xlink:href="#DejaVuSans-6c" transform="translate(3428.414062 0)"/>
     <use xlink:href="#DejaVuSans-61" transform="translate(3456.197266 0)"/>
     <use xlink:href="#DejaVuSans-76" transform="translate(3517.476562 0)"/>
     <use xlink:href="#DejaVuSans-72" transform="translate(3576.65625 0)"/>
     <use xlink:href="#DejaVuSans-61" transform="translate(3617.769531 0)"/>
     <use xlink:href="#DejaVuSans-73" transform="translate(3679.048828 0)"/>
     <use xlink:href="#DejaVuSans-29" transform="translate(3731.148438 0)"/>
    </g>
   </g>
  </g>
 </g>
 <defs>
  <clipPath id="p953e2a5573">
   <rect x="10.8" y="27.24" width="626.4" height="465.96"/>
  </clipPath>
 </defs>
</svg>
