<?xml version="1.0" encoding="utf-8" standalone="no"?>
<!DOCTYPE svg PUBLIC "-//W3C//DTD SVG 1.1//EN"
  "http://www.w3.org/Graphics/SVG/1.1/DTD/svg11.dtd">
<svg xmlns:xlink="http://www.w3.org/1999/xlink" width="648pt" height="504pt" viewBox="0 0 648 504" xmlns="http://www.w3.org/2000/svg" version="1.1">
 <metadata>
  <rdf:RDF xmlns:dc="http://purl.org/dc/elements/1.1/" xmlns:cc="http://creativecommons.org/ns#" xmlns:rdf="http://www.w3.org/1999/02/22-rdf-syntax-ns#">
   <cc:Work>
    <dc:type rdf:resource="http://purl.org/dc/dcmitype/StillImage"/>
    <dc:date>2026-05-15T14:46:47.310521</dc:date>
    <dc:format>image/svg+xml</dc:format>
    <dc:creator>
     <cc:Agent>
      <dc:title>Matplotlib v3.10.9, https://matplotlib.org/</dc:title>
     </cc:Agent>
    </dc:creator>
   </cc:Work>
  </rdf:RDF>
 </metadata>
 <defs>
  <style type="text/css">*{stroke-linejoin: round; stroke-linecap: butt}</style>
 </defs>
 <g id="figure_1">
  <g id="patch_1">
   <path d="M 0 504 
L 648 504 
L 648 0 
L 0 0 
z
" style="fill: #ffffff"/>
  </g>
  <g id="axes_1">
   <g id="LineCollection_1">
    <path d="M 326.342297 310.409337 
L 354.742751 259.916515 
" clip-path="url(#pbc4937b0cd)" style="fill: none; stroke: #000000; stroke-opacity: 0.45; stroke-width: 4.218377"/>
    <path d="M 326.342297 310.409337 
L 326.184165 209.612767 
" clip-path="url(#pbc4937b0cd)" style="fill: none; stroke: #000000; stroke-opacity: 0.45; stroke-width: 1.193725"/>
    <path d="M 326.342297 310.409337 
L 161.262293 451.338843 
" clip-path="url(#pbc4937b0cd)" style="fill: none; stroke: #000000; stroke-opacity: 0.45; stroke-width: 0.919615"/>
    <path d="M 326.342297 310.409337 
L 311.923079 255.52047 
" clip-path="url(#pbc4937b0cd)" style="fill: none; stroke: #000000; stroke-opacity: 0.45; stroke-width: 3.429851"/>
    <path d="M 326.342297 310.409337 
L 65.157025 234.68612 
" clip-path="url(#pbc4937b0cd)" style="fill: none; stroke: #000000; stroke-opacity: 0.45"/>
    <path d="M 326.342297 310.409337 
L 582.842975 342.508734 
" clip-path="url(#pbc4937b0cd)" style="fill: none; stroke: #000000; stroke-opacity: 0.45; stroke-width: 0.7"/>
    <path d="M 456.680233 52.661157 
L 311.923079 255.52047 
" clip-path="url(#pbc4937b0cd)" style="fill: none; stroke: #000000; stroke-opacity: 0.45; stroke-width: 0.824264"/>
    <path d="M 456.680233 52.661157 
L 354.742751 259.916515 
" clip-path="url(#pbc4937b0cd)" style="fill: none; stroke: #000000; stroke-opacity: 0.45; stroke-width: 1.07082"/>
    <path d="M 456.680233 52.661157 
L 326.184165 209.612767 
" clip-path="url(#pbc4937b0cd)" style="fill: none; stroke: #000000; stroke-opacity: 0.45; stroke-width: 1.07082"/>
    <path d="M 161.262293 451.338843 
L 354.742751 259.916515 
" clip-path="url(#pbc4937b0cd)" style="fill: none; stroke: #000000; stroke-opacity: 0.45; stroke-width: 0.919615"/>
    <path d="M 161.262293 451.338843 
L 326.184165 209.612767 
" clip-path="url(#pbc4937b0cd)" style="fill: none; stroke: #000000; stroke-opacity: 0.45; stroke-width: 0.824264"/>
    <path d="M 161.262293 451.338843 
L 311.923079 255.52047 
" clip-path="url(#pbc4937b0cd)" style="fill: none; stroke: #000000; stroke-opacity: 0.45; stroke-width: 0.919615"/>
    <path d="M 65.157025 234.68612 
L 354.742751 259.916515 
" clip-path="url(#pbc4937b0cd)" style="fill: none; stroke: #000000; stroke-opacity: 0.45; stroke-width: 1.348683"/>
    <path d="M 65.157025 234.68612 
L 311.923079 255.52047 
" clip-path="url(#pbc4937b0cd)" style="fill: none; stroke: #000000; stroke-opacity: 0.45; stroke-width: 0.919615"/>
    <path d="M 65.157025 234.68612 
L 582.842975 342.508734 
" clip-path="url(#pbc4937b0cd)" style="fill: none; stroke: #000000; stroke-opacity: 0.45; stroke-width: 0.7"/>
    <path d="M 65.157025 234.68612 
L 326.184165 209.612767 
" clip-path="url(#pbc4937b0cd)" style="fill: none; stroke: #000000; stroke-opacity: 0.45; stroke-width: 0.824264"/>
    <path d="M 354.742751 259.916515 
L 326.184165 209.612767 
" clip-path="url(#pbc4937b0cd)" style="fill: none; stroke: #000000; stroke-opacity: 0.45; stroke-width: 3.820526"/>
    <path d="M 354.742751 259.916515 
L 311.923079 255.52047 
" clip-path="url(#pbc4937b0cd)" style="fill: none; stroke: #000000; stroke-opacity: 0.45; stroke-width: 8.794641"/>
    <path d="M 354.742751 259.916515 
L 582.842975 342.508734 
" clip-path="url(#pbc4937b0cd)" style="fill: none; stroke: #000000; stroke-opacity: 0.45; stroke-width: 1.07082"/>
    <path d="M 326.184165 209.612767 
L 311.923079 255.52047 
" clip-path="url(#pbc4937b0cd)" style="fill: none; stroke: #000000; stroke-opacity: 0.45; stroke-width: 4.869899"/>
    <path d="M 326.184165 209.612767 
L 582.842975 342.508734 
" clip-path="url(#pbc4937b0cd)" style="fill: none; stroke: #000000; stroke-opacity: 0.45; stroke-width: 0.824264"/>
    <path d="M 311.923079 255.52047 
L 582.842975 342.508734 
" clip-path="url(#pbc4937b0cd)" style="fill: none; stroke: #000000; stroke-opacity: 0.45; stroke-width: 1.248528"/>
   </g>
   <g id="PathCollection_1">
    <path d="M 326.342297 322.121637 
C 329.448435 322.121637 332.427772 320.887556 334.624144 318.691184 
C 336.820515 316.494813 338.054597 313.515476 338.054597 310.409337 
C 338.054597 307.303199 336.820515 304.323862 334.624144 302.12749 
C 332.427772 299.931119 329.448435 298.697037 326.342297 298.697037 
C 323.236158 298.697037 320.256821 299.931119 318.06045 302.12749 
C 315.864078 304.323862 314.629996 307.303199 314.629996 310.409337 
C 314.629996 313.515476 315.864078 316.494813 318.06045 318.691184 
C 320.256821 320.887556 323.236158 322.121637 326.342297 322.121637 
z
" clip-path="url(#pbc4937b0cd)" style="fill: #4c72b0; stroke: #ffffff; stroke-width: 1.5"/>
    <path d="M 456.680233 61.027757 
C 458.899081 61.027757 461.02735 60.1462 462.596312 58.577237 
C 464.165275 57.008274 465.046833 54.880005 465.046833 52.661157 
C 465.046833 50.442309 464.165275 48.31404 462.596312 46.745077 
C 461.02735 45.176115 458.899081 44.294557 456.680233 44.294557 
C 454.461384 44.294557 452.333115 45.176115 450.764153 46.745077 
C 449.19519 48.31404 448.313632 50.442309 448.313632 52.661157 
C 448.313632 54.880005 449.19519 57.008274 450.764153 58.577237 
C 452.333115 60.1462 454.461384 61.027757 456.680233 61.027757 
z
" clip-path="url(#pbc4937b0cd)" style="fill: #4c72b0; stroke: #ffffff; stroke-width: 1.5"/>
    <path d="M 161.262293 460.186683 
C 163.608768 460.186683 165.859453 459.254419 167.518661 457.595211 
C 169.177869 455.936002 170.110133 453.685318 170.110133 451.338843 
C 170.110133 448.992368 169.177869 446.741683 167.518661 445.082475 
C 165.859453 443.423267 163.608768 442.491003 161.262293 442.491003 
C 158.915819 442.491003 156.665134 443.423267 155.005926 445.082475 
C 153.346718 446.741683 152.414453 448.992368 152.414453 451.338843 
C 152.414453 453.685318 153.346718 455.936002 155.005926 457.595211 
C 156.665134 459.254419 158.915819 460.186683 161.262293 460.186683 
z
" clip-path="url(#pbc4937b0cd)" style="fill: #4c72b0; stroke: #ffffff; stroke-width: 1.5"/>
    <path d="M 65.157025 243.886176 
C 67.596908 243.886176 69.937188 242.9168 71.662446 241.191542 
C 73.387704 239.466284 74.35708 237.126003 74.35708 234.68612 
C 74.35708 232.246237 73.387704 229.905957 71.662446 228.180699 
C 69.937188 226.455441 67.596908 225.486065 65.157025 225.486065 
C 62.717142 225.486065 60.376861 226.455441 58.651603 228.180699 
C 56.926345 229.905957 55.95697 232.246237 55.95697 234.68612 
C 55.95697 237.126003 56.926345 239.466284 58.651603 241.191542 
C 60.376861 242.9168 62.717142 243.886176 65.157025 243.886176 
z
" clip-path="url(#pbc4937b0cd)" style="fill: #4c72b0; stroke: #ffffff; stroke-width: 1.5"/>
    <path d="M 354.742751 275.500899 
C 358.875778 275.500899 362.840083 273.85883 365.762574 270.936338 
C 368.685065 268.013847 370.327134 264.049542 370.327134 259.916515 
C 370.327134 255.783488 368.685065 251.819183 365.762574 248.896692 
C 362.840083 245.9742 358.875778 244.332131 354.742751 244.332131 
C 350.609724 244.332131 346.645419 245.9742 343.722927 248.896692 
C 340.800436 251.819183 339.158367 255.783488 339.158367 259.916515 
C 339.158367 264.049542 340.800436 268.013847 343.722927 270.936338 
C 346.645419 273.85883 350.609724 275.500899 354.742751 275.500899 
z
" clip-path="url(#pbc4937b0cd)" style="fill: #4c72b0; stroke: #ffffff; stroke-width: 1.5"/>
    <path d="M 326.184165 222.837742 
C 329.69147 222.837742 333.055596 221.444275 335.535635 218.964236 
C 338.015673 216.484197 339.40914 213.120071 339.40914 209.612767 
C 339.40914 206.105462 338.015673 202.741336 335.535635 200.261297 
C 333.055596 197.781259 329.69147 196.387792 326.184165 196.387792 
C 322.676861 196.387792 319.312735 197.781259 316.832696 200.261297 
C 314.352657 202.741336 312.95919 206.105462 312.95919 209.612767 
C 312.95919 213.120071 314.352657 216.484197 316.832696 218.964236 
C 319.312735 221.444275 322.676861 222.837742 326.184165 222.837742 
z
" clip-path="url(#pbc4937b0cd)" style="fill: #4c72b0; stroke: #ffffff; stroke-width: 1.5"/>
    <path d="M 311.923079 271.868425 
C 316.258607 271.868425 320.417147 270.145901 323.482828 267.08022 
C 326.548509 264.014538 328.271033 259.855998 328.271033 255.52047 
C 328.271033 251.184942 326.548509 247.026402 323.482828 243.960721 
C 320.417147 240.89504 316.258607 239.172516 311.923079 239.172516 
C 307.58755 239.172516 303.429011 240.89504 300.363329 243.960721 
C 297.297648 247.026402 295.575124 251.184942 295.575124 255.52047 
C 295.575124 259.855998 297.297648 264.014538 300.363329 267.08022 
C 303.429011 270.145901 307.58755 271.868425 311.923079 271.868425 
z
" clip-path="url(#pbc4937b0cd)" style="fill: #4c72b0; stroke: #ffffff; stroke-width: 1.5"/>
    <path d="M 582.842975 351.995567 
C 585.358913 351.995567 587.772143 350.995974 589.551179 349.216938 
C 591.330216 347.437901 592.329808 345.024671 592.329808 342.508734 
C 592.329808 339.992796 591.330216 337.579566 589.551179 335.80053 
C 587.772143 334.021493 585.358913 333.021901 582.842975 333.021901 
C 580.327038 333.021901 577.913808 334.021493 576.134771 335.80053 
C 574.355735 337.579566 573.356142 339.992796 573.356142 342.508734 
C 573.356142 345.024671 574.355735 347.437901 576.134771 349.216938 
C 577.913808 350.995974 580.327038 351.995567 582.842975 351.995567 
z
" clip-path="url(#pbc4937b0cd)" style="fill: #4c72b0; stroke: #ffffff; stroke-width: 1.5"/>
   </g>
   <g id="text_1">
    <g clip-path="url(#pbc4937b0cd)">
     <!-- actor_network -->
     <g transform="translate(297.787922 312.505587) scale(0.08 -0.08)">
      <defs>
       <path id="DejaVuSans-61" d="M 2194 1759 
Q 1497 1759 1228 1600 
Q 959 1441 959 1056 
Q 959 750 1161 570 
Q 1363 391 1709 391 
Q 2188 391 2477 730 
Q 2766 1069 2766 1631 
L 2766 1759 
L 2194 1759 
z
M 3341 1997 
L 3341 0 
L 2766 0 
L 2766 531 
Q 2569 213 2275 61 
Q 1981 -91 1556 -91 
Q 1019 -91 701 211 
Q 384 513 384 1019 
Q 384 1609 779 1909 
Q 1175 2209 1959 2209 
L 2766 2209 
L 2766 2266 
Q 2766 2663 2505 2880 
Q 2244 3097 1772 3097 
Q 1472 3097 1187 3025 
Q 903 2953 641 2809 
L 641 3341 
Q 956 3463 1253 3523 
Q 1550 3584 1831 3584 
Q 2591 3584 2966 3190 
Q 3341 2797 3341 1997 
z
" transform="scale(0.015625)"/>
       <path id="DejaVuSans-63" d="M 3122 3366 
L 3122 2828 
Q 2878 2963 2633 3030 
Q 2388 3097 2138 3097 
Q 1578 3097 1268 2742 
Q 959 2388 959 1747 
Q 959 1106 1268 751 
Q 1578 397 2138 397 
Q 2388 397 2633 464 
Q 2878 531 3122 666 
L 3122 134 
Q 2881 22 2623 -34 
Q 2366 -91 2075 -91 
Q 1284 -91 818 406 
Q 353 903 353 1747 
Q 353 2603 823 3093 
Q 1294 3584 2113 3584 
Q 2378 3584 2631 3529 
Q 2884 3475 3122 3366 
z
" transform="scale(0.015625)"/>
       <path id="DejaVuSans-74" d="M 1172 4494 
L 1172 3500 
L 2356 3500 
L 2356 3053 
L 1172 3053 
L 1172 1153 
Q 1172 725 1289 603 
Q 1406 481 1766 481 
L 2356 481 
L 2356 0 
L 1766 0 
Q 1100 0 847 248 
Q 594 497 594 1153 
L 594 3053 
L 172 3053 
L 172 3500 
L 594 3500 
L 594 4494 
L 1172 4494 
z
" transform="scale(0.015625)"/>
       <path id="DejaVuSans-6f" d="M 1959 3097 
Q 1497 3097 1228 2736 
Q 959 2375 959 1747 
Q 959 1119 1226 758 
Q 1494 397 1959 397 
Q 2419 397 2687 759 
Q 2956 1122 2956 1747 
Q 2956 2369 2687 2733 
Q 2419 3097 1959 3097 
z
M 1959 3584 
Q 2709 3584 3137 3096 
Q 3566 2609 3566 1747 
Q 3566 888 3137 398 
Q 2709 -91 1959 -91 
Q 1206 -91 779 398 
Q 353 888 353 1747 
Q 353 2609 779 3096 
Q 1206 3584 1959 3584 
z
" transform="scale(0.015625)"/>
       <path id="DejaVuSans-72" d="M 2631 2963 
Q 2534 3019 2420 3045 
Q 2306 3072 2169 3072 
Q 1681 3072 1420 2755 
Q 1159 2438 1159 1844 
L 1159 0 
L 581 0 
L 581 3500 
L 1159 3500 
L 1159 2956 
Q 1341 3275 1631 3429 
Q 1922 3584 2338 3584 
Q 2397 3584 2469 3576 
Q 2541 3569 2628 3553 
L 2631 2963 
z
" transform="scale(0.015625)"/>
       <path id="DejaVuSans-5f" d="M 3263 -1063 
L 3263 -1509 
L -63 -1509 
L -63 -1063 
L 3263 -1063 
z
" transform="scale(0.015625)"/>
       <path id="DejaVuSans-6e" d="M 3513 2113 
L 3513 0 
L 2938 0 
L 2938 2094 
Q 2938 2591 2744 2837 
Q 2550 3084 2163 3084 
Q 1697 3084 1428 2787 
Q 1159 2491 1159 1978 
L 1159 0 
L 581 0 
L 581 3500 
L 1159 3500 
L 1159 2956 
Q 1366 3272 1645 3428 
Q 1925 3584 2291 3584 
Q 2894 3584 3203 3211 
Q 3513 2838 3513 2113 
z
" transform="scale(0.015625)"/>
       <path id="DejaVuSans-65" d="M 3597 1894 
L 3597 1613 
L 953 1613 
Q 991 1019 1311 708 
Q 1631 397 2203 397 
Q 2534 397 2845 478 
Q 3156 559 3463 722 
L 3463 178 
Q 3153 47 2828 -22 
Q 2503 -91 2169 -91 
Q 1331 -91 842 396 
Q 353 884 353 1716 
Q 353 2575 817 3079 
Q 1281 3584 2069 3584 
Q 2775 3584 3186 3129 
Q 3597 2675 3597 1894 
z
M 3022 2063 
Q 3016 2534 2758 2815 
Q 2500 3097 2075 3097 
Q 1594 3097 1305 2825 
Q 1016 2553 972 2059 
L 3022 2063 
z
" transform="scale(0.015625)"/>
       <path id="DejaVuSans-77" d="M 269 3500 
L 844 3500 
L 1563 769 
L 2278 3500 
L 2956 3500 
L 3675 769 
L 4391 3500 
L 4966 3500 
L 4050 0 
L 3372 0 
L 2619 2869 
L 1863 0 
L 1184 0 
L 269 3500 
z
" transform="scale(0.015625)"/>
       <path id="DejaVuSans-6b" d="M 581 4863 
L 1159 4863 
L 1159 1991 
L 2875 3500 
L 3609 3500 
L 1753 1863 
L 3688 0 
L 2938 0 
L 1159 1709 
L 1159 0 
L 581 0 
L 581 4863 
z
" transform="scale(0.015625)"/>
      </defs>
      <use xlink:href="#DejaVuSans-61"/>
      <use xlink:href="#DejaVuSans-63" transform="translate(61.279297 0)"/>
      <use xlink:href="#DejaVuSans-74" transform="translate(116.259766 0)"/>
      <use xlink:href="#DejaVuSans-6f" transform="translate(155.46875 0)"/>
      <use xlink:href="#DejaVuSans-72" transform="translate(216.650391 0)"/>
      <use xlink:href="#DejaVuSans-5f" transform="translate(257.763672 0)"/>
      <use xlink:href="#DejaVuSans-6e" transform="translate(307.763672 0)"/>
      <use xlink:href="#DejaVuSans-65" transform="translate(371.142578 0)"/>
      <use xlink:href="#DejaVuSans-74" transform="translate(432.666016 0)"/>
      <use xlink:href="#DejaVuSans-77" transform="translate(471.875 0)"/>
      <use xlink:href="#DejaVuSans-6f" transform="translate(553.662109 0)"/>
      <use xlink:href="#DejaVuSans-72" transform="translate(614.84375 0)"/>
      <use xlink:href="#DejaVuSans-6b" transform="translate(655.957031 0)"/>
     </g>
    </g>
   </g>
   <g id="text_2">
    <g clip-path="url(#pbc4937b0cd)">
     <!-- centre_of_calculation -->
     <g transform="translate(414.324608 54.757407) scale(0.08 -0.08)">
      <defs>
       <path id="DejaVuSans-66" d="M 2375 4863 
L 2375 4384 
L 1825 4384 
Q 1516 4384 1395 4259 
Q 1275 4134 1275 3809 
L 1275 3500 
L 2222 3500 
L 2222 3053 
L 1275 3053 
L 1275 0 
L 697 0 
L 697 3053 
L 147 3053 
L 147 3500 
L 697 3500 
L 697 3744 
Q 697 4328 969 4595 
Q 1241 4863 1831 4863 
L 2375 4863 
z
" transform="scale(0.015625)"/>
       <path id="DejaVuSans-6c" d="M 603 4863 
L 1178 4863 
L 1178 0 
L 603 0 
L 603 4863 
z
" transform="scale(0.015625)"/>
       <path id="DejaVuSans-75" d="M 544 1381 
L 544 3500 
L 1119 3500 
L 1119 1403 
Q 1119 906 1312 657 
Q 1506 409 1894 409 
Q 2359 409 2629 706 
Q 2900 1003 2900 1516 
L 2900 3500 
L 3475 3500 
L 3475 0 
L 2900 0 
L 2900 538 
Q 2691 219 2414 64 
Q 2138 -91 1772 -91 
Q 1169 -91 856 284 
Q 544 659 544 1381 
z
M 1991 3584 
L 1991 3584 
z
" transform="scale(0.015625)"/>
       <path id="DejaVuSans-69" d="M 603 3500 
L 1178 3500 
L 1178 0 
L 603 0 
L 603 3500 
z
M 603 4863 
L 1178 4863 
L 1178 4134 
L 603 4134 
L 603 4863 
z
" transform="scale(0.015625)"/>
      </defs>
      <use xlink:href="#DejaVuSans-63"/>
      <use xlink:href="#DejaVuSans-65" transform="translate(54.980469 0)"/>
      <use xlink:href="#DejaVuSans-6e" transform="translate(116.503906 0)"/>
      <use xlink:href="#DejaVuSans-74" transform="translate(179.882812 0)"/>
      <use xlink:href="#DejaVuSans-72" transform="translate(219.091797 0)"/>
      <use xlink:href="#DejaVuSans-65" transform="translate(257.955078 0)"/>
      <use xlink:href="#DejaVuSans-5f" transform="translate(319.478516 0)"/>
      <use xlink:href="#DejaVuSans-6f" transform="translate(369.478516 0)"/>
      <use xlink:href="#DejaVuSans-66" transform="translate(430.660156 0)"/>
      <use xlink:href="#DejaVuSans-5f" transform="translate(465.865234 0)"/>
      <use xlink:href="#DejaVuSans-63" transform="translate(515.865234 0)"/>
      <use xlink:href="#DejaVuSans-61" transform="translate(570.845703 0)"/>
      <use xlink:href="#DejaVuSans-6c" transform="translate(632.125 0)"/>
      <use xlink:href="#DejaVuSans-63" transform="translate(659.908203 0)"/>
      <use xlink:href="#DejaVuSans-75" transform="translate(714.888672 0)"/>
      <use xlink:href="#DejaVuSans-6c" transform="translate(778.267578 0)"/>
      <use xlink:href="#DejaVuSans-61" transform="translate(806.050781 0)"/>
      <use xlink:href="#DejaVuSans-74" transform="translate(867.330078 0)"/>
      <use xlink:href="#DejaVuSans-69" transform="translate(906.539062 0)"/>
      <use xlink:href="#DejaVuSans-6f" transform="translate(934.322266 0)"/>
      <use xlink:href="#DejaVuSans-6e" transform="translate(995.503906 0)"/>
     </g>
    </g>
   </g>
   <g id="text_3">
    <g clip-path="url(#pbc4937b0cd)">
     <!-- construction -->
     <g transform="translate(136.387918 453.546343) scale(0.08 -0.08)">
      <defs>
       <path id="DejaVuSans-73" d="M 2834 3397 
L 2834 2853 
Q 2591 2978 2328 3040 
Q 2066 3103 1784 3103 
Q 1356 3103 1142 2972 
Q 928 2841 928 2578 
Q 928 2378 1081 2264 
Q 1234 2150 1697 2047 
L 1894 2003 
Q 2506 1872 2764 1633 
Q 3022 1394 3022 966 
Q 3022 478 2636 193 
Q 2250 -91 1575 -91 
Q 1294 -91 989 -36 
Q 684 19 347 128 
L 347 722 
Q 666 556 975 473 
Q 1284 391 1588 391 
Q 1994 391 2212 530 
Q 2431 669 2431 922 
Q 2431 1156 2273 1281 
Q 2116 1406 1581 1522 
L 1381 1569 
Q 847 1681 609 1914 
Q 372 2147 372 2553 
Q 372 3047 722 3315 
Q 1072 3584 1716 3584 
Q 2034 3584 2315 3537 
Q 2597 3491 2834 3397 
z
" transform="scale(0.015625)"/>
      </defs>
      <use xlink:href="#DejaVuSans-63"/>
      <use xlink:href="#DejaVuSans-6f" transform="translate(54.980469 0)"/>
      <use xlink:href="#DejaVuSans-6e" transform="translate(116.162109 0)"/>
      <use xlink:href="#DejaVuSans-73" transform="translate(179.541016 0)"/>
      <use xlink:href="#DejaVuSans-74" transform="translate(231.640625 0)"/>
      <use xlink:href="#DejaVuSans-72" transform="translate(270.849609 0)"/>
      <use xlink:href="#DejaVuSans-75" transform="translate(311.962891 0)"/>
      <use xlink:href="#DejaVuSans-63" transform="translate(375.341797 0)"/>
      <use xlink:href="#DejaVuSans-74" transform="translate(430.322266 0)"/>
      <use xlink:href="#DejaVuSans-69" transform="translate(469.53125 0)"/>
      <use xlink:href="#DejaVuSans-6f" transform="translate(497.314453 0)"/>
      <use xlink:href="#DejaVuSans-6e" transform="translate(558.496094 0)"/>
     </g>
    </g>
   </g>
   <g id="text_4">
    <g clip-path="url(#pbc4937b0cd)">
     <!-- militar -->
     <g transform="translate(52.263275 236.89362) scale(0.08 -0.08)">
      <defs>
       <path id="DejaVuSans-6d" d="M 3328 2828 
Q 3544 3216 3844 3400 
Q 4144 3584 4550 3584 
Q 5097 3584 5394 3201 
Q 5691 2819 5691 2113 
L 5691 0 
L 5113 0 
L 5113 2094 
Q 5113 2597 4934 2840 
Q 4756 3084 4391 3084 
Q 3944 3084 3684 2787 
Q 3425 2491 3425 1978 
L 3425 0 
L 2847 0 
L 2847 2094 
Q 2847 2600 2669 2842 
Q 2491 3084 2119 3084 
Q 1678 3084 1418 2786 
Q 1159 2488 1159 1978 
L 1159 0 
L 581 0 
L 581 3500 
L 1159 3500 
L 1159 2956 
Q 1356 3278 1631 3431 
Q 1906 3584 2284 3584 
Q 2666 3584 2933 3390 
Q 3200 3197 3328 2828 
z
" transform="scale(0.015625)"/>
      </defs>
      <use xlink:href="#DejaVuSans-6d"/>
      <use xlink:href="#DejaVuSans-69" transform="translate(97.412109 0)"/>
      <use xlink:href="#DejaVuSans-6c" transform="translate(125.195312 0)"/>
      <use xlink:href="#DejaVuSans-69" transform="translate(152.978516 0)"/>
      <use xlink:href="#DejaVuSans-74" transform="translate(180.761719 0)"/>
      <use xlink:href="#DejaVuSans-61" transform="translate(219.970703 0)"/>
      <use xlink:href="#DejaVuSans-72" transform="translate(281.25 0)"/>
     </g>
    </g>
   </g>
   <g id="text_5">
    <g clip-path="url(#pbc4937b0cd)">
     <!-- network -->
     <g transform="translate(338.499001 262.124015) scale(0.08 -0.08)">
      <use xlink:href="#DejaVuSans-6e"/>
      <use xlink:href="#DejaVuSans-65" transform="translate(63.378906 0)"/>
      <use xlink:href="#DejaVuSans-74" transform="translate(124.902344 0)"/>
      <use xlink:href="#DejaVuSans-77" transform="translate(164.111328 0)"/>
      <use xlink:href="#DejaVuSans-6f" transform="translate(245.898438 0)"/>
      <use xlink:href="#DejaVuSans-72" transform="translate(307.080078 0)"/>
      <use xlink:href="#DejaVuSans-6b" transform="translate(348.193359 0)"/>
     </g>
    </g>
   </g>
   <g id="text_6">
    <g clip-path="url(#pbc4937b0cd)">
     <!-- textil -->
     <g transform="translate(316.066665 211.820267) scale(0.08 -0.08)">
      <defs>
       <path id="DejaVuSans-78" d="M 3513 3500 
L 2247 1797 
L 3578 0 
L 2900 0 
L 1881 1375 
L 863 0 
L 184 0 
L 1544 1831 
L 300 3500 
L 978 3500 
L 1906 2253 
L 2834 3500 
L 3513 3500 
z
" transform="scale(0.015625)"/>
      </defs>
      <use xlink:href="#DejaVuSans-74"/>
      <use xlink:href="#DejaVuSans-65" transform="translate(39.208984 0)"/>
      <use xlink:href="#DejaVuSans-78" transform="translate(98.982422 0)"/>
      <use xlink:href="#DejaVuSans-74" transform="translate(158.162109 0)"/>
      <use xlink:href="#DejaVuSans-69" transform="translate(197.371094 0)"/>
      <use xlink:href="#DejaVuSans-6c" transform="translate(225.154297 0)"/>
     </g>
    </g>
   </g>
   <g id="text_7">
    <g clip-path="url(#pbc4937b0cd)">
     <!-- topologia -->
     <g transform="translate(293.259954 257.72797) scale(0.08 -0.08)">
      <defs>
       <path id="DejaVuSans-70" d="M 1159 525 
L 1159 -1331 
L 581 -1331 
L 581 3500 
L 1159 3500 
L 1159 2969 
Q 1341 3281 1617 3432 
Q 1894 3584 2278 3584 
Q 2916 3584 3314 3078 
Q 3713 2572 3713 1747 
Q 3713 922 3314 415 
Q 2916 -91 2278 -91 
Q 1894 -91 1617 61 
Q 1341 213 1159 525 
z
M 3116 1747 
Q 3116 2381 2855 2742 
Q 2594 3103 2138 3103 
Q 1681 3103 1420 2742 
Q 1159 2381 1159 1747 
Q 1159 1113 1420 752 
Q 1681 391 2138 391 
Q 2594 391 2855 752 
Q 3116 1113 3116 1747 
z
" transform="scale(0.015625)"/>
       <path id="DejaVuSans-67" d="M 2906 1791 
Q 2906 2416 2648 2759 
Q 2391 3103 1925 3103 
Q 1463 3103 1205 2759 
Q 947 2416 947 1791 
Q 947 1169 1205 825 
Q 1463 481 1925 481 
Q 2391 481 2648 825 
Q 2906 1169 2906 1791 
z
M 3481 434 
Q 3481 -459 3084 -895 
Q 2688 -1331 1869 -1331 
Q 1566 -1331 1297 -1286 
Q 1028 -1241 775 -1147 
L 775 -588 
Q 1028 -725 1275 -790 
Q 1522 -856 1778 -856 
Q 2344 -856 2625 -561 
Q 2906 -266 2906 331 
L 2906 616 
Q 2728 306 2450 153 
Q 2172 0 1784 0 
Q 1141 0 747 490 
Q 353 981 353 1791 
Q 353 2603 747 3093 
Q 1141 3584 1784 3584 
Q 2172 3584 2450 3431 
Q 2728 3278 2906 2969 
L 2906 3500 
L 3481 3500 
L 3481 434 
z
" transform="scale(0.015625)"/>
      </defs>
      <use xlink:href="#DejaVuSans-74"/>
      <use xlink:href="#DejaVuSans-6f" transform="translate(39.208984 0)"/>
      <use xlink:href="#DejaVuSans-70" transform="translate(100.390625 0)"/>
      <use xlink:href="#DejaVuSans-6f" transform="translate(163.867188 0)"/>
      <use xlink:href="#DejaVuSans-6c" transform="translate(225.048828 0)"/>
      <use xlink:href="#DejaVuSans-6f" transform="translate(252.832031 0)"/>
      <use xlink:href="#DejaVuSans-67" transform="translate(314.013672 0)"/>
      <use xlink:href="#DejaVuSans-69" transform="translate(377.490234 0)"/>
      <use xlink:href="#DejaVuSans-61" transform="translate(405.273438 0)"/>
     </g>
    </g>
   </g>
   <g id="text_8">
    <g clip-path="url(#pbc4937b0cd)">
     <!-- translation -->
     <g transform="translate(561.3361 344.716234) scale(0.08 -0.08)">
      <use xlink:href="#DejaVuSans-74"/>
      <use xlink:href="#DejaVuSans-72" transform="translate(39.208984 0)"/>
      <use xlink:href="#DejaVuSans-61" transform="translate(80.322266 0)"/>
      <use xlink:href="#DejaVuSans-6e" transform="translate(141.601562 0)"/>
      <use xlink:href="#DejaVuSans-73" transform="translate(204.980469 0)"/>
      <use xlink:href="#DejaVuSans-6c" transform="translate(257.080078 0)"/>
      <use xlink:href="#DejaVuSans-61" transform="translate(284.863281 0)"/>
      <use xlink:href="#DejaVuSans-74" transform="translate(346.142578 0)"/>
      <use xlink:href="#DejaVuSans-69" transform="translate(385.351562 0)"/>
      <use xlink:href="#DejaVuSans-6f" transform="translate(413.134766 0)"/>
      <use xlink:href="#DejaVuSans-6e" transform="translate(474.316406 0)"/>
     </g>
    </g>
   </g>
  </g>
 </g>
 <defs>
  <clipPath id="pbc4937b0cd">
   <rect x="10.8" y="10.8" width="626.4" height="482.4"/>
  </clipPath>
 </defs>
</svg>
